%TF.GenerationSoftware,KiCad,Pcbnew,8.0.5*%
%TF.CreationDate,2025-04-28T01:24:49-04:00*%
%TF.ProjectId,CanSat_Power_Management_Board,43616e53-6174-45f5-906f-7765725f4d61,rev?*%
%TF.SameCoordinates,Original*%
%TF.FileFunction,Copper,L3,Inr*%
%TF.FilePolarity,Positive*%
%FSLAX46Y46*%
G04 Gerber Fmt 4.6, Leading zero omitted, Abs format (unit mm)*
G04 Created by KiCad (PCBNEW 8.0.5) date 2025-04-28 01:24:49*
%MOMM*%
%LPD*%
G01*
G04 APERTURE LIST*
G04 Aperture macros list*
%AMRoundRect*
0 Rectangle with rounded corners*
0 $1 Rounding radius*
0 $2 $3 $4 $5 $6 $7 $8 $9 X,Y pos of 4 corners*
0 Add a 4 corners polygon primitive as box body*
4,1,4,$2,$3,$4,$5,$6,$7,$8,$9,$2,$3,0*
0 Add four circle primitives for the rounded corners*
1,1,$1+$1,$2,$3*
1,1,$1+$1,$4,$5*
1,1,$1+$1,$6,$7*
1,1,$1+$1,$8,$9*
0 Add four rect primitives between the rounded corners*
20,1,$1+$1,$2,$3,$4,$5,0*
20,1,$1+$1,$4,$5,$6,$7,0*
20,1,$1+$1,$6,$7,$8,$9,0*
20,1,$1+$1,$8,$9,$2,$3,0*%
G04 Aperture macros list end*
%TA.AperFunction,ComponentPad*%
%ADD10R,1.600000X1.600000*%
%TD*%
%TA.AperFunction,ComponentPad*%
%ADD11C,1.600000*%
%TD*%
%TA.AperFunction,ComponentPad*%
%ADD12R,2.000000X2.000000*%
%TD*%
%TA.AperFunction,ComponentPad*%
%ADD13O,1.600000X1.600000*%
%TD*%
%TA.AperFunction,ComponentPad*%
%ADD14R,3.200000X3.200000*%
%TD*%
%TA.AperFunction,ComponentPad*%
%ADD15O,3.200000X3.200000*%
%TD*%
%TA.AperFunction,ComponentPad*%
%ADD16RoundRect,0.250000X-0.350000X-0.625000X0.350000X-0.625000X0.350000X0.625000X-0.350000X0.625000X0*%
%TD*%
%TA.AperFunction,ComponentPad*%
%ADD17O,1.200000X1.750000*%
%TD*%
%TA.AperFunction,ComponentPad*%
%ADD18C,1.700000*%
%TD*%
%TA.AperFunction,ComponentPad*%
%ADD19R,1.050000X1.500000*%
%TD*%
%TA.AperFunction,ComponentPad*%
%ADD20O,1.050000X1.500000*%
%TD*%
%TA.AperFunction,ComponentPad*%
%ADD21R,1.800000X1.800000*%
%TD*%
%TA.AperFunction,ComponentPad*%
%ADD22O,1.800000X1.800000*%
%TD*%
%TA.AperFunction,ViaPad*%
%ADD23C,0.600000*%
%TD*%
%TA.AperFunction,Conductor*%
%ADD24C,0.200000*%
%TD*%
G04 APERTURE END LIST*
D10*
%TO.N,Net-(U3-THR)*%
%TO.C,C9*%
X169000000Y-106500000D03*
D11*
%TO.N,GND*%
X171500000Y-106500000D03*
%TD*%
D12*
%TO.N,/5V*%
%TO.C,TP4*%
X186250000Y-104250000D03*
%TD*%
D11*
%TO.N,Net-(J4-Pin_1)*%
%TO.C,R9*%
X135750000Y-124157500D03*
D13*
%TO.N,Net-(Q1-G)*%
X135750000Y-116537500D03*
%TD*%
D11*
%TO.N,Net-(R1-Pad1)*%
%TO.C,R1*%
X116500000Y-89690000D03*
D13*
%TO.N,GND*%
X116500000Y-97310000D03*
%TD*%
D10*
%TO.N,GND*%
%TO.C,U3*%
X153200000Y-126950000D03*
D13*
%TO.N,Net-(U3-THR)*%
X153200000Y-129490000D03*
%TO.N,Net-(U3-Q)*%
X153200000Y-132030000D03*
%TO.N,/5V*%
X153200000Y-134570000D03*
%TO.N,Net-(U3-CV)*%
X160820000Y-134570000D03*
%TO.N,Net-(U3-THR)*%
X160820000Y-132030000D03*
%TO.N,Net-(BZ1-Aux)*%
X160820000Y-129490000D03*
%TO.N,/5V*%
X160820000Y-126950000D03*
%TD*%
D12*
%TO.N,Net-(Q1-G)*%
%TO.C,TP5*%
X117500000Y-115250000D03*
%TD*%
D10*
%TO.N,3.3V*%
%TO.C,Cout5*%
X158000000Y-78000000D03*
D11*
%TO.N,GND*%
X161500000Y-78000000D03*
%TD*%
%TO.N,Net-(R5-Pad2)*%
%TO.C,R6*%
X121190000Y-79750000D03*
D13*
%TO.N,ADC*%
X128810000Y-79750000D03*
%TD*%
D14*
%TO.N,/OUT*%
%TO.C,D1*%
X168750000Y-96870000D03*
D15*
%TO.N,GND*%
X168750000Y-81630000D03*
%TD*%
D11*
%TO.N,Net-(U3-CV)*%
%TO.C,C8*%
X169000000Y-119250000D03*
%TO.N,GND*%
X169000000Y-114250000D03*
%TD*%
%TO.N,Net-(J4-Pin_1)*%
%TO.C,R11*%
X131750000Y-124157500D03*
D13*
%TO.N,Net-(Q1-D)*%
X131750000Y-116537500D03*
%TD*%
D11*
%TO.N,Net-(R4-Pad2)*%
%TO.C,R5*%
X128810000Y-83750000D03*
D13*
%TO.N,Net-(R5-Pad2)*%
X121190000Y-83750000D03*
%TD*%
D12*
%TO.N,3.3V*%
%TO.C,TP3*%
X175750000Y-104250000D03*
%TD*%
%TO.N,GND*%
%TO.C,TP7*%
X182750000Y-104250000D03*
%TD*%
D11*
%TO.N,Net-(R7-Pad2)*%
%TO.C,R8*%
X140310000Y-83750000D03*
D13*
%TO.N,7.4V*%
X132690000Y-83750000D03*
%TD*%
D16*
%TO.N,Net-(J4-Pin_2)*%
%TO.C,J5*%
X143250000Y-132550000D03*
D17*
%TO.N,GND*%
X145250000Y-132550000D03*
%TD*%
D18*
%TO.N,Net-(BZ1-Aux)*%
%TO.C,BZ1*%
X153920000Y-121230000D03*
%TO.N,/5V*%
X156460000Y-121230000D03*
%TO.N,GND*%
X159000000Y-121230000D03*
%TO.N,unconnected-(BZ1-B-Pad4)*%
X161540000Y-121230000D03*
%TO.N,unconnected-(BZ1-Pad5)*%
X164080000Y-121230000D03*
%TD*%
D16*
%TO.N,3.3V*%
%TO.C,J3*%
X178500000Y-94200000D03*
D17*
%TO.N,7.4V*%
X180500000Y-94200000D03*
%TO.N,ADC*%
X182500000Y-94200000D03*
%TO.N,GND*%
X184500000Y-94200000D03*
%TD*%
D12*
%TO.N,Net-(Q1-D)*%
%TO.C,TP6*%
X124750000Y-103250000D03*
%TD*%
D16*
%TO.N,7.4V*%
%TO.C,J1*%
X147500000Y-76200000D03*
D17*
%TO.N,Net-(J1-Pin_2)*%
X149500000Y-76200000D03*
%TD*%
D19*
%TO.N,Net-(Q1-D)*%
%TO.C,Q1*%
X127710000Y-111000000D03*
D20*
%TO.N,Net-(Q1-G)*%
X128980000Y-111000000D03*
%TO.N,GND*%
X130250000Y-111000000D03*
%TD*%
D21*
%TO.N,7.4V*%
%TO.C,U1*%
X161700000Y-92450000D03*
D22*
%TO.N,/OUT*%
X158000000Y-90750000D03*
%TO.N,GND*%
X161700000Y-89050000D03*
%TO.N,3.3V*%
X158000000Y-87350000D03*
%TO.N,GND*%
X161700000Y-85650000D03*
%TD*%
D11*
%TO.N,/5V*%
%TO.C,R12*%
X164440000Y-126250000D03*
D13*
%TO.N,Net-(U3-THR)*%
X172060000Y-126250000D03*
%TD*%
D11*
%TO.N,Net-(U3-THR)*%
%TO.C,R13*%
X164440000Y-130250000D03*
D13*
%TO.N,Net-(U3-Q)*%
X172060000Y-130250000D03*
%TD*%
D11*
%TO.N,Net-(R2-Pad1)*%
%TO.C,R3*%
X127000000Y-97310000D03*
D13*
%TO.N,Net-(R1-Pad1)*%
X127000000Y-89690000D03*
%TD*%
D11*
%TO.N,Net-(R2-Pad1)*%
%TO.C,R4*%
X132250000Y-97310000D03*
D13*
%TO.N,Net-(R4-Pad2)*%
X132250000Y-89690000D03*
%TD*%
D11*
%TO.N,ADC*%
%TO.C,R7*%
X132690000Y-79750000D03*
D13*
%TO.N,Net-(R7-Pad2)*%
X140310000Y-79750000D03*
%TD*%
D11*
%TO.N,Net-(R2-Pad1)*%
%TO.C,R2*%
X121750000Y-97310000D03*
D13*
%TO.N,Net-(R1-Pad1)*%
X121750000Y-89690000D03*
%TD*%
D11*
%TO.N,Net-(Q1-G)*%
%TO.C,R10*%
X139190000Y-116537500D03*
D13*
%TO.N,GND*%
X146810000Y-116537500D03*
%TD*%
D16*
%TO.N,Net-(J1-Pin_2)*%
%TO.C,J2*%
X138750000Y-90700000D03*
D17*
%TO.N,GND*%
X140750000Y-90700000D03*
%TD*%
D16*
%TO.N,Net-(J4-Pin_1)*%
%TO.C,J4*%
X143250000Y-126250000D03*
D17*
%TO.N,Net-(J4-Pin_2)*%
X145250000Y-126250000D03*
%TD*%
D12*
%TO.N,7.4V*%
%TO.C,TP2*%
X179250000Y-104250000D03*
%TD*%
%TO.N,ADC*%
%TO.C,TP1*%
X129750000Y-70000000D03*
%TD*%
D23*
%TO.N,GND*%
X166250000Y-99500000D03*
X129250000Y-100500000D03*
X173250000Y-75750000D03*
X173000000Y-98750000D03*
X165500000Y-99500000D03*
X163250000Y-99500000D03*
X176500000Y-92700000D03*
X150500000Y-103500000D03*
X169250000Y-99500000D03*
X149500000Y-107250000D03*
X147250000Y-112250000D03*
X150500000Y-116250000D03*
X141250000Y-100500000D03*
X148750000Y-81750000D03*
X149500000Y-119250000D03*
X154000000Y-77250000D03*
X164750000Y-78750000D03*
X148000000Y-99500000D03*
X168500000Y-99500000D03*
X142750000Y-100500000D03*
X148000000Y-82500000D03*
X160000000Y-75750000D03*
X167750000Y-85750000D03*
X171750000Y-89750000D03*
X173000000Y-97250000D03*
X156250000Y-75750000D03*
X157250000Y-100500000D03*
X180000000Y-79500000D03*
X159250000Y-75000000D03*
X160750000Y-86750000D03*
X132250000Y-100500000D03*
X127000000Y-100500000D03*
X127750000Y-100500000D03*
X167750000Y-100500000D03*
X150500000Y-118500000D03*
X136750000Y-100500000D03*
X145750000Y-99500000D03*
X154000000Y-76500000D03*
X144250000Y-100500000D03*
X144250000Y-90750000D03*
X161750000Y-99500000D03*
X170750000Y-100500000D03*
X161500000Y-75000000D03*
X128500000Y-100500000D03*
X171750000Y-85750000D03*
X164000000Y-99500000D03*
X139750000Y-100500000D03*
X150500000Y-117000000D03*
X151250000Y-100500000D03*
X158500000Y-75000000D03*
X178750000Y-91200000D03*
X149500000Y-116250000D03*
X180000000Y-78750000D03*
X170750000Y-86750000D03*
X145000000Y-97250000D03*
X178750000Y-91950000D03*
X173750000Y-97250000D03*
X156500000Y-100500000D03*
X137500000Y-100500000D03*
X143500000Y-99500000D03*
X154250000Y-100500000D03*
X151000000Y-80250000D03*
X144250000Y-97250000D03*
X171750000Y-87750000D03*
X144250000Y-90000000D03*
X163250000Y-100500000D03*
X180000000Y-84000000D03*
X145000000Y-87000000D03*
X144250000Y-87000000D03*
X159500000Y-99500000D03*
X146500000Y-84000000D03*
X168750000Y-78750000D03*
X151000000Y-79500000D03*
X130000000Y-99500000D03*
X162750000Y-86750000D03*
X165750000Y-79750000D03*
X132250000Y-99500000D03*
X162750000Y-80750000D03*
X158000000Y-99500000D03*
X166000000Y-75750000D03*
X175500000Y-75000000D03*
X146500000Y-84750000D03*
X149500000Y-120000000D03*
X150500000Y-114750000D03*
X172250000Y-99500000D03*
X144250000Y-87750000D03*
X177000000Y-75750000D03*
X180000000Y-84750000D03*
X174000000Y-75000000D03*
X180000000Y-85500000D03*
X163750000Y-81750000D03*
X144250000Y-94250000D03*
X170750000Y-84750000D03*
X165750000Y-81750000D03*
X169250000Y-100500000D03*
X149500000Y-81000000D03*
X145250000Y-114250000D03*
X136750000Y-99500000D03*
X149500000Y-117000000D03*
X167750000Y-89750000D03*
X177250000Y-92950000D03*
X179250000Y-81000000D03*
X178500000Y-75000000D03*
X161000000Y-99500000D03*
X180000000Y-81750000D03*
X150250000Y-81000000D03*
X148250000Y-117250000D03*
X164750000Y-99500000D03*
X160750000Y-84750000D03*
X127000000Y-99500000D03*
X126250000Y-100500000D03*
X175750000Y-93200000D03*
X146500000Y-99500000D03*
X145000000Y-94250000D03*
X166750000Y-84750000D03*
X179250000Y-84750000D03*
X166750000Y-82750000D03*
X149500000Y-109500000D03*
X150500000Y-102750000D03*
X159500000Y-100500000D03*
X152500000Y-78750000D03*
X149500000Y-99500000D03*
X170000000Y-99500000D03*
X148750000Y-100500000D03*
X163000000Y-75000000D03*
X162250000Y-75000000D03*
X150250000Y-80250000D03*
X158500000Y-75750000D03*
X156250000Y-75000000D03*
X150500000Y-120750000D03*
X179250000Y-83250000D03*
X174000000Y-75750000D03*
X149500000Y-108000000D03*
X127500000Y-76250000D03*
X149500000Y-110250000D03*
X139000000Y-99500000D03*
X145000000Y-96500000D03*
X168750000Y-86750000D03*
X162500000Y-99500000D03*
X150500000Y-110250000D03*
X144250000Y-91500000D03*
X163750000Y-79750000D03*
X180000000Y-75750000D03*
X169750000Y-87750000D03*
X161750000Y-87750000D03*
X169750000Y-83750000D03*
X154750000Y-75750000D03*
X170750000Y-88750000D03*
X140500000Y-99500000D03*
X179250000Y-78000000D03*
X167000000Y-99500000D03*
X145750000Y-85500000D03*
X145000000Y-98000000D03*
X163750000Y-75750000D03*
X173750000Y-100500000D03*
X178000000Y-92450000D03*
X141250000Y-99500000D03*
X150500000Y-101250000D03*
X165750000Y-83750000D03*
X164000000Y-100500000D03*
X150500000Y-107250000D03*
X145000000Y-87750000D03*
X144250000Y-88500000D03*
X147250000Y-114250000D03*
X165250000Y-75000000D03*
X152000000Y-100500000D03*
X164750000Y-100500000D03*
X170750000Y-80750000D03*
X146250000Y-113250000D03*
X151750000Y-79500000D03*
X180000000Y-80250000D03*
X150500000Y-111000000D03*
X134500000Y-100500000D03*
X160750000Y-82750000D03*
X142000000Y-100500000D03*
X149500000Y-100500000D03*
X151750000Y-78750000D03*
X155750000Y-100500000D03*
X149500000Y-105000000D03*
X173750000Y-96500000D03*
X144250000Y-96500000D03*
X145000000Y-88500000D03*
X145000000Y-89250000D03*
X180000000Y-82500000D03*
X150500000Y-119250000D03*
X178000000Y-91700000D03*
X161750000Y-79750000D03*
X149500000Y-117750000D03*
X159250000Y-75750000D03*
X147250000Y-99500000D03*
X179400000Y-89200000D03*
X133000000Y-100500000D03*
X171000000Y-75750000D03*
X145000000Y-92250000D03*
X173000000Y-100500000D03*
X171750000Y-75750000D03*
X174750000Y-75750000D03*
X148750000Y-82500000D03*
X157750000Y-75000000D03*
X171750000Y-75000000D03*
X179250000Y-77250000D03*
X177250000Y-92200000D03*
X152000000Y-99500000D03*
X167000000Y-100500000D03*
X145250000Y-116250000D03*
X143250000Y-114250000D03*
X138250000Y-99500000D03*
X179250000Y-75750000D03*
X146500000Y-100500000D03*
X164750000Y-88750000D03*
X164750000Y-82750000D03*
X138250000Y-100500000D03*
X179250000Y-76500000D03*
X130000000Y-100500000D03*
X168500000Y-100500000D03*
X146500000Y-115250000D03*
X164500000Y-75000000D03*
X155500000Y-75750000D03*
X155750000Y-99500000D03*
X142750000Y-99500000D03*
X176250000Y-75000000D03*
X145000000Y-100500000D03*
X144250000Y-89250000D03*
X179250000Y-79500000D03*
X180000000Y-76500000D03*
X147250000Y-84000000D03*
X145000000Y-90750000D03*
X179400000Y-90700000D03*
X173000000Y-96500000D03*
X142000000Y-99500000D03*
X145000000Y-90000000D03*
X135250000Y-99500000D03*
X173000000Y-95000000D03*
X171000000Y-75000000D03*
X177750000Y-75750000D03*
X127750000Y-99500000D03*
X157000000Y-75000000D03*
X133000000Y-99500000D03*
X163750000Y-89750000D03*
X145000000Y-91500000D03*
X145750000Y-84750000D03*
X148750000Y-99500000D03*
X150500000Y-115500000D03*
X155500000Y-75000000D03*
X179250000Y-81750000D03*
X180000000Y-78000000D03*
X144250000Y-115250000D03*
X150500000Y-102000000D03*
X170750000Y-99500000D03*
X180000000Y-81000000D03*
X163750000Y-75000000D03*
X157000000Y-75750000D03*
X150500000Y-104250000D03*
X174750000Y-75000000D03*
X147250000Y-83250000D03*
X135250000Y-100500000D03*
X160750000Y-75750000D03*
X145000000Y-98750000D03*
X152750000Y-99500000D03*
X161750000Y-100500000D03*
X133750000Y-100500000D03*
X130750000Y-100500000D03*
X176500000Y-93450000D03*
X148250000Y-115250000D03*
X176250000Y-75750000D03*
X143500000Y-100500000D03*
X145000000Y-85500000D03*
X134500000Y-99500000D03*
X149500000Y-120750000D03*
X167750000Y-83750000D03*
X150500000Y-108000000D03*
X177750000Y-75000000D03*
X139000000Y-100500000D03*
X145750000Y-100500000D03*
X165750000Y-89750000D03*
X139750000Y-99500000D03*
X150500000Y-109500000D03*
X167750000Y-99500000D03*
X173000000Y-95750000D03*
X154250000Y-99500000D03*
X179250000Y-82500000D03*
X157250000Y-99500000D03*
X179250000Y-75000000D03*
X169750000Y-79750000D03*
X162750000Y-78750000D03*
X166750000Y-78750000D03*
X145000000Y-95750000D03*
X160250000Y-99500000D03*
X177000000Y-75000000D03*
X164500000Y-75750000D03*
X149500000Y-105750000D03*
X160000000Y-75000000D03*
X171750000Y-81750000D03*
X144250000Y-92250000D03*
X153250000Y-77250000D03*
X144250000Y-95750000D03*
X153500000Y-100500000D03*
X149500000Y-115500000D03*
X149500000Y-101250000D03*
X160750000Y-75000000D03*
X155000000Y-99500000D03*
X153250000Y-78000000D03*
X144250000Y-98750000D03*
X173250000Y-75000000D03*
X130750000Y-99500000D03*
X179250000Y-80250000D03*
X145000000Y-86250000D03*
X150500000Y-105750000D03*
X149500000Y-102750000D03*
X178500000Y-75750000D03*
X170250000Y-75000000D03*
X148000000Y-83250000D03*
X175500000Y-75750000D03*
X152500000Y-78000000D03*
X150500000Y-117750000D03*
X150500000Y-120000000D03*
X163750000Y-77750000D03*
X166750000Y-88750000D03*
X167750000Y-77750000D03*
X173750000Y-98750000D03*
X172750000Y-86750000D03*
X166750000Y-80750000D03*
X149500000Y-103500000D03*
X180000000Y-77250000D03*
X170250000Y-75750000D03*
X149500000Y-114000000D03*
X173000000Y-98000000D03*
X166250000Y-100500000D03*
X158750000Y-99500000D03*
X144250000Y-95000000D03*
X152750000Y-100500000D03*
X143250000Y-116250000D03*
X171500000Y-100500000D03*
X163750000Y-87750000D03*
X162250000Y-75750000D03*
X161750000Y-83750000D03*
X156500000Y-99500000D03*
X161000000Y-100500000D03*
X158750000Y-100500000D03*
X165250000Y-75750000D03*
X169500000Y-75000000D03*
X167750000Y-79750000D03*
X145000000Y-95000000D03*
X149500000Y-118500000D03*
X180000000Y-83250000D03*
X136000000Y-99500000D03*
X163750000Y-85750000D03*
X173000000Y-99500000D03*
X179400000Y-89950000D03*
X158000000Y-100500000D03*
X162750000Y-84750000D03*
X155000000Y-100500000D03*
X163000000Y-75750000D03*
X173750000Y-83750000D03*
X144250000Y-98000000D03*
X150500000Y-108750000D03*
X145000000Y-99500000D03*
X149500000Y-113250000D03*
X153500000Y-99500000D03*
X126250000Y-99500000D03*
X179250000Y-84000000D03*
X136000000Y-100500000D03*
X165500000Y-100500000D03*
X170750000Y-82750000D03*
X128500000Y-99500000D03*
X144250000Y-99500000D03*
X168750000Y-84750000D03*
X150500000Y-106500000D03*
X131500000Y-100500000D03*
X172250000Y-100500000D03*
X131500000Y-99500000D03*
X148250000Y-113250000D03*
X171750000Y-83750000D03*
X144250000Y-117250000D03*
X160250000Y-100500000D03*
X140500000Y-100500000D03*
X172750000Y-82750000D03*
X161500000Y-75750000D03*
X147250000Y-100500000D03*
X151250000Y-99500000D03*
X149500000Y-108750000D03*
X173750000Y-98000000D03*
X148000000Y-100500000D03*
X157750000Y-75750000D03*
X162500000Y-100500000D03*
X150500000Y-100500000D03*
X149500000Y-104250000D03*
X149500000Y-114750000D03*
X173750000Y-95000000D03*
X133750000Y-99500000D03*
X165750000Y-77750000D03*
X149500000Y-106500000D03*
X173750000Y-99500000D03*
X170000000Y-100500000D03*
X169750000Y-85750000D03*
X173750000Y-95750000D03*
X144250000Y-86250000D03*
X172500000Y-75750000D03*
X164750000Y-80750000D03*
X150500000Y-114000000D03*
X179250000Y-78750000D03*
X165750000Y-87750000D03*
X172500000Y-75000000D03*
X137500000Y-99500000D03*
X129250000Y-99500000D03*
X164750000Y-86750000D03*
X150500000Y-99500000D03*
X154750000Y-76500000D03*
X171500000Y-99500000D03*
X149500000Y-81750000D03*
X150500000Y-105000000D03*
X149500000Y-102000000D03*
%TO.N,/5V*%
X148250000Y-110500000D03*
%TO.N,GND*%
X180000000Y-75000000D03*
%TD*%
D24*
%TO.N,Net-(U3-CV)*%
X173500000Y-126750000D02*
X173500000Y-124250000D01*
X169000000Y-119250000D02*
X173500000Y-123750000D01*
X173500000Y-123750000D02*
X173500000Y-124250000D01*
%TO.N,Net-(U3-THR)*%
X172060000Y-126250000D02*
X167000000Y-121190000D01*
X167000000Y-108500000D02*
X169000000Y-106500000D01*
X167000000Y-121190000D02*
X167000000Y-108500000D01*
%TO.N,Net-(U3-CV)*%
X160820000Y-134570000D02*
X165680000Y-134570000D01*
X165680000Y-134570000D02*
X173500000Y-126750000D01*
%TO.N,Net-(BZ1-Aux)*%
X160820000Y-129490000D02*
X153920000Y-122590000D01*
X153920000Y-122590000D02*
X153920000Y-121230000D01*
%TO.N,Net-(U3-THR)*%
X155740000Y-132030000D02*
X153200000Y-129490000D01*
X160820000Y-132030000D02*
X155740000Y-132030000D01*
X169434314Y-130250000D02*
X172060000Y-127624314D01*
X162660000Y-132030000D02*
X164440000Y-130250000D01*
X160820000Y-132030000D02*
X162660000Y-132030000D01*
X172060000Y-127624314D02*
X172060000Y-126250000D01*
X164440000Y-130250000D02*
X169434314Y-130250000D01*
%TO.N,Net-(Q1-G)*%
X125680000Y-115250000D02*
X128980000Y-111950000D01*
X117500000Y-115250000D02*
X125680000Y-115250000D01*
X128980000Y-111950000D02*
X128980000Y-111000000D01*
%TO.N,Net-(U3-Q)*%
X170565686Y-130250000D02*
X172060000Y-130250000D01*
X164815686Y-136000000D02*
X170565686Y-130250000D01*
X153200000Y-132030000D02*
X157170000Y-136000000D01*
X157170000Y-136000000D02*
X164815686Y-136000000D01*
%TD*%
M02*
