%TF.GenerationSoftware,KiCad,Pcbnew,8.0.5*%
%TF.CreationDate,2025-04-28T01:24:50-04:00*%
%TF.ProjectId,CanSat_Power_Management_Board,43616e53-6174-45f5-906f-7765725f4d61,rev?*%
%TF.SameCoordinates,Original*%
%TF.FileFunction,Soldermask,Bot*%
%TF.FilePolarity,Negative*%
%FSLAX46Y46*%
G04 Gerber Fmt 4.6, Leading zero omitted, Abs format (unit mm)*
G04 Created by KiCad (PCBNEW 8.0.5) date 2025-04-28 01:24:50*
%MOMM*%
%LPD*%
G01*
G04 APERTURE LIST*
G04 Aperture macros list*
%AMRoundRect*
0 Rectangle with rounded corners*
0 $1 Rounding radius*
0 $2 $3 $4 $5 $6 $7 $8 $9 X,Y pos of 4 corners*
0 Add a 4 corners polygon primitive as box body*
4,1,4,$2,$3,$4,$5,$6,$7,$8,$9,$2,$3,0*
0 Add four circle primitives for the rounded corners*
1,1,$1+$1,$2,$3*
1,1,$1+$1,$4,$5*
1,1,$1+$1,$6,$7*
1,1,$1+$1,$8,$9*
0 Add four rect primitives between the rounded corners*
20,1,$1+$1,$2,$3,$4,$5,0*
20,1,$1+$1,$4,$5,$6,$7,0*
20,1,$1+$1,$6,$7,$8,$9,0*
20,1,$1+$1,$8,$9,$2,$3,0*%
G04 Aperture macros list end*
%ADD10R,1.600000X1.600000*%
%ADD11C,1.600000*%
%ADD12R,2.000000X2.000000*%
%ADD13O,1.600000X1.600000*%
%ADD14R,3.200000X3.200000*%
%ADD15O,3.200000X3.200000*%
%ADD16RoundRect,0.250000X-0.350000X-0.625000X0.350000X-0.625000X0.350000X0.625000X-0.350000X0.625000X0*%
%ADD17O,1.200000X1.750000*%
%ADD18C,1.700000*%
%ADD19R,1.050000X1.500000*%
%ADD20O,1.050000X1.500000*%
%ADD21R,1.800000X1.800000*%
%ADD22O,1.800000X1.800000*%
%ADD23C,3.000000*%
%ADD24C,5.504000*%
G04 APERTURE END LIST*
D10*
%TO.C,C9*%
X169000000Y-106500000D03*
D11*
X171500000Y-106500000D03*
%TD*%
D12*
%TO.C,TP4*%
X186250000Y-104250000D03*
%TD*%
D11*
%TO.C,R9*%
X135750000Y-124157500D03*
D13*
X135750000Y-116537500D03*
%TD*%
D11*
%TO.C,R1*%
X116500000Y-89690000D03*
D13*
X116500000Y-97310000D03*
%TD*%
D10*
%TO.C,U3*%
X153200000Y-126950000D03*
D13*
X153200000Y-129490000D03*
X153200000Y-132030000D03*
X153200000Y-134570000D03*
X160820000Y-134570000D03*
X160820000Y-132030000D03*
X160820000Y-129490000D03*
X160820000Y-126950000D03*
%TD*%
D12*
%TO.C,TP5*%
X117500000Y-115250000D03*
%TD*%
D10*
%TO.C,Cout5*%
X158000000Y-78000000D03*
D11*
X161500000Y-78000000D03*
%TD*%
%TO.C,R6*%
X121190000Y-79750000D03*
D13*
X128810000Y-79750000D03*
%TD*%
D14*
%TO.C,D1*%
X168750000Y-96870000D03*
D15*
X168750000Y-81630000D03*
%TD*%
D11*
%TO.C,C8*%
X169000000Y-119250000D03*
X169000000Y-114250000D03*
%TD*%
%TO.C,R11*%
X131750000Y-124157500D03*
D13*
X131750000Y-116537500D03*
%TD*%
D11*
%TO.C,R5*%
X128810000Y-83750000D03*
D13*
X121190000Y-83750000D03*
%TD*%
D12*
%TO.C,TP3*%
X175750000Y-104250000D03*
%TD*%
%TO.C,TP7*%
X182750000Y-104250000D03*
%TD*%
D11*
%TO.C,R8*%
X140310000Y-83750000D03*
D13*
X132690000Y-83750000D03*
%TD*%
D16*
%TO.C,J5*%
X143250000Y-132550000D03*
D17*
X145250000Y-132550000D03*
%TD*%
D18*
%TO.C,BZ1*%
X153920000Y-121230000D03*
X156460000Y-121230000D03*
X159000000Y-121230000D03*
X161540000Y-121230000D03*
X164080000Y-121230000D03*
%TD*%
D16*
%TO.C,J3*%
X178500000Y-94200000D03*
D17*
X180500000Y-94200000D03*
X182500000Y-94200000D03*
X184500000Y-94200000D03*
%TD*%
D12*
%TO.C,TP6*%
X124750000Y-103250000D03*
%TD*%
D16*
%TO.C,J1*%
X147500000Y-76200000D03*
D17*
X149500000Y-76200000D03*
%TD*%
D19*
%TO.C,Q1*%
X127710000Y-111000000D03*
D20*
X128980000Y-111000000D03*
X130250000Y-111000000D03*
%TD*%
D21*
%TO.C,U1*%
X161700000Y-92450000D03*
D22*
X158000000Y-90750000D03*
X161700000Y-89050000D03*
X158000000Y-87350000D03*
X161700000Y-85650000D03*
%TD*%
D11*
%TO.C,R12*%
X164440000Y-126250000D03*
D13*
X172060000Y-126250000D03*
%TD*%
D11*
%TO.C,R13*%
X164440000Y-130250000D03*
D13*
X172060000Y-130250000D03*
%TD*%
D11*
%TO.C,R3*%
X127000000Y-97310000D03*
D13*
X127000000Y-89690000D03*
%TD*%
D11*
%TO.C,R4*%
X132250000Y-97310000D03*
D13*
X132250000Y-89690000D03*
%TD*%
D11*
%TO.C,R7*%
X132690000Y-79750000D03*
D13*
X140310000Y-79750000D03*
%TD*%
D11*
%TO.C,R2*%
X121750000Y-97310000D03*
D13*
X121750000Y-89690000D03*
%TD*%
D11*
%TO.C,R10*%
X139190000Y-116537500D03*
D13*
X146810000Y-116537500D03*
%TD*%
D16*
%TO.C,J2*%
X138750000Y-90700000D03*
D17*
X140750000Y-90700000D03*
%TD*%
D16*
%TO.C,J4*%
X143250000Y-126250000D03*
D17*
X145250000Y-126250000D03*
%TD*%
D12*
%TO.C,TP2*%
X179250000Y-104250000D03*
%TD*%
%TO.C,TP1*%
X129750000Y-70000000D03*
%TD*%
D23*
%TO.C,REF\u002A\u002A*%
X191500000Y-85000000D03*
D24*
X191500000Y-85000000D03*
%TD*%
D23*
%TO.C,REF\u002A\u002A*%
X108500000Y-115000000D03*
D24*
X108500000Y-115000000D03*
%TD*%
D23*
%TO.C,REF\u002A\u002A*%
X108500000Y-85000000D03*
D24*
X108500000Y-85000000D03*
%TD*%
D23*
%TO.C,REF\u002A\u002A*%
X191500000Y-115000000D03*
D24*
X191500000Y-115000000D03*
%TD*%
M02*
