%TF.GenerationSoftware,KiCad,Pcbnew,8.0.5*%
%TF.CreationDate,2025-04-28T01:24:49-04:00*%
%TF.ProjectId,CanSat_Power_Management_Board,43616e53-6174-45f5-906f-7765725f4d61,rev?*%
%TF.SameCoordinates,Original*%
%TF.FileFunction,Copper,L2,Inr*%
%TF.FilePolarity,Positive*%
%FSLAX46Y46*%
G04 Gerber Fmt 4.6, Leading zero omitted, Abs format (unit mm)*
G04 Created by KiCad (PCBNEW 8.0.5) date 2025-04-28 01:24:49*
%MOMM*%
%LPD*%
G01*
G04 APERTURE LIST*
G04 Aperture macros list*
%AMRoundRect*
0 Rectangle with rounded corners*
0 $1 Rounding radius*
0 $2 $3 $4 $5 $6 $7 $8 $9 X,Y pos of 4 corners*
0 Add a 4 corners polygon primitive as box body*
4,1,4,$2,$3,$4,$5,$6,$7,$8,$9,$2,$3,0*
0 Add four circle primitives for the rounded corners*
1,1,$1+$1,$2,$3*
1,1,$1+$1,$4,$5*
1,1,$1+$1,$6,$7*
1,1,$1+$1,$8,$9*
0 Add four rect primitives between the rounded corners*
20,1,$1+$1,$2,$3,$4,$5,0*
20,1,$1+$1,$4,$5,$6,$7,0*
20,1,$1+$1,$6,$7,$8,$9,0*
20,1,$1+$1,$8,$9,$2,$3,0*%
G04 Aperture macros list end*
%TA.AperFunction,ComponentPad*%
%ADD10R,1.600000X1.600000*%
%TD*%
%TA.AperFunction,ComponentPad*%
%ADD11C,1.600000*%
%TD*%
%TA.AperFunction,ComponentPad*%
%ADD12R,2.000000X2.000000*%
%TD*%
%TA.AperFunction,ComponentPad*%
%ADD13O,1.600000X1.600000*%
%TD*%
%TA.AperFunction,ComponentPad*%
%ADD14R,3.200000X3.200000*%
%TD*%
%TA.AperFunction,ComponentPad*%
%ADD15O,3.200000X3.200000*%
%TD*%
%TA.AperFunction,ComponentPad*%
%ADD16RoundRect,0.250000X-0.350000X-0.625000X0.350000X-0.625000X0.350000X0.625000X-0.350000X0.625000X0*%
%TD*%
%TA.AperFunction,ComponentPad*%
%ADD17O,1.200000X1.750000*%
%TD*%
%TA.AperFunction,ComponentPad*%
%ADD18C,1.700000*%
%TD*%
%TA.AperFunction,ComponentPad*%
%ADD19R,1.050000X1.500000*%
%TD*%
%TA.AperFunction,ComponentPad*%
%ADD20O,1.050000X1.500000*%
%TD*%
%TA.AperFunction,ComponentPad*%
%ADD21R,1.800000X1.800000*%
%TD*%
%TA.AperFunction,ComponentPad*%
%ADD22O,1.800000X1.800000*%
%TD*%
%TA.AperFunction,ViaPad*%
%ADD23C,0.600000*%
%TD*%
G04 APERTURE END LIST*
D10*
%TO.N,Net-(U3-THR)*%
%TO.C,C9*%
X169000000Y-106500000D03*
D11*
%TO.N,GND*%
X171500000Y-106500000D03*
%TD*%
D12*
%TO.N,/5V*%
%TO.C,TP4*%
X186250000Y-104250000D03*
%TD*%
D11*
%TO.N,Net-(J4-Pin_1)*%
%TO.C,R9*%
X135750000Y-124157500D03*
D13*
%TO.N,Net-(Q1-G)*%
X135750000Y-116537500D03*
%TD*%
D11*
%TO.N,Net-(R1-Pad1)*%
%TO.C,R1*%
X116500000Y-89690000D03*
D13*
%TO.N,GND*%
X116500000Y-97310000D03*
%TD*%
D10*
%TO.N,GND*%
%TO.C,U3*%
X153200000Y-126950000D03*
D13*
%TO.N,Net-(U3-THR)*%
X153200000Y-129490000D03*
%TO.N,Net-(U3-Q)*%
X153200000Y-132030000D03*
%TO.N,/5V*%
X153200000Y-134570000D03*
%TO.N,Net-(U3-CV)*%
X160820000Y-134570000D03*
%TO.N,Net-(U3-THR)*%
X160820000Y-132030000D03*
%TO.N,Net-(BZ1-Aux)*%
X160820000Y-129490000D03*
%TO.N,/5V*%
X160820000Y-126950000D03*
%TD*%
D12*
%TO.N,Net-(Q1-G)*%
%TO.C,TP5*%
X117500000Y-115250000D03*
%TD*%
D10*
%TO.N,3.3V*%
%TO.C,Cout5*%
X158000000Y-78000000D03*
D11*
%TO.N,GND*%
X161500000Y-78000000D03*
%TD*%
%TO.N,Net-(R5-Pad2)*%
%TO.C,R6*%
X121190000Y-79750000D03*
D13*
%TO.N,ADC*%
X128810000Y-79750000D03*
%TD*%
D14*
%TO.N,/OUT*%
%TO.C,D1*%
X168750000Y-96870000D03*
D15*
%TO.N,GND*%
X168750000Y-81630000D03*
%TD*%
D11*
%TO.N,Net-(U3-CV)*%
%TO.C,C8*%
X169000000Y-119250000D03*
%TO.N,GND*%
X169000000Y-114250000D03*
%TD*%
%TO.N,Net-(J4-Pin_1)*%
%TO.C,R11*%
X131750000Y-124157500D03*
D13*
%TO.N,Net-(Q1-D)*%
X131750000Y-116537500D03*
%TD*%
D11*
%TO.N,Net-(R4-Pad2)*%
%TO.C,R5*%
X128810000Y-83750000D03*
D13*
%TO.N,Net-(R5-Pad2)*%
X121190000Y-83750000D03*
%TD*%
D12*
%TO.N,3.3V*%
%TO.C,TP3*%
X175750000Y-104250000D03*
%TD*%
%TO.N,GND*%
%TO.C,TP7*%
X182750000Y-104250000D03*
%TD*%
D11*
%TO.N,Net-(R7-Pad2)*%
%TO.C,R8*%
X140310000Y-83750000D03*
D13*
%TO.N,7.4V*%
X132690000Y-83750000D03*
%TD*%
D16*
%TO.N,Net-(J4-Pin_2)*%
%TO.C,J5*%
X143250000Y-132550000D03*
D17*
%TO.N,GND*%
X145250000Y-132550000D03*
%TD*%
D18*
%TO.N,Net-(BZ1-Aux)*%
%TO.C,BZ1*%
X153920000Y-121230000D03*
%TO.N,/5V*%
X156460000Y-121230000D03*
%TO.N,GND*%
X159000000Y-121230000D03*
%TO.N,unconnected-(BZ1-B-Pad4)*%
X161540000Y-121230000D03*
%TO.N,unconnected-(BZ1-Pad5)*%
X164080000Y-121230000D03*
%TD*%
D16*
%TO.N,3.3V*%
%TO.C,J3*%
X178500000Y-94200000D03*
D17*
%TO.N,7.4V*%
X180500000Y-94200000D03*
%TO.N,ADC*%
X182500000Y-94200000D03*
%TO.N,GND*%
X184500000Y-94200000D03*
%TD*%
D12*
%TO.N,Net-(Q1-D)*%
%TO.C,TP6*%
X124750000Y-103250000D03*
%TD*%
D16*
%TO.N,7.4V*%
%TO.C,J1*%
X147500000Y-76200000D03*
D17*
%TO.N,Net-(J1-Pin_2)*%
X149500000Y-76200000D03*
%TD*%
D19*
%TO.N,Net-(Q1-D)*%
%TO.C,Q1*%
X127710000Y-111000000D03*
D20*
%TO.N,Net-(Q1-G)*%
X128980000Y-111000000D03*
%TO.N,GND*%
X130250000Y-111000000D03*
%TD*%
D21*
%TO.N,7.4V*%
%TO.C,U1*%
X161700000Y-92450000D03*
D22*
%TO.N,/OUT*%
X158000000Y-90750000D03*
%TO.N,GND*%
X161700000Y-89050000D03*
%TO.N,3.3V*%
X158000000Y-87350000D03*
%TO.N,GND*%
X161700000Y-85650000D03*
%TD*%
D11*
%TO.N,/5V*%
%TO.C,R12*%
X164440000Y-126250000D03*
D13*
%TO.N,Net-(U3-THR)*%
X172060000Y-126250000D03*
%TD*%
D11*
%TO.N,Net-(U3-THR)*%
%TO.C,R13*%
X164440000Y-130250000D03*
D13*
%TO.N,Net-(U3-Q)*%
X172060000Y-130250000D03*
%TD*%
D11*
%TO.N,Net-(R2-Pad1)*%
%TO.C,R3*%
X127000000Y-97310000D03*
D13*
%TO.N,Net-(R1-Pad1)*%
X127000000Y-89690000D03*
%TD*%
D11*
%TO.N,Net-(R2-Pad1)*%
%TO.C,R4*%
X132250000Y-97310000D03*
D13*
%TO.N,Net-(R4-Pad2)*%
X132250000Y-89690000D03*
%TD*%
D11*
%TO.N,ADC*%
%TO.C,R7*%
X132690000Y-79750000D03*
D13*
%TO.N,Net-(R7-Pad2)*%
X140310000Y-79750000D03*
%TD*%
D11*
%TO.N,Net-(R2-Pad1)*%
%TO.C,R2*%
X121750000Y-97310000D03*
D13*
%TO.N,Net-(R1-Pad1)*%
X121750000Y-89690000D03*
%TD*%
D11*
%TO.N,Net-(Q1-G)*%
%TO.C,R10*%
X139190000Y-116537500D03*
D13*
%TO.N,GND*%
X146810000Y-116537500D03*
%TD*%
D16*
%TO.N,Net-(J1-Pin_2)*%
%TO.C,J2*%
X138750000Y-90700000D03*
D17*
%TO.N,GND*%
X140750000Y-90700000D03*
%TD*%
D16*
%TO.N,Net-(J4-Pin_1)*%
%TO.C,J4*%
X143250000Y-126250000D03*
D17*
%TO.N,Net-(J4-Pin_2)*%
X145250000Y-126250000D03*
%TD*%
D12*
%TO.N,7.4V*%
%TO.C,TP2*%
X179250000Y-104250000D03*
%TD*%
%TO.N,ADC*%
%TO.C,TP1*%
X129750000Y-70000000D03*
%TD*%
D23*
%TO.N,GND*%
X166250000Y-99500000D03*
X129250000Y-100500000D03*
X173250000Y-75750000D03*
X173000000Y-98750000D03*
X165500000Y-99500000D03*
X163250000Y-99500000D03*
X176500000Y-92700000D03*
X150500000Y-103500000D03*
X169250000Y-99500000D03*
X149500000Y-107250000D03*
X147250000Y-112250000D03*
X150500000Y-116250000D03*
X141250000Y-100500000D03*
X148750000Y-81750000D03*
X149500000Y-119250000D03*
X154000000Y-77250000D03*
X164750000Y-78750000D03*
X148000000Y-99500000D03*
X168500000Y-99500000D03*
X142750000Y-100500000D03*
X148000000Y-82500000D03*
X160000000Y-75750000D03*
X167750000Y-85750000D03*
X171750000Y-89750000D03*
X173000000Y-97250000D03*
X156250000Y-75750000D03*
X157250000Y-100500000D03*
X180000000Y-79500000D03*
X159250000Y-75000000D03*
X160750000Y-86750000D03*
X132250000Y-100500000D03*
X127000000Y-100500000D03*
X127750000Y-100500000D03*
X167750000Y-100500000D03*
X150500000Y-118500000D03*
X136750000Y-100500000D03*
X145750000Y-99500000D03*
X154000000Y-76500000D03*
X144250000Y-100500000D03*
X144250000Y-90750000D03*
X161750000Y-99500000D03*
X170750000Y-100500000D03*
X161500000Y-75000000D03*
X128500000Y-100500000D03*
X171750000Y-85750000D03*
X164000000Y-99500000D03*
X139750000Y-100500000D03*
X150500000Y-117000000D03*
X151250000Y-100500000D03*
X158500000Y-75000000D03*
X178750000Y-91200000D03*
X149500000Y-116250000D03*
X180000000Y-78750000D03*
X170750000Y-86750000D03*
X145000000Y-97250000D03*
X178750000Y-91950000D03*
X173750000Y-97250000D03*
X156500000Y-100500000D03*
X137500000Y-100500000D03*
X143500000Y-99500000D03*
X154250000Y-100500000D03*
X151000000Y-80250000D03*
X144250000Y-97250000D03*
X171750000Y-87750000D03*
X144250000Y-90000000D03*
X163250000Y-100500000D03*
X180000000Y-84000000D03*
X145000000Y-87000000D03*
X144250000Y-87000000D03*
X159500000Y-99500000D03*
X146500000Y-84000000D03*
X168750000Y-78750000D03*
X151000000Y-79500000D03*
X130000000Y-99500000D03*
X162750000Y-86750000D03*
X165750000Y-79750000D03*
X132250000Y-99500000D03*
X162750000Y-80750000D03*
X158000000Y-99500000D03*
X166000000Y-75750000D03*
X175500000Y-75000000D03*
X146500000Y-84750000D03*
X149500000Y-120000000D03*
X150500000Y-114750000D03*
X172250000Y-99500000D03*
X144250000Y-87750000D03*
X177000000Y-75750000D03*
X180000000Y-84750000D03*
X174000000Y-75000000D03*
X180000000Y-85500000D03*
X163750000Y-81750000D03*
X144250000Y-94250000D03*
X170750000Y-84750000D03*
X165750000Y-81750000D03*
X169250000Y-100500000D03*
X149500000Y-81000000D03*
X145250000Y-114250000D03*
X136750000Y-99500000D03*
X149500000Y-117000000D03*
X167750000Y-89750000D03*
X177250000Y-92950000D03*
X179250000Y-81000000D03*
X178500000Y-75000000D03*
X161000000Y-99500000D03*
X180000000Y-81750000D03*
X150250000Y-81000000D03*
X148250000Y-117250000D03*
X164750000Y-99500000D03*
X160750000Y-84750000D03*
X127000000Y-99500000D03*
X126250000Y-100500000D03*
X175750000Y-93200000D03*
X146500000Y-99500000D03*
X145000000Y-94250000D03*
X166750000Y-84750000D03*
X179250000Y-84750000D03*
X166750000Y-82750000D03*
X149500000Y-109500000D03*
X150500000Y-102750000D03*
X159500000Y-100500000D03*
X152500000Y-78750000D03*
X149500000Y-99500000D03*
X170000000Y-99500000D03*
X148750000Y-100500000D03*
X163000000Y-75000000D03*
X162250000Y-75000000D03*
X150250000Y-80250000D03*
X158500000Y-75750000D03*
X156250000Y-75000000D03*
X150500000Y-120750000D03*
X179250000Y-83250000D03*
X174000000Y-75750000D03*
X149500000Y-108000000D03*
X127500000Y-76250000D03*
X149500000Y-110250000D03*
X139000000Y-99500000D03*
X145000000Y-96500000D03*
X168750000Y-86750000D03*
X162500000Y-99500000D03*
X150500000Y-110250000D03*
X144250000Y-91500000D03*
X163750000Y-79750000D03*
X180000000Y-75750000D03*
X169750000Y-87750000D03*
X161750000Y-87750000D03*
X169750000Y-83750000D03*
X154750000Y-75750000D03*
X170750000Y-88750000D03*
X140500000Y-99500000D03*
X179250000Y-78000000D03*
X167000000Y-99500000D03*
X145750000Y-85500000D03*
X145000000Y-98000000D03*
X163750000Y-75750000D03*
X173750000Y-100500000D03*
X178000000Y-92450000D03*
X141250000Y-99500000D03*
X150500000Y-101250000D03*
X165750000Y-83750000D03*
X164000000Y-100500000D03*
X150500000Y-107250000D03*
X145000000Y-87750000D03*
X144250000Y-88500000D03*
X147250000Y-114250000D03*
X165250000Y-75000000D03*
X152000000Y-100500000D03*
X164750000Y-100500000D03*
X170750000Y-80750000D03*
X146250000Y-113250000D03*
X151750000Y-79500000D03*
X180000000Y-80250000D03*
X150500000Y-111000000D03*
X134500000Y-100500000D03*
X160750000Y-82750000D03*
X142000000Y-100500000D03*
X149500000Y-100500000D03*
X151750000Y-78750000D03*
X155750000Y-100500000D03*
X149500000Y-105000000D03*
X173750000Y-96500000D03*
X144250000Y-96500000D03*
X145000000Y-88500000D03*
X145000000Y-89250000D03*
X180000000Y-82500000D03*
X150500000Y-119250000D03*
X178000000Y-91700000D03*
X161750000Y-79750000D03*
X149500000Y-117750000D03*
X159250000Y-75750000D03*
X147250000Y-99500000D03*
X179400000Y-89200000D03*
X133000000Y-100500000D03*
X171000000Y-75750000D03*
X145000000Y-92250000D03*
X173000000Y-100500000D03*
X171750000Y-75750000D03*
X174750000Y-75750000D03*
X148750000Y-82500000D03*
X157750000Y-75000000D03*
X171750000Y-75000000D03*
X179250000Y-77250000D03*
X177250000Y-92200000D03*
X152000000Y-99500000D03*
X167000000Y-100500000D03*
X145250000Y-116250000D03*
X143250000Y-114250000D03*
X138250000Y-99500000D03*
X179250000Y-75750000D03*
X146500000Y-100500000D03*
X164750000Y-88750000D03*
X164750000Y-82750000D03*
X138250000Y-100500000D03*
X179250000Y-76500000D03*
X130000000Y-100500000D03*
X168500000Y-100500000D03*
X146500000Y-115250000D03*
X164500000Y-75000000D03*
X155500000Y-75750000D03*
X155750000Y-99500000D03*
X142750000Y-99500000D03*
X176250000Y-75000000D03*
X145000000Y-100500000D03*
X144250000Y-89250000D03*
X179250000Y-79500000D03*
X180000000Y-76500000D03*
X147250000Y-84000000D03*
X145000000Y-90750000D03*
X179400000Y-90700000D03*
X173000000Y-96500000D03*
X142000000Y-99500000D03*
X145000000Y-90000000D03*
X135250000Y-99500000D03*
X173000000Y-95000000D03*
X171000000Y-75000000D03*
X177750000Y-75750000D03*
X127750000Y-99500000D03*
X157000000Y-75000000D03*
X133000000Y-99500000D03*
X163750000Y-89750000D03*
X145000000Y-91500000D03*
X145750000Y-84750000D03*
X148750000Y-99500000D03*
X150500000Y-115500000D03*
X155500000Y-75000000D03*
X179250000Y-81750000D03*
X180000000Y-78000000D03*
X144250000Y-115250000D03*
X150500000Y-102000000D03*
X170750000Y-99500000D03*
X180000000Y-81000000D03*
X163750000Y-75000000D03*
X157000000Y-75750000D03*
X150500000Y-104250000D03*
X174750000Y-75000000D03*
X147250000Y-83250000D03*
X135250000Y-100500000D03*
X160750000Y-75750000D03*
X145000000Y-98750000D03*
X152750000Y-99500000D03*
X161750000Y-100500000D03*
X133750000Y-100500000D03*
X130750000Y-100500000D03*
X176500000Y-93450000D03*
X148250000Y-115250000D03*
X176250000Y-75750000D03*
X143500000Y-100500000D03*
X145000000Y-85500000D03*
X134500000Y-99500000D03*
X149500000Y-120750000D03*
X167750000Y-83750000D03*
X150500000Y-108000000D03*
X177750000Y-75000000D03*
X139000000Y-100500000D03*
X145750000Y-100500000D03*
X165750000Y-89750000D03*
X139750000Y-99500000D03*
X150500000Y-109500000D03*
X167750000Y-99500000D03*
X173000000Y-95750000D03*
X154250000Y-99500000D03*
X179250000Y-82500000D03*
X157250000Y-99500000D03*
X179250000Y-75000000D03*
X169750000Y-79750000D03*
X162750000Y-78750000D03*
X166750000Y-78750000D03*
X145000000Y-95750000D03*
X160250000Y-99500000D03*
X177000000Y-75000000D03*
X164500000Y-75750000D03*
X149500000Y-105750000D03*
X160000000Y-75000000D03*
X171750000Y-81750000D03*
X144250000Y-92250000D03*
X153250000Y-77250000D03*
X144250000Y-95750000D03*
X153500000Y-100500000D03*
X149500000Y-115500000D03*
X149500000Y-101250000D03*
X160750000Y-75000000D03*
X155000000Y-99500000D03*
X153250000Y-78000000D03*
X144250000Y-98750000D03*
X173250000Y-75000000D03*
X130750000Y-99500000D03*
X179250000Y-80250000D03*
X145000000Y-86250000D03*
X150500000Y-105750000D03*
X149500000Y-102750000D03*
X178500000Y-75750000D03*
X170250000Y-75000000D03*
X148000000Y-83250000D03*
X175500000Y-75750000D03*
X152500000Y-78000000D03*
X150500000Y-117750000D03*
X150500000Y-120000000D03*
X163750000Y-77750000D03*
X166750000Y-88750000D03*
X167750000Y-77750000D03*
X173750000Y-98750000D03*
X172750000Y-86750000D03*
X166750000Y-80750000D03*
X149500000Y-103500000D03*
X180000000Y-77250000D03*
X170250000Y-75750000D03*
X149500000Y-114000000D03*
X173000000Y-98000000D03*
X166250000Y-100500000D03*
X158750000Y-99500000D03*
X144250000Y-95000000D03*
X152750000Y-100500000D03*
X143250000Y-116250000D03*
X171500000Y-100500000D03*
X163750000Y-87750000D03*
X162250000Y-75750000D03*
X161750000Y-83750000D03*
X156500000Y-99500000D03*
X161000000Y-100500000D03*
X158750000Y-100500000D03*
X165250000Y-75750000D03*
X169500000Y-75000000D03*
X167750000Y-79750000D03*
X145000000Y-95000000D03*
X149500000Y-118500000D03*
X180000000Y-83250000D03*
X136000000Y-99500000D03*
X163750000Y-85750000D03*
X173000000Y-99500000D03*
X179400000Y-89950000D03*
X158000000Y-100500000D03*
X162750000Y-84750000D03*
X155000000Y-100500000D03*
X163000000Y-75750000D03*
X173750000Y-83750000D03*
X144250000Y-98000000D03*
X150500000Y-108750000D03*
X145000000Y-99500000D03*
X149500000Y-113250000D03*
X153500000Y-99500000D03*
X126250000Y-99500000D03*
X179250000Y-84000000D03*
X136000000Y-100500000D03*
X165500000Y-100500000D03*
X170750000Y-82750000D03*
X128500000Y-99500000D03*
X144250000Y-99500000D03*
X168750000Y-84750000D03*
X150500000Y-106500000D03*
X131500000Y-100500000D03*
X172250000Y-100500000D03*
X131500000Y-99500000D03*
X148250000Y-113250000D03*
X171750000Y-83750000D03*
X144250000Y-117250000D03*
X160250000Y-100500000D03*
X140500000Y-100500000D03*
X172750000Y-82750000D03*
X161500000Y-75750000D03*
X147250000Y-100500000D03*
X151250000Y-99500000D03*
X149500000Y-108750000D03*
X173750000Y-98000000D03*
X148000000Y-100500000D03*
X157750000Y-75750000D03*
X162500000Y-100500000D03*
X150500000Y-100500000D03*
X149500000Y-104250000D03*
X149500000Y-114750000D03*
X173750000Y-95000000D03*
X133750000Y-99500000D03*
X165750000Y-77750000D03*
X149500000Y-106500000D03*
X173750000Y-99500000D03*
X170000000Y-100500000D03*
X169750000Y-85750000D03*
X173750000Y-95750000D03*
X144250000Y-86250000D03*
X172500000Y-75750000D03*
X164750000Y-80750000D03*
X150500000Y-114000000D03*
X179250000Y-78750000D03*
X165750000Y-87750000D03*
X172500000Y-75000000D03*
X137500000Y-99500000D03*
X129250000Y-99500000D03*
X164750000Y-86750000D03*
X150500000Y-99500000D03*
X154750000Y-76500000D03*
X171500000Y-99500000D03*
X149500000Y-81750000D03*
X150500000Y-105000000D03*
X149500000Y-102000000D03*
%TO.N,/5V*%
X148250000Y-110500000D03*
%TO.N,GND*%
X180000000Y-75000000D03*
%TD*%
%TA.AperFunction,Conductor*%
%TO.N,GND*%
G36*
X151365219Y-53020357D02*
G01*
X151368718Y-53020459D01*
X152731033Y-53079939D01*
X152734536Y-53080144D01*
X154094469Y-53179215D01*
X154098054Y-53179528D01*
X155454574Y-53318116D01*
X155458058Y-53318524D01*
X156809979Y-53496508D01*
X156813477Y-53497020D01*
X158159653Y-53714249D01*
X158163073Y-53714852D01*
X159502379Y-53971145D01*
X159505827Y-53971857D01*
X160837081Y-54266990D01*
X160840589Y-54267821D01*
X162162651Y-54601536D01*
X162166096Y-54602459D01*
X163477897Y-54974486D01*
X163481265Y-54975494D01*
X164675262Y-55351959D01*
X164781749Y-55385535D01*
X164785172Y-55386670D01*
X166073065Y-55834322D01*
X166076417Y-55835541D01*
X167350841Y-56320498D01*
X167354166Y-56321819D01*
X168613931Y-56843631D01*
X168617169Y-56845028D01*
X169678843Y-57321421D01*
X169861191Y-57403244D01*
X169864460Y-57404768D01*
X171091756Y-57998947D01*
X171094913Y-58000533D01*
X171787546Y-58361095D01*
X172304354Y-58630129D01*
X172307529Y-58631840D01*
X172985681Y-59010328D01*
X173498217Y-59296383D01*
X173501304Y-59298166D01*
X174672095Y-59997021D01*
X174675122Y-59998888D01*
X174885645Y-60133006D01*
X175825117Y-60731516D01*
X175828118Y-60733489D01*
X176956327Y-61499259D01*
X176959275Y-61501324D01*
X178064737Y-62299587D01*
X178067552Y-62301683D01*
X179149331Y-63131761D01*
X179152124Y-63133969D01*
X179569402Y-63473888D01*
X180209309Y-63995164D01*
X180212072Y-63997483D01*
X181243718Y-64889024D01*
X181246412Y-64891422D01*
X182251672Y-65812574D01*
X182254296Y-65815049D01*
X183232371Y-66765078D01*
X183234921Y-66767628D01*
X184184950Y-67745703D01*
X184187425Y-67748327D01*
X185108577Y-68753587D01*
X185110975Y-68756281D01*
X186002516Y-69787927D01*
X186004835Y-69790690D01*
X186866016Y-70847857D01*
X186868245Y-70850677D01*
X187698308Y-71932436D01*
X187700420Y-71935273D01*
X188242524Y-72685997D01*
X188498671Y-73040718D01*
X188500740Y-73043672D01*
X189266501Y-74171868D01*
X189268483Y-74174882D01*
X190001098Y-75324856D01*
X190002989Y-75327924D01*
X190120616Y-75524983D01*
X190701822Y-76498677D01*
X190703626Y-76501800D01*
X191368159Y-77692470D01*
X191369870Y-77695645D01*
X191999449Y-78905053D01*
X192001068Y-78908276D01*
X192595231Y-80135539D01*
X192596755Y-80138808D01*
X193154955Y-81382793D01*
X193156384Y-81386105D01*
X193678174Y-82645819D01*
X193679506Y-82649171D01*
X194164451Y-83923564D01*
X194165684Y-83926954D01*
X194613329Y-85214827D01*
X194614464Y-85218250D01*
X195024492Y-86518691D01*
X195025526Y-86522147D01*
X195397534Y-87833883D01*
X195398468Y-87837367D01*
X195732177Y-89159409D01*
X195733009Y-89162918D01*
X196028133Y-90494130D01*
X196028862Y-90497663D01*
X196077149Y-90749993D01*
X196280766Y-91814032D01*
X196285135Y-91836860D01*
X196285759Y-91840401D01*
X196313097Y-92009814D01*
X196502973Y-93186486D01*
X196503496Y-93190055D01*
X196681469Y-94541892D01*
X196681888Y-94545474D01*
X196820470Y-95901941D01*
X196820784Y-95905534D01*
X196919852Y-97265413D01*
X196920062Y-97269014D01*
X196979538Y-98631228D01*
X196979643Y-98634834D01*
X196999473Y-99998197D01*
X196999473Y-100001803D01*
X196979643Y-101365165D01*
X196979538Y-101368771D01*
X196920062Y-102730985D01*
X196919852Y-102734586D01*
X196820784Y-104094465D01*
X196820470Y-104098058D01*
X196681888Y-105454525D01*
X196681469Y-105458107D01*
X196503496Y-106809944D01*
X196502973Y-106813513D01*
X196285761Y-108159587D01*
X196285135Y-108163139D01*
X196028862Y-109502336D01*
X196028133Y-109505869D01*
X195733009Y-110837081D01*
X195732177Y-110840590D01*
X195398468Y-112162632D01*
X195397534Y-112166116D01*
X195025526Y-113477852D01*
X195024492Y-113481308D01*
X194614464Y-114781749D01*
X194613329Y-114785172D01*
X194165684Y-116073045D01*
X194164451Y-116076435D01*
X193679506Y-117350828D01*
X193678174Y-117354180D01*
X193156384Y-118613894D01*
X193154955Y-118617206D01*
X192596755Y-119861191D01*
X192595231Y-119864460D01*
X192001068Y-121091723D01*
X191999449Y-121094946D01*
X191369870Y-122304354D01*
X191368159Y-122307529D01*
X190703626Y-123498199D01*
X190701822Y-123501322D01*
X190002991Y-124672073D01*
X190001098Y-124675143D01*
X189268483Y-125825117D01*
X189266501Y-125828131D01*
X188500740Y-126956327D01*
X188498671Y-126959281D01*
X187700441Y-128064698D01*
X187698287Y-128067591D01*
X186868253Y-129149312D01*
X186866016Y-129152142D01*
X186004835Y-130209309D01*
X186002516Y-130212072D01*
X185110975Y-131243718D01*
X185108577Y-131246412D01*
X184187425Y-132251672D01*
X184184950Y-132254296D01*
X183234921Y-133232371D01*
X183232371Y-133234921D01*
X182254296Y-134184950D01*
X182251672Y-134187425D01*
X181246412Y-135108577D01*
X181243718Y-135110975D01*
X180212072Y-136002516D01*
X180209309Y-136004835D01*
X179152142Y-136866016D01*
X179149312Y-136868253D01*
X178067591Y-137698287D01*
X178064698Y-137700441D01*
X176959281Y-138498671D01*
X176956327Y-138500740D01*
X175828131Y-139266501D01*
X175825117Y-139268483D01*
X174675143Y-140001098D01*
X174672073Y-140002991D01*
X173501322Y-140701822D01*
X173498199Y-140703626D01*
X172307529Y-141368159D01*
X172304354Y-141369870D01*
X171094946Y-141999449D01*
X171091723Y-142001068D01*
X169864460Y-142595231D01*
X169861191Y-142596755D01*
X168617206Y-143154955D01*
X168613894Y-143156384D01*
X167354180Y-143678174D01*
X167350828Y-143679506D01*
X166076435Y-144164451D01*
X166073045Y-144165684D01*
X164785172Y-144613329D01*
X164781749Y-144614464D01*
X163481308Y-145024492D01*
X163477852Y-145025526D01*
X162166116Y-145397534D01*
X162162632Y-145398468D01*
X160840590Y-145732177D01*
X160837081Y-145733009D01*
X159505869Y-146028133D01*
X159502336Y-146028862D01*
X158163139Y-146285135D01*
X158159587Y-146285761D01*
X156813513Y-146502973D01*
X156809944Y-146503496D01*
X155458107Y-146681469D01*
X155454525Y-146681888D01*
X154098058Y-146820470D01*
X154094465Y-146820784D01*
X152734586Y-146919852D01*
X152730985Y-146920062D01*
X151368771Y-146979538D01*
X151365165Y-146979643D01*
X150001803Y-146999473D01*
X149998197Y-146999473D01*
X148634834Y-146979643D01*
X148631228Y-146979538D01*
X147269014Y-146920062D01*
X147265413Y-146919852D01*
X145905534Y-146820784D01*
X145901941Y-146820470D01*
X144545474Y-146681888D01*
X144541892Y-146681469D01*
X143190055Y-146503496D01*
X143186486Y-146502973D01*
X142280420Y-146356763D01*
X141840401Y-146285759D01*
X141836871Y-146285137D01*
X141118656Y-146147697D01*
X140497663Y-146028862D01*
X140494130Y-146028133D01*
X139162918Y-145733009D01*
X139159409Y-145732177D01*
X137837367Y-145398468D01*
X137833883Y-145397534D01*
X136522147Y-145025526D01*
X136518691Y-145024492D01*
X135218250Y-144614464D01*
X135214827Y-144613329D01*
X133926954Y-144165684D01*
X133923564Y-144164451D01*
X132649171Y-143679506D01*
X132645819Y-143678174D01*
X131386105Y-143156384D01*
X131382793Y-143154955D01*
X130138808Y-142596755D01*
X130135539Y-142595231D01*
X128908276Y-142001068D01*
X128905053Y-141999449D01*
X127695645Y-141369870D01*
X127692470Y-141368159D01*
X126501800Y-140703626D01*
X126498677Y-140701822D01*
X125327926Y-140002991D01*
X125324856Y-140001098D01*
X124174882Y-139268483D01*
X124171868Y-139266501D01*
X123043672Y-138500740D01*
X123040718Y-138498671D01*
X122710338Y-138260101D01*
X121935273Y-137700420D01*
X121932436Y-137698308D01*
X120850677Y-136868245D01*
X120847857Y-136866016D01*
X119790690Y-136004835D01*
X119787927Y-136002516D01*
X118756281Y-135110975D01*
X118753587Y-135108577D01*
X117748327Y-134187425D01*
X117745703Y-134184950D01*
X116767628Y-133234921D01*
X116765078Y-133232371D01*
X115815049Y-132254296D01*
X115812574Y-132251672D01*
X115467402Y-131874983D01*
X142149500Y-131874983D01*
X142149500Y-133225001D01*
X142149501Y-133225018D01*
X142160000Y-133327796D01*
X142160001Y-133327799D01*
X142196992Y-133439429D01*
X142215186Y-133494334D01*
X142307288Y-133643656D01*
X142431344Y-133767712D01*
X142580666Y-133859814D01*
X142747203Y-133914999D01*
X142849991Y-133925500D01*
X143650008Y-133925499D01*
X143650016Y-133925498D01*
X143650019Y-133925498D01*
X143706302Y-133919748D01*
X143752797Y-133914999D01*
X143919334Y-133859814D01*
X144068656Y-133767712D01*
X144192712Y-133643656D01*
X144232581Y-133579016D01*
X144284525Y-133532294D01*
X144353488Y-133521071D01*
X144417570Y-133548914D01*
X144425799Y-133556434D01*
X144533397Y-133664032D01*
X144673475Y-133765804D01*
X144827744Y-133844408D01*
X144992415Y-133897914D01*
X144992414Y-133897914D01*
X144999999Y-133899115D01*
X145000000Y-133899114D01*
X145000000Y-132830330D01*
X145019745Y-132850075D01*
X145105255Y-132899444D01*
X145200630Y-132925000D01*
X145299370Y-132925000D01*
X145394745Y-132899444D01*
X145480255Y-132850075D01*
X145500000Y-132830330D01*
X145500000Y-133899115D01*
X145507584Y-133897914D01*
X145672255Y-133844408D01*
X145826524Y-133765804D01*
X145966602Y-133664032D01*
X146089032Y-133541602D01*
X146190804Y-133401524D01*
X146269408Y-133247257D01*
X146322914Y-133082584D01*
X146350000Y-132911571D01*
X146350000Y-132800000D01*
X145530330Y-132800000D01*
X145550075Y-132780255D01*
X145599444Y-132694745D01*
X145625000Y-132599370D01*
X145625000Y-132500630D01*
X145599444Y-132405255D01*
X145550075Y-132319745D01*
X145530330Y-132300000D01*
X146350000Y-132300000D01*
X146350000Y-132188428D01*
X146322914Y-132017415D01*
X146269408Y-131852742D01*
X146190804Y-131698475D01*
X146089032Y-131558397D01*
X145966602Y-131435967D01*
X145826524Y-131334195D01*
X145672257Y-131255591D01*
X145507589Y-131202087D01*
X145507581Y-131202085D01*
X145500000Y-131200884D01*
X145500000Y-132269670D01*
X145480255Y-132249925D01*
X145394745Y-132200556D01*
X145299370Y-132175000D01*
X145200630Y-132175000D01*
X145105255Y-132200556D01*
X145019745Y-132249925D01*
X145000000Y-132269670D01*
X145000000Y-131200884D01*
X144999999Y-131200884D01*
X144992418Y-131202085D01*
X144992410Y-131202087D01*
X144827742Y-131255591D01*
X144673475Y-131334195D01*
X144533401Y-131435964D01*
X144425799Y-131543566D01*
X144364476Y-131577050D01*
X144294784Y-131572066D01*
X144238851Y-131530194D01*
X144232585Y-131520988D01*
X144192712Y-131456344D01*
X144068656Y-131332288D01*
X143944310Y-131255591D01*
X143919336Y-131240187D01*
X143919331Y-131240185D01*
X143917862Y-131239698D01*
X143752797Y-131185001D01*
X143752795Y-131185000D01*
X143650010Y-131174500D01*
X142849998Y-131174500D01*
X142849980Y-131174501D01*
X142747203Y-131185000D01*
X142747200Y-131185001D01*
X142580668Y-131240185D01*
X142580663Y-131240187D01*
X142431342Y-131332289D01*
X142307289Y-131456342D01*
X142215187Y-131605663D01*
X142215186Y-131605666D01*
X142160001Y-131772203D01*
X142160001Y-131772204D01*
X142160000Y-131772204D01*
X142149500Y-131874983D01*
X115467402Y-131874983D01*
X114891422Y-131246412D01*
X114889024Y-131243718D01*
X114350502Y-130620568D01*
X113997478Y-130212066D01*
X113995164Y-130209309D01*
X113940930Y-130142732D01*
X113409205Y-129489998D01*
X151894532Y-129489998D01*
X151894532Y-129490001D01*
X151914364Y-129716686D01*
X151914366Y-129716697D01*
X151973258Y-129936488D01*
X151973261Y-129936497D01*
X152069431Y-130142732D01*
X152069432Y-130142734D01*
X152199954Y-130329141D01*
X152360858Y-130490045D01*
X152360861Y-130490047D01*
X152547266Y-130620568D01*
X152605275Y-130647618D01*
X152657714Y-130693791D01*
X152676866Y-130760984D01*
X152656650Y-130827865D01*
X152605275Y-130872382D01*
X152547267Y-130899431D01*
X152547265Y-130899432D01*
X152360858Y-131029954D01*
X152199954Y-131190858D01*
X152069432Y-131377265D01*
X152069431Y-131377267D01*
X151973261Y-131583502D01*
X151973258Y-131583511D01*
X151914366Y-131803302D01*
X151914364Y-131803313D01*
X151894532Y-132029998D01*
X151894532Y-132030001D01*
X151914364Y-132256686D01*
X151914366Y-132256697D01*
X151973258Y-132476488D01*
X151973261Y-132476497D01*
X152069431Y-132682732D01*
X152069432Y-132682734D01*
X152199954Y-132869141D01*
X152360858Y-133030045D01*
X152360861Y-133030047D01*
X152547266Y-133160568D01*
X152605275Y-133187618D01*
X152657714Y-133233791D01*
X152676866Y-133300984D01*
X152656650Y-133367865D01*
X152605275Y-133412382D01*
X152547267Y-133439431D01*
X152547265Y-133439432D01*
X152360858Y-133569954D01*
X152199954Y-133730858D01*
X152069432Y-133917265D01*
X152069431Y-133917267D01*
X151973261Y-134123502D01*
X151973258Y-134123511D01*
X151914366Y-134343302D01*
X151914364Y-134343313D01*
X151894532Y-134569998D01*
X151894532Y-134570001D01*
X151914364Y-134796686D01*
X151914366Y-134796697D01*
X151973258Y-135016488D01*
X151973261Y-135016497D01*
X152069431Y-135222732D01*
X152069432Y-135222734D01*
X152199954Y-135409141D01*
X152360858Y-135570045D01*
X152360861Y-135570047D01*
X152547266Y-135700568D01*
X152753504Y-135796739D01*
X152973308Y-135855635D01*
X153135230Y-135869801D01*
X153199998Y-135875468D01*
X153200000Y-135875468D01*
X153200002Y-135875468D01*
X153256673Y-135870509D01*
X153426692Y-135855635D01*
X153646496Y-135796739D01*
X153852734Y-135700568D01*
X154039139Y-135570047D01*
X154200047Y-135409139D01*
X154330568Y-135222734D01*
X154426739Y-135016496D01*
X154485635Y-134796692D01*
X154505468Y-134570000D01*
X154485635Y-134343308D01*
X154426739Y-134123504D01*
X154330568Y-133917266D01*
X154200047Y-133730861D01*
X154200045Y-133730858D01*
X154039141Y-133569954D01*
X153852734Y-133439432D01*
X153852728Y-133439429D01*
X153794725Y-133412382D01*
X153742285Y-133366210D01*
X153723133Y-133299017D01*
X153743348Y-133232135D01*
X153794725Y-133187618D01*
X153852734Y-133160568D01*
X154039139Y-133030047D01*
X154200047Y-132869139D01*
X154330568Y-132682734D01*
X154426739Y-132476496D01*
X154485635Y-132256692D01*
X154505468Y-132030000D01*
X154485635Y-131803308D01*
X154432677Y-131605666D01*
X154426741Y-131583511D01*
X154426738Y-131583502D01*
X154415031Y-131558397D01*
X154330568Y-131377266D01*
X154232839Y-131237693D01*
X154200045Y-131190858D01*
X154039141Y-131029954D01*
X153852734Y-130899432D01*
X153852728Y-130899429D01*
X153794725Y-130872382D01*
X153742285Y-130826210D01*
X153723133Y-130759017D01*
X153743348Y-130692135D01*
X153794725Y-130647618D01*
X153852734Y-130620568D01*
X154039139Y-130490047D01*
X154200047Y-130329139D01*
X154330568Y-130142734D01*
X154426739Y-129936496D01*
X154485635Y-129716692D01*
X154505468Y-129490000D01*
X154485635Y-129263308D01*
X154426739Y-129043504D01*
X154330568Y-128837266D01*
X154200047Y-128650861D01*
X154200045Y-128650858D01*
X154039143Y-128489956D01*
X154013912Y-128472289D01*
X153970287Y-128417712D01*
X153963095Y-128348213D01*
X153994617Y-128285859D01*
X154054847Y-128250445D01*
X154071781Y-128247424D01*
X154107380Y-128243596D01*
X154242086Y-128193354D01*
X154242093Y-128193350D01*
X154357187Y-128107190D01*
X154357190Y-128107187D01*
X154443350Y-127992093D01*
X154443354Y-127992086D01*
X154493596Y-127857379D01*
X154493598Y-127857372D01*
X154499999Y-127797844D01*
X154500000Y-127797827D01*
X154500000Y-127200000D01*
X153515686Y-127200000D01*
X153520080Y-127195606D01*
X153572741Y-127104394D01*
X153600000Y-127002661D01*
X153600000Y-126949998D01*
X159514532Y-126949998D01*
X159514532Y-126950001D01*
X159534364Y-127176686D01*
X159534366Y-127176697D01*
X159593258Y-127396488D01*
X159593261Y-127396497D01*
X159689431Y-127602732D01*
X159689432Y-127602734D01*
X159819954Y-127789141D01*
X159980858Y-127950045D01*
X159980861Y-127950047D01*
X160167266Y-128080568D01*
X160224357Y-128107190D01*
X160225275Y-128107618D01*
X160277714Y-128153791D01*
X160296866Y-128220984D01*
X160276650Y-128287865D01*
X160225275Y-128332382D01*
X160167267Y-128359431D01*
X160167265Y-128359432D01*
X159980858Y-128489954D01*
X159819954Y-128650858D01*
X159689432Y-128837265D01*
X159689431Y-128837267D01*
X159593261Y-129043502D01*
X159593258Y-129043511D01*
X159534366Y-129263302D01*
X159534364Y-129263313D01*
X159514532Y-129489998D01*
X159514532Y-129490001D01*
X159534364Y-129716686D01*
X159534366Y-129716697D01*
X159593258Y-129936488D01*
X159593261Y-129936497D01*
X159689431Y-130142732D01*
X159689432Y-130142734D01*
X159819954Y-130329141D01*
X159980858Y-130490045D01*
X159980861Y-130490047D01*
X160167266Y-130620568D01*
X160225275Y-130647618D01*
X160277714Y-130693791D01*
X160296866Y-130760984D01*
X160276650Y-130827865D01*
X160225275Y-130872382D01*
X160167267Y-130899431D01*
X160167265Y-130899432D01*
X159980858Y-131029954D01*
X159819954Y-131190858D01*
X159689432Y-131377265D01*
X159689431Y-131377267D01*
X159593261Y-131583502D01*
X159593258Y-131583511D01*
X159534366Y-131803302D01*
X159534364Y-131803313D01*
X159514532Y-132029998D01*
X159514532Y-132030001D01*
X159534364Y-132256686D01*
X159534366Y-132256697D01*
X159593258Y-132476488D01*
X159593261Y-132476497D01*
X159689431Y-132682732D01*
X159689432Y-132682734D01*
X159819954Y-132869141D01*
X159980858Y-133030045D01*
X159980861Y-133030047D01*
X160167266Y-133160568D01*
X160225275Y-133187618D01*
X160277714Y-133233791D01*
X160296866Y-133300984D01*
X160276650Y-133367865D01*
X160225275Y-133412382D01*
X160167267Y-133439431D01*
X160167265Y-133439432D01*
X159980858Y-133569954D01*
X159819954Y-133730858D01*
X159689432Y-133917265D01*
X159689431Y-133917267D01*
X159593261Y-134123502D01*
X159593258Y-134123511D01*
X159534366Y-134343302D01*
X159534364Y-134343313D01*
X159514532Y-134569998D01*
X159514532Y-134570001D01*
X159534364Y-134796686D01*
X159534366Y-134796697D01*
X159593258Y-135016488D01*
X159593261Y-135016497D01*
X159689431Y-135222732D01*
X159689432Y-135222734D01*
X159819954Y-135409141D01*
X159980858Y-135570045D01*
X159980861Y-135570047D01*
X160167266Y-135700568D01*
X160373504Y-135796739D01*
X160593308Y-135855635D01*
X160755230Y-135869801D01*
X160819998Y-135875468D01*
X160820000Y-135875468D01*
X160820002Y-135875468D01*
X160876673Y-135870509D01*
X161046692Y-135855635D01*
X161266496Y-135796739D01*
X161472734Y-135700568D01*
X161659139Y-135570047D01*
X161820047Y-135409139D01*
X161950568Y-135222734D01*
X162046739Y-135016496D01*
X162105635Y-134796692D01*
X162125468Y-134570000D01*
X162105635Y-134343308D01*
X162046739Y-134123504D01*
X161950568Y-133917266D01*
X161820047Y-133730861D01*
X161820045Y-133730858D01*
X161659141Y-133569954D01*
X161472734Y-133439432D01*
X161472728Y-133439429D01*
X161414725Y-133412382D01*
X161362285Y-133366210D01*
X161343133Y-133299017D01*
X161363348Y-133232135D01*
X161414725Y-133187618D01*
X161472734Y-133160568D01*
X161659139Y-133030047D01*
X161820047Y-132869139D01*
X161950568Y-132682734D01*
X162046739Y-132476496D01*
X162105635Y-132256692D01*
X162125468Y-132030000D01*
X162105635Y-131803308D01*
X162052677Y-131605666D01*
X162046741Y-131583511D01*
X162046738Y-131583502D01*
X162035031Y-131558397D01*
X161950568Y-131377266D01*
X161852839Y-131237693D01*
X161820045Y-131190858D01*
X161659141Y-131029954D01*
X161472734Y-130899432D01*
X161472728Y-130899429D01*
X161414725Y-130872382D01*
X161362285Y-130826210D01*
X161343133Y-130759017D01*
X161363348Y-130692135D01*
X161414725Y-130647618D01*
X161472734Y-130620568D01*
X161659139Y-130490047D01*
X161820047Y-130329139D01*
X161875462Y-130249998D01*
X163134532Y-130249998D01*
X163134532Y-130250001D01*
X163154364Y-130476686D01*
X163154366Y-130476697D01*
X163213258Y-130696488D01*
X163213261Y-130696497D01*
X163309431Y-130902732D01*
X163309432Y-130902734D01*
X163439954Y-131089141D01*
X163600858Y-131250045D01*
X163600861Y-131250047D01*
X163787266Y-131380568D01*
X163993504Y-131476739D01*
X164213308Y-131535635D01*
X164375230Y-131549801D01*
X164439998Y-131555468D01*
X164440000Y-131555468D01*
X164440002Y-131555468D01*
X164496673Y-131550509D01*
X164666692Y-131535635D01*
X164886496Y-131476739D01*
X165092734Y-131380568D01*
X165279139Y-131250047D01*
X165440047Y-131089139D01*
X165570568Y-130902734D01*
X165666739Y-130696496D01*
X165725635Y-130476692D01*
X165745468Y-130250000D01*
X165745468Y-130249998D01*
X170754532Y-130249998D01*
X170754532Y-130250001D01*
X170774364Y-130476686D01*
X170774366Y-130476697D01*
X170833258Y-130696488D01*
X170833261Y-130696497D01*
X170929431Y-130902732D01*
X170929432Y-130902734D01*
X171059954Y-131089141D01*
X171220858Y-131250045D01*
X171220861Y-131250047D01*
X171407266Y-131380568D01*
X171613504Y-131476739D01*
X171833308Y-131535635D01*
X171995230Y-131549801D01*
X172059998Y-131555468D01*
X172060000Y-131555468D01*
X172060002Y-131555468D01*
X172116673Y-131550509D01*
X172286692Y-131535635D01*
X172506496Y-131476739D01*
X172712734Y-131380568D01*
X172899139Y-131250047D01*
X173060047Y-131089139D01*
X173190568Y-130902734D01*
X173286739Y-130696496D01*
X173345635Y-130476692D01*
X173365468Y-130250000D01*
X173345635Y-130023308D01*
X173286739Y-129803504D01*
X173190568Y-129597266D01*
X173060047Y-129410861D01*
X173060045Y-129410858D01*
X172899141Y-129249954D01*
X172712734Y-129119432D01*
X172712732Y-129119431D01*
X172506497Y-129023261D01*
X172506488Y-129023258D01*
X172286697Y-128964366D01*
X172286693Y-128964365D01*
X172286692Y-128964365D01*
X172286691Y-128964364D01*
X172286686Y-128964364D01*
X172060002Y-128944532D01*
X172059998Y-128944532D01*
X171833313Y-128964364D01*
X171833302Y-128964366D01*
X171613511Y-129023258D01*
X171613502Y-129023261D01*
X171407267Y-129119431D01*
X171407265Y-129119432D01*
X171220858Y-129249954D01*
X171059954Y-129410858D01*
X170929432Y-129597265D01*
X170929431Y-129597267D01*
X170833261Y-129803502D01*
X170833258Y-129803511D01*
X170774366Y-130023302D01*
X170774364Y-130023313D01*
X170754532Y-130249998D01*
X165745468Y-130249998D01*
X165725635Y-130023308D01*
X165666739Y-129803504D01*
X165570568Y-129597266D01*
X165440047Y-129410861D01*
X165440045Y-129410858D01*
X165279141Y-129249954D01*
X165092734Y-129119432D01*
X165092732Y-129119431D01*
X164886497Y-129023261D01*
X164886488Y-129023258D01*
X164666697Y-128964366D01*
X164666693Y-128964365D01*
X164666692Y-128964365D01*
X164666691Y-128964364D01*
X164666686Y-128964364D01*
X164440002Y-128944532D01*
X164439998Y-128944532D01*
X164213313Y-128964364D01*
X164213302Y-128964366D01*
X163993511Y-129023258D01*
X163993502Y-129023261D01*
X163787267Y-129119431D01*
X163787265Y-129119432D01*
X163600858Y-129249954D01*
X163439954Y-129410858D01*
X163309432Y-129597265D01*
X163309431Y-129597267D01*
X163213261Y-129803502D01*
X163213258Y-129803511D01*
X163154366Y-130023302D01*
X163154364Y-130023313D01*
X163134532Y-130249998D01*
X161875462Y-130249998D01*
X161950568Y-130142734D01*
X162046739Y-129936496D01*
X162105635Y-129716692D01*
X162125468Y-129490000D01*
X162105635Y-129263308D01*
X162046739Y-129043504D01*
X161950568Y-128837266D01*
X161820047Y-128650861D01*
X161820045Y-128650858D01*
X161659141Y-128489954D01*
X161472734Y-128359432D01*
X161472728Y-128359429D01*
X161414725Y-128332382D01*
X161362285Y-128286210D01*
X161343133Y-128219017D01*
X161363348Y-128152135D01*
X161414725Y-128107618D01*
X161415643Y-128107190D01*
X161472734Y-128080568D01*
X161659139Y-127950047D01*
X161820047Y-127789139D01*
X161950568Y-127602734D01*
X162046739Y-127396496D01*
X162105635Y-127176692D01*
X162124785Y-126957806D01*
X162125468Y-126950001D01*
X162125468Y-126949998D01*
X162105635Y-126723313D01*
X162105635Y-126723308D01*
X162046739Y-126503504D01*
X161950568Y-126297266D01*
X161917471Y-126249998D01*
X163134532Y-126249998D01*
X163134532Y-126250001D01*
X163154364Y-126476686D01*
X163154366Y-126476697D01*
X163213258Y-126696488D01*
X163213261Y-126696497D01*
X163309431Y-126902732D01*
X163309432Y-126902734D01*
X163439954Y-127089141D01*
X163600858Y-127250045D01*
X163600861Y-127250047D01*
X163787266Y-127380568D01*
X163993504Y-127476739D01*
X164213308Y-127535635D01*
X164375230Y-127549801D01*
X164439998Y-127555468D01*
X164440000Y-127555468D01*
X164440002Y-127555468D01*
X164496673Y-127550509D01*
X164666692Y-127535635D01*
X164886496Y-127476739D01*
X165092734Y-127380568D01*
X165279139Y-127250047D01*
X165440047Y-127089139D01*
X165570568Y-126902734D01*
X165666739Y-126696496D01*
X165725635Y-126476692D01*
X165745468Y-126250000D01*
X165745468Y-126249998D01*
X170754532Y-126249998D01*
X170754532Y-126250001D01*
X170774364Y-126476686D01*
X170774366Y-126476697D01*
X170833258Y-126696488D01*
X170833261Y-126696497D01*
X170929431Y-126902732D01*
X170929432Y-126902734D01*
X171059954Y-127089141D01*
X171220858Y-127250045D01*
X171220861Y-127250047D01*
X171407266Y-127380568D01*
X171613504Y-127476739D01*
X171833308Y-127535635D01*
X171995230Y-127549801D01*
X172059998Y-127555468D01*
X172060000Y-127555468D01*
X172060002Y-127555468D01*
X172116673Y-127550509D01*
X172286692Y-127535635D01*
X172506496Y-127476739D01*
X172712734Y-127380568D01*
X172899139Y-127250047D01*
X173060047Y-127089139D01*
X173190568Y-126902734D01*
X173286739Y-126696496D01*
X173345635Y-126476692D01*
X173365468Y-126250000D01*
X173345635Y-126023308D01*
X173286739Y-125803504D01*
X173190568Y-125597266D01*
X173060047Y-125410861D01*
X173060045Y-125410858D01*
X172899141Y-125249954D01*
X172712734Y-125119432D01*
X172712732Y-125119431D01*
X172506497Y-125023261D01*
X172506488Y-125023258D01*
X172286697Y-124964366D01*
X172286693Y-124964365D01*
X172286692Y-124964365D01*
X172286691Y-124964364D01*
X172286686Y-124964364D01*
X172060002Y-124944532D01*
X172059998Y-124944532D01*
X171833313Y-124964364D01*
X171833302Y-124964366D01*
X171613511Y-125023258D01*
X171613502Y-125023261D01*
X171407267Y-125119431D01*
X171407265Y-125119432D01*
X171220858Y-125249954D01*
X171059954Y-125410858D01*
X170929432Y-125597265D01*
X170929431Y-125597267D01*
X170833261Y-125803502D01*
X170833258Y-125803511D01*
X170774366Y-126023302D01*
X170774364Y-126023313D01*
X170754532Y-126249998D01*
X165745468Y-126249998D01*
X165725635Y-126023308D01*
X165666739Y-125803504D01*
X165570568Y-125597266D01*
X165440047Y-125410861D01*
X165440045Y-125410858D01*
X165279141Y-125249954D01*
X165092734Y-125119432D01*
X165092732Y-125119431D01*
X164886497Y-125023261D01*
X164886488Y-125023258D01*
X164666697Y-124964366D01*
X164666693Y-124964365D01*
X164666692Y-124964365D01*
X164666691Y-124964364D01*
X164666686Y-124964364D01*
X164440002Y-124944532D01*
X164439998Y-124944532D01*
X164213313Y-124964364D01*
X164213302Y-124964366D01*
X163993511Y-125023258D01*
X163993502Y-125023261D01*
X163787267Y-125119431D01*
X163787265Y-125119432D01*
X163600858Y-125249954D01*
X163439954Y-125410858D01*
X163309432Y-125597265D01*
X163309431Y-125597267D01*
X163213261Y-125803502D01*
X163213258Y-125803511D01*
X163154366Y-126023302D01*
X163154364Y-126023313D01*
X163134532Y-126249998D01*
X161917471Y-126249998D01*
X161820047Y-126110861D01*
X161820045Y-126110858D01*
X161659141Y-125949954D01*
X161472734Y-125819432D01*
X161472732Y-125819431D01*
X161266497Y-125723261D01*
X161266488Y-125723258D01*
X161046697Y-125664366D01*
X161046693Y-125664365D01*
X161046692Y-125664365D01*
X161046691Y-125664364D01*
X161046686Y-125664364D01*
X160820002Y-125644532D01*
X160819998Y-125644532D01*
X160593313Y-125664364D01*
X160593302Y-125664366D01*
X160373511Y-125723258D01*
X160373502Y-125723261D01*
X160167267Y-125819431D01*
X160167265Y-125819432D01*
X159980858Y-125949954D01*
X159819954Y-126110858D01*
X159689432Y-126297265D01*
X159689431Y-126297267D01*
X159593261Y-126503502D01*
X159593258Y-126503511D01*
X159534366Y-126723302D01*
X159534364Y-126723313D01*
X159514532Y-126949998D01*
X153600000Y-126949998D01*
X153600000Y-126897339D01*
X153572741Y-126795606D01*
X153520080Y-126704394D01*
X153515686Y-126700000D01*
X154500000Y-126700000D01*
X154500000Y-126102172D01*
X154499999Y-126102155D01*
X154493598Y-126042627D01*
X154493596Y-126042620D01*
X154443354Y-125907913D01*
X154443350Y-125907906D01*
X154357190Y-125792812D01*
X154357187Y-125792809D01*
X154242093Y-125706649D01*
X154242086Y-125706645D01*
X154107379Y-125656403D01*
X154107372Y-125656401D01*
X154047844Y-125650000D01*
X153450000Y-125650000D01*
X153450000Y-126634314D01*
X153445606Y-126629920D01*
X153354394Y-126577259D01*
X153252661Y-126550000D01*
X153147339Y-126550000D01*
X153045606Y-126577259D01*
X152954394Y-126629920D01*
X152950000Y-126634314D01*
X152950000Y-125650000D01*
X152352155Y-125650000D01*
X152292627Y-125656401D01*
X152292620Y-125656403D01*
X152157913Y-125706645D01*
X152157906Y-125706649D01*
X152042812Y-125792809D01*
X152042809Y-125792812D01*
X151956649Y-125907906D01*
X151956645Y-125907913D01*
X151906403Y-126042620D01*
X151906401Y-126042627D01*
X151900000Y-126102155D01*
X151900000Y-126700000D01*
X152884314Y-126700000D01*
X152879920Y-126704394D01*
X152827259Y-126795606D01*
X152800000Y-126897339D01*
X152800000Y-127002661D01*
X152827259Y-127104394D01*
X152879920Y-127195606D01*
X152884314Y-127200000D01*
X151900000Y-127200000D01*
X151900000Y-127797844D01*
X151906401Y-127857372D01*
X151906403Y-127857379D01*
X151956645Y-127992086D01*
X151956649Y-127992093D01*
X152042809Y-128107187D01*
X152042812Y-128107190D01*
X152157906Y-128193350D01*
X152157913Y-128193354D01*
X152292620Y-128243596D01*
X152292627Y-128243598D01*
X152328218Y-128247425D01*
X152392769Y-128274163D01*
X152432618Y-128331555D01*
X152435111Y-128401380D01*
X152399459Y-128461469D01*
X152386088Y-128472287D01*
X152360861Y-128489951D01*
X152199954Y-128650858D01*
X152069432Y-128837265D01*
X152069431Y-128837267D01*
X151973261Y-129043502D01*
X151973258Y-129043511D01*
X151914366Y-129263302D01*
X151914364Y-129263313D01*
X151894532Y-129489998D01*
X113409205Y-129489998D01*
X113133969Y-129152124D01*
X113131746Y-129149312D01*
X112301683Y-128067552D01*
X112299587Y-128064737D01*
X111501324Y-126959275D01*
X111499259Y-126956327D01*
X111462883Y-126902734D01*
X110733489Y-125828118D01*
X110731516Y-125825117D01*
X110572163Y-125574983D01*
X142149500Y-125574983D01*
X142149500Y-126925001D01*
X142149501Y-126925018D01*
X142160000Y-127027796D01*
X142160001Y-127027799D01*
X142215185Y-127194331D01*
X142215187Y-127194336D01*
X142238870Y-127232732D01*
X142307288Y-127343656D01*
X142431344Y-127467712D01*
X142580666Y-127559814D01*
X142747203Y-127614999D01*
X142849991Y-127625500D01*
X143650008Y-127625499D01*
X143650016Y-127625498D01*
X143650019Y-127625498D01*
X143706302Y-127619748D01*
X143752797Y-127614999D01*
X143919334Y-127559814D01*
X144068656Y-127467712D01*
X144192712Y-127343656D01*
X144232310Y-127279456D01*
X144284258Y-127232732D01*
X144353220Y-127221509D01*
X144417303Y-127249352D01*
X144425530Y-127256872D01*
X144533072Y-127364414D01*
X144673212Y-127466232D01*
X144827555Y-127544873D01*
X144992299Y-127598402D01*
X145163389Y-127625500D01*
X145163390Y-127625500D01*
X145336610Y-127625500D01*
X145336611Y-127625500D01*
X145507701Y-127598402D01*
X145672445Y-127544873D01*
X145826788Y-127466232D01*
X145966928Y-127364414D01*
X146089414Y-127241928D01*
X146191232Y-127101788D01*
X146269873Y-126947445D01*
X146323402Y-126782701D01*
X146350500Y-126611611D01*
X146350500Y-125888389D01*
X146323402Y-125717299D01*
X146269873Y-125552555D01*
X146191232Y-125398212D01*
X146089414Y-125258072D01*
X145966928Y-125135586D01*
X145826788Y-125033768D01*
X145672445Y-124955127D01*
X145507701Y-124901598D01*
X145507699Y-124901597D01*
X145507698Y-124901597D01*
X145376271Y-124880781D01*
X145336611Y-124874500D01*
X145163389Y-124874500D01*
X145123728Y-124880781D01*
X144992302Y-124901597D01*
X144827552Y-124955128D01*
X144673211Y-125033768D01*
X144533073Y-125135585D01*
X144425530Y-125243128D01*
X144364207Y-125276612D01*
X144294515Y-125271628D01*
X144238582Y-125229756D01*
X144232310Y-125220543D01*
X144192712Y-125156344D01*
X144068656Y-125032288D01*
X143943559Y-124955128D01*
X143919336Y-124940187D01*
X143919331Y-124940185D01*
X143917862Y-124939698D01*
X143752797Y-124885001D01*
X143752795Y-124885000D01*
X143650010Y-124874500D01*
X142849998Y-124874500D01*
X142849980Y-124874501D01*
X142747203Y-124885000D01*
X142747200Y-124885001D01*
X142580668Y-124940185D01*
X142580663Y-124940187D01*
X142431342Y-125032289D01*
X142307289Y-125156342D01*
X142215187Y-125305663D01*
X142215186Y-125305666D01*
X142160001Y-125472203D01*
X142160001Y-125472204D01*
X142160000Y-125472204D01*
X142149500Y-125574983D01*
X110572163Y-125574983D01*
X109998888Y-124675122D01*
X109997008Y-124672073D01*
X109956372Y-124603996D01*
X109689854Y-124157498D01*
X130444532Y-124157498D01*
X130444532Y-124157501D01*
X130464364Y-124384186D01*
X130464366Y-124384197D01*
X130523258Y-124603988D01*
X130523261Y-124603997D01*
X130619431Y-124810232D01*
X130619432Y-124810234D01*
X130749954Y-124996641D01*
X130910858Y-125157545D01*
X130910861Y-125157547D01*
X131097266Y-125288068D01*
X131303504Y-125384239D01*
X131523308Y-125443135D01*
X131685230Y-125457301D01*
X131749998Y-125462968D01*
X131750000Y-125462968D01*
X131750002Y-125462968D01*
X131806673Y-125458009D01*
X131976692Y-125443135D01*
X132196496Y-125384239D01*
X132402734Y-125288068D01*
X132589139Y-125157547D01*
X132750047Y-124996639D01*
X132880568Y-124810234D01*
X132976739Y-124603996D01*
X133035635Y-124384192D01*
X133055468Y-124157500D01*
X133055468Y-124157498D01*
X134444532Y-124157498D01*
X134444532Y-124157501D01*
X134464364Y-124384186D01*
X134464366Y-124384197D01*
X134523258Y-124603988D01*
X134523261Y-124603997D01*
X134619431Y-124810232D01*
X134619432Y-124810234D01*
X134749954Y-124996641D01*
X134910858Y-125157545D01*
X134910861Y-125157547D01*
X135097266Y-125288068D01*
X135303504Y-125384239D01*
X135523308Y-125443135D01*
X135685230Y-125457301D01*
X135749998Y-125462968D01*
X135750000Y-125462968D01*
X135750002Y-125462968D01*
X135806673Y-125458009D01*
X135976692Y-125443135D01*
X136196496Y-125384239D01*
X136402734Y-125288068D01*
X136589139Y-125157547D01*
X136750047Y-124996639D01*
X136880568Y-124810234D01*
X136976739Y-124603996D01*
X137035635Y-124384192D01*
X137055468Y-124157500D01*
X137035635Y-123930808D01*
X136976739Y-123711004D01*
X136880568Y-123504766D01*
X136750047Y-123318361D01*
X136750045Y-123318358D01*
X136589141Y-123157454D01*
X136402734Y-123026932D01*
X136402732Y-123026931D01*
X136196497Y-122930761D01*
X136196488Y-122930758D01*
X135976697Y-122871866D01*
X135976693Y-122871865D01*
X135976692Y-122871865D01*
X135976691Y-122871864D01*
X135976686Y-122871864D01*
X135750002Y-122852032D01*
X135749998Y-122852032D01*
X135523313Y-122871864D01*
X135523302Y-122871866D01*
X135303511Y-122930758D01*
X135303502Y-122930761D01*
X135097267Y-123026931D01*
X135097265Y-123026932D01*
X134910858Y-123157454D01*
X134749954Y-123318358D01*
X134619432Y-123504765D01*
X134619431Y-123504767D01*
X134523261Y-123711002D01*
X134523258Y-123711011D01*
X134464366Y-123930802D01*
X134464364Y-123930813D01*
X134444532Y-124157498D01*
X133055468Y-124157498D01*
X133035635Y-123930808D01*
X132976739Y-123711004D01*
X132880568Y-123504766D01*
X132750047Y-123318361D01*
X132750045Y-123318358D01*
X132589141Y-123157454D01*
X132402734Y-123026932D01*
X132402732Y-123026931D01*
X132196497Y-122930761D01*
X132196488Y-122930758D01*
X131976697Y-122871866D01*
X131976693Y-122871865D01*
X131976692Y-122871865D01*
X131976691Y-122871864D01*
X131976686Y-122871864D01*
X131750002Y-122852032D01*
X131749998Y-122852032D01*
X131523313Y-122871864D01*
X131523302Y-122871866D01*
X131303511Y-122930758D01*
X131303502Y-122930761D01*
X131097267Y-123026931D01*
X131097265Y-123026932D01*
X130910858Y-123157454D01*
X130749954Y-123318358D01*
X130619432Y-123504765D01*
X130619431Y-123504767D01*
X130523261Y-123711002D01*
X130523258Y-123711011D01*
X130464366Y-123930802D01*
X130464364Y-123930813D01*
X130444532Y-124157498D01*
X109689854Y-124157498D01*
X109298166Y-123501304D01*
X109296373Y-123498199D01*
X109196002Y-123318361D01*
X108935736Y-122852032D01*
X108631840Y-122307529D01*
X108630129Y-122304354D01*
X108331139Y-121730000D01*
X108070854Y-121229999D01*
X152564341Y-121229999D01*
X152564341Y-121230000D01*
X152584936Y-121465403D01*
X152584938Y-121465413D01*
X152646094Y-121693655D01*
X152646096Y-121693659D01*
X152646097Y-121693663D01*
X152725800Y-121864586D01*
X152745965Y-121907830D01*
X152745967Y-121907834D01*
X152804462Y-121991373D01*
X152881505Y-122101401D01*
X153048599Y-122268495D01*
X153145384Y-122336265D01*
X153242165Y-122404032D01*
X153242167Y-122404033D01*
X153242170Y-122404035D01*
X153456337Y-122503903D01*
X153684592Y-122565063D01*
X153872918Y-122581539D01*
X153919999Y-122585659D01*
X153920000Y-122585659D01*
X153920001Y-122585659D01*
X153959234Y-122582226D01*
X154155408Y-122565063D01*
X154383663Y-122503903D01*
X154597830Y-122404035D01*
X154791401Y-122268495D01*
X154958495Y-122101401D01*
X155088425Y-121915842D01*
X155143002Y-121872217D01*
X155212500Y-121865023D01*
X155274855Y-121896546D01*
X155291575Y-121915842D01*
X155421500Y-122101395D01*
X155421505Y-122101401D01*
X155588599Y-122268495D01*
X155685384Y-122336265D01*
X155782165Y-122404032D01*
X155782167Y-122404033D01*
X155782170Y-122404035D01*
X155996337Y-122503903D01*
X156224592Y-122565063D01*
X156412918Y-122581539D01*
X156459999Y-122585659D01*
X156460000Y-122585659D01*
X156460001Y-122585659D01*
X156499234Y-122582226D01*
X156695408Y-122565063D01*
X156923663Y-122503903D01*
X157137830Y-122404035D01*
X157331401Y-122268495D01*
X157498495Y-122101401D01*
X157628732Y-121915403D01*
X157683307Y-121871780D01*
X157752805Y-121864586D01*
X157815160Y-121896109D01*
X157831880Y-121915405D01*
X157885073Y-121991373D01*
X158517037Y-121359409D01*
X158534075Y-121422993D01*
X158599901Y-121537007D01*
X158692993Y-121630099D01*
X158807007Y-121695925D01*
X158870590Y-121712962D01*
X158238625Y-122344925D01*
X158322421Y-122403599D01*
X158536507Y-122503429D01*
X158536516Y-122503433D01*
X158764673Y-122564567D01*
X158764684Y-122564569D01*
X158999998Y-122585157D01*
X159000002Y-122585157D01*
X159235315Y-122564569D01*
X159235326Y-122564567D01*
X159463483Y-122503433D01*
X159463492Y-122503429D01*
X159677578Y-122403600D01*
X159677582Y-122403598D01*
X159761373Y-122344926D01*
X159761373Y-122344925D01*
X159129409Y-121712962D01*
X159192993Y-121695925D01*
X159307007Y-121630099D01*
X159400099Y-121537007D01*
X159465925Y-121422993D01*
X159482962Y-121359410D01*
X160114925Y-121991373D01*
X160168119Y-121915405D01*
X160222696Y-121871781D01*
X160292195Y-121864588D01*
X160354549Y-121896110D01*
X160371269Y-121915405D01*
X160501505Y-122101401D01*
X160668599Y-122268495D01*
X160765384Y-122336265D01*
X160862165Y-122404032D01*
X160862167Y-122404033D01*
X160862170Y-122404035D01*
X161076337Y-122503903D01*
X161304592Y-122565063D01*
X161492918Y-122581539D01*
X161539999Y-122585659D01*
X161540000Y-122585659D01*
X161540001Y-122585659D01*
X161579234Y-122582226D01*
X161775408Y-122565063D01*
X162003663Y-122503903D01*
X162217830Y-122404035D01*
X162411401Y-122268495D01*
X162578495Y-122101401D01*
X162708425Y-121915842D01*
X162763002Y-121872217D01*
X162832500Y-121865023D01*
X162894855Y-121896546D01*
X162911575Y-121915842D01*
X163041500Y-122101395D01*
X163041505Y-122101401D01*
X163208599Y-122268495D01*
X163305384Y-122336265D01*
X163402165Y-122404032D01*
X163402167Y-122404033D01*
X163402170Y-122404035D01*
X163616337Y-122503903D01*
X163844592Y-122565063D01*
X164032918Y-122581539D01*
X164079999Y-122585659D01*
X164080000Y-122585659D01*
X164080001Y-122585659D01*
X164119234Y-122582226D01*
X164315408Y-122565063D01*
X164543663Y-122503903D01*
X164757830Y-122404035D01*
X164951401Y-122268495D01*
X165118495Y-122101401D01*
X165254035Y-121907830D01*
X165353903Y-121693663D01*
X165415063Y-121465408D01*
X165435659Y-121230000D01*
X165415063Y-120994592D01*
X165353903Y-120766337D01*
X165254035Y-120552171D01*
X165248731Y-120544595D01*
X165118494Y-120358597D01*
X164951402Y-120191506D01*
X164951395Y-120191501D01*
X164757834Y-120055967D01*
X164757830Y-120055965D01*
X164757828Y-120055964D01*
X164543663Y-119956097D01*
X164543659Y-119956096D01*
X164543655Y-119956094D01*
X164315413Y-119894938D01*
X164315403Y-119894936D01*
X164080001Y-119874341D01*
X164079999Y-119874341D01*
X163844596Y-119894936D01*
X163844586Y-119894938D01*
X163616344Y-119956094D01*
X163616335Y-119956098D01*
X163402171Y-120055964D01*
X163402169Y-120055965D01*
X163208597Y-120191505D01*
X163041505Y-120358597D01*
X162911575Y-120544158D01*
X162856998Y-120587783D01*
X162787500Y-120594977D01*
X162725145Y-120563454D01*
X162708425Y-120544158D01*
X162578494Y-120358597D01*
X162411402Y-120191506D01*
X162411395Y-120191501D01*
X162217834Y-120055967D01*
X162217830Y-120055965D01*
X162217828Y-120055964D01*
X162003663Y-119956097D01*
X162003659Y-119956096D01*
X162003655Y-119956094D01*
X161775413Y-119894938D01*
X161775403Y-119894936D01*
X161540001Y-119874341D01*
X161539999Y-119874341D01*
X161304596Y-119894936D01*
X161304586Y-119894938D01*
X161076344Y-119956094D01*
X161076335Y-119956098D01*
X160862171Y-120055964D01*
X160862169Y-120055965D01*
X160668597Y-120191505D01*
X160501505Y-120358597D01*
X160371269Y-120544595D01*
X160316692Y-120588220D01*
X160247194Y-120595414D01*
X160184839Y-120563891D01*
X160168119Y-120544595D01*
X160114925Y-120468626D01*
X160114925Y-120468625D01*
X159482962Y-121100589D01*
X159465925Y-121037007D01*
X159400099Y-120922993D01*
X159307007Y-120829901D01*
X159192993Y-120764075D01*
X159129410Y-120747037D01*
X159761373Y-120115073D01*
X159761373Y-120115072D01*
X159677583Y-120056402D01*
X159677579Y-120056400D01*
X159463492Y-119956570D01*
X159463483Y-119956566D01*
X159235326Y-119895432D01*
X159235315Y-119895430D01*
X159000002Y-119874843D01*
X158999998Y-119874843D01*
X158764684Y-119895430D01*
X158764673Y-119895432D01*
X158536516Y-119956566D01*
X158536507Y-119956570D01*
X158322419Y-120056401D01*
X158238625Y-120115072D01*
X158870590Y-120747037D01*
X158807007Y-120764075D01*
X158692993Y-120829901D01*
X158599901Y-120922993D01*
X158534075Y-121037007D01*
X158517037Y-121100589D01*
X157885073Y-120468626D01*
X157831881Y-120544594D01*
X157777304Y-120588219D01*
X157707806Y-120595413D01*
X157645451Y-120563891D01*
X157628730Y-120544594D01*
X157498494Y-120358597D01*
X157331402Y-120191506D01*
X157331395Y-120191501D01*
X157137834Y-120055967D01*
X157137830Y-120055965D01*
X157137828Y-120055964D01*
X156923663Y-119956097D01*
X156923659Y-119956096D01*
X156923655Y-119956094D01*
X156695413Y-119894938D01*
X156695403Y-119894936D01*
X156460001Y-119874341D01*
X156459999Y-119874341D01*
X156224596Y-119894936D01*
X156224586Y-119894938D01*
X155996344Y-119956094D01*
X155996335Y-119956098D01*
X155782171Y-120055964D01*
X155782169Y-120055965D01*
X155588597Y-120191505D01*
X155421505Y-120358597D01*
X155291575Y-120544158D01*
X155236998Y-120587783D01*
X155167500Y-120594977D01*
X155105145Y-120563454D01*
X155088425Y-120544158D01*
X154958494Y-120358597D01*
X154791402Y-120191506D01*
X154791395Y-120191501D01*
X154597834Y-120055967D01*
X154597830Y-120055965D01*
X154597828Y-120055964D01*
X154383663Y-119956097D01*
X154383659Y-119956096D01*
X154383655Y-119956094D01*
X154155413Y-119894938D01*
X154155403Y-119894936D01*
X153920001Y-119874341D01*
X153919999Y-119874341D01*
X153684596Y-119894936D01*
X153684586Y-119894938D01*
X153456344Y-119956094D01*
X153456335Y-119956098D01*
X153242171Y-120055964D01*
X153242169Y-120055965D01*
X153048597Y-120191505D01*
X152881505Y-120358597D01*
X152745965Y-120552169D01*
X152745964Y-120552171D01*
X152646098Y-120766335D01*
X152646094Y-120766344D01*
X152584938Y-120994586D01*
X152584936Y-120994596D01*
X152564341Y-121229999D01*
X108070854Y-121229999D01*
X108000533Y-121094913D01*
X107998947Y-121091756D01*
X107419762Y-119895430D01*
X107404768Y-119864460D01*
X107403244Y-119861191D01*
X107230709Y-119476686D01*
X107128990Y-119249998D01*
X167694532Y-119249998D01*
X167694532Y-119250001D01*
X167714364Y-119476686D01*
X167714366Y-119476697D01*
X167773258Y-119696488D01*
X167773261Y-119696497D01*
X167869431Y-119902732D01*
X167869432Y-119902734D01*
X167999954Y-120089141D01*
X168160858Y-120250045D01*
X168160861Y-120250047D01*
X168347266Y-120380568D01*
X168553504Y-120476739D01*
X168773308Y-120535635D01*
X168935230Y-120549801D01*
X168999998Y-120555468D01*
X169000000Y-120555468D01*
X169000002Y-120555468D01*
X169056673Y-120550509D01*
X169226692Y-120535635D01*
X169446496Y-120476739D01*
X169652734Y-120380568D01*
X169839139Y-120250047D01*
X170000047Y-120089139D01*
X170130568Y-119902734D01*
X170226739Y-119696496D01*
X170285635Y-119476692D01*
X170305468Y-119250000D01*
X170285635Y-119023308D01*
X170226739Y-118803504D01*
X170130568Y-118597266D01*
X170000047Y-118410861D01*
X170000045Y-118410858D01*
X169839141Y-118249954D01*
X169652734Y-118119432D01*
X169652732Y-118119431D01*
X169446497Y-118023261D01*
X169446488Y-118023258D01*
X169226697Y-117964366D01*
X169226693Y-117964365D01*
X169226692Y-117964365D01*
X169226691Y-117964364D01*
X169226686Y-117964364D01*
X169000002Y-117944532D01*
X168999998Y-117944532D01*
X168773313Y-117964364D01*
X168773302Y-117964366D01*
X168553511Y-118023258D01*
X168553502Y-118023261D01*
X168347267Y-118119431D01*
X168347265Y-118119432D01*
X168160858Y-118249954D01*
X167999954Y-118410858D01*
X167869432Y-118597265D01*
X167869431Y-118597267D01*
X167773261Y-118803502D01*
X167773258Y-118803511D01*
X167714366Y-119023302D01*
X167714364Y-119023313D01*
X167694532Y-119249998D01*
X107128990Y-119249998D01*
X106845028Y-118617169D01*
X106843631Y-118613931D01*
X106321819Y-117354166D01*
X106320493Y-117350828D01*
X106259382Y-117190234D01*
X105835541Y-116076417D01*
X105834315Y-116073045D01*
X105768959Y-115885017D01*
X105421458Y-114885258D01*
X106749500Y-114885258D01*
X106749500Y-115114741D01*
X106767554Y-115251864D01*
X106779452Y-115342238D01*
X106796787Y-115406932D01*
X106838842Y-115563887D01*
X106926650Y-115775876D01*
X106926657Y-115775890D01*
X107041392Y-115974617D01*
X107181081Y-116156661D01*
X107181089Y-116156670D01*
X107343330Y-116318911D01*
X107343338Y-116318918D01*
X107525382Y-116458607D01*
X107525385Y-116458608D01*
X107525388Y-116458611D01*
X107724112Y-116573344D01*
X107724117Y-116573346D01*
X107724123Y-116573349D01*
X107806678Y-116607544D01*
X107936113Y-116661158D01*
X108157762Y-116720548D01*
X108374312Y-116749057D01*
X108385250Y-116750498D01*
X108385266Y-116750500D01*
X108385273Y-116750500D01*
X108614727Y-116750500D01*
X108614734Y-116750500D01*
X108842238Y-116720548D01*
X109063887Y-116661158D01*
X109275888Y-116573344D01*
X109474612Y-116458611D01*
X109656661Y-116318919D01*
X109656665Y-116318914D01*
X109656670Y-116318911D01*
X109818911Y-116156670D01*
X109818914Y-116156665D01*
X109818919Y-116156661D01*
X109958611Y-115974612D01*
X110073344Y-115775888D01*
X110161158Y-115563887D01*
X110220548Y-115342238D01*
X110250500Y-115114734D01*
X110250500Y-114885266D01*
X110220548Y-114657762D01*
X110161158Y-114436113D01*
X110084068Y-114250002D01*
X110073349Y-114224123D01*
X110073346Y-114224117D01*
X110073344Y-114224112D01*
X110060656Y-114202135D01*
X115999500Y-114202135D01*
X115999500Y-116297870D01*
X115999501Y-116297876D01*
X116005908Y-116357483D01*
X116056202Y-116492328D01*
X116056206Y-116492335D01*
X116142452Y-116607544D01*
X116142455Y-116607547D01*
X116257664Y-116693793D01*
X116257671Y-116693797D01*
X116392517Y-116744091D01*
X116392516Y-116744091D01*
X116399444Y-116744835D01*
X116452127Y-116750500D01*
X118547872Y-116750499D01*
X118607483Y-116744091D01*
X118742331Y-116693796D01*
X118857546Y-116607546D01*
X118909984Y-116537498D01*
X130444532Y-116537498D01*
X130444532Y-116537501D01*
X130464364Y-116764186D01*
X130464366Y-116764197D01*
X130523258Y-116983988D01*
X130523261Y-116983997D01*
X130619431Y-117190232D01*
X130619432Y-117190234D01*
X130749954Y-117376641D01*
X130910858Y-117537545D01*
X130910861Y-117537547D01*
X131097266Y-117668068D01*
X131303504Y-117764239D01*
X131523308Y-117823135D01*
X131685230Y-117837301D01*
X131749998Y-117842968D01*
X131750000Y-117842968D01*
X131750002Y-117842968D01*
X131806673Y-117838009D01*
X131976692Y-117823135D01*
X132196496Y-117764239D01*
X132402734Y-117668068D01*
X132589139Y-117537547D01*
X132750047Y-117376639D01*
X132880568Y-117190234D01*
X132976739Y-116983996D01*
X133035635Y-116764192D01*
X133055468Y-116537500D01*
X133055468Y-116537498D01*
X134444532Y-116537498D01*
X134444532Y-116537501D01*
X134464364Y-116764186D01*
X134464366Y-116764197D01*
X134523258Y-116983988D01*
X134523261Y-116983997D01*
X134619431Y-117190232D01*
X134619432Y-117190234D01*
X134749954Y-117376641D01*
X134910858Y-117537545D01*
X134910861Y-117537547D01*
X135097266Y-117668068D01*
X135303504Y-117764239D01*
X135523308Y-117823135D01*
X135685230Y-117837301D01*
X135749998Y-117842968D01*
X135750000Y-117842968D01*
X135750002Y-117842968D01*
X135806673Y-117838009D01*
X135976692Y-117823135D01*
X136196496Y-117764239D01*
X136402734Y-117668068D01*
X136589139Y-117537547D01*
X136750047Y-117376639D01*
X136880568Y-117190234D01*
X136976739Y-116983996D01*
X137035635Y-116764192D01*
X137055468Y-116537500D01*
X137055468Y-116537498D01*
X137884532Y-116537498D01*
X137884532Y-116537501D01*
X137904364Y-116764186D01*
X137904366Y-116764197D01*
X137963258Y-116983988D01*
X137963261Y-116983997D01*
X138059431Y-117190232D01*
X138059432Y-117190234D01*
X138189954Y-117376641D01*
X138350858Y-117537545D01*
X138350861Y-117537547D01*
X138537266Y-117668068D01*
X138743504Y-117764239D01*
X138963308Y-117823135D01*
X139125230Y-117837301D01*
X139189998Y-117842968D01*
X139190000Y-117842968D01*
X139190002Y-117842968D01*
X139246673Y-117838009D01*
X139416692Y-117823135D01*
X139636496Y-117764239D01*
X139842734Y-117668068D01*
X140029139Y-117537547D01*
X140190047Y-117376639D01*
X140320568Y-117190234D01*
X140416739Y-116983996D01*
X140475635Y-116764192D01*
X140495468Y-116537500D01*
X140475635Y-116310808D01*
X140469389Y-116287499D01*
X145531127Y-116287499D01*
X145531128Y-116287500D01*
X146494314Y-116287500D01*
X146489920Y-116291894D01*
X146437259Y-116383106D01*
X146410000Y-116484839D01*
X146410000Y-116590161D01*
X146437259Y-116691894D01*
X146489920Y-116783106D01*
X146494314Y-116787500D01*
X145531128Y-116787500D01*
X145583730Y-116983817D01*
X145583734Y-116983826D01*
X145679865Y-117189982D01*
X145810342Y-117376320D01*
X145971179Y-117537157D01*
X146157517Y-117667634D01*
X146363673Y-117763765D01*
X146363682Y-117763769D01*
X146559999Y-117816372D01*
X146560000Y-117816371D01*
X146560000Y-116853186D01*
X146564394Y-116857580D01*
X146655606Y-116910241D01*
X146757339Y-116937500D01*
X146862661Y-116937500D01*
X146964394Y-116910241D01*
X147055606Y-116857580D01*
X147060000Y-116853186D01*
X147060000Y-117816372D01*
X147256317Y-117763769D01*
X147256326Y-117763765D01*
X147462482Y-117667634D01*
X147648820Y-117537157D01*
X147809657Y-117376320D01*
X147940134Y-117189982D01*
X148036265Y-116983826D01*
X148036269Y-116983817D01*
X148088872Y-116787500D01*
X147125686Y-116787500D01*
X147130080Y-116783106D01*
X147182741Y-116691894D01*
X147210000Y-116590161D01*
X147210000Y-116484839D01*
X147182741Y-116383106D01*
X147130080Y-116291894D01*
X147125686Y-116287500D01*
X148088872Y-116287500D01*
X148088872Y-116287499D01*
X148036269Y-116091182D01*
X148036265Y-116091173D01*
X147940134Y-115885017D01*
X147809657Y-115698679D01*
X147648820Y-115537842D01*
X147462482Y-115407365D01*
X147256328Y-115311234D01*
X147060000Y-115258627D01*
X147060000Y-116221814D01*
X147055606Y-116217420D01*
X146964394Y-116164759D01*
X146862661Y-116137500D01*
X146757339Y-116137500D01*
X146655606Y-116164759D01*
X146564394Y-116217420D01*
X146560000Y-116221814D01*
X146560000Y-115258627D01*
X146363671Y-115311234D01*
X146157517Y-115407365D01*
X145971179Y-115537842D01*
X145810342Y-115698679D01*
X145679865Y-115885017D01*
X145583734Y-116091173D01*
X145583730Y-116091182D01*
X145531127Y-116287499D01*
X140469389Y-116287499D01*
X140416739Y-116091004D01*
X140320568Y-115884766D01*
X140190047Y-115698361D01*
X140190045Y-115698358D01*
X140029141Y-115537454D01*
X139842734Y-115406932D01*
X139842732Y-115406931D01*
X139636497Y-115310761D01*
X139636488Y-115310758D01*
X139416697Y-115251866D01*
X139416693Y-115251865D01*
X139416692Y-115251865D01*
X139416691Y-115251864D01*
X139416686Y-115251864D01*
X139190002Y-115232032D01*
X139189998Y-115232032D01*
X138963313Y-115251864D01*
X138963302Y-115251866D01*
X138743511Y-115310758D01*
X138743502Y-115310761D01*
X138537267Y-115406931D01*
X138537265Y-115406932D01*
X138350858Y-115537454D01*
X138189954Y-115698358D01*
X138059432Y-115884765D01*
X138059431Y-115884767D01*
X137963261Y-116091002D01*
X137963258Y-116091011D01*
X137904366Y-116310802D01*
X137904364Y-116310813D01*
X137884532Y-116537498D01*
X137055468Y-116537498D01*
X137035635Y-116310808D01*
X136976739Y-116091004D01*
X136880568Y-115884766D01*
X136750047Y-115698361D01*
X136750045Y-115698358D01*
X136589141Y-115537454D01*
X136402734Y-115406932D01*
X136402732Y-115406931D01*
X136196497Y-115310761D01*
X136196488Y-115310758D01*
X135976697Y-115251866D01*
X135976693Y-115251865D01*
X135976692Y-115251865D01*
X135976691Y-115251864D01*
X135976686Y-115251864D01*
X135750002Y-115232032D01*
X135749998Y-115232032D01*
X135523313Y-115251864D01*
X135523302Y-115251866D01*
X135303511Y-115310758D01*
X135303502Y-115310761D01*
X135097267Y-115406931D01*
X135097265Y-115406932D01*
X134910858Y-115537454D01*
X134749954Y-115698358D01*
X134619432Y-115884765D01*
X134619431Y-115884767D01*
X134523261Y-116091002D01*
X134523258Y-116091011D01*
X134464366Y-116310802D01*
X134464364Y-116310813D01*
X134444532Y-116537498D01*
X133055468Y-116537498D01*
X133035635Y-116310808D01*
X132976739Y-116091004D01*
X132880568Y-115884766D01*
X132750047Y-115698361D01*
X132750045Y-115698358D01*
X132589141Y-115537454D01*
X132402734Y-115406932D01*
X132402732Y-115406931D01*
X132196497Y-115310761D01*
X132196488Y-115310758D01*
X131976697Y-115251866D01*
X131976693Y-115251865D01*
X131976692Y-115251865D01*
X131976691Y-115251864D01*
X131976686Y-115251864D01*
X131750002Y-115232032D01*
X131749998Y-115232032D01*
X131523313Y-115251864D01*
X131523302Y-115251866D01*
X131303511Y-115310758D01*
X131303502Y-115310761D01*
X131097267Y-115406931D01*
X131097265Y-115406932D01*
X130910858Y-115537454D01*
X130749954Y-115698358D01*
X130619432Y-115884765D01*
X130619431Y-115884767D01*
X130523261Y-116091002D01*
X130523258Y-116091011D01*
X130464366Y-116310802D01*
X130464364Y-116310813D01*
X130444532Y-116537498D01*
X118909984Y-116537498D01*
X118943796Y-116492331D01*
X118994091Y-116357483D01*
X119000500Y-116297873D01*
X119000499Y-114249997D01*
X167695034Y-114249997D01*
X167695034Y-114250002D01*
X167714858Y-114476599D01*
X167714860Y-114476610D01*
X167773730Y-114696317D01*
X167773735Y-114696331D01*
X167869863Y-114902478D01*
X167920974Y-114975472D01*
X168600000Y-114296446D01*
X168600000Y-114302661D01*
X168627259Y-114404394D01*
X168679920Y-114495606D01*
X168754394Y-114570080D01*
X168845606Y-114622741D01*
X168947339Y-114650000D01*
X168953553Y-114650000D01*
X168274526Y-115329025D01*
X168347513Y-115380132D01*
X168347521Y-115380136D01*
X168553668Y-115476264D01*
X168553682Y-115476269D01*
X168773389Y-115535139D01*
X168773400Y-115535141D01*
X168999998Y-115554966D01*
X169000002Y-115554966D01*
X169226599Y-115535141D01*
X169226610Y-115535139D01*
X169446317Y-115476269D01*
X169446331Y-115476264D01*
X169652478Y-115380136D01*
X169725471Y-115329024D01*
X169046447Y-114650000D01*
X169052661Y-114650000D01*
X169154394Y-114622741D01*
X169245606Y-114570080D01*
X169320080Y-114495606D01*
X169372741Y-114404394D01*
X169400000Y-114302661D01*
X169400000Y-114296447D01*
X170079024Y-114975471D01*
X170130136Y-114902478D01*
X170138166Y-114885258D01*
X189749500Y-114885258D01*
X189749500Y-115114741D01*
X189767554Y-115251864D01*
X189779452Y-115342238D01*
X189796787Y-115406932D01*
X189838842Y-115563887D01*
X189926650Y-115775876D01*
X189926657Y-115775890D01*
X190041392Y-115974617D01*
X190181081Y-116156661D01*
X190181089Y-116156670D01*
X190343330Y-116318911D01*
X190343338Y-116318918D01*
X190525382Y-116458607D01*
X190525385Y-116458608D01*
X190525388Y-116458611D01*
X190724112Y-116573344D01*
X190724117Y-116573346D01*
X190724123Y-116573349D01*
X190806678Y-116607544D01*
X190936113Y-116661158D01*
X191157762Y-116720548D01*
X191374312Y-116749057D01*
X191385250Y-116750498D01*
X191385266Y-116750500D01*
X191385273Y-116750500D01*
X191614727Y-116750500D01*
X191614734Y-116750500D01*
X191842238Y-116720548D01*
X192063887Y-116661158D01*
X192275888Y-116573344D01*
X192474612Y-116458611D01*
X192656661Y-116318919D01*
X192656665Y-116318914D01*
X192656670Y-116318911D01*
X192818911Y-116156670D01*
X192818914Y-116156665D01*
X192818919Y-116156661D01*
X192958611Y-115974612D01*
X193073344Y-115775888D01*
X193161158Y-115563887D01*
X193220548Y-115342238D01*
X193250500Y-115114734D01*
X193250500Y-114885266D01*
X193220548Y-114657762D01*
X193161158Y-114436113D01*
X193084068Y-114250002D01*
X193073349Y-114224123D01*
X193073346Y-114224117D01*
X193073344Y-114224112D01*
X192958611Y-114025388D01*
X192958608Y-114025385D01*
X192958607Y-114025382D01*
X192856607Y-113892455D01*
X192818919Y-113843339D01*
X192818918Y-113843338D01*
X192818911Y-113843330D01*
X192656670Y-113681089D01*
X192656661Y-113681081D01*
X192474617Y-113541392D01*
X192275890Y-113426657D01*
X192275876Y-113426650D01*
X192063887Y-113338842D01*
X191842238Y-113279452D01*
X191804215Y-113274446D01*
X191614741Y-113249500D01*
X191614734Y-113249500D01*
X191385266Y-113249500D01*
X191385258Y-113249500D01*
X191168715Y-113278009D01*
X191157762Y-113279452D01*
X191064076Y-113304554D01*
X190936112Y-113338842D01*
X190724123Y-113426650D01*
X190724109Y-113426657D01*
X190525382Y-113541392D01*
X190343338Y-113681081D01*
X190181081Y-113843338D01*
X190041392Y-114025382D01*
X189926657Y-114224109D01*
X189926650Y-114224123D01*
X189838842Y-114436112D01*
X189779453Y-114657759D01*
X189779451Y-114657770D01*
X189749500Y-114885258D01*
X170138166Y-114885258D01*
X170226264Y-114696331D01*
X170226269Y-114696317D01*
X170285139Y-114476610D01*
X170285141Y-114476599D01*
X170304966Y-114250002D01*
X170304966Y-114249997D01*
X170285141Y-114023400D01*
X170285139Y-114023389D01*
X170226269Y-113803682D01*
X170226264Y-113803668D01*
X170130136Y-113597521D01*
X170130132Y-113597513D01*
X170079025Y-113524526D01*
X169400000Y-114203551D01*
X169400000Y-114197339D01*
X169372741Y-114095606D01*
X169320080Y-114004394D01*
X169245606Y-113929920D01*
X169154394Y-113877259D01*
X169052661Y-113850000D01*
X169046448Y-113850000D01*
X169725472Y-113170974D01*
X169652478Y-113119863D01*
X169446331Y-113023735D01*
X169446317Y-113023730D01*
X169226610Y-112964860D01*
X169226599Y-112964858D01*
X169000002Y-112945034D01*
X168999998Y-112945034D01*
X168773400Y-112964858D01*
X168773389Y-112964860D01*
X168553682Y-113023730D01*
X168553673Y-113023734D01*
X168347516Y-113119866D01*
X168347512Y-113119868D01*
X168274526Y-113170973D01*
X168274526Y-113170974D01*
X168953553Y-113850000D01*
X168947339Y-113850000D01*
X168845606Y-113877259D01*
X168754394Y-113929920D01*
X168679920Y-114004394D01*
X168627259Y-114095606D01*
X168600000Y-114197339D01*
X168600000Y-114203552D01*
X167920974Y-113524526D01*
X167920973Y-113524526D01*
X167869868Y-113597512D01*
X167869866Y-113597516D01*
X167773734Y-113803673D01*
X167773730Y-113803682D01*
X167714860Y-114023389D01*
X167714858Y-114023400D01*
X167695034Y-114249997D01*
X119000499Y-114249997D01*
X119000499Y-114202128D01*
X118994091Y-114142517D01*
X118976594Y-114095606D01*
X118943797Y-114007671D01*
X118943793Y-114007664D01*
X118857547Y-113892455D01*
X118857544Y-113892452D01*
X118742335Y-113806206D01*
X118742328Y-113806202D01*
X118607482Y-113755908D01*
X118607483Y-113755908D01*
X118547883Y-113749501D01*
X118547881Y-113749500D01*
X118547873Y-113749500D01*
X118547864Y-113749500D01*
X116452129Y-113749500D01*
X116452123Y-113749501D01*
X116392516Y-113755908D01*
X116257671Y-113806202D01*
X116257664Y-113806206D01*
X116142455Y-113892452D01*
X116142452Y-113892455D01*
X116056206Y-114007664D01*
X116056202Y-114007671D01*
X116005908Y-114142517D01*
X116000015Y-114197339D01*
X115999501Y-114202123D01*
X115999500Y-114202135D01*
X110060656Y-114202135D01*
X109958611Y-114025388D01*
X109958608Y-114025385D01*
X109958607Y-114025382D01*
X109856607Y-113892455D01*
X109818919Y-113843339D01*
X109818918Y-113843338D01*
X109818911Y-113843330D01*
X109656670Y-113681089D01*
X109656661Y-113681081D01*
X109474617Y-113541392D01*
X109275890Y-113426657D01*
X109275876Y-113426650D01*
X109063887Y-113338842D01*
X108842238Y-113279452D01*
X108804215Y-113274446D01*
X108614741Y-113249500D01*
X108614734Y-113249500D01*
X108385266Y-113249500D01*
X108385258Y-113249500D01*
X108168715Y-113278009D01*
X108157762Y-113279452D01*
X108064076Y-113304554D01*
X107936112Y-113338842D01*
X107724123Y-113426650D01*
X107724109Y-113426657D01*
X107525382Y-113541392D01*
X107343338Y-113681081D01*
X107181081Y-113843338D01*
X107041392Y-114025382D01*
X106926657Y-114224109D01*
X106926650Y-114224123D01*
X106838842Y-114436112D01*
X106779453Y-114657759D01*
X106779451Y-114657770D01*
X106749500Y-114885258D01*
X105421458Y-114885258D01*
X105386670Y-114785172D01*
X105385535Y-114781749D01*
X105289325Y-114476610D01*
X104975494Y-113481265D01*
X104974486Y-113477897D01*
X104602459Y-112166096D01*
X104601531Y-112162632D01*
X104594250Y-112133788D01*
X104267821Y-110840589D01*
X104266990Y-110837081D01*
X104232001Y-110679255D01*
X104126226Y-110202135D01*
X126684500Y-110202135D01*
X126684500Y-111797870D01*
X126684501Y-111797876D01*
X126690908Y-111857483D01*
X126741202Y-111992328D01*
X126741206Y-111992335D01*
X126827452Y-112107544D01*
X126827455Y-112107547D01*
X126942664Y-112193793D01*
X126942671Y-112193797D01*
X127077517Y-112244091D01*
X127077516Y-112244091D01*
X127084444Y-112244835D01*
X127137127Y-112250500D01*
X128282872Y-112250499D01*
X128342483Y-112244091D01*
X128477331Y-112193796D01*
X128478430Y-112192972D01*
X128479717Y-112192492D01*
X128485112Y-112189547D01*
X128485535Y-112190322D01*
X128543887Y-112168552D01*
X128600198Y-112177673D01*
X128680873Y-112211091D01*
X128846777Y-112244091D01*
X128878992Y-112250499D01*
X128878996Y-112250500D01*
X128878997Y-112250500D01*
X129081004Y-112250500D01*
X129081005Y-112250499D01*
X129279127Y-112211091D01*
X129465756Y-112133786D01*
X129546562Y-112079792D01*
X129613234Y-112058917D01*
X129680614Y-112077401D01*
X129684340Y-112079795D01*
X129764479Y-112133343D01*
X129764486Y-112133347D01*
X129951016Y-112210609D01*
X129951025Y-112210612D01*
X130000000Y-112220353D01*
X130000000Y-111365865D01*
X130002383Y-111341671D01*
X130005500Y-111326002D01*
X130005500Y-111285830D01*
X130019745Y-111300075D01*
X130105255Y-111349444D01*
X130200630Y-111375000D01*
X130299370Y-111375000D01*
X130394745Y-111349444D01*
X130480255Y-111300075D01*
X130500000Y-111280330D01*
X130500000Y-112220352D01*
X130548974Y-112210612D01*
X130548983Y-112210609D01*
X130735513Y-112133347D01*
X130735526Y-112133340D01*
X130903399Y-112021170D01*
X130903403Y-112021167D01*
X131046167Y-111878403D01*
X131046170Y-111878399D01*
X131158340Y-111710526D01*
X131158347Y-111710513D01*
X131235609Y-111523983D01*
X131235612Y-111523974D01*
X131274999Y-111325958D01*
X131275000Y-111325955D01*
X131275000Y-111250000D01*
X130530330Y-111250000D01*
X130550075Y-111230255D01*
X130599444Y-111144745D01*
X130625000Y-111049370D01*
X130625000Y-110950630D01*
X130599444Y-110855255D01*
X130550075Y-110769745D01*
X130530330Y-110750000D01*
X131275000Y-110750000D01*
X131275000Y-110674045D01*
X131274999Y-110674041D01*
X131240380Y-110499996D01*
X147444435Y-110499996D01*
X147444435Y-110500003D01*
X147464630Y-110679249D01*
X147464631Y-110679254D01*
X147524211Y-110849523D01*
X147527813Y-110855255D01*
X147620184Y-111002262D01*
X147747738Y-111129816D01*
X147900478Y-111225789D01*
X148070745Y-111285368D01*
X148070750Y-111285369D01*
X148249996Y-111305565D01*
X148250000Y-111305565D01*
X148250004Y-111305565D01*
X148429249Y-111285369D01*
X148429252Y-111285368D01*
X148429255Y-111285368D01*
X148599522Y-111225789D01*
X148752262Y-111129816D01*
X148879816Y-111002262D01*
X148975789Y-110849522D01*
X149035368Y-110679255D01*
X149035955Y-110674045D01*
X149055565Y-110500003D01*
X149055565Y-110499996D01*
X149035369Y-110320750D01*
X149035368Y-110320745D01*
X149024345Y-110289244D01*
X148975789Y-110150478D01*
X148879816Y-109997738D01*
X148752262Y-109870184D01*
X148676095Y-109822325D01*
X148599523Y-109774211D01*
X148429254Y-109714631D01*
X148429249Y-109714630D01*
X148250004Y-109694435D01*
X148249996Y-109694435D01*
X148070750Y-109714630D01*
X148070745Y-109714631D01*
X147900476Y-109774211D01*
X147747737Y-109870184D01*
X147620184Y-109997737D01*
X147524211Y-110150476D01*
X147464631Y-110320745D01*
X147464630Y-110320750D01*
X147444435Y-110499996D01*
X131240380Y-110499996D01*
X131235612Y-110476025D01*
X131235609Y-110476016D01*
X131158347Y-110289486D01*
X131158340Y-110289473D01*
X131046170Y-110121600D01*
X131046167Y-110121596D01*
X130903403Y-109978832D01*
X130903399Y-109978829D01*
X130735526Y-109866659D01*
X130735513Y-109866652D01*
X130548984Y-109789390D01*
X130548977Y-109789388D01*
X130500000Y-109779645D01*
X130500000Y-110719670D01*
X130480255Y-110699925D01*
X130394745Y-110650556D01*
X130299370Y-110625000D01*
X130200630Y-110625000D01*
X130105255Y-110650556D01*
X130019745Y-110699925D01*
X130005500Y-110714170D01*
X130005500Y-110673996D01*
X130005499Y-110673995D01*
X130002383Y-110658326D01*
X130000000Y-110634134D01*
X130000000Y-109779646D01*
X129999999Y-109779645D01*
X129951022Y-109789388D01*
X129951015Y-109789390D01*
X129764481Y-109866654D01*
X129764479Y-109866655D01*
X129684337Y-109920204D01*
X129617660Y-109941081D01*
X129550280Y-109922596D01*
X129546558Y-109920204D01*
X129465754Y-109866212D01*
X129279127Y-109788909D01*
X129279119Y-109788907D01*
X129081007Y-109749500D01*
X129081003Y-109749500D01*
X128878997Y-109749500D01*
X128878992Y-109749500D01*
X128680880Y-109788907D01*
X128680868Y-109788910D01*
X128600198Y-109822325D01*
X128530729Y-109829794D01*
X128485342Y-109810036D01*
X128485114Y-109810454D01*
X128480447Y-109807905D01*
X128478432Y-109807028D01*
X128477331Y-109806204D01*
X128477330Y-109806203D01*
X128477328Y-109806202D01*
X128342482Y-109755908D01*
X128342483Y-109755908D01*
X128282883Y-109749501D01*
X128282881Y-109749500D01*
X128282873Y-109749500D01*
X128282864Y-109749500D01*
X127137129Y-109749500D01*
X127137123Y-109749501D01*
X127077516Y-109755908D01*
X126942671Y-109806202D01*
X126942664Y-109806206D01*
X126827455Y-109892452D01*
X126827452Y-109892455D01*
X126741206Y-110007664D01*
X126741202Y-110007671D01*
X126690908Y-110142517D01*
X126684501Y-110202116D01*
X126684500Y-110202135D01*
X104126226Y-110202135D01*
X103971857Y-109505827D01*
X103971145Y-109502379D01*
X103714852Y-108163073D01*
X103714249Y-108159653D01*
X103497020Y-106813477D01*
X103496508Y-106809979D01*
X103344075Y-105652135D01*
X167699500Y-105652135D01*
X167699500Y-107347870D01*
X167699501Y-107347876D01*
X167705908Y-107407483D01*
X167756202Y-107542328D01*
X167756206Y-107542335D01*
X167842452Y-107657544D01*
X167842455Y-107657547D01*
X167957664Y-107743793D01*
X167957671Y-107743797D01*
X168092517Y-107794091D01*
X168092516Y-107794091D01*
X168099444Y-107794835D01*
X168152127Y-107800500D01*
X169847872Y-107800499D01*
X169907483Y-107794091D01*
X170042331Y-107743796D01*
X170157546Y-107657546D01*
X170243796Y-107542331D01*
X170294091Y-107407483D01*
X170300500Y-107347873D01*
X170300499Y-107347845D01*
X170300678Y-107344547D01*
X170302183Y-107344627D01*
X170320112Y-107283326D01*
X170372868Y-107237514D01*
X170416465Y-107229981D01*
X171100000Y-106546446D01*
X171100000Y-106552661D01*
X171127259Y-106654394D01*
X171179920Y-106745606D01*
X171254394Y-106820080D01*
X171345606Y-106872741D01*
X171447339Y-106900000D01*
X171453553Y-106900000D01*
X170774526Y-107579025D01*
X170847513Y-107630132D01*
X170847521Y-107630136D01*
X171053668Y-107726264D01*
X171053682Y-107726269D01*
X171273389Y-107785139D01*
X171273400Y-107785141D01*
X171499998Y-107804966D01*
X171500002Y-107804966D01*
X171726599Y-107785141D01*
X171726610Y-107785139D01*
X171946317Y-107726269D01*
X171946331Y-107726264D01*
X172152478Y-107630136D01*
X172225471Y-107579024D01*
X171546447Y-106900000D01*
X171552661Y-106900000D01*
X171654394Y-106872741D01*
X171745606Y-106820080D01*
X171820080Y-106745606D01*
X171872741Y-106654394D01*
X171900000Y-106552661D01*
X171900000Y-106546447D01*
X172579024Y-107225471D01*
X172630136Y-107152478D01*
X172726264Y-106946331D01*
X172726269Y-106946317D01*
X172785139Y-106726610D01*
X172785141Y-106726599D01*
X172804966Y-106500002D01*
X172804966Y-106499997D01*
X172785141Y-106273400D01*
X172785139Y-106273389D01*
X172726269Y-106053682D01*
X172726264Y-106053668D01*
X172630136Y-105847521D01*
X172630132Y-105847513D01*
X172579025Y-105774526D01*
X171900000Y-106453551D01*
X171900000Y-106447339D01*
X171872741Y-106345606D01*
X171820080Y-106254394D01*
X171745606Y-106179920D01*
X171654394Y-106127259D01*
X171552661Y-106100000D01*
X171546448Y-106100000D01*
X172225472Y-105420974D01*
X172152478Y-105369863D01*
X171946331Y-105273735D01*
X171946317Y-105273730D01*
X171726610Y-105214860D01*
X171726599Y-105214858D01*
X171500002Y-105195034D01*
X171499998Y-105195034D01*
X171273400Y-105214858D01*
X171273389Y-105214860D01*
X171053682Y-105273730D01*
X171053673Y-105273734D01*
X170847516Y-105369866D01*
X170847512Y-105369868D01*
X170774526Y-105420973D01*
X170774526Y-105420974D01*
X171453553Y-106100000D01*
X171447339Y-106100000D01*
X171345606Y-106127259D01*
X171254394Y-106179920D01*
X171179920Y-106254394D01*
X171127259Y-106345606D01*
X171100000Y-106447339D01*
X171100000Y-106453552D01*
X170415799Y-105769351D01*
X170366805Y-105759505D01*
X170316622Y-105710889D01*
X170301981Y-105655366D01*
X170300900Y-105655423D01*
X170300854Y-105655429D01*
X170300853Y-105655426D01*
X170300676Y-105655436D01*
X170300499Y-105652135D01*
X170300499Y-105652128D01*
X170294091Y-105592517D01*
X170256635Y-105492093D01*
X170243797Y-105457671D01*
X170243793Y-105457664D01*
X170157547Y-105342455D01*
X170157544Y-105342452D01*
X170042335Y-105256206D01*
X170042328Y-105256202D01*
X169907482Y-105205908D01*
X169907483Y-105205908D01*
X169847883Y-105199501D01*
X169847881Y-105199500D01*
X169847873Y-105199500D01*
X169847864Y-105199500D01*
X168152129Y-105199500D01*
X168152123Y-105199501D01*
X168092516Y-105205908D01*
X167957671Y-105256202D01*
X167957664Y-105256206D01*
X167842455Y-105342452D01*
X167842452Y-105342455D01*
X167756206Y-105457664D01*
X167756202Y-105457671D01*
X167705908Y-105592517D01*
X167699501Y-105652116D01*
X167699501Y-105652123D01*
X167699500Y-105652135D01*
X103344075Y-105652135D01*
X103318524Y-105458058D01*
X103318116Y-105454574D01*
X103179528Y-104098054D01*
X103179215Y-104094465D01*
X103168180Y-103942993D01*
X103080144Y-102734536D01*
X103079939Y-102731033D01*
X103056847Y-102202135D01*
X123249500Y-102202135D01*
X123249500Y-104297870D01*
X123249501Y-104297876D01*
X123255908Y-104357483D01*
X123306202Y-104492328D01*
X123306206Y-104492335D01*
X123392452Y-104607544D01*
X123392455Y-104607547D01*
X123507664Y-104693793D01*
X123507671Y-104693797D01*
X123642517Y-104744091D01*
X123642516Y-104744091D01*
X123649444Y-104744835D01*
X123702127Y-104750500D01*
X125797872Y-104750499D01*
X125857483Y-104744091D01*
X125992331Y-104693796D01*
X126107546Y-104607546D01*
X126193796Y-104492331D01*
X126244091Y-104357483D01*
X126250500Y-104297873D01*
X126250499Y-103202135D01*
X174249500Y-103202135D01*
X174249500Y-105297870D01*
X174249501Y-105297876D01*
X174255908Y-105357483D01*
X174306202Y-105492328D01*
X174306206Y-105492335D01*
X174392452Y-105607544D01*
X174392455Y-105607547D01*
X174507664Y-105693793D01*
X174507671Y-105693797D01*
X174642517Y-105744091D01*
X174642516Y-105744091D01*
X174649444Y-105744835D01*
X174702127Y-105750500D01*
X176797872Y-105750499D01*
X176857483Y-105744091D01*
X176992331Y-105693796D01*
X177107546Y-105607546D01*
X177193796Y-105492331D01*
X177244091Y-105357483D01*
X177250500Y-105297873D01*
X177250499Y-103202135D01*
X177749500Y-103202135D01*
X177749500Y-105297870D01*
X177749501Y-105297876D01*
X177755908Y-105357483D01*
X177806202Y-105492328D01*
X177806206Y-105492335D01*
X177892452Y-105607544D01*
X177892455Y-105607547D01*
X178007664Y-105693793D01*
X178007671Y-105693797D01*
X178142517Y-105744091D01*
X178142516Y-105744091D01*
X178149444Y-105744835D01*
X178202127Y-105750500D01*
X180297872Y-105750499D01*
X180357483Y-105744091D01*
X180492331Y-105693796D01*
X180607546Y-105607546D01*
X180693796Y-105492331D01*
X180744091Y-105357483D01*
X180750500Y-105297873D01*
X180750499Y-103202155D01*
X181250000Y-103202155D01*
X181250000Y-104000000D01*
X182316988Y-104000000D01*
X182284075Y-104057007D01*
X182250000Y-104184174D01*
X182250000Y-104315826D01*
X182284075Y-104442993D01*
X182316988Y-104500000D01*
X181250000Y-104500000D01*
X181250000Y-105297844D01*
X181256401Y-105357372D01*
X181256403Y-105357379D01*
X181306645Y-105492086D01*
X181306649Y-105492093D01*
X181392809Y-105607187D01*
X181392812Y-105607190D01*
X181507906Y-105693350D01*
X181507913Y-105693354D01*
X181642620Y-105743596D01*
X181642627Y-105743598D01*
X181702155Y-105749999D01*
X181702172Y-105750000D01*
X182500000Y-105750000D01*
X182500000Y-104683012D01*
X182557007Y-104715925D01*
X182684174Y-104750000D01*
X182815826Y-104750000D01*
X182942993Y-104715925D01*
X183000000Y-104683012D01*
X183000000Y-105750000D01*
X183797828Y-105750000D01*
X183797844Y-105749999D01*
X183857372Y-105743598D01*
X183857379Y-105743596D01*
X183992086Y-105693354D01*
X183992093Y-105693350D01*
X184107187Y-105607190D01*
X184107190Y-105607187D01*
X184193350Y-105492093D01*
X184193354Y-105492086D01*
X184243596Y-105357379D01*
X184243598Y-105357372D01*
X184249999Y-105297844D01*
X184250000Y-105297827D01*
X184250000Y-104500000D01*
X183183012Y-104500000D01*
X183215925Y-104442993D01*
X183250000Y-104315826D01*
X183250000Y-104184174D01*
X183215925Y-104057007D01*
X183183012Y-104000000D01*
X184250000Y-104000000D01*
X184250000Y-103202172D01*
X184249999Y-103202155D01*
X184249997Y-103202135D01*
X184749500Y-103202135D01*
X184749500Y-105297870D01*
X184749501Y-105297876D01*
X184755908Y-105357483D01*
X184806202Y-105492328D01*
X184806206Y-105492335D01*
X184892452Y-105607544D01*
X184892455Y-105607547D01*
X185007664Y-105693793D01*
X185007671Y-105693797D01*
X185142517Y-105744091D01*
X185142516Y-105744091D01*
X185149444Y-105744835D01*
X185202127Y-105750500D01*
X187297872Y-105750499D01*
X187357483Y-105744091D01*
X187492331Y-105693796D01*
X187607546Y-105607546D01*
X187693796Y-105492331D01*
X187744091Y-105357483D01*
X187750500Y-105297873D01*
X187750499Y-103202128D01*
X187744091Y-103142517D01*
X187693884Y-103007906D01*
X187693797Y-103007671D01*
X187693793Y-103007664D01*
X187607547Y-102892455D01*
X187607544Y-102892452D01*
X187492335Y-102806206D01*
X187492328Y-102806202D01*
X187357482Y-102755908D01*
X187357483Y-102755908D01*
X187297883Y-102749501D01*
X187297881Y-102749500D01*
X187297873Y-102749500D01*
X187297864Y-102749500D01*
X185202129Y-102749500D01*
X185202123Y-102749501D01*
X185142516Y-102755908D01*
X185007671Y-102806202D01*
X185007664Y-102806206D01*
X184892455Y-102892452D01*
X184892452Y-102892455D01*
X184806206Y-103007664D01*
X184806202Y-103007671D01*
X184755908Y-103142517D01*
X184749501Y-103202116D01*
X184749501Y-103202123D01*
X184749500Y-103202135D01*
X184249997Y-103202135D01*
X184243598Y-103142627D01*
X184243596Y-103142620D01*
X184193354Y-103007913D01*
X184193350Y-103007906D01*
X184107190Y-102892812D01*
X184107187Y-102892809D01*
X183992093Y-102806649D01*
X183992086Y-102806645D01*
X183857379Y-102756403D01*
X183857372Y-102756401D01*
X183797844Y-102750000D01*
X183000000Y-102750000D01*
X183000000Y-103816988D01*
X182942993Y-103784075D01*
X182815826Y-103750000D01*
X182684174Y-103750000D01*
X182557007Y-103784075D01*
X182500000Y-103816988D01*
X182500000Y-102750000D01*
X181702155Y-102750000D01*
X181642627Y-102756401D01*
X181642620Y-102756403D01*
X181507913Y-102806645D01*
X181507906Y-102806649D01*
X181392812Y-102892809D01*
X181392809Y-102892812D01*
X181306649Y-103007906D01*
X181306645Y-103007913D01*
X181256403Y-103142620D01*
X181256401Y-103142627D01*
X181250000Y-103202155D01*
X180750499Y-103202155D01*
X180750499Y-103202128D01*
X180744091Y-103142517D01*
X180693884Y-103007906D01*
X180693797Y-103007671D01*
X180693793Y-103007664D01*
X180607547Y-102892455D01*
X180607544Y-102892452D01*
X180492335Y-102806206D01*
X180492328Y-102806202D01*
X180357482Y-102755908D01*
X180357483Y-102755908D01*
X180297883Y-102749501D01*
X180297881Y-102749500D01*
X180297873Y-102749500D01*
X180297864Y-102749500D01*
X178202129Y-102749500D01*
X178202123Y-102749501D01*
X178142516Y-102755908D01*
X178007671Y-102806202D01*
X178007664Y-102806206D01*
X177892455Y-102892452D01*
X177892452Y-102892455D01*
X177806206Y-103007664D01*
X177806202Y-103007671D01*
X177755908Y-103142517D01*
X177749501Y-103202116D01*
X177749501Y-103202123D01*
X177749500Y-103202135D01*
X177250499Y-103202135D01*
X177250499Y-103202128D01*
X177244091Y-103142517D01*
X177193884Y-103007906D01*
X177193797Y-103007671D01*
X177193793Y-103007664D01*
X177107547Y-102892455D01*
X177107544Y-102892452D01*
X176992335Y-102806206D01*
X176992328Y-102806202D01*
X176857482Y-102755908D01*
X176857483Y-102755908D01*
X176797883Y-102749501D01*
X176797881Y-102749500D01*
X176797873Y-102749500D01*
X176797864Y-102749500D01*
X174702129Y-102749500D01*
X174702123Y-102749501D01*
X174642516Y-102755908D01*
X174507671Y-102806202D01*
X174507664Y-102806206D01*
X174392455Y-102892452D01*
X174392452Y-102892455D01*
X174306206Y-103007664D01*
X174306202Y-103007671D01*
X174255908Y-103142517D01*
X174249501Y-103202116D01*
X174249501Y-103202123D01*
X174249500Y-103202135D01*
X126250499Y-103202135D01*
X126250499Y-102202128D01*
X126244091Y-102142517D01*
X126193796Y-102007669D01*
X126193795Y-102007668D01*
X126193793Y-102007664D01*
X126107547Y-101892455D01*
X126107544Y-101892452D01*
X125992335Y-101806206D01*
X125992328Y-101806202D01*
X125857482Y-101755908D01*
X125857483Y-101755908D01*
X125797883Y-101749501D01*
X125797881Y-101749500D01*
X125797873Y-101749500D01*
X125797864Y-101749500D01*
X123702129Y-101749500D01*
X123702123Y-101749501D01*
X123642516Y-101755908D01*
X123507671Y-101806202D01*
X123507664Y-101806206D01*
X123392455Y-101892452D01*
X123392452Y-101892455D01*
X123306206Y-102007664D01*
X123306202Y-102007671D01*
X123255908Y-102142517D01*
X123249501Y-102202116D01*
X123249501Y-102202123D01*
X123249500Y-102202135D01*
X103056847Y-102202135D01*
X103020459Y-101368718D01*
X103020357Y-101365219D01*
X103000526Y-100001787D01*
X103000526Y-99998197D01*
X103015474Y-98970498D01*
X103020357Y-98634778D01*
X103020459Y-98631283D01*
X103079940Y-97268962D01*
X103080143Y-97265467D01*
X103095111Y-97059999D01*
X115221127Y-97059999D01*
X115221128Y-97060000D01*
X116184314Y-97060000D01*
X116179920Y-97064394D01*
X116127259Y-97155606D01*
X116100000Y-97257339D01*
X116100000Y-97362661D01*
X116127259Y-97464394D01*
X116179920Y-97555606D01*
X116184314Y-97560000D01*
X115221128Y-97560000D01*
X115273730Y-97756317D01*
X115273734Y-97756326D01*
X115369865Y-97962482D01*
X115500342Y-98148820D01*
X115661179Y-98309657D01*
X115847517Y-98440134D01*
X116053673Y-98536265D01*
X116053682Y-98536269D01*
X116249999Y-98588872D01*
X116250000Y-98588871D01*
X116250000Y-97625686D01*
X116254394Y-97630080D01*
X116345606Y-97682741D01*
X116447339Y-97710000D01*
X116552661Y-97710000D01*
X116654394Y-97682741D01*
X116745606Y-97630080D01*
X116750000Y-97625686D01*
X116750000Y-98588872D01*
X116946317Y-98536269D01*
X116946326Y-98536265D01*
X117152482Y-98440134D01*
X117338820Y-98309657D01*
X117499657Y-98148820D01*
X117630134Y-97962482D01*
X117726265Y-97756326D01*
X117726269Y-97756317D01*
X117778872Y-97560000D01*
X116815686Y-97560000D01*
X116820080Y-97555606D01*
X116872741Y-97464394D01*
X116900000Y-97362661D01*
X116900000Y-97309998D01*
X120444532Y-97309998D01*
X120444532Y-97310001D01*
X120464364Y-97536686D01*
X120464366Y-97536697D01*
X120523258Y-97756488D01*
X120523261Y-97756497D01*
X120619431Y-97962732D01*
X120619432Y-97962734D01*
X120749954Y-98149141D01*
X120910858Y-98310045D01*
X120910861Y-98310047D01*
X121097266Y-98440568D01*
X121303504Y-98536739D01*
X121523308Y-98595635D01*
X121685230Y-98609801D01*
X121749998Y-98615468D01*
X121750000Y-98615468D01*
X121750002Y-98615468D01*
X121806673Y-98610509D01*
X121976692Y-98595635D01*
X122196496Y-98536739D01*
X122402734Y-98440568D01*
X122589139Y-98310047D01*
X122750047Y-98149139D01*
X122880568Y-97962734D01*
X122976739Y-97756496D01*
X123035635Y-97536692D01*
X123055468Y-97310000D01*
X123055468Y-97309998D01*
X125694532Y-97309998D01*
X125694532Y-97310001D01*
X125714364Y-97536686D01*
X125714366Y-97536697D01*
X125773258Y-97756488D01*
X125773261Y-97756497D01*
X125869431Y-97962732D01*
X125869432Y-97962734D01*
X125999954Y-98149141D01*
X126160858Y-98310045D01*
X126160861Y-98310047D01*
X126347266Y-98440568D01*
X126553504Y-98536739D01*
X126773308Y-98595635D01*
X126935230Y-98609801D01*
X126999998Y-98615468D01*
X127000000Y-98615468D01*
X127000002Y-98615468D01*
X127056673Y-98610509D01*
X127226692Y-98595635D01*
X127446496Y-98536739D01*
X127652734Y-98440568D01*
X127839139Y-98310047D01*
X128000047Y-98149139D01*
X128130568Y-97962734D01*
X128226739Y-97756496D01*
X128285635Y-97536692D01*
X128305468Y-97310000D01*
X128305468Y-97309998D01*
X130944532Y-97309998D01*
X130944532Y-97310001D01*
X130964364Y-97536686D01*
X130964366Y-97536697D01*
X131023258Y-97756488D01*
X131023261Y-97756497D01*
X131119431Y-97962732D01*
X131119432Y-97962734D01*
X131249954Y-98149141D01*
X131410858Y-98310045D01*
X131410861Y-98310047D01*
X131597266Y-98440568D01*
X131803504Y-98536739D01*
X132023308Y-98595635D01*
X132185230Y-98609801D01*
X132249998Y-98615468D01*
X132250000Y-98615468D01*
X132250002Y-98615468D01*
X132306673Y-98610509D01*
X132476692Y-98595635D01*
X132696496Y-98536739D01*
X132902734Y-98440568D01*
X133089139Y-98310047D01*
X133250047Y-98149139D01*
X133380568Y-97962734D01*
X133476739Y-97756496D01*
X133535635Y-97536692D01*
X133555468Y-97310000D01*
X133535635Y-97083308D01*
X133476739Y-96863504D01*
X133380568Y-96657266D01*
X133250047Y-96470861D01*
X133250045Y-96470858D01*
X133089141Y-96309954D01*
X132902734Y-96179432D01*
X132902732Y-96179431D01*
X132696497Y-96083261D01*
X132696488Y-96083258D01*
X132476697Y-96024366D01*
X132476693Y-96024365D01*
X132476692Y-96024365D01*
X132476691Y-96024364D01*
X132476686Y-96024364D01*
X132250002Y-96004532D01*
X132249998Y-96004532D01*
X132023313Y-96024364D01*
X132023302Y-96024366D01*
X131803511Y-96083258D01*
X131803502Y-96083261D01*
X131597267Y-96179431D01*
X131597265Y-96179432D01*
X131410858Y-96309954D01*
X131249954Y-96470858D01*
X131119432Y-96657265D01*
X131119431Y-96657267D01*
X131023261Y-96863502D01*
X131023258Y-96863511D01*
X130964366Y-97083302D01*
X130964364Y-97083313D01*
X130944532Y-97309998D01*
X128305468Y-97309998D01*
X128285635Y-97083308D01*
X128226739Y-96863504D01*
X128130568Y-96657266D01*
X128000047Y-96470861D01*
X128000045Y-96470858D01*
X127839141Y-96309954D01*
X127652734Y-96179432D01*
X127652732Y-96179431D01*
X127446497Y-96083261D01*
X127446488Y-96083258D01*
X127226697Y-96024366D01*
X127226693Y-96024365D01*
X127226692Y-96024365D01*
X127226691Y-96024364D01*
X127226686Y-96024364D01*
X127000002Y-96004532D01*
X126999998Y-96004532D01*
X126773313Y-96024364D01*
X126773302Y-96024366D01*
X126553511Y-96083258D01*
X126553502Y-96083261D01*
X126347267Y-96179431D01*
X126347265Y-96179432D01*
X126160858Y-96309954D01*
X125999954Y-96470858D01*
X125869432Y-96657265D01*
X125869431Y-96657267D01*
X125773261Y-96863502D01*
X125773258Y-96863511D01*
X125714366Y-97083302D01*
X125714364Y-97083313D01*
X125694532Y-97309998D01*
X123055468Y-97309998D01*
X123035635Y-97083308D01*
X122976739Y-96863504D01*
X122880568Y-96657266D01*
X122750047Y-96470861D01*
X122750045Y-96470858D01*
X122589141Y-96309954D01*
X122402734Y-96179432D01*
X122402732Y-96179431D01*
X122196497Y-96083261D01*
X122196488Y-96083258D01*
X121976697Y-96024366D01*
X121976693Y-96024365D01*
X121976692Y-96024365D01*
X121976691Y-96024364D01*
X121976686Y-96024364D01*
X121750002Y-96004532D01*
X121749998Y-96004532D01*
X121523313Y-96024364D01*
X121523302Y-96024366D01*
X121303511Y-96083258D01*
X121303502Y-96083261D01*
X121097267Y-96179431D01*
X121097265Y-96179432D01*
X120910858Y-96309954D01*
X120749954Y-96470858D01*
X120619432Y-96657265D01*
X120619431Y-96657267D01*
X120523261Y-96863502D01*
X120523258Y-96863511D01*
X120464366Y-97083302D01*
X120464364Y-97083313D01*
X120444532Y-97309998D01*
X116900000Y-97309998D01*
X116900000Y-97257339D01*
X116872741Y-97155606D01*
X116820080Y-97064394D01*
X116815686Y-97060000D01*
X117778872Y-97060000D01*
X117778872Y-97059999D01*
X117726269Y-96863682D01*
X117726265Y-96863673D01*
X117630134Y-96657517D01*
X117499657Y-96471179D01*
X117338820Y-96310342D01*
X117152482Y-96179865D01*
X116946328Y-96083734D01*
X116750000Y-96031127D01*
X116750000Y-96994314D01*
X116745606Y-96989920D01*
X116654394Y-96937259D01*
X116552661Y-96910000D01*
X116447339Y-96910000D01*
X116345606Y-96937259D01*
X116254394Y-96989920D01*
X116250000Y-96994314D01*
X116250000Y-96031127D01*
X116053671Y-96083734D01*
X115847517Y-96179865D01*
X115661179Y-96310342D01*
X115500342Y-96471179D01*
X115369865Y-96657517D01*
X115273734Y-96863673D01*
X115273730Y-96863682D01*
X115221127Y-97059999D01*
X103095111Y-97059999D01*
X103179215Y-95905524D01*
X103179529Y-95901941D01*
X103184393Y-95854335D01*
X103248981Y-95222135D01*
X166649500Y-95222135D01*
X166649500Y-98517870D01*
X166649501Y-98517876D01*
X166655908Y-98577483D01*
X166706202Y-98712328D01*
X166706206Y-98712335D01*
X166792452Y-98827544D01*
X166792455Y-98827547D01*
X166907664Y-98913793D01*
X166907671Y-98913797D01*
X167042517Y-98964091D01*
X167042516Y-98964091D01*
X167049444Y-98964835D01*
X167102127Y-98970500D01*
X170397872Y-98970499D01*
X170457483Y-98964091D01*
X170592331Y-98913796D01*
X170707546Y-98827546D01*
X170793796Y-98712331D01*
X170844091Y-98577483D01*
X170850500Y-98517873D01*
X170850499Y-95222128D01*
X170844091Y-95162517D01*
X170837309Y-95144334D01*
X170793797Y-95027671D01*
X170793793Y-95027664D01*
X170707547Y-94912455D01*
X170707544Y-94912452D01*
X170592335Y-94826206D01*
X170592328Y-94826202D01*
X170457482Y-94775908D01*
X170457483Y-94775908D01*
X170397883Y-94769501D01*
X170397881Y-94769500D01*
X170397873Y-94769500D01*
X170397864Y-94769500D01*
X167102129Y-94769500D01*
X167102123Y-94769501D01*
X167042516Y-94775908D01*
X166907671Y-94826202D01*
X166907664Y-94826206D01*
X166792455Y-94912452D01*
X166792452Y-94912455D01*
X166706206Y-95027664D01*
X166706202Y-95027671D01*
X166655908Y-95162517D01*
X166651140Y-95206872D01*
X166649501Y-95222123D01*
X166649500Y-95222135D01*
X103248981Y-95222135D01*
X103318117Y-94545417D01*
X103318523Y-94541949D01*
X103496509Y-93190010D01*
X103497019Y-93186532D01*
X103714251Y-91840334D01*
X103714850Y-91836938D01*
X103971148Y-90497606D01*
X103971854Y-90494185D01*
X104150138Y-89689998D01*
X115194532Y-89689998D01*
X115194532Y-89690001D01*
X115214364Y-89916686D01*
X115214366Y-89916697D01*
X115273258Y-90136488D01*
X115273261Y-90136497D01*
X115369431Y-90342732D01*
X115369432Y-90342734D01*
X115499954Y-90529141D01*
X115660858Y-90690045D01*
X115660861Y-90690047D01*
X115847266Y-90820568D01*
X116053504Y-90916739D01*
X116273308Y-90975635D01*
X116435230Y-90989801D01*
X116499998Y-90995468D01*
X116500000Y-90995468D01*
X116500002Y-90995468D01*
X116556673Y-90990509D01*
X116726692Y-90975635D01*
X116946496Y-90916739D01*
X117152734Y-90820568D01*
X117339139Y-90690047D01*
X117500047Y-90529139D01*
X117630568Y-90342734D01*
X117726739Y-90136496D01*
X117785635Y-89916692D01*
X117803186Y-89716081D01*
X117805468Y-89690001D01*
X117805468Y-89689998D01*
X120444532Y-89689998D01*
X120444532Y-89690001D01*
X120464364Y-89916686D01*
X120464366Y-89916697D01*
X120523258Y-90136488D01*
X120523261Y-90136497D01*
X120619431Y-90342732D01*
X120619432Y-90342734D01*
X120749954Y-90529141D01*
X120910858Y-90690045D01*
X120910861Y-90690047D01*
X121097266Y-90820568D01*
X121303504Y-90916739D01*
X121523308Y-90975635D01*
X121685230Y-90989801D01*
X121749998Y-90995468D01*
X121750000Y-90995468D01*
X121750002Y-90995468D01*
X121806673Y-90990509D01*
X121976692Y-90975635D01*
X122196496Y-90916739D01*
X122402734Y-90820568D01*
X122589139Y-90690047D01*
X122750047Y-90529139D01*
X122880568Y-90342734D01*
X122976739Y-90136496D01*
X123035635Y-89916692D01*
X123053186Y-89716081D01*
X123055468Y-89690001D01*
X123055468Y-89689998D01*
X125694532Y-89689998D01*
X125694532Y-89690001D01*
X125714364Y-89916686D01*
X125714366Y-89916697D01*
X125773258Y-90136488D01*
X125773261Y-90136497D01*
X125869431Y-90342732D01*
X125869432Y-90342734D01*
X125999954Y-90529141D01*
X126160858Y-90690045D01*
X126160861Y-90690047D01*
X126347266Y-90820568D01*
X126553504Y-90916739D01*
X126773308Y-90975635D01*
X126935230Y-90989801D01*
X126999998Y-90995468D01*
X127000000Y-90995468D01*
X127000002Y-90995468D01*
X127056673Y-90990509D01*
X127226692Y-90975635D01*
X127446496Y-90916739D01*
X127652734Y-90820568D01*
X127839139Y-90690047D01*
X128000047Y-90529139D01*
X128130568Y-90342734D01*
X128226739Y-90136496D01*
X128285635Y-89916692D01*
X128303186Y-89716081D01*
X128305468Y-89690001D01*
X128305468Y-89689998D01*
X130944532Y-89689998D01*
X130944532Y-89690001D01*
X130964364Y-89916686D01*
X130964366Y-89916697D01*
X131023258Y-90136488D01*
X131023261Y-90136497D01*
X131119431Y-90342732D01*
X131119432Y-90342734D01*
X131249954Y-90529141D01*
X131410858Y-90690045D01*
X131410861Y-90690047D01*
X131597266Y-90820568D01*
X131803504Y-90916739D01*
X132023308Y-90975635D01*
X132185230Y-90989801D01*
X132249998Y-90995468D01*
X132250000Y-90995468D01*
X132250002Y-90995468D01*
X132306673Y-90990509D01*
X132476692Y-90975635D01*
X132696496Y-90916739D01*
X132902734Y-90820568D01*
X133089139Y-90690047D01*
X133250047Y-90529139D01*
X133380568Y-90342734D01*
X133476739Y-90136496D01*
X133506619Y-90024983D01*
X137649500Y-90024983D01*
X137649500Y-91375001D01*
X137649501Y-91375018D01*
X137660000Y-91477796D01*
X137660001Y-91477799D01*
X137715185Y-91644331D01*
X137715186Y-91644334D01*
X137807288Y-91793656D01*
X137931344Y-91917712D01*
X138080666Y-92009814D01*
X138247203Y-92064999D01*
X138349991Y-92075500D01*
X139150008Y-92075499D01*
X139150016Y-92075498D01*
X139150019Y-92075498D01*
X139206302Y-92069748D01*
X139252797Y-92064999D01*
X139419334Y-92009814D01*
X139568656Y-91917712D01*
X139692712Y-91793656D01*
X139732581Y-91729016D01*
X139784525Y-91682294D01*
X139853488Y-91671071D01*
X139917570Y-91698914D01*
X139925799Y-91706434D01*
X140033397Y-91814032D01*
X140173475Y-91915804D01*
X140327744Y-91994408D01*
X140492415Y-92047914D01*
X140492414Y-92047914D01*
X140499999Y-92049115D01*
X140500000Y-92049114D01*
X140500000Y-90980330D01*
X140519745Y-91000075D01*
X140605255Y-91049444D01*
X140700630Y-91075000D01*
X140799370Y-91075000D01*
X140894745Y-91049444D01*
X140980255Y-91000075D01*
X141000000Y-90980330D01*
X141000000Y-92049115D01*
X141007584Y-92047914D01*
X141172255Y-91994408D01*
X141326524Y-91915804D01*
X141466602Y-91814032D01*
X141589032Y-91691602D01*
X141690804Y-91551524D01*
X141769408Y-91397257D01*
X141822914Y-91232584D01*
X141850000Y-91061571D01*
X141850000Y-90950000D01*
X141030330Y-90950000D01*
X141050075Y-90930255D01*
X141099444Y-90844745D01*
X141124833Y-90749993D01*
X156594700Y-90749993D01*
X156594700Y-90750006D01*
X156613864Y-90981297D01*
X156613866Y-90981308D01*
X156670842Y-91206300D01*
X156764075Y-91418848D01*
X156891016Y-91613147D01*
X156891019Y-91613151D01*
X156891021Y-91613153D01*
X157048216Y-91783913D01*
X157048219Y-91783915D01*
X157048222Y-91783918D01*
X157231365Y-91926464D01*
X157231371Y-91926468D01*
X157231374Y-91926470D01*
X157435497Y-92036936D01*
X157517239Y-92064998D01*
X157655015Y-92112297D01*
X157655017Y-92112297D01*
X157655019Y-92112298D01*
X157883951Y-92150500D01*
X157883952Y-92150500D01*
X158116048Y-92150500D01*
X158116049Y-92150500D01*
X158344981Y-92112298D01*
X158564503Y-92036936D01*
X158768626Y-91926470D01*
X158779879Y-91917712D01*
X158879194Y-91840412D01*
X158951784Y-91783913D01*
X159108979Y-91613153D01*
X159181511Y-91502135D01*
X160299500Y-91502135D01*
X160299500Y-93397870D01*
X160299501Y-93397876D01*
X160305908Y-93457483D01*
X160356202Y-93592328D01*
X160356206Y-93592335D01*
X160442452Y-93707544D01*
X160442455Y-93707547D01*
X160557664Y-93793793D01*
X160557671Y-93793797D01*
X160692517Y-93844091D01*
X160692516Y-93844091D01*
X160699444Y-93844835D01*
X160752127Y-93850500D01*
X162647872Y-93850499D01*
X162707483Y-93844091D01*
X162842331Y-93793796D01*
X162957546Y-93707546D01*
X163043796Y-93592331D01*
X163068915Y-93524983D01*
X177399500Y-93524983D01*
X177399500Y-94875001D01*
X177399501Y-94875018D01*
X177410000Y-94977796D01*
X177410001Y-94977799D01*
X177465185Y-95144331D01*
X177465187Y-95144336D01*
X177488870Y-95182732D01*
X177557288Y-95293656D01*
X177681344Y-95417712D01*
X177830666Y-95509814D01*
X177997203Y-95564999D01*
X178099991Y-95575500D01*
X178900008Y-95575499D01*
X178900016Y-95575498D01*
X178900019Y-95575498D01*
X178956302Y-95569748D01*
X179002797Y-95564999D01*
X179169334Y-95509814D01*
X179318656Y-95417712D01*
X179442712Y-95293656D01*
X179482310Y-95229456D01*
X179534258Y-95182732D01*
X179603220Y-95171509D01*
X179667303Y-95199352D01*
X179675530Y-95206872D01*
X179783072Y-95314414D01*
X179923212Y-95416232D01*
X180077555Y-95494873D01*
X180242299Y-95548402D01*
X180413389Y-95575500D01*
X180413390Y-95575500D01*
X180586610Y-95575500D01*
X180586611Y-95575500D01*
X180757701Y-95548402D01*
X180922445Y-95494873D01*
X181076788Y-95416232D01*
X181216928Y-95314414D01*
X181339414Y-95191928D01*
X181399682Y-95108975D01*
X181455012Y-95066311D01*
X181524626Y-95060332D01*
X181586421Y-95092938D01*
X181600315Y-95108973D01*
X181660586Y-95191928D01*
X181783072Y-95314414D01*
X181923212Y-95416232D01*
X182077555Y-95494873D01*
X182242299Y-95548402D01*
X182413389Y-95575500D01*
X182413390Y-95575500D01*
X182586610Y-95575500D01*
X182586611Y-95575500D01*
X182757701Y-95548402D01*
X182922445Y-95494873D01*
X183076788Y-95416232D01*
X183216928Y-95314414D01*
X183339414Y-95191928D01*
X183399991Y-95108550D01*
X183455321Y-95065885D01*
X183524934Y-95059906D01*
X183586729Y-95092512D01*
X183600628Y-95108551D01*
X183660967Y-95191602D01*
X183783397Y-95314032D01*
X183923475Y-95415804D01*
X184077744Y-95494408D01*
X184242415Y-95547914D01*
X184242414Y-95547914D01*
X184249999Y-95549115D01*
X184250000Y-95549114D01*
X184250000Y-94480330D01*
X184269745Y-94500075D01*
X184355255Y-94549444D01*
X184450630Y-94575000D01*
X184549370Y-94575000D01*
X184644745Y-94549444D01*
X184730255Y-94500075D01*
X184750000Y-94480330D01*
X184750000Y-95549115D01*
X184757584Y-95547914D01*
X184922255Y-95494408D01*
X185076524Y-95415804D01*
X185216602Y-95314032D01*
X185339032Y-95191602D01*
X185440804Y-95051524D01*
X185519408Y-94897257D01*
X185572914Y-94732584D01*
X185600000Y-94561571D01*
X185600000Y-94450000D01*
X184780330Y-94450000D01*
X184800075Y-94430255D01*
X184849444Y-94344745D01*
X184875000Y-94249370D01*
X184875000Y-94150630D01*
X184849444Y-94055255D01*
X184800075Y-93969745D01*
X184780330Y-93950000D01*
X185600000Y-93950000D01*
X185600000Y-93838428D01*
X185572914Y-93667415D01*
X185519408Y-93502742D01*
X185440804Y-93348475D01*
X185339032Y-93208397D01*
X185216602Y-93085967D01*
X185076524Y-92984195D01*
X184922257Y-92905591D01*
X184757589Y-92852087D01*
X184757581Y-92852085D01*
X184750000Y-92850884D01*
X184750000Y-93919670D01*
X184730255Y-93899925D01*
X184644745Y-93850556D01*
X184549370Y-93825000D01*
X184450630Y-93825000D01*
X184355255Y-93850556D01*
X184269745Y-93899925D01*
X184250000Y-93919670D01*
X184250000Y-92850884D01*
X184249999Y-92850884D01*
X184242418Y-92852085D01*
X184242410Y-92852087D01*
X184077742Y-92905591D01*
X183923475Y-92984195D01*
X183783397Y-93085967D01*
X183660965Y-93208399D01*
X183660961Y-93208404D01*
X183600627Y-93291448D01*
X183545297Y-93334114D01*
X183475684Y-93340093D01*
X183413889Y-93307488D01*
X183399991Y-93291449D01*
X183399990Y-93291448D01*
X183339414Y-93208072D01*
X183216928Y-93085586D01*
X183076788Y-92983768D01*
X182922445Y-92905127D01*
X182757701Y-92851598D01*
X182757699Y-92851597D01*
X182757698Y-92851597D01*
X182626271Y-92830781D01*
X182586611Y-92824500D01*
X182413389Y-92824500D01*
X182373728Y-92830781D01*
X182242302Y-92851597D01*
X182077552Y-92905128D01*
X181923211Y-92983768D01*
X181843256Y-93041859D01*
X181783072Y-93085586D01*
X181783070Y-93085588D01*
X181783069Y-93085588D01*
X181660588Y-93208069D01*
X181660581Y-93208078D01*
X181600317Y-93291023D01*
X181544987Y-93333689D01*
X181475374Y-93339667D01*
X181413579Y-93307061D01*
X181399683Y-93291023D01*
X181339655Y-93208404D01*
X181339414Y-93208072D01*
X181216928Y-93085586D01*
X181076788Y-92983768D01*
X180922445Y-92905127D01*
X180757701Y-92851598D01*
X180757699Y-92851597D01*
X180757698Y-92851597D01*
X180626271Y-92830781D01*
X180586611Y-92824500D01*
X180413389Y-92824500D01*
X180373728Y-92830781D01*
X180242302Y-92851597D01*
X180077552Y-92905128D01*
X179923211Y-92983768D01*
X179783073Y-93085585D01*
X179675530Y-93193128D01*
X179614207Y-93226612D01*
X179544515Y-93221628D01*
X179488582Y-93179756D01*
X179482310Y-93170543D01*
X179442712Y-93106344D01*
X179318656Y-92982288D01*
X179193559Y-92905128D01*
X179169336Y-92890187D01*
X179169331Y-92890185D01*
X179167862Y-92889698D01*
X179002797Y-92835001D01*
X179002795Y-92835000D01*
X178900010Y-92824500D01*
X178099998Y-92824500D01*
X178099980Y-92824501D01*
X177997203Y-92835000D01*
X177997200Y-92835001D01*
X177830668Y-92890185D01*
X177830663Y-92890187D01*
X177681342Y-92982289D01*
X177557289Y-93106342D01*
X177465187Y-93255663D01*
X177465185Y-93255668D01*
X177448155Y-93307061D01*
X177410001Y-93422203D01*
X177410001Y-93422204D01*
X177410000Y-93422204D01*
X177399500Y-93524983D01*
X163068915Y-93524983D01*
X163094091Y-93457483D01*
X163100500Y-93397873D01*
X163100499Y-91502128D01*
X163094091Y-91442517D01*
X163085263Y-91418849D01*
X163043797Y-91307671D01*
X163043793Y-91307664D01*
X162957547Y-91192455D01*
X162957544Y-91192452D01*
X162842335Y-91106206D01*
X162842328Y-91106202D01*
X162707482Y-91055908D01*
X162707483Y-91055908D01*
X162647883Y-91049501D01*
X162647881Y-91049500D01*
X162647873Y-91049500D01*
X162647864Y-91049500D01*
X160752129Y-91049500D01*
X160752123Y-91049501D01*
X160692516Y-91055908D01*
X160557671Y-91106202D01*
X160557664Y-91106206D01*
X160442455Y-91192452D01*
X160442452Y-91192455D01*
X160356206Y-91307664D01*
X160356202Y-91307671D01*
X160305908Y-91442517D01*
X160299501Y-91502116D01*
X160299501Y-91502123D01*
X160299500Y-91502135D01*
X159181511Y-91502135D01*
X159235924Y-91418849D01*
X159329157Y-91206300D01*
X159386134Y-90981305D01*
X159391484Y-90916738D01*
X159405300Y-90750006D01*
X159405300Y-90749993D01*
X159386135Y-90518702D01*
X159386133Y-90518691D01*
X159329157Y-90293699D01*
X159235924Y-90081151D01*
X159108983Y-89886852D01*
X159108980Y-89886849D01*
X159108979Y-89886847D01*
X158951784Y-89716087D01*
X158951779Y-89716083D01*
X158951777Y-89716081D01*
X158768634Y-89573535D01*
X158768628Y-89573531D01*
X158564504Y-89463064D01*
X158564495Y-89463061D01*
X158344984Y-89387702D01*
X158173282Y-89359050D01*
X158116049Y-89349500D01*
X157883951Y-89349500D01*
X157838164Y-89357140D01*
X157655015Y-89387702D01*
X157435504Y-89463061D01*
X157435495Y-89463064D01*
X157231371Y-89573531D01*
X157231365Y-89573535D01*
X157048222Y-89716081D01*
X157048219Y-89716084D01*
X157048216Y-89716086D01*
X157048216Y-89716087D01*
X157042712Y-89722066D01*
X156891016Y-89886852D01*
X156764075Y-90081151D01*
X156670842Y-90293699D01*
X156613866Y-90518691D01*
X156613864Y-90518702D01*
X156594700Y-90749993D01*
X141124833Y-90749993D01*
X141125000Y-90749370D01*
X141125000Y-90650630D01*
X141099444Y-90555255D01*
X141050075Y-90469745D01*
X141030330Y-90450000D01*
X141850000Y-90450000D01*
X141850000Y-90338428D01*
X141822914Y-90167415D01*
X141769408Y-90002742D01*
X141690804Y-89848475D01*
X141589032Y-89708397D01*
X141466602Y-89585967D01*
X141326524Y-89484195D01*
X141172257Y-89405591D01*
X141007589Y-89352087D01*
X141007581Y-89352085D01*
X141000000Y-89350884D01*
X141000000Y-90419670D01*
X140980255Y-90399925D01*
X140894745Y-90350556D01*
X140799370Y-90325000D01*
X140700630Y-90325000D01*
X140605255Y-90350556D01*
X140519745Y-90399925D01*
X140500000Y-90419670D01*
X140500000Y-89350884D01*
X140499999Y-89350884D01*
X140492418Y-89352085D01*
X140492410Y-89352087D01*
X140327742Y-89405591D01*
X140173475Y-89484195D01*
X140033401Y-89585964D01*
X139925799Y-89693566D01*
X139864476Y-89727050D01*
X139794784Y-89722066D01*
X139738851Y-89680194D01*
X139732585Y-89670988D01*
X139692712Y-89606344D01*
X139568656Y-89482288D01*
X139419334Y-89390186D01*
X139252797Y-89335001D01*
X139252795Y-89335000D01*
X139150010Y-89324500D01*
X138349998Y-89324500D01*
X138349980Y-89324501D01*
X138247203Y-89335000D01*
X138247200Y-89335001D01*
X138080668Y-89390185D01*
X138080663Y-89390187D01*
X137931342Y-89482289D01*
X137807289Y-89606342D01*
X137715187Y-89755663D01*
X137715186Y-89755666D01*
X137660001Y-89922203D01*
X137660001Y-89922204D01*
X137660000Y-89922204D01*
X137649500Y-90024983D01*
X133506619Y-90024983D01*
X133535635Y-89916692D01*
X133553186Y-89716081D01*
X133555468Y-89690001D01*
X133555468Y-89689998D01*
X133546366Y-89585964D01*
X133535635Y-89463308D01*
X133476739Y-89243504D01*
X133380568Y-89037266D01*
X133250047Y-88850861D01*
X133250045Y-88850858D01*
X133199187Y-88800000D01*
X160319117Y-88800000D01*
X161209252Y-88800000D01*
X161187482Y-88837708D01*
X161150000Y-88977591D01*
X161150000Y-89122409D01*
X161187482Y-89262292D01*
X161209252Y-89300000D01*
X160319117Y-89300000D01*
X160371317Y-89506135D01*
X160464516Y-89718609D01*
X160591414Y-89912842D01*
X160748558Y-90083545D01*
X160748562Y-90083548D01*
X160931644Y-90226047D01*
X160931648Y-90226050D01*
X161135697Y-90336476D01*
X161135706Y-90336479D01*
X161355139Y-90411811D01*
X161449999Y-90427640D01*
X161450000Y-90427639D01*
X161450000Y-89540747D01*
X161487708Y-89562518D01*
X161627591Y-89600000D01*
X161772409Y-89600000D01*
X161912292Y-89562518D01*
X161950000Y-89540747D01*
X161950000Y-90427640D01*
X162044860Y-90411811D01*
X162264293Y-90336479D01*
X162264302Y-90336476D01*
X162468351Y-90226050D01*
X162468355Y-90226047D01*
X162651437Y-90083548D01*
X162651441Y-90083545D01*
X162808585Y-89912842D01*
X162935483Y-89718609D01*
X163028682Y-89506135D01*
X163080883Y-89300000D01*
X162190748Y-89300000D01*
X162212518Y-89262292D01*
X162250000Y-89122409D01*
X162250000Y-88977591D01*
X162212518Y-88837708D01*
X162190748Y-88800000D01*
X163080883Y-88800000D01*
X163028682Y-88593864D01*
X162935483Y-88381390D01*
X162808585Y-88187157D01*
X162651441Y-88016454D01*
X162651437Y-88016451D01*
X162468355Y-87873952D01*
X162468351Y-87873949D01*
X162264302Y-87763523D01*
X162264293Y-87763520D01*
X162044861Y-87688188D01*
X161950000Y-87672359D01*
X161950000Y-88559252D01*
X161912292Y-88537482D01*
X161772409Y-88500000D01*
X161627591Y-88500000D01*
X161487708Y-88537482D01*
X161450000Y-88559252D01*
X161450000Y-87672359D01*
X161449999Y-87672359D01*
X161355138Y-87688188D01*
X161135706Y-87763520D01*
X161135697Y-87763523D01*
X160931648Y-87873949D01*
X160931644Y-87873952D01*
X160748562Y-88016451D01*
X160748558Y-88016454D01*
X160591414Y-88187157D01*
X160464516Y-88381390D01*
X160371317Y-88593864D01*
X160319117Y-88800000D01*
X133199187Y-88800000D01*
X133089141Y-88689954D01*
X132902734Y-88559432D01*
X132902732Y-88559431D01*
X132696497Y-88463261D01*
X132696488Y-88463258D01*
X132476697Y-88404366D01*
X132476693Y-88404365D01*
X132476692Y-88404365D01*
X132476691Y-88404364D01*
X132476686Y-88404364D01*
X132250002Y-88384532D01*
X132249998Y-88384532D01*
X132023313Y-88404364D01*
X132023302Y-88404366D01*
X131803511Y-88463258D01*
X131803502Y-88463261D01*
X131597267Y-88559431D01*
X131597265Y-88559432D01*
X131410858Y-88689954D01*
X131249954Y-88850858D01*
X131119432Y-89037265D01*
X131119431Y-89037267D01*
X131023261Y-89243502D01*
X131023258Y-89243511D01*
X130964366Y-89463302D01*
X130964364Y-89463313D01*
X130944532Y-89689998D01*
X128305468Y-89689998D01*
X128296366Y-89585964D01*
X128285635Y-89463308D01*
X128226739Y-89243504D01*
X128130568Y-89037266D01*
X128000047Y-88850861D01*
X128000045Y-88850858D01*
X127839141Y-88689954D01*
X127652734Y-88559432D01*
X127652732Y-88559431D01*
X127446497Y-88463261D01*
X127446488Y-88463258D01*
X127226697Y-88404366D01*
X127226693Y-88404365D01*
X127226692Y-88404365D01*
X127226691Y-88404364D01*
X127226686Y-88404364D01*
X127000002Y-88384532D01*
X126999998Y-88384532D01*
X126773313Y-88404364D01*
X126773302Y-88404366D01*
X126553511Y-88463258D01*
X126553502Y-88463261D01*
X126347267Y-88559431D01*
X126347265Y-88559432D01*
X126160858Y-88689954D01*
X125999954Y-88850858D01*
X125869432Y-89037265D01*
X125869431Y-89037267D01*
X125773261Y-89243502D01*
X125773258Y-89243511D01*
X125714366Y-89463302D01*
X125714364Y-89463313D01*
X125694532Y-89689998D01*
X123055468Y-89689998D01*
X123046366Y-89585964D01*
X123035635Y-89463308D01*
X122976739Y-89243504D01*
X122880568Y-89037266D01*
X122750047Y-88850861D01*
X122750045Y-88850858D01*
X122589141Y-88689954D01*
X122402734Y-88559432D01*
X122402732Y-88559431D01*
X122196497Y-88463261D01*
X122196488Y-88463258D01*
X121976697Y-88404366D01*
X121976693Y-88404365D01*
X121976692Y-88404365D01*
X121976691Y-88404364D01*
X121976686Y-88404364D01*
X121750002Y-88384532D01*
X121749998Y-88384532D01*
X121523313Y-88404364D01*
X121523302Y-88404366D01*
X121303511Y-88463258D01*
X121303502Y-88463261D01*
X121097267Y-88559431D01*
X121097265Y-88559432D01*
X120910858Y-88689954D01*
X120749954Y-88850858D01*
X120619432Y-89037265D01*
X120619431Y-89037267D01*
X120523261Y-89243502D01*
X120523258Y-89243511D01*
X120464366Y-89463302D01*
X120464364Y-89463313D01*
X120444532Y-89689998D01*
X117805468Y-89689998D01*
X117796366Y-89585964D01*
X117785635Y-89463308D01*
X117726739Y-89243504D01*
X117630568Y-89037266D01*
X117500047Y-88850861D01*
X117500045Y-88850858D01*
X117339141Y-88689954D01*
X117152734Y-88559432D01*
X117152732Y-88559431D01*
X116946497Y-88463261D01*
X116946488Y-88463258D01*
X116726697Y-88404366D01*
X116726693Y-88404365D01*
X116726692Y-88404365D01*
X116726691Y-88404364D01*
X116726686Y-88404364D01*
X116500002Y-88384532D01*
X116499998Y-88384532D01*
X116273313Y-88404364D01*
X116273302Y-88404366D01*
X116053511Y-88463258D01*
X116053502Y-88463261D01*
X115847267Y-88559431D01*
X115847265Y-88559432D01*
X115660858Y-88689954D01*
X115499954Y-88850858D01*
X115369432Y-89037265D01*
X115369431Y-89037267D01*
X115273261Y-89243502D01*
X115273258Y-89243511D01*
X115214366Y-89463302D01*
X115214364Y-89463313D01*
X115194532Y-89689998D01*
X104150138Y-89689998D01*
X104266993Y-89162901D01*
X104267822Y-89159409D01*
X104298653Y-89037267D01*
X104601540Y-87837331D01*
X104602454Y-87833920D01*
X104739696Y-87349993D01*
X156594700Y-87349993D01*
X156594700Y-87350006D01*
X156613864Y-87581297D01*
X156613866Y-87581308D01*
X156670842Y-87806300D01*
X156764075Y-88018848D01*
X156891016Y-88213147D01*
X156891019Y-88213151D01*
X156891021Y-88213153D01*
X157048216Y-88383913D01*
X157048219Y-88383915D01*
X157048222Y-88383918D01*
X157231365Y-88526464D01*
X157231371Y-88526468D01*
X157231374Y-88526470D01*
X157435497Y-88636936D01*
X157549487Y-88676068D01*
X157655015Y-88712297D01*
X157655017Y-88712297D01*
X157655019Y-88712298D01*
X157883951Y-88750500D01*
X157883952Y-88750500D01*
X158116048Y-88750500D01*
X158116049Y-88750500D01*
X158344981Y-88712298D01*
X158344999Y-88712292D01*
X158353439Y-88709394D01*
X158564503Y-88636936D01*
X158768626Y-88526470D01*
X158951784Y-88383913D01*
X159108979Y-88213153D01*
X159235924Y-88018849D01*
X159329157Y-87806300D01*
X159386134Y-87581305D01*
X159405300Y-87350000D01*
X159405300Y-87349993D01*
X159386135Y-87118702D01*
X159386133Y-87118691D01*
X159329157Y-86893699D01*
X159235924Y-86681151D01*
X159108983Y-86486852D01*
X159108980Y-86486849D01*
X159108979Y-86486847D01*
X158951784Y-86316087D01*
X158951779Y-86316083D01*
X158951777Y-86316081D01*
X158768634Y-86173535D01*
X158768628Y-86173531D01*
X158564504Y-86063064D01*
X158564495Y-86063061D01*
X158344984Y-85987702D01*
X158173282Y-85959050D01*
X158116049Y-85949500D01*
X157883951Y-85949500D01*
X157838164Y-85957140D01*
X157655015Y-85987702D01*
X157435504Y-86063061D01*
X157435495Y-86063064D01*
X157231371Y-86173531D01*
X157231365Y-86173535D01*
X157048222Y-86316081D01*
X157048219Y-86316084D01*
X157048216Y-86316086D01*
X157048216Y-86316087D01*
X156989267Y-86380122D01*
X156891016Y-86486852D01*
X156764075Y-86681151D01*
X156670842Y-86893699D01*
X156613866Y-87118691D01*
X156613864Y-87118702D01*
X156594700Y-87349993D01*
X104739696Y-87349993D01*
X104974492Y-86522082D01*
X104975488Y-86518753D01*
X105385540Y-85218234D01*
X105386670Y-85214827D01*
X105388386Y-85209890D01*
X105501223Y-84885258D01*
X106749500Y-84885258D01*
X106749500Y-85114741D01*
X106762905Y-85216554D01*
X106779452Y-85342238D01*
X106779453Y-85342240D01*
X106838842Y-85563887D01*
X106926650Y-85775876D01*
X106926657Y-85775890D01*
X107041392Y-85974617D01*
X107181081Y-86156661D01*
X107181089Y-86156670D01*
X107343330Y-86318911D01*
X107343338Y-86318918D01*
X107525382Y-86458607D01*
X107525385Y-86458608D01*
X107525388Y-86458611D01*
X107724112Y-86573344D01*
X107724117Y-86573346D01*
X107724123Y-86573349D01*
X107815480Y-86611190D01*
X107936113Y-86661158D01*
X108157762Y-86720548D01*
X108385266Y-86750500D01*
X108385273Y-86750500D01*
X108614727Y-86750500D01*
X108614734Y-86750500D01*
X108842238Y-86720548D01*
X109063887Y-86661158D01*
X109275888Y-86573344D01*
X109474612Y-86458611D01*
X109656661Y-86318919D01*
X109656665Y-86318914D01*
X109656670Y-86318911D01*
X109818911Y-86156670D01*
X109818914Y-86156665D01*
X109818919Y-86156661D01*
X109958611Y-85974612D01*
X110073344Y-85775888D01*
X110161158Y-85563887D01*
X110205071Y-85400000D01*
X160319117Y-85400000D01*
X161209252Y-85400000D01*
X161187482Y-85437708D01*
X161150000Y-85577591D01*
X161150000Y-85722409D01*
X161187482Y-85862292D01*
X161209252Y-85900000D01*
X160319117Y-85900000D01*
X160371317Y-86106135D01*
X160464516Y-86318609D01*
X160591414Y-86512842D01*
X160748558Y-86683545D01*
X160748562Y-86683548D01*
X160931644Y-86826047D01*
X160931648Y-86826050D01*
X161135697Y-86936476D01*
X161135706Y-86936479D01*
X161355139Y-87011811D01*
X161449999Y-87027640D01*
X161450000Y-87027639D01*
X161450000Y-86140747D01*
X161487708Y-86162518D01*
X161627591Y-86200000D01*
X161772409Y-86200000D01*
X161912292Y-86162518D01*
X161950000Y-86140747D01*
X161950000Y-87027640D01*
X162044860Y-87011811D01*
X162264293Y-86936479D01*
X162264302Y-86936476D01*
X162468351Y-86826050D01*
X162468355Y-86826047D01*
X162651437Y-86683548D01*
X162651441Y-86683545D01*
X162808585Y-86512842D01*
X162935483Y-86318609D01*
X163028682Y-86106135D01*
X163080883Y-85900000D01*
X162190748Y-85900000D01*
X162212518Y-85862292D01*
X162250000Y-85722409D01*
X162250000Y-85577591D01*
X162212518Y-85437708D01*
X162190748Y-85400000D01*
X163080883Y-85400000D01*
X163028682Y-85193864D01*
X162935483Y-84981390D01*
X162872677Y-84885258D01*
X189749500Y-84885258D01*
X189749500Y-85114741D01*
X189762905Y-85216554D01*
X189779452Y-85342238D01*
X189779453Y-85342240D01*
X189838842Y-85563887D01*
X189926650Y-85775876D01*
X189926657Y-85775890D01*
X190041392Y-85974617D01*
X190181081Y-86156661D01*
X190181089Y-86156670D01*
X190343330Y-86318911D01*
X190343338Y-86318918D01*
X190525382Y-86458607D01*
X190525385Y-86458608D01*
X190525388Y-86458611D01*
X190724112Y-86573344D01*
X190724117Y-86573346D01*
X190724123Y-86573349D01*
X190815480Y-86611190D01*
X190936113Y-86661158D01*
X191157762Y-86720548D01*
X191385266Y-86750500D01*
X191385273Y-86750500D01*
X191614727Y-86750500D01*
X191614734Y-86750500D01*
X191842238Y-86720548D01*
X192063887Y-86661158D01*
X192275888Y-86573344D01*
X192474612Y-86458611D01*
X192656661Y-86318919D01*
X192656665Y-86318914D01*
X192656670Y-86318911D01*
X192818911Y-86156670D01*
X192818914Y-86156665D01*
X192818919Y-86156661D01*
X192958611Y-85974612D01*
X193073344Y-85775888D01*
X193161158Y-85563887D01*
X193220548Y-85342238D01*
X193250500Y-85114734D01*
X193250500Y-84885266D01*
X193249881Y-84880568D01*
X193237583Y-84787157D01*
X193220548Y-84657762D01*
X193161158Y-84436113D01*
X193073344Y-84224112D01*
X192958611Y-84025388D01*
X192958608Y-84025385D01*
X192958607Y-84025382D01*
X192818918Y-83843338D01*
X192818911Y-83843330D01*
X192656670Y-83681089D01*
X192656661Y-83681081D01*
X192474617Y-83541392D01*
X192275890Y-83426657D01*
X192275876Y-83426650D01*
X192063887Y-83338842D01*
X191842238Y-83279452D01*
X191804215Y-83274446D01*
X191614741Y-83249500D01*
X191614734Y-83249500D01*
X191385266Y-83249500D01*
X191385258Y-83249500D01*
X191168715Y-83278009D01*
X191157762Y-83279452D01*
X191068005Y-83303502D01*
X190936112Y-83338842D01*
X190724123Y-83426650D01*
X190724109Y-83426657D01*
X190525382Y-83541392D01*
X190343338Y-83681081D01*
X190181081Y-83843338D01*
X190041392Y-84025382D01*
X189926657Y-84224109D01*
X189926650Y-84224123D01*
X189838842Y-84436112D01*
X189779453Y-84657759D01*
X189779451Y-84657770D01*
X189749500Y-84885258D01*
X162872677Y-84885258D01*
X162808585Y-84787157D01*
X162651441Y-84616454D01*
X162651437Y-84616451D01*
X162468355Y-84473952D01*
X162468351Y-84473949D01*
X162264302Y-84363523D01*
X162264293Y-84363520D01*
X162044861Y-84288188D01*
X161950000Y-84272359D01*
X161950000Y-85159252D01*
X161912292Y-85137482D01*
X161772409Y-85100000D01*
X161627591Y-85100000D01*
X161487708Y-85137482D01*
X161450000Y-85159252D01*
X161450000Y-84272359D01*
X161449999Y-84272359D01*
X161355138Y-84288188D01*
X161135706Y-84363520D01*
X161135697Y-84363523D01*
X160931648Y-84473949D01*
X160931644Y-84473952D01*
X160748562Y-84616451D01*
X160748558Y-84616454D01*
X160591414Y-84787157D01*
X160464516Y-84981390D01*
X160371317Y-85193864D01*
X160319117Y-85400000D01*
X110205071Y-85400000D01*
X110220548Y-85342238D01*
X110250500Y-85114734D01*
X110250500Y-84885266D01*
X110249881Y-84880568D01*
X110237583Y-84787157D01*
X110220548Y-84657762D01*
X110161158Y-84436113D01*
X110073344Y-84224112D01*
X109958611Y-84025388D01*
X109958608Y-84025385D01*
X109958607Y-84025382D01*
X109818918Y-83843338D01*
X109818911Y-83843330D01*
X109725579Y-83749998D01*
X119884532Y-83749998D01*
X119884532Y-83750001D01*
X119904364Y-83976686D01*
X119904366Y-83976697D01*
X119963258Y-84196488D01*
X119963261Y-84196497D01*
X120059431Y-84402732D01*
X120059432Y-84402734D01*
X120189954Y-84589141D01*
X120350858Y-84750045D01*
X120350861Y-84750047D01*
X120537266Y-84880568D01*
X120743504Y-84976739D01*
X120963308Y-85035635D01*
X121125230Y-85049801D01*
X121189998Y-85055468D01*
X121190000Y-85055468D01*
X121190002Y-85055468D01*
X121246673Y-85050509D01*
X121416692Y-85035635D01*
X121636496Y-84976739D01*
X121842734Y-84880568D01*
X122029139Y-84750047D01*
X122190047Y-84589139D01*
X122320568Y-84402734D01*
X122416739Y-84196496D01*
X122475635Y-83976692D01*
X122495468Y-83750000D01*
X122495468Y-83749998D01*
X127504532Y-83749998D01*
X127504532Y-83750001D01*
X127524364Y-83976686D01*
X127524366Y-83976697D01*
X127583258Y-84196488D01*
X127583261Y-84196497D01*
X127679431Y-84402732D01*
X127679432Y-84402734D01*
X127809954Y-84589141D01*
X127970858Y-84750045D01*
X127970861Y-84750047D01*
X128157266Y-84880568D01*
X128363504Y-84976739D01*
X128583308Y-85035635D01*
X128745230Y-85049801D01*
X128809998Y-85055468D01*
X128810000Y-85055468D01*
X128810002Y-85055468D01*
X128866673Y-85050509D01*
X129036692Y-85035635D01*
X129256496Y-84976739D01*
X129462734Y-84880568D01*
X129649139Y-84750047D01*
X129810047Y-84589139D01*
X129940568Y-84402734D01*
X130036739Y-84196496D01*
X130095635Y-83976692D01*
X130115468Y-83750000D01*
X130115468Y-83749998D01*
X131384532Y-83749998D01*
X131384532Y-83750001D01*
X131404364Y-83976686D01*
X131404366Y-83976697D01*
X131463258Y-84196488D01*
X131463261Y-84196497D01*
X131559431Y-84402732D01*
X131559432Y-84402734D01*
X131689954Y-84589141D01*
X131850858Y-84750045D01*
X131850861Y-84750047D01*
X132037266Y-84880568D01*
X132243504Y-84976739D01*
X132463308Y-85035635D01*
X132625230Y-85049801D01*
X132689998Y-85055468D01*
X132690000Y-85055468D01*
X132690002Y-85055468D01*
X132746673Y-85050509D01*
X132916692Y-85035635D01*
X133136496Y-84976739D01*
X133342734Y-84880568D01*
X133529139Y-84750047D01*
X133690047Y-84589139D01*
X133820568Y-84402734D01*
X133916739Y-84196496D01*
X133975635Y-83976692D01*
X133995468Y-83750000D01*
X133995468Y-83749998D01*
X139004532Y-83749998D01*
X139004532Y-83750001D01*
X139024364Y-83976686D01*
X139024366Y-83976697D01*
X139083258Y-84196488D01*
X139083261Y-84196497D01*
X139179431Y-84402732D01*
X139179432Y-84402734D01*
X139309954Y-84589141D01*
X139470858Y-84750045D01*
X139470861Y-84750047D01*
X139657266Y-84880568D01*
X139863504Y-84976739D01*
X140083308Y-85035635D01*
X140245230Y-85049801D01*
X140309998Y-85055468D01*
X140310000Y-85055468D01*
X140310002Y-85055468D01*
X140366673Y-85050509D01*
X140536692Y-85035635D01*
X140756496Y-84976739D01*
X140962734Y-84880568D01*
X141149139Y-84750047D01*
X141310047Y-84589139D01*
X141440568Y-84402734D01*
X141536739Y-84196496D01*
X141595635Y-83976692D01*
X141615468Y-83750000D01*
X141595635Y-83523308D01*
X141536739Y-83303504D01*
X141440568Y-83097266D01*
X141310047Y-82910861D01*
X141310045Y-82910858D01*
X141149141Y-82749954D01*
X140962734Y-82619432D01*
X140962732Y-82619431D01*
X140756497Y-82523261D01*
X140756488Y-82523258D01*
X140536697Y-82464366D01*
X140536693Y-82464365D01*
X140536692Y-82464365D01*
X140536691Y-82464364D01*
X140536686Y-82464364D01*
X140310002Y-82444532D01*
X140309998Y-82444532D01*
X140083313Y-82464364D01*
X140083302Y-82464366D01*
X139863511Y-82523258D01*
X139863502Y-82523261D01*
X139657267Y-82619431D01*
X139657265Y-82619432D01*
X139470858Y-82749954D01*
X139309954Y-82910858D01*
X139179432Y-83097265D01*
X139179431Y-83097267D01*
X139083261Y-83303502D01*
X139083258Y-83303511D01*
X139024366Y-83523302D01*
X139024364Y-83523313D01*
X139004532Y-83749998D01*
X133995468Y-83749998D01*
X133975635Y-83523308D01*
X133916739Y-83303504D01*
X133820568Y-83097266D01*
X133690047Y-82910861D01*
X133690045Y-82910858D01*
X133529141Y-82749954D01*
X133342734Y-82619432D01*
X133342732Y-82619431D01*
X133136497Y-82523261D01*
X133136488Y-82523258D01*
X132916697Y-82464366D01*
X132916693Y-82464365D01*
X132916692Y-82464365D01*
X132916691Y-82464364D01*
X132916686Y-82464364D01*
X132690002Y-82444532D01*
X132689998Y-82444532D01*
X132463313Y-82464364D01*
X132463302Y-82464366D01*
X132243511Y-82523258D01*
X132243502Y-82523261D01*
X132037267Y-82619431D01*
X132037265Y-82619432D01*
X131850858Y-82749954D01*
X131689954Y-82910858D01*
X131559432Y-83097265D01*
X131559431Y-83097267D01*
X131463261Y-83303502D01*
X131463258Y-83303511D01*
X131404366Y-83523302D01*
X131404364Y-83523313D01*
X131384532Y-83749998D01*
X130115468Y-83749998D01*
X130095635Y-83523308D01*
X130036739Y-83303504D01*
X129940568Y-83097266D01*
X129810047Y-82910861D01*
X129810045Y-82910858D01*
X129649141Y-82749954D01*
X129462734Y-82619432D01*
X129462732Y-82619431D01*
X129256497Y-82523261D01*
X129256488Y-82523258D01*
X129036697Y-82464366D01*
X129036693Y-82464365D01*
X129036692Y-82464365D01*
X129036691Y-82464364D01*
X129036686Y-82464364D01*
X128810002Y-82444532D01*
X128809998Y-82444532D01*
X128583313Y-82464364D01*
X128583302Y-82464366D01*
X128363511Y-82523258D01*
X128363502Y-82523261D01*
X128157267Y-82619431D01*
X128157265Y-82619432D01*
X127970858Y-82749954D01*
X127809954Y-82910858D01*
X127679432Y-83097265D01*
X127679431Y-83097267D01*
X127583261Y-83303502D01*
X127583258Y-83303511D01*
X127524366Y-83523302D01*
X127524364Y-83523313D01*
X127504532Y-83749998D01*
X122495468Y-83749998D01*
X122475635Y-83523308D01*
X122416739Y-83303504D01*
X122320568Y-83097266D01*
X122190047Y-82910861D01*
X122190045Y-82910858D01*
X122029141Y-82749954D01*
X121842734Y-82619432D01*
X121842732Y-82619431D01*
X121636497Y-82523261D01*
X121636488Y-82523258D01*
X121416697Y-82464366D01*
X121416693Y-82464365D01*
X121416692Y-82464365D01*
X121416691Y-82464364D01*
X121416686Y-82464364D01*
X121190002Y-82444532D01*
X121189998Y-82444532D01*
X120963313Y-82464364D01*
X120963302Y-82464366D01*
X120743511Y-82523258D01*
X120743502Y-82523261D01*
X120537267Y-82619431D01*
X120537265Y-82619432D01*
X120350858Y-82749954D01*
X120189954Y-82910858D01*
X120059432Y-83097265D01*
X120059431Y-83097267D01*
X119963261Y-83303502D01*
X119963258Y-83303511D01*
X119904366Y-83523302D01*
X119904364Y-83523313D01*
X119884532Y-83749998D01*
X109725579Y-83749998D01*
X109656670Y-83681089D01*
X109656661Y-83681081D01*
X109474617Y-83541392D01*
X109275890Y-83426657D01*
X109275876Y-83426650D01*
X109063887Y-83338842D01*
X108842238Y-83279452D01*
X108804215Y-83274446D01*
X108614741Y-83249500D01*
X108614734Y-83249500D01*
X108385266Y-83249500D01*
X108385258Y-83249500D01*
X108168715Y-83278009D01*
X108157762Y-83279452D01*
X108068005Y-83303502D01*
X107936112Y-83338842D01*
X107724123Y-83426650D01*
X107724109Y-83426657D01*
X107525382Y-83541392D01*
X107343338Y-83681081D01*
X107181081Y-83843338D01*
X107041392Y-84025382D01*
X106926657Y-84224109D01*
X106926650Y-84224123D01*
X106838842Y-84436112D01*
X106779453Y-84657759D01*
X106779451Y-84657770D01*
X106749500Y-84885258D01*
X105501223Y-84885258D01*
X105834330Y-83926911D01*
X105835533Y-83923604D01*
X106320507Y-82649134D01*
X106321809Y-82645856D01*
X106843641Y-81386043D01*
X106845017Y-81382855D01*
X106846299Y-81379999D01*
X166662192Y-81379999D01*
X166662193Y-81380000D01*
X167987639Y-81380000D01*
X167980743Y-81396649D01*
X167950000Y-81551207D01*
X167950000Y-81708793D01*
X167980743Y-81863351D01*
X167987639Y-81880000D01*
X166662193Y-81880000D01*
X166664697Y-81916619D01*
X166723146Y-82197888D01*
X166723150Y-82197902D01*
X166819355Y-82468595D01*
X166951527Y-82723676D01*
X167117204Y-82958385D01*
X167117204Y-82958386D01*
X167313288Y-83168341D01*
X167536135Y-83349641D01*
X167536146Y-83349648D01*
X167781607Y-83498917D01*
X168045108Y-83613371D01*
X168321737Y-83690879D01*
X168321746Y-83690881D01*
X168499999Y-83715380D01*
X168500000Y-83715380D01*
X168500000Y-82392360D01*
X168516649Y-82399257D01*
X168671207Y-82430000D01*
X168828793Y-82430000D01*
X168983351Y-82399257D01*
X169000000Y-82392360D01*
X169000000Y-83715380D01*
X169178253Y-83690881D01*
X169178262Y-83690879D01*
X169454891Y-83613371D01*
X169718392Y-83498917D01*
X169963853Y-83349648D01*
X169963864Y-83349641D01*
X170186711Y-83168341D01*
X170382795Y-82958386D01*
X170382795Y-82958385D01*
X170548472Y-82723676D01*
X170680644Y-82468595D01*
X170776849Y-82197902D01*
X170776853Y-82197888D01*
X170835302Y-81916619D01*
X170837807Y-81880000D01*
X169512361Y-81880000D01*
X169519257Y-81863351D01*
X169550000Y-81708793D01*
X169550000Y-81551207D01*
X169519257Y-81396649D01*
X169512361Y-81380000D01*
X170837807Y-81380000D01*
X170837807Y-81379999D01*
X170835302Y-81343380D01*
X170776853Y-81062111D01*
X170776849Y-81062097D01*
X170680644Y-80791404D01*
X170548472Y-80536323D01*
X170382795Y-80301614D01*
X170382795Y-80301613D01*
X170186711Y-80091658D01*
X169963864Y-79910358D01*
X169963853Y-79910351D01*
X169718392Y-79761082D01*
X169454891Y-79646628D01*
X169178262Y-79569120D01*
X169178255Y-79569119D01*
X169000000Y-79544618D01*
X169000000Y-80867639D01*
X168983351Y-80860743D01*
X168828793Y-80830000D01*
X168671207Y-80830000D01*
X168516649Y-80860743D01*
X168500000Y-80867639D01*
X168500000Y-79544618D01*
X168321744Y-79569119D01*
X168321737Y-79569120D01*
X168045108Y-79646628D01*
X167781607Y-79761082D01*
X167536146Y-79910351D01*
X167536135Y-79910358D01*
X167313288Y-80091658D01*
X167117204Y-80301613D01*
X167117204Y-80301614D01*
X166951527Y-80536323D01*
X166819355Y-80791404D01*
X166723150Y-81062097D01*
X166723146Y-81062111D01*
X166664697Y-81343380D01*
X166662192Y-81379999D01*
X106846299Y-81379999D01*
X107403253Y-80138786D01*
X107404768Y-80135539D01*
X107591423Y-79749998D01*
X119884532Y-79749998D01*
X119884532Y-79750001D01*
X119904364Y-79976686D01*
X119904366Y-79976697D01*
X119963258Y-80196488D01*
X119963261Y-80196497D01*
X120059431Y-80402732D01*
X120059432Y-80402734D01*
X120189954Y-80589141D01*
X120350858Y-80750045D01*
X120350861Y-80750047D01*
X120537266Y-80880568D01*
X120743504Y-80976739D01*
X120963308Y-81035635D01*
X121125230Y-81049801D01*
X121189998Y-81055468D01*
X121190000Y-81055468D01*
X121190002Y-81055468D01*
X121246673Y-81050509D01*
X121416692Y-81035635D01*
X121636496Y-80976739D01*
X121842734Y-80880568D01*
X122029139Y-80750047D01*
X122190047Y-80589139D01*
X122320568Y-80402734D01*
X122416739Y-80196496D01*
X122475635Y-79976692D01*
X122492634Y-79782384D01*
X122495468Y-79750001D01*
X122495468Y-79749998D01*
X127504532Y-79749998D01*
X127504532Y-79750001D01*
X127524364Y-79976686D01*
X127524366Y-79976697D01*
X127583258Y-80196488D01*
X127583261Y-80196497D01*
X127679431Y-80402732D01*
X127679432Y-80402734D01*
X127809954Y-80589141D01*
X127970858Y-80750045D01*
X127970861Y-80750047D01*
X128157266Y-80880568D01*
X128363504Y-80976739D01*
X128583308Y-81035635D01*
X128745230Y-81049801D01*
X128809998Y-81055468D01*
X128810000Y-81055468D01*
X128810002Y-81055468D01*
X128866673Y-81050509D01*
X129036692Y-81035635D01*
X129256496Y-80976739D01*
X129462734Y-80880568D01*
X129649139Y-80750047D01*
X129810047Y-80589139D01*
X129940568Y-80402734D01*
X130036739Y-80196496D01*
X130095635Y-79976692D01*
X130112634Y-79782384D01*
X130115468Y-79750001D01*
X130115468Y-79749998D01*
X131384532Y-79749998D01*
X131384532Y-79750001D01*
X131404364Y-79976686D01*
X131404366Y-79976697D01*
X131463258Y-80196488D01*
X131463261Y-80196497D01*
X131559431Y-80402732D01*
X131559432Y-80402734D01*
X131689954Y-80589141D01*
X131850858Y-80750045D01*
X131850861Y-80750047D01*
X132037266Y-80880568D01*
X132243504Y-80976739D01*
X132463308Y-81035635D01*
X132625230Y-81049801D01*
X132689998Y-81055468D01*
X132690000Y-81055468D01*
X132690002Y-81055468D01*
X132746673Y-81050509D01*
X132916692Y-81035635D01*
X133136496Y-80976739D01*
X133342734Y-80880568D01*
X133529139Y-80750047D01*
X133690047Y-80589139D01*
X133820568Y-80402734D01*
X133916739Y-80196496D01*
X133975635Y-79976692D01*
X133992634Y-79782384D01*
X133995468Y-79750001D01*
X133995468Y-79749998D01*
X139004532Y-79749998D01*
X139004532Y-79750001D01*
X139024364Y-79976686D01*
X139024366Y-79976697D01*
X139083258Y-80196488D01*
X139083261Y-80196497D01*
X139179431Y-80402732D01*
X139179432Y-80402734D01*
X139309954Y-80589141D01*
X139470858Y-80750045D01*
X139470861Y-80750047D01*
X139657266Y-80880568D01*
X139863504Y-80976739D01*
X140083308Y-81035635D01*
X140245230Y-81049801D01*
X140309998Y-81055468D01*
X140310000Y-81055468D01*
X140310002Y-81055468D01*
X140366673Y-81050509D01*
X140536692Y-81035635D01*
X140756496Y-80976739D01*
X140962734Y-80880568D01*
X141149139Y-80750047D01*
X141310047Y-80589139D01*
X141440568Y-80402734D01*
X141536739Y-80196496D01*
X141595635Y-79976692D01*
X141612634Y-79782384D01*
X141615468Y-79750001D01*
X141615468Y-79749998D01*
X141595635Y-79523313D01*
X141595635Y-79523308D01*
X141536739Y-79303504D01*
X141440568Y-79097266D01*
X141310047Y-78910861D01*
X141310045Y-78910858D01*
X141149141Y-78749954D01*
X140962734Y-78619432D01*
X140962732Y-78619431D01*
X140756497Y-78523261D01*
X140756488Y-78523258D01*
X140536697Y-78464366D01*
X140536693Y-78464365D01*
X140536692Y-78464365D01*
X140536691Y-78464364D01*
X140536686Y-78464364D01*
X140310002Y-78444532D01*
X140309998Y-78444532D01*
X140083313Y-78464364D01*
X140083302Y-78464366D01*
X139863511Y-78523258D01*
X139863502Y-78523261D01*
X139657267Y-78619431D01*
X139657265Y-78619432D01*
X139470858Y-78749954D01*
X139309954Y-78910858D01*
X139179432Y-79097265D01*
X139179431Y-79097267D01*
X139083261Y-79303502D01*
X139083258Y-79303511D01*
X139024366Y-79523302D01*
X139024364Y-79523313D01*
X139004532Y-79749998D01*
X133995468Y-79749998D01*
X133975635Y-79523313D01*
X133975635Y-79523308D01*
X133916739Y-79303504D01*
X133820568Y-79097266D01*
X133690047Y-78910861D01*
X133690045Y-78910858D01*
X133529141Y-78749954D01*
X133342734Y-78619432D01*
X133342732Y-78619431D01*
X133136497Y-78523261D01*
X133136488Y-78523258D01*
X132916697Y-78464366D01*
X132916693Y-78464365D01*
X132916692Y-78464365D01*
X132916691Y-78464364D01*
X132916686Y-78464364D01*
X132690002Y-78444532D01*
X132689998Y-78444532D01*
X132463313Y-78464364D01*
X132463302Y-78464366D01*
X132243511Y-78523258D01*
X132243502Y-78523261D01*
X132037267Y-78619431D01*
X132037265Y-78619432D01*
X131850858Y-78749954D01*
X131689954Y-78910858D01*
X131559432Y-79097265D01*
X131559431Y-79097267D01*
X131463261Y-79303502D01*
X131463258Y-79303511D01*
X131404366Y-79523302D01*
X131404364Y-79523313D01*
X131384532Y-79749998D01*
X130115468Y-79749998D01*
X130095635Y-79523313D01*
X130095635Y-79523308D01*
X130036739Y-79303504D01*
X129940568Y-79097266D01*
X129810047Y-78910861D01*
X129810045Y-78910858D01*
X129649141Y-78749954D01*
X129462734Y-78619432D01*
X129462732Y-78619431D01*
X129256497Y-78523261D01*
X129256488Y-78523258D01*
X129036697Y-78464366D01*
X129036693Y-78464365D01*
X129036692Y-78464365D01*
X129036691Y-78464364D01*
X129036686Y-78464364D01*
X128810002Y-78444532D01*
X128809998Y-78444532D01*
X128583313Y-78464364D01*
X128583302Y-78464366D01*
X128363511Y-78523258D01*
X128363502Y-78523261D01*
X128157267Y-78619431D01*
X128157265Y-78619432D01*
X127970858Y-78749954D01*
X127809954Y-78910858D01*
X127679432Y-79097265D01*
X127679431Y-79097267D01*
X127583261Y-79303502D01*
X127583258Y-79303511D01*
X127524366Y-79523302D01*
X127524364Y-79523313D01*
X127504532Y-79749998D01*
X122495468Y-79749998D01*
X122475635Y-79523313D01*
X122475635Y-79523308D01*
X122416739Y-79303504D01*
X122320568Y-79097266D01*
X122190047Y-78910861D01*
X122190045Y-78910858D01*
X122029141Y-78749954D01*
X121842734Y-78619432D01*
X121842732Y-78619431D01*
X121636497Y-78523261D01*
X121636488Y-78523258D01*
X121416697Y-78464366D01*
X121416693Y-78464365D01*
X121416692Y-78464365D01*
X121416691Y-78464364D01*
X121416686Y-78464364D01*
X121190002Y-78444532D01*
X121189998Y-78444532D01*
X120963313Y-78464364D01*
X120963302Y-78464366D01*
X120743511Y-78523258D01*
X120743502Y-78523261D01*
X120537267Y-78619431D01*
X120537265Y-78619432D01*
X120350858Y-78749954D01*
X120189954Y-78910858D01*
X120059432Y-79097265D01*
X120059431Y-79097267D01*
X119963261Y-79303502D01*
X119963258Y-79303511D01*
X119904366Y-79523302D01*
X119904364Y-79523313D01*
X119884532Y-79749998D01*
X107591423Y-79749998D01*
X107998961Y-78908216D01*
X108000519Y-78905114D01*
X108630131Y-77695640D01*
X108631840Y-77692470D01*
X108697123Y-77575500D01*
X109296400Y-76501753D01*
X109298148Y-76498725D01*
X109879383Y-75524983D01*
X146399500Y-75524983D01*
X146399500Y-76875001D01*
X146399501Y-76875018D01*
X146410000Y-76977796D01*
X146410001Y-76977799D01*
X146465185Y-77144331D01*
X146465187Y-77144336D01*
X146488870Y-77182732D01*
X146557288Y-77293656D01*
X146681344Y-77417712D01*
X146830666Y-77509814D01*
X146997203Y-77564999D01*
X147099991Y-77575500D01*
X147900008Y-77575499D01*
X147900016Y-77575498D01*
X147900019Y-77575498D01*
X147956302Y-77569748D01*
X148002797Y-77564999D01*
X148169334Y-77509814D01*
X148318656Y-77417712D01*
X148442712Y-77293656D01*
X148482310Y-77229456D01*
X148534258Y-77182732D01*
X148603220Y-77171509D01*
X148667303Y-77199352D01*
X148675530Y-77206872D01*
X148783072Y-77314414D01*
X148923212Y-77416232D01*
X149077555Y-77494873D01*
X149242299Y-77548402D01*
X149413389Y-77575500D01*
X149413390Y-77575500D01*
X149586610Y-77575500D01*
X149586611Y-77575500D01*
X149757701Y-77548402D01*
X149922445Y-77494873D01*
X150076788Y-77416232D01*
X150216928Y-77314414D01*
X150339414Y-77191928D01*
X150368325Y-77152135D01*
X156699500Y-77152135D01*
X156699500Y-78847870D01*
X156699501Y-78847876D01*
X156705908Y-78907483D01*
X156756202Y-79042328D01*
X156756206Y-79042335D01*
X156842452Y-79157544D01*
X156842455Y-79157547D01*
X156957664Y-79243793D01*
X156957671Y-79243797D01*
X157092517Y-79294091D01*
X157092516Y-79294091D01*
X157099444Y-79294835D01*
X157152127Y-79300500D01*
X158847872Y-79300499D01*
X158907483Y-79294091D01*
X159042331Y-79243796D01*
X159157546Y-79157546D01*
X159243796Y-79042331D01*
X159294091Y-78907483D01*
X159300500Y-78847873D01*
X159300499Y-77999997D01*
X160195034Y-77999997D01*
X160195034Y-78000002D01*
X160214858Y-78226599D01*
X160214860Y-78226610D01*
X160273730Y-78446317D01*
X160273735Y-78446331D01*
X160369863Y-78652478D01*
X160420974Y-78725472D01*
X161100000Y-78046446D01*
X161100000Y-78052661D01*
X161127259Y-78154394D01*
X161179920Y-78245606D01*
X161254394Y-78320080D01*
X161345606Y-78372741D01*
X161447339Y-78400000D01*
X161453553Y-78400000D01*
X160774526Y-79079025D01*
X160847513Y-79130132D01*
X160847521Y-79130136D01*
X161053668Y-79226264D01*
X161053682Y-79226269D01*
X161273389Y-79285139D01*
X161273400Y-79285141D01*
X161499998Y-79304966D01*
X161500002Y-79304966D01*
X161726599Y-79285141D01*
X161726610Y-79285139D01*
X161946317Y-79226269D01*
X161946331Y-79226264D01*
X162152478Y-79130136D01*
X162225471Y-79079024D01*
X161546447Y-78400000D01*
X161552661Y-78400000D01*
X161654394Y-78372741D01*
X161745606Y-78320080D01*
X161820080Y-78245606D01*
X161872741Y-78154394D01*
X161900000Y-78052661D01*
X161900000Y-78046447D01*
X162579024Y-78725471D01*
X162630136Y-78652478D01*
X162726264Y-78446331D01*
X162726269Y-78446317D01*
X162785139Y-78226610D01*
X162785141Y-78226599D01*
X162804966Y-78000002D01*
X162804966Y-77999997D01*
X162785141Y-77773400D01*
X162785139Y-77773389D01*
X162726269Y-77553682D01*
X162726264Y-77553668D01*
X162630136Y-77347521D01*
X162630132Y-77347513D01*
X162579025Y-77274526D01*
X161900000Y-77953551D01*
X161900000Y-77947339D01*
X161872741Y-77845606D01*
X161820080Y-77754394D01*
X161745606Y-77679920D01*
X161654394Y-77627259D01*
X161552661Y-77600000D01*
X161546448Y-77600000D01*
X162225472Y-76920974D01*
X162152478Y-76869863D01*
X161946331Y-76773735D01*
X161946317Y-76773730D01*
X161726610Y-76714860D01*
X161726599Y-76714858D01*
X161500002Y-76695034D01*
X161499998Y-76695034D01*
X161273400Y-76714858D01*
X161273389Y-76714860D01*
X161053682Y-76773730D01*
X161053673Y-76773734D01*
X160847516Y-76869866D01*
X160847512Y-76869868D01*
X160774526Y-76920973D01*
X160774526Y-76920974D01*
X161453553Y-77600000D01*
X161447339Y-77600000D01*
X161345606Y-77627259D01*
X161254394Y-77679920D01*
X161179920Y-77754394D01*
X161127259Y-77845606D01*
X161100000Y-77947339D01*
X161100000Y-77953552D01*
X160420974Y-77274526D01*
X160420973Y-77274526D01*
X160369868Y-77347512D01*
X160369866Y-77347516D01*
X160273734Y-77553673D01*
X160273730Y-77553682D01*
X160214860Y-77773389D01*
X160214858Y-77773400D01*
X160195034Y-77999997D01*
X159300499Y-77999997D01*
X159300499Y-77152128D01*
X159294091Y-77092517D01*
X159251303Y-76977797D01*
X159243797Y-76957671D01*
X159243793Y-76957664D01*
X159157547Y-76842455D01*
X159157544Y-76842452D01*
X159042335Y-76756206D01*
X159042328Y-76756202D01*
X158907482Y-76705908D01*
X158907483Y-76705908D01*
X158847883Y-76699501D01*
X158847881Y-76699500D01*
X158847873Y-76699500D01*
X158847864Y-76699500D01*
X157152129Y-76699500D01*
X157152123Y-76699501D01*
X157092516Y-76705908D01*
X156957671Y-76756202D01*
X156957664Y-76756206D01*
X156842455Y-76842452D01*
X156842452Y-76842455D01*
X156756206Y-76957664D01*
X156756202Y-76957671D01*
X156705908Y-77092517D01*
X156699501Y-77152116D01*
X156699501Y-77152123D01*
X156699500Y-77152135D01*
X150368325Y-77152135D01*
X150441232Y-77051788D01*
X150519873Y-76897445D01*
X150573402Y-76732701D01*
X150600500Y-76561611D01*
X150600500Y-75838389D01*
X150573402Y-75667299D01*
X150519873Y-75502555D01*
X150441232Y-75348212D01*
X150339414Y-75208072D01*
X150216928Y-75085586D01*
X150076788Y-74983768D01*
X149922445Y-74905127D01*
X149757701Y-74851598D01*
X149757699Y-74851597D01*
X149757698Y-74851597D01*
X149626271Y-74830781D01*
X149586611Y-74824500D01*
X149413389Y-74824500D01*
X149373728Y-74830781D01*
X149242302Y-74851597D01*
X149077552Y-74905128D01*
X148923211Y-74983768D01*
X148783073Y-75085585D01*
X148675530Y-75193128D01*
X148614207Y-75226612D01*
X148544515Y-75221628D01*
X148488582Y-75179756D01*
X148482310Y-75170543D01*
X148442712Y-75106344D01*
X148318656Y-74982288D01*
X148193559Y-74905128D01*
X148169336Y-74890187D01*
X148169331Y-74890185D01*
X148167862Y-74889698D01*
X148002797Y-74835001D01*
X148002795Y-74835000D01*
X147900010Y-74824500D01*
X147099998Y-74824500D01*
X147099980Y-74824501D01*
X146997203Y-74835000D01*
X146997200Y-74835001D01*
X146830668Y-74890185D01*
X146830663Y-74890187D01*
X146681342Y-74982289D01*
X146557289Y-75106342D01*
X146465187Y-75255663D01*
X146465186Y-75255666D01*
X146410001Y-75422203D01*
X146410001Y-75422204D01*
X146410000Y-75422204D01*
X146399500Y-75524983D01*
X109879383Y-75524983D01*
X109997040Y-75327873D01*
X109998868Y-75324908D01*
X110731545Y-74174837D01*
X110733468Y-74171912D01*
X111499285Y-73043634D01*
X111501301Y-73040756D01*
X112299611Y-71935229D01*
X112301658Y-71932480D01*
X113131787Y-70850634D01*
X113133942Y-70847908D01*
X113995196Y-69790651D01*
X113997449Y-69787966D01*
X114719768Y-68952135D01*
X128249500Y-68952135D01*
X128249500Y-71047870D01*
X128249501Y-71047876D01*
X128255908Y-71107483D01*
X128306202Y-71242328D01*
X128306206Y-71242335D01*
X128392452Y-71357544D01*
X128392455Y-71357547D01*
X128507664Y-71443793D01*
X128507671Y-71443797D01*
X128642517Y-71494091D01*
X128642516Y-71494091D01*
X128649444Y-71494835D01*
X128702127Y-71500500D01*
X130797872Y-71500499D01*
X130857483Y-71494091D01*
X130992331Y-71443796D01*
X131107546Y-71357546D01*
X131193796Y-71242331D01*
X131244091Y-71107483D01*
X131250500Y-71047873D01*
X131250499Y-68952128D01*
X131244091Y-68892517D01*
X131193796Y-68757669D01*
X131193795Y-68757668D01*
X131193793Y-68757664D01*
X131107547Y-68642455D01*
X131107544Y-68642452D01*
X130992335Y-68556206D01*
X130992328Y-68556202D01*
X130857482Y-68505908D01*
X130857483Y-68505908D01*
X130797883Y-68499501D01*
X130797881Y-68499500D01*
X130797873Y-68499500D01*
X130797864Y-68499500D01*
X128702129Y-68499500D01*
X128702123Y-68499501D01*
X128642516Y-68505908D01*
X128507671Y-68556202D01*
X128507664Y-68556206D01*
X128392455Y-68642452D01*
X128392452Y-68642455D01*
X128306206Y-68757664D01*
X128306202Y-68757671D01*
X128255908Y-68892517D01*
X128249501Y-68952116D01*
X128249501Y-68952123D01*
X128249500Y-68952135D01*
X114719768Y-68952135D01*
X114889054Y-68756246D01*
X114891391Y-68753620D01*
X115812581Y-67748319D01*
X115815049Y-67745703D01*
X116765115Y-66767590D01*
X116767590Y-66765115D01*
X117745710Y-65815041D01*
X117748327Y-65812574D01*
X118753620Y-64891391D01*
X118756246Y-64889054D01*
X119787966Y-63997449D01*
X119790651Y-63995196D01*
X120847908Y-63133942D01*
X120850634Y-63131787D01*
X121932480Y-62301658D01*
X121935229Y-62299611D01*
X123040756Y-61501301D01*
X123043634Y-61499285D01*
X124171912Y-60733468D01*
X124174837Y-60731545D01*
X125324908Y-59998868D01*
X125327873Y-59997040D01*
X126498725Y-59298148D01*
X126501753Y-59296400D01*
X127692474Y-58631837D01*
X127695645Y-58630129D01*
X128905114Y-58000519D01*
X128908216Y-57998961D01*
X130135561Y-57404757D01*
X130138786Y-57403253D01*
X131382855Y-56845017D01*
X131386043Y-56843641D01*
X132645856Y-56321809D01*
X132649134Y-56320507D01*
X133923604Y-55835533D01*
X133926911Y-55834330D01*
X135214844Y-55386664D01*
X135218234Y-55385540D01*
X136518753Y-54975488D01*
X136522082Y-54974492D01*
X137833920Y-54602454D01*
X137837331Y-54601540D01*
X139159425Y-54267817D01*
X139162901Y-54266993D01*
X140494185Y-53971854D01*
X140497606Y-53971148D01*
X141836938Y-53714850D01*
X141840334Y-53714251D01*
X143186532Y-53497019D01*
X143190010Y-53496509D01*
X144541949Y-53318523D01*
X144545417Y-53318117D01*
X145901951Y-53179528D01*
X145905524Y-53179215D01*
X147265467Y-53080143D01*
X147268962Y-53079940D01*
X148631283Y-53020459D01*
X148634778Y-53020357D01*
X149998212Y-53000526D01*
X150001788Y-53000526D01*
X151365219Y-53020357D01*
G37*
%TD.AperFunction*%
%TD*%
M02*
