%TF.GenerationSoftware,KiCad,Pcbnew,8.0.5*%
%TF.CreationDate,2025-04-28T01:24:49-04:00*%
%TF.ProjectId,CanSat_Power_Management_Board,43616e53-6174-45f5-906f-7765725f4d61,rev?*%
%TF.SameCoordinates,Original*%
%TF.FileFunction,Copper,L1,Top*%
%TF.FilePolarity,Positive*%
%FSLAX46Y46*%
G04 Gerber Fmt 4.6, Leading zero omitted, Abs format (unit mm)*
G04 Created by KiCad (PCBNEW 8.0.5) date 2025-04-28 01:24:49*
%MOMM*%
%LPD*%
G01*
G04 APERTURE LIST*
G04 Aperture macros list*
%AMRoundRect*
0 Rectangle with rounded corners*
0 $1 Rounding radius*
0 $2 $3 $4 $5 $6 $7 $8 $9 X,Y pos of 4 corners*
0 Add a 4 corners polygon primitive as box body*
4,1,4,$2,$3,$4,$5,$6,$7,$8,$9,$2,$3,0*
0 Add four circle primitives for the rounded corners*
1,1,$1+$1,$2,$3*
1,1,$1+$1,$4,$5*
1,1,$1+$1,$6,$7*
1,1,$1+$1,$8,$9*
0 Add four rect primitives between the rounded corners*
20,1,$1+$1,$2,$3,$4,$5,0*
20,1,$1+$1,$4,$5,$6,$7,0*
20,1,$1+$1,$6,$7,$8,$9,0*
20,1,$1+$1,$8,$9,$2,$3,0*%
G04 Aperture macros list end*
%TA.AperFunction,ComponentPad*%
%ADD10R,1.600000X1.600000*%
%TD*%
%TA.AperFunction,ComponentPad*%
%ADD11C,1.600000*%
%TD*%
%TA.AperFunction,SMDPad,CuDef*%
%ADD12R,0.800000X0.800000*%
%TD*%
%TA.AperFunction,ComponentPad*%
%ADD13R,2.000000X2.000000*%
%TD*%
%TA.AperFunction,ComponentPad*%
%ADD14O,1.600000X1.600000*%
%TD*%
%TA.AperFunction,SMDPad,CuDef*%
%ADD15RoundRect,0.250000X0.337500X0.475000X-0.337500X0.475000X-0.337500X-0.475000X0.337500X-0.475000X0*%
%TD*%
%TA.AperFunction,ComponentPad*%
%ADD16R,3.200000X3.200000*%
%TD*%
%TA.AperFunction,ComponentPad*%
%ADD17O,3.200000X3.200000*%
%TD*%
%TA.AperFunction,SMDPad,CuDef*%
%ADD18RoundRect,0.237500X0.250000X0.237500X-0.250000X0.237500X-0.250000X-0.237500X0.250000X-0.237500X0*%
%TD*%
%TA.AperFunction,SMDPad,CuDef*%
%ADD19RoundRect,0.250000X-0.475000X0.337500X-0.475000X-0.337500X0.475000X-0.337500X0.475000X0.337500X0*%
%TD*%
%TA.AperFunction,SMDPad,CuDef*%
%ADD20RoundRect,0.237500X0.237500X-0.250000X0.237500X0.250000X-0.237500X0.250000X-0.237500X-0.250000X0*%
%TD*%
%TA.AperFunction,ComponentPad*%
%ADD21RoundRect,0.250000X-0.350000X-0.625000X0.350000X-0.625000X0.350000X0.625000X-0.350000X0.625000X0*%
%TD*%
%TA.AperFunction,ComponentPad*%
%ADD22O,1.200000X1.750000*%
%TD*%
%TA.AperFunction,ComponentPad*%
%ADD23C,1.700000*%
%TD*%
%TA.AperFunction,SMDPad,CuDef*%
%ADD24R,0.711200X0.228600*%
%TD*%
%TA.AperFunction,ComponentPad*%
%ADD25R,1.050000X1.500000*%
%TD*%
%TA.AperFunction,ComponentPad*%
%ADD26O,1.050000X1.500000*%
%TD*%
%TA.AperFunction,ComponentPad*%
%ADD27R,1.800000X1.800000*%
%TD*%
%TA.AperFunction,ComponentPad*%
%ADD28O,1.800000X1.800000*%
%TD*%
%TA.AperFunction,SMDPad,CuDef*%
%ADD29RoundRect,0.237500X-0.237500X0.250000X-0.237500X-0.250000X0.237500X-0.250000X0.237500X0.250000X0*%
%TD*%
%TA.AperFunction,SMDPad,CuDef*%
%ADD30R,1.500000X3.600000*%
%TD*%
%TA.AperFunction,SMDPad,CuDef*%
%ADD31RoundRect,0.150000X-0.587500X-0.150000X0.587500X-0.150000X0.587500X0.150000X-0.587500X0.150000X0*%
%TD*%
%TA.AperFunction,SMDPad,CuDef*%
%ADD32R,3.400000X1.100000*%
%TD*%
%TA.AperFunction,SMDPad,CuDef*%
%ADD33RoundRect,0.250000X-0.250000X-0.250000X0.250000X-0.250000X0.250000X0.250000X-0.250000X0.250000X0*%
%TD*%
%TA.AperFunction,ViaPad*%
%ADD34C,0.600000*%
%TD*%
%TA.AperFunction,Conductor*%
%ADD35C,1.000000*%
%TD*%
%TA.AperFunction,Conductor*%
%ADD36C,0.800000*%
%TD*%
%TA.AperFunction,Conductor*%
%ADD37C,0.500000*%
%TD*%
%TA.AperFunction,Conductor*%
%ADD38C,0.200000*%
%TD*%
G04 APERTURE END LIST*
D10*
%TO.P,C9,1*%
%TO.N,Net-(U3-THR)*%
X169000000Y-106500000D03*
D11*
%TO.P,C9,2*%
%TO.N,GND*%
X171500000Y-106500000D03*
%TD*%
D12*
%TO.P,D5,1,K*%
%TO.N,GND*%
X108525000Y-102762500D03*
%TO.P,D5,2,A*%
%TO.N,Net-(D5-A)*%
X108525000Y-101162500D03*
%TD*%
D13*
%TO.P,TP4,1,1*%
%TO.N,/5V*%
X186250000Y-104250000D03*
%TD*%
D11*
%TO.P,R9,1*%
%TO.N,Net-(J4-Pin_1)*%
X135750000Y-124157500D03*
D14*
%TO.P,R9,2*%
%TO.N,Net-(Q1-G)*%
X135750000Y-116537500D03*
%TD*%
D11*
%TO.P,R1,1*%
%TO.N,Net-(R1-Pad1)*%
X116500000Y-89690000D03*
D14*
%TO.P,R1,2*%
%TO.N,GND*%
X116500000Y-97310000D03*
%TD*%
D10*
%TO.P,U3,1,GND*%
%TO.N,GND*%
X153200000Y-126950000D03*
D14*
%TO.P,U3,2,TR*%
%TO.N,Net-(U3-THR)*%
X153200000Y-129490000D03*
%TO.P,U3,3,Q*%
%TO.N,Net-(U3-Q)*%
X153200000Y-132030000D03*
%TO.P,U3,4,R*%
%TO.N,/5V*%
X153200000Y-134570000D03*
%TO.P,U3,5,CV*%
%TO.N,Net-(U3-CV)*%
X160820000Y-134570000D03*
%TO.P,U3,6,THR*%
%TO.N,Net-(U3-THR)*%
X160820000Y-132030000D03*
%TO.P,U3,7,DIS*%
%TO.N,Net-(BZ1-Aux)*%
X160820000Y-129490000D03*
%TO.P,U3,8,VCC*%
%TO.N,/5V*%
X160820000Y-126950000D03*
%TD*%
D13*
%TO.P,TP5,1,1*%
%TO.N,Net-(Q1-G)*%
X117500000Y-115250000D03*
%TD*%
D10*
%TO.P,Cout5,1*%
%TO.N,3.3V*%
X158000000Y-78000000D03*
D11*
%TO.P,Cout5,2*%
%TO.N,GND*%
X161500000Y-78000000D03*
%TD*%
D12*
%TO.P,D3,1,K*%
%TO.N,GND*%
X152762500Y-141495000D03*
%TO.P,D3,2,A*%
%TO.N,Net-(D3-A)*%
X151162500Y-141495000D03*
%TD*%
D11*
%TO.P,R6,1*%
%TO.N,Net-(R5-Pad2)*%
X121190000Y-79750000D03*
D14*
%TO.P,R6,2*%
%TO.N,ADC*%
X128810000Y-79750000D03*
%TD*%
D15*
%TO.P,Cin4,1*%
%TO.N,7.4V*%
X175787500Y-77750000D03*
%TO.P,Cin4,2*%
%TO.N,GND*%
X173712500Y-77750000D03*
%TD*%
D16*
%TO.P,D1,1,K*%
%TO.N,/OUT*%
X168750000Y-96870000D03*
D17*
%TO.P,D1,2,A*%
%TO.N,GND*%
X168750000Y-81630000D03*
%TD*%
D18*
%TO.P,R14,1*%
%TO.N,Net-(D3-A)*%
X148750000Y-141500000D03*
%TO.P,R14,2*%
%TO.N,Net-(J4-Pin_1)*%
X146925000Y-141500000D03*
%TD*%
D11*
%TO.P,C8,1*%
%TO.N,Net-(U3-CV)*%
X169000000Y-119250000D03*
%TO.P,C8,2*%
%TO.N,GND*%
X169000000Y-114250000D03*
%TD*%
%TO.P,R11,1*%
%TO.N,Net-(J4-Pin_1)*%
X131750000Y-124157500D03*
D14*
%TO.P,R11,2*%
%TO.N,Net-(Q1-D)*%
X131750000Y-116537500D03*
%TD*%
D19*
%TO.P,C7,1*%
%TO.N,/5V*%
X144250000Y-110250000D03*
%TO.P,C7,2*%
%TO.N,GND*%
X144250000Y-112325000D03*
%TD*%
D11*
%TO.P,R5,1*%
%TO.N,Net-(R4-Pad2)*%
X128810000Y-83750000D03*
D14*
%TO.P,R5,2*%
%TO.N,Net-(R5-Pad2)*%
X121190000Y-83750000D03*
%TD*%
D20*
%TO.P,R16,1*%
%TO.N,Net-(D5-A)*%
X108500000Y-98750000D03*
%TO.P,R16,2*%
%TO.N,7.4V*%
X108500000Y-96925000D03*
%TD*%
D13*
%TO.P,TP3,1,1*%
%TO.N,3.3V*%
X175750000Y-104250000D03*
%TD*%
%TO.P,TP7,1,1*%
%TO.N,GND*%
X182750000Y-104250000D03*
%TD*%
D11*
%TO.P,R8,1*%
%TO.N,Net-(R7-Pad2)*%
X140310000Y-83750000D03*
D14*
%TO.P,R8,2*%
%TO.N,7.4V*%
X132690000Y-83750000D03*
%TD*%
D15*
%TO.P,Cin1,1*%
%TO.N,7.4V*%
X175737500Y-89000000D03*
%TO.P,Cin1,2*%
%TO.N,GND*%
X173662500Y-89000000D03*
%TD*%
D21*
%TO.P,J5,1,Pin_1*%
%TO.N,Net-(J4-Pin_2)*%
X143250000Y-132550000D03*
D22*
%TO.P,J5,2,Pin_2*%
%TO.N,GND*%
X145250000Y-132550000D03*
%TD*%
D23*
%TO.P,BZ1,1,Aux*%
%TO.N,Net-(BZ1-Aux)*%
X153920000Y-121230000D03*
%TO.P,BZ1,2,5V*%
%TO.N,/5V*%
X156460000Y-121230000D03*
%TO.P,BZ1,3,G*%
%TO.N,GND*%
X159000000Y-121230000D03*
%TO.P,BZ1,4,B*%
%TO.N,unconnected-(BZ1-B-Pad4)*%
X161540000Y-121230000D03*
%TO.P,BZ1,5*%
%TO.N,unconnected-(BZ1-Pad5)*%
X164080000Y-121230000D03*
%TD*%
D24*
%TO.P,TPS610333DRLR_U2,1,VIN*%
%TO.N,/VIN*%
X139401598Y-110787498D03*
%TO.P,TPS610333DRLR_U2,2,EN*%
X139401598Y-111287499D03*
%TO.P,TPS610333DRLR_U2,3,MODE*%
%TO.N,GND*%
X139401598Y-111787499D03*
%TO.P,TPS610333DRLR_U2,4,PG*%
X139401598Y-112287500D03*
%TO.P,TPS610333DRLR_U2,5,FB*%
%TO.N,/VIN*%
X141000000Y-112287500D03*
%TO.P,TPS610333DRLR_U2,6,GND*%
%TO.N,GND*%
X141000000Y-111787499D03*
%TO.P,TPS610333DRLR_U2,7,SW*%
%TO.N,/SW*%
X141000000Y-111287499D03*
%TO.P,TPS610333DRLR_U2,8,VOUT*%
%TO.N,/5V*%
X141000000Y-110787498D03*
%TD*%
D15*
%TO.P,Cin3,1*%
%TO.N,7.4V*%
X175787500Y-81500000D03*
%TO.P,Cin3,2*%
%TO.N,GND*%
X173712500Y-81500000D03*
%TD*%
D21*
%TO.P,J3,1,Pin_1*%
%TO.N,3.3V*%
X178500000Y-94200000D03*
D22*
%TO.P,J3,2,Pin_2*%
%TO.N,7.4V*%
X180500000Y-94200000D03*
%TO.P,J3,3,Pin_3*%
%TO.N,ADC*%
X182500000Y-94200000D03*
%TO.P,J3,4,Pin_4*%
%TO.N,GND*%
X184500000Y-94200000D03*
%TD*%
D13*
%TO.P,TP6,1,1*%
%TO.N,Net-(Q1-D)*%
X124750000Y-103250000D03*
%TD*%
D21*
%TO.P,J1,1,Pin_1*%
%TO.N,7.4V*%
X147500000Y-76200000D03*
D22*
%TO.P,J1,2,Pin_2*%
%TO.N,Net-(J1-Pin_2)*%
X149500000Y-76200000D03*
%TD*%
D25*
%TO.P,Q1,1,D*%
%TO.N,Net-(Q1-D)*%
X127710000Y-111000000D03*
D26*
%TO.P,Q1,2,G*%
%TO.N,Net-(Q1-G)*%
X128980000Y-111000000D03*
%TO.P,Q1,3,S*%
%TO.N,GND*%
X130250000Y-111000000D03*
%TD*%
D27*
%TO.P,U1,1,VIN*%
%TO.N,7.4V*%
X161700000Y-92450000D03*
D28*
%TO.P,U1,2,OUT*%
%TO.N,/OUT*%
X158000000Y-90750000D03*
%TO.P,U1,3,GND*%
%TO.N,GND*%
X161700000Y-89050000D03*
%TO.P,U1,4,FB*%
%TO.N,3.3V*%
X158000000Y-87350000D03*
%TO.P,U1,5,~{ON}/OFF*%
%TO.N,GND*%
X161700000Y-85650000D03*
%TD*%
D11*
%TO.P,R12,1*%
%TO.N,/5V*%
X164440000Y-126250000D03*
D14*
%TO.P,R12,2*%
%TO.N,Net-(U3-THR)*%
X172060000Y-126250000D03*
%TD*%
D12*
%TO.P,D4,1,K*%
%TO.N,GND*%
X191485000Y-97237500D03*
%TO.P,D4,2,A*%
%TO.N,Net-(D4-A)*%
X191485000Y-98837500D03*
%TD*%
D29*
%TO.P,R15,1*%
%TO.N,Net-(D4-A)*%
X191500000Y-101250000D03*
%TO.P,R15,2*%
%TO.N,/5V*%
X191500000Y-103075000D03*
%TD*%
D30*
%TO.P,WE-LQS_4025_L2,1*%
%TO.N,/VIN*%
X136975000Y-106787500D03*
%TO.P,WE-LQS_4025_L2,2*%
%TO.N,/SW*%
X140025000Y-106787500D03*
%TD*%
D11*
%TO.P,R13,1*%
%TO.N,Net-(U3-THR)*%
X164440000Y-130250000D03*
D14*
%TO.P,R13,2*%
%TO.N,Net-(U3-Q)*%
X172060000Y-130250000D03*
%TD*%
D11*
%TO.P,R3,1*%
%TO.N,Net-(R2-Pad1)*%
X127000000Y-97310000D03*
D14*
%TO.P,R3,2*%
%TO.N,Net-(R1-Pad1)*%
X127000000Y-89690000D03*
%TD*%
D11*
%TO.P,R4,1*%
%TO.N,Net-(R2-Pad1)*%
X132250000Y-97310000D03*
D14*
%TO.P,R4,2*%
%TO.N,Net-(R4-Pad2)*%
X132250000Y-89690000D03*
%TD*%
D15*
%TO.P,C6,1*%
%TO.N,/VIN*%
X136037500Y-111037500D03*
%TO.P,C6,2*%
%TO.N,GND*%
X133962500Y-111037500D03*
%TD*%
D11*
%TO.P,R7,1*%
%TO.N,ADC*%
X132690000Y-79750000D03*
D14*
%TO.P,R7,2*%
%TO.N,Net-(R7-Pad2)*%
X140310000Y-79750000D03*
%TD*%
D31*
%TO.P,Q2,1,G*%
%TO.N,Net-(Q1-D)*%
X130875000Y-102550000D03*
%TO.P,Q2,2,S*%
%TO.N,Net-(J4-Pin_1)*%
X130875000Y-104450000D03*
%TO.P,Q2,3,D*%
%TO.N,/VIN*%
X132750000Y-103500000D03*
%TD*%
D11*
%TO.P,R2,1*%
%TO.N,Net-(R2-Pad1)*%
X121750000Y-97310000D03*
D14*
%TO.P,R2,2*%
%TO.N,Net-(R1-Pad1)*%
X121750000Y-89690000D03*
%TD*%
D32*
%TO.P,ASPI-4030S-470M-T_L1,1*%
%TO.N,/OUT*%
X148250000Y-90500000D03*
%TO.P,ASPI-4030S-470M-T_L1,2*%
%TO.N,3.3V*%
X148250000Y-87500000D03*
%TD*%
D33*
%TO.P,D2,1,K*%
%TO.N,ADC*%
X125000000Y-74750000D03*
%TO.P,D2,2,A*%
%TO.N,GND*%
X127500000Y-74750000D03*
%TD*%
D11*
%TO.P,R10,1*%
%TO.N,Net-(Q1-G)*%
X139190000Y-116537500D03*
D14*
%TO.P,R10,2*%
%TO.N,GND*%
X146810000Y-116537500D03*
%TD*%
D15*
%TO.P,Cin2,1*%
%TO.N,7.4V*%
X175787500Y-85250000D03*
%TO.P,Cin2,2*%
%TO.N,GND*%
X173712500Y-85250000D03*
%TD*%
D21*
%TO.P,J2,1,Pin_1*%
%TO.N,Net-(J1-Pin_2)*%
X138750000Y-90700000D03*
D22*
%TO.P,J2,2,Pin_2*%
%TO.N,GND*%
X140750000Y-90700000D03*
%TD*%
D21*
%TO.P,J4,1,Pin_1*%
%TO.N,Net-(J4-Pin_1)*%
X143250000Y-126250000D03*
D22*
%TO.P,J4,2,Pin_2*%
%TO.N,Net-(J4-Pin_2)*%
X145250000Y-126250000D03*
%TD*%
D13*
%TO.P,TP2,1,1*%
%TO.N,7.4V*%
X179250000Y-104250000D03*
%TD*%
%TO.P,TP1,1,1*%
%TO.N,ADC*%
X129750000Y-70000000D03*
%TD*%
D34*
%TO.N,GND*%
X166250000Y-99500000D03*
X129250000Y-100500000D03*
X173250000Y-75750000D03*
X173000000Y-98750000D03*
X165500000Y-99500000D03*
X163250000Y-99500000D03*
X176500000Y-92700000D03*
X150500000Y-103500000D03*
X169250000Y-99500000D03*
X149500000Y-107250000D03*
X147250000Y-112250000D03*
X150500000Y-116250000D03*
X141250000Y-100500000D03*
X148750000Y-81750000D03*
X149500000Y-119250000D03*
X154000000Y-77250000D03*
X164750000Y-78750000D03*
X148000000Y-99500000D03*
X168500000Y-99500000D03*
X142750000Y-100500000D03*
X148000000Y-82500000D03*
X160000000Y-75750000D03*
X167750000Y-85750000D03*
X171750000Y-89750000D03*
X173000000Y-97250000D03*
X156250000Y-75750000D03*
X157250000Y-100500000D03*
X180000000Y-79500000D03*
X159250000Y-75000000D03*
X160750000Y-86750000D03*
X132250000Y-100500000D03*
X127000000Y-100500000D03*
X127750000Y-100500000D03*
X167750000Y-100500000D03*
X150500000Y-118500000D03*
X136750000Y-100500000D03*
X145750000Y-99500000D03*
X154000000Y-76500000D03*
X144250000Y-100500000D03*
X144250000Y-90750000D03*
X161750000Y-99500000D03*
X170750000Y-100500000D03*
X161500000Y-75000000D03*
X128500000Y-100500000D03*
X171750000Y-85750000D03*
X164000000Y-99500000D03*
X139750000Y-100500000D03*
X150500000Y-117000000D03*
X151250000Y-100500000D03*
X158500000Y-75000000D03*
X178750000Y-91200000D03*
X149500000Y-116250000D03*
X180000000Y-78750000D03*
X170750000Y-86750000D03*
X145000000Y-97250000D03*
X178750000Y-91950000D03*
X173750000Y-97250000D03*
X156500000Y-100500000D03*
X137500000Y-100500000D03*
X143500000Y-99500000D03*
X154250000Y-100500000D03*
X151000000Y-80250000D03*
X144250000Y-97250000D03*
X171750000Y-87750000D03*
X144250000Y-90000000D03*
X163250000Y-100500000D03*
X180000000Y-84000000D03*
X145000000Y-87000000D03*
X144250000Y-87000000D03*
X159500000Y-99500000D03*
X146500000Y-84000000D03*
X168750000Y-78750000D03*
X151000000Y-79500000D03*
X130000000Y-99500000D03*
X162750000Y-86750000D03*
X165750000Y-79750000D03*
X132250000Y-99500000D03*
X162750000Y-80750000D03*
X158000000Y-99500000D03*
X166000000Y-75750000D03*
X175500000Y-75000000D03*
X146500000Y-84750000D03*
X149500000Y-120000000D03*
X150500000Y-114750000D03*
X172250000Y-99500000D03*
X144250000Y-87750000D03*
X177000000Y-75750000D03*
X180000000Y-84750000D03*
X174000000Y-75000000D03*
X180000000Y-85500000D03*
X163750000Y-81750000D03*
X144250000Y-94250000D03*
X170750000Y-84750000D03*
X165750000Y-81750000D03*
X169250000Y-100500000D03*
X149500000Y-81000000D03*
X145250000Y-114250000D03*
X136750000Y-99500000D03*
X149500000Y-117000000D03*
X167750000Y-89750000D03*
X177250000Y-92950000D03*
X179250000Y-81000000D03*
X178500000Y-75000000D03*
X161000000Y-99500000D03*
X180000000Y-81750000D03*
X150250000Y-81000000D03*
X148250000Y-117250000D03*
X164750000Y-99500000D03*
X160750000Y-84750000D03*
X127000000Y-99500000D03*
X126250000Y-100500000D03*
X175750000Y-93200000D03*
X146500000Y-99500000D03*
X145000000Y-94250000D03*
X166750000Y-84750000D03*
X179250000Y-84750000D03*
X166750000Y-82750000D03*
X149500000Y-109500000D03*
X150500000Y-102750000D03*
X159500000Y-100500000D03*
X152500000Y-78750000D03*
X149500000Y-99500000D03*
X170000000Y-99500000D03*
X148750000Y-100500000D03*
X163000000Y-75000000D03*
X162250000Y-75000000D03*
X150250000Y-80250000D03*
X158500000Y-75750000D03*
X156250000Y-75000000D03*
X150500000Y-120750000D03*
X179250000Y-83250000D03*
X174000000Y-75750000D03*
X149500000Y-108000000D03*
X127500000Y-76250000D03*
X149500000Y-110250000D03*
X139000000Y-99500000D03*
X145000000Y-96500000D03*
X168750000Y-86750000D03*
X162500000Y-99500000D03*
X150500000Y-110250000D03*
X144250000Y-91500000D03*
X163750000Y-79750000D03*
X180000000Y-75750000D03*
X169750000Y-87750000D03*
X161750000Y-87750000D03*
X169750000Y-83750000D03*
X154750000Y-75750000D03*
X170750000Y-88750000D03*
X140500000Y-99500000D03*
X179250000Y-78000000D03*
X167000000Y-99500000D03*
X145750000Y-85500000D03*
X145000000Y-98000000D03*
X163750000Y-75750000D03*
X173750000Y-100500000D03*
X178000000Y-92450000D03*
X141250000Y-99500000D03*
X150500000Y-101250000D03*
X165750000Y-83750000D03*
X164000000Y-100500000D03*
X150500000Y-107250000D03*
X145000000Y-87750000D03*
X144250000Y-88500000D03*
X147250000Y-114250000D03*
X165250000Y-75000000D03*
X152000000Y-100500000D03*
X164750000Y-100500000D03*
X170750000Y-80750000D03*
X146250000Y-113250000D03*
X151750000Y-79500000D03*
X180000000Y-80250000D03*
X150500000Y-111000000D03*
X134500000Y-100500000D03*
X160750000Y-82750000D03*
X142000000Y-100500000D03*
X149500000Y-100500000D03*
X151750000Y-78750000D03*
X155750000Y-100500000D03*
X149500000Y-105000000D03*
X173750000Y-96500000D03*
X144250000Y-96500000D03*
X145000000Y-88500000D03*
X145000000Y-89250000D03*
X180000000Y-82500000D03*
X150500000Y-119250000D03*
X178000000Y-91700000D03*
X161750000Y-79750000D03*
X149500000Y-117750000D03*
X159250000Y-75750000D03*
X147250000Y-99500000D03*
X179400000Y-89200000D03*
X133000000Y-100500000D03*
X171000000Y-75750000D03*
X145000000Y-92250000D03*
X173000000Y-100500000D03*
X171750000Y-75750000D03*
X174750000Y-75750000D03*
X148750000Y-82500000D03*
X157750000Y-75000000D03*
X171750000Y-75000000D03*
X179250000Y-77250000D03*
X177250000Y-92200000D03*
X152000000Y-99500000D03*
X167000000Y-100500000D03*
X145250000Y-116250000D03*
X143250000Y-114250000D03*
X138250000Y-99500000D03*
X179250000Y-75750000D03*
X146500000Y-100500000D03*
X164750000Y-88750000D03*
X164750000Y-82750000D03*
X138250000Y-100500000D03*
X179250000Y-76500000D03*
X130000000Y-100500000D03*
X168500000Y-100500000D03*
X146500000Y-115250000D03*
X164500000Y-75000000D03*
X155500000Y-75750000D03*
X155750000Y-99500000D03*
X142750000Y-99500000D03*
X176250000Y-75000000D03*
X145000000Y-100500000D03*
X144250000Y-89250000D03*
X179250000Y-79500000D03*
X180000000Y-76500000D03*
X147250000Y-84000000D03*
X145000000Y-90750000D03*
X179400000Y-90700000D03*
X173000000Y-96500000D03*
X142000000Y-99500000D03*
X145000000Y-90000000D03*
X135250000Y-99500000D03*
X173000000Y-95000000D03*
X171000000Y-75000000D03*
X177750000Y-75750000D03*
X127750000Y-99500000D03*
X157000000Y-75000000D03*
X133000000Y-99500000D03*
X163750000Y-89750000D03*
X145000000Y-91500000D03*
X145750000Y-84750000D03*
X148750000Y-99500000D03*
X150500000Y-115500000D03*
X155500000Y-75000000D03*
X179250000Y-81750000D03*
X180000000Y-78000000D03*
X144250000Y-115250000D03*
X150500000Y-102000000D03*
X170750000Y-99500000D03*
X180000000Y-81000000D03*
X163750000Y-75000000D03*
X157000000Y-75750000D03*
X150500000Y-104250000D03*
X174750000Y-75000000D03*
X147250000Y-83250000D03*
X135250000Y-100500000D03*
X160750000Y-75750000D03*
X145000000Y-98750000D03*
X152750000Y-99500000D03*
X161750000Y-100500000D03*
X133750000Y-100500000D03*
X130750000Y-100500000D03*
X176500000Y-93450000D03*
X148250000Y-115250000D03*
X176250000Y-75750000D03*
X143500000Y-100500000D03*
X145000000Y-85500000D03*
X134500000Y-99500000D03*
X149500000Y-120750000D03*
X167750000Y-83750000D03*
X150500000Y-108000000D03*
X177750000Y-75000000D03*
X139000000Y-100500000D03*
X145750000Y-100500000D03*
X165750000Y-89750000D03*
X139750000Y-99500000D03*
X150500000Y-109500000D03*
X167750000Y-99500000D03*
X173000000Y-95750000D03*
X154250000Y-99500000D03*
X179250000Y-82500000D03*
X157250000Y-99500000D03*
X179250000Y-75000000D03*
X169750000Y-79750000D03*
X162750000Y-78750000D03*
X166750000Y-78750000D03*
X145000000Y-95750000D03*
X160250000Y-99500000D03*
X177000000Y-75000000D03*
X164500000Y-75750000D03*
X149500000Y-105750000D03*
X160000000Y-75000000D03*
X171750000Y-81750000D03*
X144250000Y-92250000D03*
X153250000Y-77250000D03*
X144250000Y-95750000D03*
X153500000Y-100500000D03*
X149500000Y-115500000D03*
X149500000Y-101250000D03*
X160750000Y-75000000D03*
X155000000Y-99500000D03*
X153250000Y-78000000D03*
X144250000Y-98750000D03*
X173250000Y-75000000D03*
X130750000Y-99500000D03*
X179250000Y-80250000D03*
X145000000Y-86250000D03*
X150500000Y-105750000D03*
X149500000Y-102750000D03*
X178500000Y-75750000D03*
X170250000Y-75000000D03*
X148000000Y-83250000D03*
X175500000Y-75750000D03*
X152500000Y-78000000D03*
X150500000Y-117750000D03*
X150500000Y-120000000D03*
X163750000Y-77750000D03*
X166750000Y-88750000D03*
X167750000Y-77750000D03*
X173750000Y-98750000D03*
X172750000Y-86750000D03*
X166750000Y-80750000D03*
X149500000Y-103500000D03*
X180000000Y-77250000D03*
X170250000Y-75750000D03*
X149500000Y-114000000D03*
X173000000Y-98000000D03*
X166250000Y-100500000D03*
X158750000Y-99500000D03*
X144250000Y-95000000D03*
X152750000Y-100500000D03*
X143250000Y-116250000D03*
X171500000Y-100500000D03*
X163750000Y-87750000D03*
X162250000Y-75750000D03*
X161750000Y-83750000D03*
X156500000Y-99500000D03*
X161000000Y-100500000D03*
X158750000Y-100500000D03*
X165250000Y-75750000D03*
X169500000Y-75000000D03*
X167750000Y-79750000D03*
X145000000Y-95000000D03*
X149500000Y-118500000D03*
X180000000Y-83250000D03*
X136000000Y-99500000D03*
X163750000Y-85750000D03*
X173000000Y-99500000D03*
X179400000Y-89950000D03*
X158000000Y-100500000D03*
X162750000Y-84750000D03*
X155000000Y-100500000D03*
X163000000Y-75750000D03*
X173750000Y-83750000D03*
X144250000Y-98000000D03*
X150500000Y-108750000D03*
X145000000Y-99500000D03*
X149500000Y-113250000D03*
X153500000Y-99500000D03*
X126250000Y-99500000D03*
X179250000Y-84000000D03*
X136000000Y-100500000D03*
X165500000Y-100500000D03*
X170750000Y-82750000D03*
X128500000Y-99500000D03*
X144250000Y-99500000D03*
X168750000Y-84750000D03*
X150500000Y-106500000D03*
X131500000Y-100500000D03*
X172250000Y-100500000D03*
X131500000Y-99500000D03*
X148250000Y-113250000D03*
X171750000Y-83750000D03*
X144250000Y-117250000D03*
X160250000Y-100500000D03*
X140500000Y-100500000D03*
X172750000Y-82750000D03*
X161500000Y-75750000D03*
X147250000Y-100500000D03*
X151250000Y-99500000D03*
X149500000Y-108750000D03*
X173750000Y-98000000D03*
X148000000Y-100500000D03*
X157750000Y-75750000D03*
X162500000Y-100500000D03*
X150500000Y-100500000D03*
X149500000Y-104250000D03*
X149500000Y-114750000D03*
X173750000Y-95000000D03*
X133750000Y-99500000D03*
X165750000Y-77750000D03*
X149500000Y-106500000D03*
X173750000Y-99500000D03*
X170000000Y-100500000D03*
X169750000Y-85750000D03*
X173750000Y-95750000D03*
X144250000Y-86250000D03*
X172500000Y-75750000D03*
X164750000Y-80750000D03*
X150500000Y-114000000D03*
X179250000Y-78750000D03*
X165750000Y-87750000D03*
X172500000Y-75000000D03*
X137500000Y-99500000D03*
X129250000Y-99500000D03*
X164750000Y-86750000D03*
X150500000Y-99500000D03*
X154750000Y-76500000D03*
X171500000Y-99500000D03*
X149500000Y-81750000D03*
X150500000Y-105000000D03*
X149500000Y-102000000D03*
%TO.N,/5V*%
X148250000Y-110500000D03*
%TO.N,GND*%
X180000000Y-75000000D03*
%TD*%
D35*
%TO.N,GND*%
X130287500Y-111037500D02*
X130250000Y-111000000D01*
X152762500Y-141495000D02*
X152762500Y-140062500D01*
X187537500Y-97237500D02*
X184500000Y-94200000D01*
X111047500Y-102762500D02*
X116500000Y-97310000D01*
X191485000Y-97237500D02*
X187537500Y-97237500D01*
X152762500Y-140062500D02*
X145250000Y-132550000D01*
X127500000Y-74750000D02*
X127500000Y-76250000D01*
X108525000Y-102762500D02*
X111047500Y-102762500D01*
D36*
%TO.N,/5V*%
X186250000Y-104250000D02*
X190325000Y-104250000D01*
X190325000Y-104250000D02*
X191500000Y-103075000D01*
D35*
%TO.N,7.4V*%
X134625000Y-92125000D02*
X147500000Y-79250000D01*
X108500000Y-96925000D02*
X111925000Y-93500000D01*
X111925000Y-93500000D02*
X133250000Y-93500000D01*
X147500000Y-79250000D02*
X147500000Y-76200000D01*
X133250000Y-93500000D02*
X134625000Y-92125000D01*
D37*
%TO.N,ADC*%
X125000000Y-75940000D02*
X128810000Y-79750000D01*
X125000000Y-74750000D02*
X125000000Y-75940000D01*
X125000000Y-74750000D02*
X129750000Y-70000000D01*
D38*
%TO.N,Net-(Q1-G)*%
X128980000Y-111000000D02*
X128980000Y-111225000D01*
X128980000Y-111225000D02*
X134292500Y-116537500D01*
X135750000Y-116537500D02*
X139190000Y-116537500D01*
X134292500Y-116537500D02*
X135750000Y-116537500D01*
%TO.N,Net-(Q1-D)*%
X130875000Y-102550000D02*
X125450000Y-102550000D01*
X131750000Y-116537500D02*
X127710000Y-112497500D01*
X127710000Y-105715000D02*
X130875000Y-102550000D01*
X127710000Y-112497500D02*
X127710000Y-111000000D01*
X125450000Y-102550000D02*
X124750000Y-103250000D01*
X127710000Y-111000000D02*
X127710000Y-105715000D01*
D37*
%TO.N,Net-(J4-Pin_1)*%
X140750000Y-116000000D02*
X140750000Y-119157500D01*
X132500000Y-113750000D02*
X132500000Y-106075000D01*
X139750000Y-115000000D02*
X140750000Y-116000000D01*
X141750000Y-136325000D02*
X146925000Y-141500000D01*
X133000000Y-114250000D02*
X132500000Y-113750000D01*
X132500000Y-106075000D02*
X130875000Y-104450000D01*
X140750000Y-119157500D02*
X135750000Y-124157500D01*
X133000000Y-114250000D02*
X133500000Y-114750000D01*
X143250000Y-126250000D02*
X141750000Y-127750000D01*
X133500000Y-114750000D02*
X133750000Y-115000000D01*
X133750000Y-115000000D02*
X139750000Y-115000000D01*
X141750000Y-127750000D02*
X141750000Y-136325000D01*
D38*
%TO.N,Net-(D3-A)*%
X151157500Y-141500000D02*
X151162500Y-141495000D01*
D37*
X148750000Y-141500000D02*
X151157500Y-141500000D01*
D36*
%TO.N,Net-(D4-A)*%
X191500000Y-101250000D02*
X191500000Y-98852500D01*
X191500000Y-98852500D02*
X191485000Y-98837500D01*
D35*
%TO.N,Net-(D5-A)*%
X108525000Y-98775000D02*
X108500000Y-98750000D01*
X108525000Y-101162500D02*
X108525000Y-98775000D01*
%TD*%
%TA.AperFunction,Conductor*%
%TO.N,3.3V*%
G36*
X156500000Y-80100000D02*
G01*
X150500000Y-86100000D01*
X146200000Y-86100000D01*
X155813721Y-76536090D01*
X155875131Y-76502766D01*
X155901174Y-76500000D01*
X156500000Y-76500000D01*
X156500000Y-80100000D01*
G37*
%TD.AperFunction*%
%TD*%
%TA.AperFunction,Conductor*%
%TO.N,GND*%
G36*
X180500000Y-86000000D02*
G01*
X178750000Y-86000000D01*
X178750000Y-76250000D01*
X180500000Y-76250000D01*
X180500000Y-86000000D01*
G37*
%TD.AperFunction*%
%TD*%
%TA.AperFunction,Conductor*%
%TO.N,GND*%
G36*
X148693039Y-111669685D02*
G01*
X148738794Y-111722489D01*
X148750000Y-111774000D01*
X148750000Y-117776000D01*
X148730315Y-117843039D01*
X148677511Y-117888794D01*
X148626000Y-117900000D01*
X142624000Y-117900000D01*
X142556961Y-117880315D01*
X142511206Y-117827511D01*
X142500000Y-117776000D01*
X142500000Y-115000000D01*
X142700000Y-115000000D01*
X142700000Y-113650000D01*
X142500000Y-113650000D01*
X142500000Y-112750000D01*
X141700000Y-111950000D01*
X140449998Y-111950000D01*
X139935472Y-112417753D01*
X139872626Y-112448283D01*
X139852061Y-112450000D01*
X139124000Y-112450000D01*
X139056961Y-112430315D01*
X139011206Y-112377511D01*
X139000000Y-112326000D01*
X139000000Y-111774000D01*
X139019685Y-111706961D01*
X139072489Y-111661206D01*
X139124000Y-111650000D01*
X148626000Y-111650000D01*
X148693039Y-111669685D01*
G37*
%TD.AperFunction*%
%TD*%
%TA.AperFunction,Conductor*%
%TO.N,7.4V*%
G36*
X178487539Y-76519685D02*
G01*
X178533294Y-76572489D01*
X178544500Y-76624000D01*
X178544500Y-90569674D01*
X178524815Y-90636713D01*
X178487343Y-90674116D01*
X175180848Y-92790272D01*
X174558970Y-93188275D01*
X173497407Y-93867675D01*
X173493189Y-93870897D01*
X173486706Y-93875527D01*
X173453424Y-93897716D01*
X173449997Y-93900000D01*
X160016453Y-93949938D01*
X160002834Y-93924996D01*
X160000000Y-93898638D01*
X160000000Y-91074000D01*
X160019685Y-91006961D01*
X160072489Y-90961206D01*
X160124000Y-90950000D01*
X174650000Y-90950000D01*
X175000000Y-90600000D01*
X174950441Y-76624439D01*
X174969887Y-76557331D01*
X175022529Y-76511389D01*
X175074440Y-76500000D01*
X178420500Y-76500000D01*
X178487539Y-76519685D01*
G37*
%TD.AperFunction*%
%TD*%
%TA.AperFunction,Conductor*%
%TO.N,/VIN*%
G36*
X137900000Y-110000000D02*
G01*
X138500000Y-110650000D01*
X139620500Y-110650000D01*
X139687539Y-110669685D01*
X139733294Y-110722489D01*
X139744500Y-110774000D01*
X139744500Y-111148638D01*
X139745678Y-111170618D01*
X139748511Y-111196965D01*
X139748512Y-111196967D01*
X139774291Y-111279294D01*
X139772758Y-111279773D01*
X139779940Y-111341436D01*
X139749219Y-111404190D01*
X139689448Y-111440372D01*
X139657720Y-111444500D01*
X139123992Y-111444500D01*
X139079460Y-111449289D01*
X139066204Y-111450000D01*
X138600000Y-111450000D01*
X135200000Y-111450000D01*
X135200000Y-105400000D01*
X137900000Y-105400000D01*
X137900000Y-110000000D01*
G37*
%TD.AperFunction*%
%TD*%
%TA.AperFunction,Conductor*%
%TO.N,/OUT*%
G36*
X159500000Y-94000000D02*
G01*
X160450000Y-94950000D01*
X170526000Y-94950000D01*
X170593039Y-94969685D01*
X170638794Y-95022489D01*
X170650000Y-95074000D01*
X170650000Y-98626000D01*
X170630315Y-98693039D01*
X170577511Y-98738794D01*
X170526000Y-98750000D01*
X145974000Y-98750000D01*
X145906961Y-98730315D01*
X145861206Y-98677511D01*
X145850000Y-98626000D01*
X145850000Y-91950000D01*
X159500000Y-91950000D01*
X159500000Y-94000000D01*
G37*
%TD.AperFunction*%
%TD*%
%TA.AperFunction,Conductor*%
%TO.N,GND*%
G36*
X134743039Y-110119685D02*
G01*
X134788794Y-110172489D01*
X134800000Y-110224000D01*
X134800000Y-113350000D01*
X135100000Y-113650000D01*
X142700000Y-113650000D01*
X142700000Y-115000000D01*
X140438465Y-115000000D01*
X140371426Y-114980315D01*
X140350784Y-114963681D01*
X140026616Y-114639513D01*
X140026614Y-114639511D01*
X139975250Y-114609856D01*
X139923888Y-114580201D01*
X139911780Y-114576957D01*
X139899673Y-114573713D01*
X139899670Y-114573712D01*
X139861478Y-114563478D01*
X139809309Y-114549500D01*
X139809308Y-114549500D01*
X133987965Y-114549500D01*
X133920926Y-114529815D01*
X133900284Y-114513181D01*
X133867560Y-114480457D01*
X133867558Y-114480454D01*
X133367560Y-113980457D01*
X133367558Y-113980454D01*
X133186319Y-113799215D01*
X133152834Y-113737892D01*
X133150000Y-113711534D01*
X133150000Y-110224000D01*
X133169685Y-110156961D01*
X133222489Y-110111206D01*
X133274000Y-110100000D01*
X134676000Y-110100000D01*
X134743039Y-110119685D01*
G37*
%TD.AperFunction*%
%TD*%
%TA.AperFunction,Conductor*%
%TO.N,/5V*%
G36*
X148693039Y-104619685D02*
G01*
X148738794Y-104672489D01*
X148750000Y-104724000D01*
X148750000Y-110826000D01*
X148730315Y-110893039D01*
X148677511Y-110938794D01*
X148626000Y-110950000D01*
X141323122Y-110950000D01*
X141305475Y-110948738D01*
X141291358Y-110946708D01*
X141276000Y-110944500D01*
X141275999Y-110944500D01*
X141224000Y-110944500D01*
X141156961Y-110924815D01*
X141111206Y-110872011D01*
X141100000Y-110820500D01*
X141100000Y-109303624D01*
X141101262Y-109285976D01*
X141105500Y-109256501D01*
X141105500Y-105024008D01*
X141105500Y-105024000D01*
X141100803Y-104980316D01*
X141100710Y-104979450D01*
X141100000Y-104966196D01*
X141100000Y-104724000D01*
X141119685Y-104656961D01*
X141172489Y-104611206D01*
X141224000Y-104600000D01*
X148626000Y-104600000D01*
X148693039Y-104619685D01*
G37*
%TD.AperFunction*%
%TD*%
%TA.AperFunction,Conductor*%
%TO.N,7.4V*%
G36*
X173443356Y-93904428D02*
G01*
X173443356Y-93904429D01*
X173443354Y-93904430D01*
X172431239Y-94579174D01*
X172364540Y-94599982D01*
X172362456Y-94600000D01*
X160701362Y-94600000D01*
X160634323Y-94580315D01*
X160613681Y-94563681D01*
X160036319Y-93986319D01*
X160016453Y-93949938D01*
X173450000Y-93900000D01*
X173443356Y-93904428D01*
G37*
%TD.AperFunction*%
%TD*%
%TA.AperFunction,Conductor*%
%TO.N,3.3V*%
G36*
X159443039Y-76519685D02*
G01*
X159488794Y-76572489D01*
X159500000Y-76624000D01*
X159500000Y-88526000D01*
X159480315Y-88593039D01*
X159472282Y-88600000D01*
X156500000Y-88600000D01*
X156500000Y-76500000D01*
X159376000Y-76500000D01*
X159443039Y-76519685D01*
G37*
%TD.AperFunction*%
%TD*%
%TA.AperFunction,Conductor*%
%TO.N,/VIN*%
G36*
X137843039Y-103169685D02*
G01*
X137888794Y-103222489D01*
X137900000Y-103274000D01*
X137900000Y-105400000D01*
X135200000Y-105400000D01*
X135200000Y-104500000D01*
X134500000Y-103850000D01*
X131966487Y-103850000D01*
X131952834Y-103824996D01*
X131950000Y-103798638D01*
X131950000Y-103274000D01*
X131969685Y-103206961D01*
X132022489Y-103161206D01*
X132074000Y-103150000D01*
X137776000Y-103150000D01*
X137843039Y-103169685D01*
G37*
%TD.AperFunction*%
%TD*%
%TA.AperFunction,Conductor*%
%TO.N,/VIN*%
G36*
X135200000Y-104500000D02*
G01*
X135200000Y-109700000D01*
X133274000Y-109700000D01*
X133206961Y-109680315D01*
X133161206Y-109627511D01*
X133150000Y-109576000D01*
X133150000Y-105050000D01*
X131986319Y-103886319D01*
X131966487Y-103850000D01*
X134500000Y-103850000D01*
X135200000Y-104500000D01*
G37*
%TD.AperFunction*%
%TD*%
%TA.AperFunction,Conductor*%
%TO.N,3.3V*%
G36*
X156500000Y-88600000D02*
G01*
X159472282Y-88600000D01*
X159427511Y-88638794D01*
X159376000Y-88650000D01*
X145974000Y-88650000D01*
X145906961Y-88630315D01*
X145861206Y-88577511D01*
X145850000Y-88526000D01*
X145850000Y-86491981D01*
X145869685Y-86424942D01*
X145886319Y-86404300D01*
X145935968Y-86354651D01*
X146166529Y-86124089D01*
X146194636Y-86105335D01*
X146199999Y-86100000D01*
X146200000Y-86100000D01*
X156500000Y-86100000D01*
X156500000Y-88600000D01*
G37*
%TD.AperFunction*%
%TD*%
%TA.AperFunction,Conductor*%
%TO.N,GND*%
G36*
X180443039Y-74519685D02*
G01*
X180488794Y-74572489D01*
X180500000Y-74624000D01*
X180500000Y-76250000D01*
X155750000Y-76250000D01*
X155749999Y-76250000D01*
X145500000Y-86499999D01*
X145500000Y-86500000D01*
X145500000Y-99000000D01*
X143750000Y-99000000D01*
X143750000Y-86051362D01*
X143769685Y-85984323D01*
X143786319Y-85963681D01*
X155213681Y-74536319D01*
X155275004Y-74502834D01*
X155301362Y-74500000D01*
X180376000Y-74500000D01*
X180443039Y-74519685D01*
G37*
%TD.AperFunction*%
%TD*%
%TA.AperFunction,Conductor*%
%TO.N,/SW*%
G36*
X140843039Y-104919685D02*
G01*
X140888794Y-104972489D01*
X140900000Y-105024000D01*
X140900000Y-109256503D01*
X140880315Y-109323542D01*
X140872828Y-109333965D01*
X140500000Y-109800000D01*
X140500000Y-111150000D01*
X141276000Y-111150000D01*
X141343039Y-111169685D01*
X141388794Y-111222489D01*
X141400000Y-111274000D01*
X141400000Y-111320500D01*
X141380315Y-111387539D01*
X141327511Y-111433294D01*
X141276000Y-111444500D01*
X140245862Y-111444500D01*
X140178823Y-111424815D01*
X140158181Y-111408181D01*
X139986319Y-111236319D01*
X139952834Y-111174996D01*
X139950000Y-111148638D01*
X139950000Y-110200000D01*
X139949999Y-110199999D01*
X139133850Y-109335841D01*
X139102130Y-109273587D01*
X139100000Y-109250700D01*
X139100000Y-105024000D01*
X139119685Y-104956961D01*
X139172489Y-104911206D01*
X139224000Y-104900000D01*
X140776000Y-104900000D01*
X140843039Y-104919685D01*
G37*
%TD.AperFunction*%
%TD*%
%TA.AperFunction,Conductor*%
%TO.N,GND*%
G36*
X180500000Y-91184367D02*
G01*
X180480315Y-91251406D01*
X180445726Y-91286906D01*
X174250000Y-95499999D01*
X174250000Y-95500000D01*
X174250000Y-99000000D01*
X172500000Y-99000000D01*
X172500000Y-94846676D01*
X172519685Y-94779637D01*
X172555217Y-94743502D01*
X172607724Y-94708497D01*
X173557345Y-94075416D01*
X173557344Y-94075415D01*
X173559244Y-94074148D01*
X173563967Y-94071002D01*
X173563967Y-94071001D01*
X173567961Y-94068341D01*
X173568016Y-94068301D01*
X173604997Y-94043647D01*
X173608192Y-94040756D01*
X178750000Y-90750000D01*
X178750000Y-86000000D01*
X180500000Y-86000000D01*
X180500000Y-91184367D01*
G37*
%TD.AperFunction*%
%TD*%
%TA.AperFunction,Conductor*%
%TO.N,/VIN*%
G36*
X138600000Y-112700000D02*
G01*
X140600000Y-112700000D01*
X140600000Y-112279500D01*
X140619685Y-112212461D01*
X140672489Y-112166706D01*
X140724000Y-112155500D01*
X141276000Y-112155500D01*
X141343039Y-112175185D01*
X141388794Y-112227989D01*
X141400000Y-112279500D01*
X141400000Y-113176000D01*
X141380315Y-113243039D01*
X141327511Y-113288794D01*
X141276000Y-113300000D01*
X135324000Y-113300000D01*
X135256961Y-113280315D01*
X135211206Y-113227511D01*
X135200000Y-113176000D01*
X135200000Y-111450000D01*
X138600000Y-111450000D01*
X138600000Y-112700000D01*
G37*
%TD.AperFunction*%
%TD*%
%TA.AperFunction,Conductor*%
%TO.N,/OUT*%
G36*
X159443039Y-89469685D02*
G01*
X159488794Y-89522489D01*
X159500000Y-89574000D01*
X159500000Y-91950000D01*
X145850000Y-91950000D01*
X145850000Y-89574000D01*
X145869685Y-89506961D01*
X145922489Y-89461206D01*
X145974000Y-89450000D01*
X159376000Y-89450000D01*
X159443039Y-89469685D01*
G37*
%TD.AperFunction*%
%TD*%
%TA.AperFunction,Conductor*%
%TO.N,GND*%
G36*
X174250000Y-100876000D02*
G01*
X174230315Y-100943039D01*
X174177511Y-100988794D01*
X174126000Y-101000000D01*
X151000000Y-101000000D01*
X151000000Y-121126000D01*
X150980315Y-121193039D01*
X150927511Y-121238794D01*
X150876000Y-121250000D01*
X149124000Y-121250000D01*
X149056961Y-121230315D01*
X149011206Y-121177511D01*
X149000000Y-121126000D01*
X149000000Y-101000000D01*
X125874000Y-101000000D01*
X125806961Y-100980315D01*
X125761206Y-100927511D01*
X125750000Y-100876000D01*
X125750000Y-99124000D01*
X125769685Y-99056961D01*
X125822489Y-99011206D01*
X125874000Y-99000000D01*
X143750000Y-99000000D01*
X174250000Y-99000000D01*
X174250000Y-100876000D01*
G37*
%TD.AperFunction*%
%TD*%
%TA.AperFunction,Conductor*%
%TO.N,GND*%
G36*
X174542597Y-76519685D02*
G01*
X174588352Y-76572489D01*
X174599557Y-76624441D01*
X174550442Y-90426000D01*
X174550440Y-90426441D01*
X174530517Y-90493410D01*
X174477551Y-90538977D01*
X174426441Y-90550000D01*
X160124000Y-90550000D01*
X160056961Y-90530315D01*
X160011206Y-90477511D01*
X160000000Y-90426000D01*
X160000000Y-76624000D01*
X160019685Y-76556961D01*
X160072489Y-76511206D01*
X160124000Y-76500000D01*
X174475558Y-76500000D01*
X174542597Y-76519685D01*
G37*
%TD.AperFunction*%
%TD*%
%TA.AperFunction,Conductor*%
%TO.N,3.3V*%
G36*
X156500000Y-86100000D02*
G01*
X150500000Y-86100000D01*
X156500000Y-80100000D01*
X156500000Y-86100000D01*
G37*
%TD.AperFunction*%
%TD*%
M02*
