M48
; DRILL file {KiCad 8.0.5} date 2025-05-01T20:48:09-0400
; FORMAT={-:-/ absolute / inch / decimal}
; #@! TF.CreationDate,2025-05-01T20:48:09-04:00
; #@! TF.GenerationSoftware,Kicad,Pcbnew,8.0.5
; #@! TF.FileFunction,Plated,1,2,PTH
FMAT,2
INCH
; #@! TA.AperFunction,Plated,PTH,ComponentDrill
T1C0.0295
; #@! TA.AperFunction,Plated,PTH,ComponentDrill
T2C0.0394
%
G90
G05
T1
X5.7087Y-2.5591
X5.7874Y-2.5591
X5.8661Y-2.5591
X5.9449Y-2.5591
X6.0236Y-2.5591
X6.1024Y-2.5591
T2
X4.9535Y-2.8701
X4.9535Y-3.8819
X4.9543Y-4.0709
X4.9543Y-5.0827
X5.0535Y-2.8701
X5.0535Y-3.8819
X5.0543Y-4.0709
X5.0543Y-5.0827
X5.1535Y-2.8701
X5.1535Y-3.8819
X5.1543Y-4.0709
X5.1543Y-5.0827
X5.2535Y-2.8701
X5.2535Y-3.8819
X5.2543Y-4.0709
X5.2543Y-5.0827
X5.3535Y-2.8701
X5.3535Y-3.8819
X5.3543Y-4.0709
X5.3543Y-5.0827
X5.4535Y-2.8701
X5.4535Y-3.8819
X5.4543Y-4.0709
X5.4543Y-5.0827
X5.5535Y-2.8701
X5.5535Y-3.8819
X5.5543Y-4.0709
X5.5543Y-5.0827
X5.6535Y-2.8701
X5.6535Y-3.8819
X5.6543Y-4.0709
X5.6543Y-5.0827
X5.7535Y-2.8701
X5.7535Y-3.8819
X5.7543Y-4.0709
X5.7543Y-5.0827
X5.8535Y-2.8701
X5.8535Y-3.8819
X5.8543Y-4.0709
X5.8543Y-5.0827
X5.9535Y-2.8701
X5.9535Y-3.8819
X5.9543Y-4.0709
X5.9543Y-5.0827
X6.0535Y-2.8701
X6.0535Y-3.8819
X6.0543Y-4.0709
X6.0543Y-5.0827
X6.1535Y-2.8701
X6.1535Y-3.8819
X6.1543Y-4.0709
X6.1543Y-5.0827
X6.2535Y-2.8701
X6.2535Y-3.8819
X6.2543Y-4.0709
X6.2543Y-5.0827
X6.3535Y-2.8701
X6.3535Y-3.8819
X6.3543Y-4.0709
X6.3543Y-5.0827
X6.4535Y-2.8701
X6.4535Y-3.8819
X6.4543Y-4.0709
X6.4543Y-5.0827
X6.5535Y-2.8701
X6.5535Y-3.8819
X6.5543Y-4.0709
X6.5543Y-5.0827
X6.6535Y-2.8701
X6.6535Y-3.8819
X6.6543Y-4.0709
X6.6543Y-5.0827
X6.7535Y-2.8701
X6.7535Y-3.8819
X6.7543Y-4.0709
X6.7543Y-5.0827
X6.8535Y-2.8701
X6.8535Y-3.8819
X6.8543Y-4.0709
X6.8543Y-5.0827
M30
