%TF.GenerationSoftware,KiCad,Pcbnew,8.0.5*%
%TF.CreationDate,2025-05-01T20:48:06-04:00*%
%TF.ProjectId,CanSat_Camera_Board,43616e53-6174-45f4-9361-6d6572615f42,rev?*%
%TF.SameCoordinates,Original*%
%TF.FileFunction,Paste,Bot*%
%TF.FilePolarity,Positive*%
%FSLAX46Y46*%
G04 Gerber Fmt 4.6, Leading zero omitted, Abs format (unit mm)*
G04 Created by KiCad (PCBNEW 8.0.5) date 2025-05-01 20:48:06*
%MOMM*%
%LPD*%
G01*
G04 APERTURE LIST*
%ADD10C,0.010000*%
G04 APERTURE END LIST*
D10*
%TO.C,REF\u002A\u002A*%
X125700000Y-61980000D02*
X125645000Y-61990000D01*
X125570000Y-62010000D01*
X125490000Y-62035000D01*
X125425000Y-62060000D01*
X125355000Y-62090000D01*
X125255000Y-62140000D01*
X125185000Y-62180000D01*
X125110000Y-62230000D01*
X125030000Y-62290000D01*
X124975000Y-62335000D01*
X124930000Y-62380000D01*
X124890000Y-62420000D01*
X124855000Y-62455000D01*
X124795000Y-62525000D01*
X124745000Y-62590000D01*
X124690000Y-62670000D01*
X124645000Y-62745000D01*
X124580000Y-62875000D01*
X124540000Y-62975000D01*
X124510000Y-63070000D01*
X124490000Y-63145000D01*
X124480000Y-63200000D01*
X123460000Y-63200000D01*
X123465000Y-63140000D01*
X123475000Y-63075000D01*
X123485000Y-63015000D01*
X123500000Y-62940000D01*
X123525000Y-62840000D01*
X123555000Y-62740000D01*
X123585000Y-62645000D01*
X123610000Y-62580000D01*
X123640000Y-62505000D01*
X123675000Y-62425000D01*
X123715000Y-62345000D01*
X123755000Y-62270000D01*
X123800000Y-62190000D01*
X123840000Y-62125000D01*
X123890000Y-62050000D01*
X123940000Y-61980000D01*
X123990000Y-61915000D01*
X124045000Y-61845000D01*
X124095000Y-61790000D01*
X124155000Y-61725000D01*
X124215000Y-61665000D01*
X124285000Y-61600000D01*
X124345000Y-61545000D01*
X124440000Y-61470000D01*
X124535000Y-61400000D01*
X124610000Y-61350000D01*
X124680000Y-61305000D01*
X124750000Y-61265000D01*
X124835000Y-61220000D01*
X124885000Y-61195000D01*
X124960000Y-61160000D01*
X125030000Y-61130000D01*
X125105000Y-61100000D01*
X125175000Y-61075000D01*
X125250000Y-61050000D01*
X125325000Y-61030000D01*
X125400000Y-61010000D01*
X125490000Y-60990000D01*
X125575000Y-60975000D01*
X125640000Y-60965000D01*
X125700000Y-60960000D01*
X125700000Y-61980000D01*
G36*
X125700000Y-61980000D02*
G01*
X125645000Y-61990000D01*
X125570000Y-62010000D01*
X125490000Y-62035000D01*
X125425000Y-62060000D01*
X125355000Y-62090000D01*
X125255000Y-62140000D01*
X125185000Y-62180000D01*
X125110000Y-62230000D01*
X125030000Y-62290000D01*
X124975000Y-62335000D01*
X124930000Y-62380000D01*
X124890000Y-62420000D01*
X124855000Y-62455000D01*
X124795000Y-62525000D01*
X124745000Y-62590000D01*
X124690000Y-62670000D01*
X124645000Y-62745000D01*
X124580000Y-62875000D01*
X124540000Y-62975000D01*
X124510000Y-63070000D01*
X124490000Y-63145000D01*
X124480000Y-63200000D01*
X123460000Y-63200000D01*
X123465000Y-63140000D01*
X123475000Y-63075000D01*
X123485000Y-63015000D01*
X123500000Y-62940000D01*
X123525000Y-62840000D01*
X123555000Y-62740000D01*
X123585000Y-62645000D01*
X123610000Y-62580000D01*
X123640000Y-62505000D01*
X123675000Y-62425000D01*
X123715000Y-62345000D01*
X123755000Y-62270000D01*
X123800000Y-62190000D01*
X123840000Y-62125000D01*
X123890000Y-62050000D01*
X123940000Y-61980000D01*
X123990000Y-61915000D01*
X124045000Y-61845000D01*
X124095000Y-61790000D01*
X124155000Y-61725000D01*
X124215000Y-61665000D01*
X124285000Y-61600000D01*
X124345000Y-61545000D01*
X124440000Y-61470000D01*
X124535000Y-61400000D01*
X124610000Y-61350000D01*
X124680000Y-61305000D01*
X124750000Y-61265000D01*
X124835000Y-61220000D01*
X124885000Y-61195000D01*
X124960000Y-61160000D01*
X125030000Y-61130000D01*
X125105000Y-61100000D01*
X125175000Y-61075000D01*
X125250000Y-61050000D01*
X125325000Y-61030000D01*
X125400000Y-61010000D01*
X125490000Y-60990000D01*
X125575000Y-60975000D01*
X125640000Y-60965000D01*
X125700000Y-60960000D01*
X125700000Y-61980000D01*
G37*
X124490000Y-63855000D02*
X124510000Y-63930000D01*
X124535000Y-64010000D01*
X124560000Y-64075000D01*
X124590000Y-64145000D01*
X124640000Y-64245000D01*
X124680000Y-64315000D01*
X124730000Y-64390000D01*
X124790000Y-64470000D01*
X124835000Y-64525000D01*
X124880000Y-64570000D01*
X124920000Y-64610000D01*
X124955000Y-64645000D01*
X125025000Y-64705000D01*
X125090000Y-64755000D01*
X125170000Y-64810000D01*
X125245000Y-64855000D01*
X125375000Y-64920000D01*
X125475000Y-64960000D01*
X125570000Y-64990000D01*
X125645000Y-65010000D01*
X125700000Y-65020000D01*
X125700000Y-66040000D01*
X125640000Y-66035000D01*
X125575000Y-66025000D01*
X125515000Y-66015000D01*
X125440000Y-66000000D01*
X125340000Y-65975000D01*
X125240000Y-65945000D01*
X125145000Y-65915000D01*
X125080000Y-65890000D01*
X125005000Y-65860000D01*
X124925000Y-65825000D01*
X124845000Y-65785000D01*
X124770000Y-65745000D01*
X124690000Y-65700000D01*
X124625000Y-65660000D01*
X124550000Y-65610000D01*
X124480000Y-65560000D01*
X124415000Y-65510000D01*
X124345000Y-65455000D01*
X124290000Y-65405000D01*
X124225000Y-65345000D01*
X124165000Y-65285000D01*
X124100000Y-65215000D01*
X124045000Y-65155000D01*
X123970000Y-65060000D01*
X123900000Y-64965000D01*
X123850000Y-64890000D01*
X123805000Y-64820000D01*
X123765000Y-64750000D01*
X123720000Y-64665000D01*
X123695000Y-64615000D01*
X123660000Y-64540000D01*
X123630000Y-64470000D01*
X123600000Y-64395000D01*
X123575000Y-64325000D01*
X123550000Y-64250000D01*
X123530000Y-64175000D01*
X123510000Y-64100000D01*
X123490000Y-64010000D01*
X123475000Y-63925000D01*
X123465000Y-63860000D01*
X123460000Y-63800000D01*
X124480000Y-63800000D01*
X124490000Y-63855000D01*
G36*
X124490000Y-63855000D02*
G01*
X124510000Y-63930000D01*
X124535000Y-64010000D01*
X124560000Y-64075000D01*
X124590000Y-64145000D01*
X124640000Y-64245000D01*
X124680000Y-64315000D01*
X124730000Y-64390000D01*
X124790000Y-64470000D01*
X124835000Y-64525000D01*
X124880000Y-64570000D01*
X124920000Y-64610000D01*
X124955000Y-64645000D01*
X125025000Y-64705000D01*
X125090000Y-64755000D01*
X125170000Y-64810000D01*
X125245000Y-64855000D01*
X125375000Y-64920000D01*
X125475000Y-64960000D01*
X125570000Y-64990000D01*
X125645000Y-65010000D01*
X125700000Y-65020000D01*
X125700000Y-66040000D01*
X125640000Y-66035000D01*
X125575000Y-66025000D01*
X125515000Y-66015000D01*
X125440000Y-66000000D01*
X125340000Y-65975000D01*
X125240000Y-65945000D01*
X125145000Y-65915000D01*
X125080000Y-65890000D01*
X125005000Y-65860000D01*
X124925000Y-65825000D01*
X124845000Y-65785000D01*
X124770000Y-65745000D01*
X124690000Y-65700000D01*
X124625000Y-65660000D01*
X124550000Y-65610000D01*
X124480000Y-65560000D01*
X124415000Y-65510000D01*
X124345000Y-65455000D01*
X124290000Y-65405000D01*
X124225000Y-65345000D01*
X124165000Y-65285000D01*
X124100000Y-65215000D01*
X124045000Y-65155000D01*
X123970000Y-65060000D01*
X123900000Y-64965000D01*
X123850000Y-64890000D01*
X123805000Y-64820000D01*
X123765000Y-64750000D01*
X123720000Y-64665000D01*
X123695000Y-64615000D01*
X123660000Y-64540000D01*
X123630000Y-64470000D01*
X123600000Y-64395000D01*
X123575000Y-64325000D01*
X123550000Y-64250000D01*
X123530000Y-64175000D01*
X123510000Y-64100000D01*
X123490000Y-64010000D01*
X123475000Y-63925000D01*
X123465000Y-63860000D01*
X123460000Y-63800000D01*
X124480000Y-63800000D01*
X124490000Y-63855000D01*
G37*
X126360000Y-60965000D02*
X126425000Y-60975000D01*
X126485000Y-60985000D01*
X126560000Y-61000000D01*
X126660000Y-61025000D01*
X126760000Y-61055000D01*
X126855000Y-61085000D01*
X126920000Y-61110000D01*
X126995000Y-61140000D01*
X127075000Y-61175000D01*
X127155000Y-61215000D01*
X127230000Y-61255000D01*
X127310000Y-61300000D01*
X127375000Y-61340000D01*
X127450000Y-61390000D01*
X127520000Y-61440000D01*
X127585000Y-61490000D01*
X127655000Y-61545000D01*
X127710000Y-61595000D01*
X127775000Y-61655000D01*
X127835000Y-61715000D01*
X127900000Y-61785000D01*
X127955000Y-61845000D01*
X128030000Y-61940000D01*
X128100000Y-62035000D01*
X128150000Y-62110000D01*
X128195000Y-62180000D01*
X128235000Y-62250000D01*
X128280000Y-62335000D01*
X128305000Y-62385000D01*
X128340000Y-62460000D01*
X128370000Y-62530000D01*
X128400000Y-62605000D01*
X128425000Y-62675000D01*
X128450000Y-62750000D01*
X128470000Y-62825000D01*
X128490000Y-62900000D01*
X128510000Y-62990000D01*
X128525000Y-63075000D01*
X128535000Y-63140000D01*
X128540000Y-63200000D01*
X127520000Y-63200000D01*
X127510000Y-63145000D01*
X127490000Y-63070000D01*
X127465000Y-62990000D01*
X127440000Y-62925000D01*
X127410000Y-62855000D01*
X127360000Y-62755000D01*
X127320000Y-62685000D01*
X127270000Y-62610000D01*
X127210000Y-62530000D01*
X127165000Y-62475000D01*
X127120000Y-62430000D01*
X127080000Y-62390000D01*
X127045000Y-62355000D01*
X126975000Y-62295000D01*
X126910000Y-62245000D01*
X126830000Y-62190000D01*
X126755000Y-62145000D01*
X126625000Y-62080000D01*
X126525000Y-62040000D01*
X126430000Y-62010000D01*
X126355000Y-61990000D01*
X126300000Y-61980000D01*
X126300000Y-60960000D01*
X126360000Y-60965000D01*
G36*
X126360000Y-60965000D02*
G01*
X126425000Y-60975000D01*
X126485000Y-60985000D01*
X126560000Y-61000000D01*
X126660000Y-61025000D01*
X126760000Y-61055000D01*
X126855000Y-61085000D01*
X126920000Y-61110000D01*
X126995000Y-61140000D01*
X127075000Y-61175000D01*
X127155000Y-61215000D01*
X127230000Y-61255000D01*
X127310000Y-61300000D01*
X127375000Y-61340000D01*
X127450000Y-61390000D01*
X127520000Y-61440000D01*
X127585000Y-61490000D01*
X127655000Y-61545000D01*
X127710000Y-61595000D01*
X127775000Y-61655000D01*
X127835000Y-61715000D01*
X127900000Y-61785000D01*
X127955000Y-61845000D01*
X128030000Y-61940000D01*
X128100000Y-62035000D01*
X128150000Y-62110000D01*
X128195000Y-62180000D01*
X128235000Y-62250000D01*
X128280000Y-62335000D01*
X128305000Y-62385000D01*
X128340000Y-62460000D01*
X128370000Y-62530000D01*
X128400000Y-62605000D01*
X128425000Y-62675000D01*
X128450000Y-62750000D01*
X128470000Y-62825000D01*
X128490000Y-62900000D01*
X128510000Y-62990000D01*
X128525000Y-63075000D01*
X128535000Y-63140000D01*
X128540000Y-63200000D01*
X127520000Y-63200000D01*
X127510000Y-63145000D01*
X127490000Y-63070000D01*
X127465000Y-62990000D01*
X127440000Y-62925000D01*
X127410000Y-62855000D01*
X127360000Y-62755000D01*
X127320000Y-62685000D01*
X127270000Y-62610000D01*
X127210000Y-62530000D01*
X127165000Y-62475000D01*
X127120000Y-62430000D01*
X127080000Y-62390000D01*
X127045000Y-62355000D01*
X126975000Y-62295000D01*
X126910000Y-62245000D01*
X126830000Y-62190000D01*
X126755000Y-62145000D01*
X126625000Y-62080000D01*
X126525000Y-62040000D01*
X126430000Y-62010000D01*
X126355000Y-61990000D01*
X126300000Y-61980000D01*
X126300000Y-60960000D01*
X126360000Y-60965000D01*
G37*
X128535000Y-63860000D02*
X128525000Y-63925000D01*
X128515000Y-63985000D01*
X128500000Y-64060000D01*
X128475000Y-64160000D01*
X128445000Y-64260000D01*
X128415000Y-64355000D01*
X128390000Y-64420000D01*
X128360000Y-64495000D01*
X128325000Y-64575000D01*
X128285000Y-64655000D01*
X128245000Y-64730000D01*
X128200000Y-64810000D01*
X128160000Y-64875000D01*
X128110000Y-64950000D01*
X128060000Y-65020000D01*
X128010000Y-65085000D01*
X127955000Y-65155000D01*
X127905000Y-65210000D01*
X127845000Y-65275000D01*
X127785000Y-65335000D01*
X127715000Y-65400000D01*
X127655000Y-65455000D01*
X127560000Y-65530000D01*
X127465000Y-65600000D01*
X127390000Y-65650000D01*
X127320000Y-65695000D01*
X127250000Y-65735000D01*
X127165000Y-65780000D01*
X127115000Y-65805000D01*
X127040000Y-65840000D01*
X126970000Y-65870000D01*
X126895000Y-65900000D01*
X126825000Y-65925000D01*
X126750000Y-65950000D01*
X126675000Y-65970000D01*
X126600000Y-65990000D01*
X126510000Y-66010000D01*
X126425000Y-66025000D01*
X126360000Y-66035000D01*
X126300000Y-66040000D01*
X126300000Y-65020000D01*
X126355000Y-65010000D01*
X126430000Y-64990000D01*
X126510000Y-64965000D01*
X126575000Y-64940000D01*
X126645000Y-64910000D01*
X126745000Y-64860000D01*
X126815000Y-64820000D01*
X126890000Y-64770000D01*
X126970000Y-64710000D01*
X127025000Y-64665000D01*
X127070000Y-64620000D01*
X127110000Y-64580000D01*
X127145000Y-64545000D01*
X127205000Y-64475000D01*
X127255000Y-64410000D01*
X127310000Y-64330000D01*
X127355000Y-64255000D01*
X127420000Y-64125000D01*
X127460000Y-64025000D01*
X127490000Y-63930000D01*
X127510000Y-63855000D01*
X127520000Y-63800000D01*
X128540000Y-63800000D01*
X128535000Y-63860000D01*
G36*
X128535000Y-63860000D02*
G01*
X128525000Y-63925000D01*
X128515000Y-63985000D01*
X128500000Y-64060000D01*
X128475000Y-64160000D01*
X128445000Y-64260000D01*
X128415000Y-64355000D01*
X128390000Y-64420000D01*
X128360000Y-64495000D01*
X128325000Y-64575000D01*
X128285000Y-64655000D01*
X128245000Y-64730000D01*
X128200000Y-64810000D01*
X128160000Y-64875000D01*
X128110000Y-64950000D01*
X128060000Y-65020000D01*
X128010000Y-65085000D01*
X127955000Y-65155000D01*
X127905000Y-65210000D01*
X127845000Y-65275000D01*
X127785000Y-65335000D01*
X127715000Y-65400000D01*
X127655000Y-65455000D01*
X127560000Y-65530000D01*
X127465000Y-65600000D01*
X127390000Y-65650000D01*
X127320000Y-65695000D01*
X127250000Y-65735000D01*
X127165000Y-65780000D01*
X127115000Y-65805000D01*
X127040000Y-65840000D01*
X126970000Y-65870000D01*
X126895000Y-65900000D01*
X126825000Y-65925000D01*
X126750000Y-65950000D01*
X126675000Y-65970000D01*
X126600000Y-65990000D01*
X126510000Y-66010000D01*
X126425000Y-66025000D01*
X126360000Y-66035000D01*
X126300000Y-66040000D01*
X126300000Y-65020000D01*
X126355000Y-65010000D01*
X126430000Y-64990000D01*
X126510000Y-64965000D01*
X126575000Y-64940000D01*
X126645000Y-64910000D01*
X126745000Y-64860000D01*
X126815000Y-64820000D01*
X126890000Y-64770000D01*
X126970000Y-64710000D01*
X127025000Y-64665000D01*
X127070000Y-64620000D01*
X127110000Y-64580000D01*
X127145000Y-64545000D01*
X127205000Y-64475000D01*
X127255000Y-64410000D01*
X127310000Y-64330000D01*
X127355000Y-64255000D01*
X127420000Y-64125000D01*
X127460000Y-64025000D01*
X127490000Y-63930000D01*
X127510000Y-63855000D01*
X127520000Y-63800000D01*
X128540000Y-63800000D01*
X128535000Y-63860000D01*
G37*
X125700000Y-134980000D02*
X125645000Y-134990000D01*
X125570000Y-135010000D01*
X125490000Y-135035000D01*
X125425000Y-135060000D01*
X125355000Y-135090000D01*
X125255000Y-135140000D01*
X125185000Y-135180000D01*
X125110000Y-135230000D01*
X125030000Y-135290000D01*
X124975000Y-135335000D01*
X124930000Y-135380000D01*
X124890000Y-135420000D01*
X124855000Y-135455000D01*
X124795000Y-135525000D01*
X124745000Y-135590000D01*
X124690000Y-135670000D01*
X124645000Y-135745000D01*
X124580000Y-135875000D01*
X124540000Y-135975000D01*
X124510000Y-136070000D01*
X124490000Y-136145000D01*
X124480000Y-136200000D01*
X123460000Y-136200000D01*
X123465000Y-136140000D01*
X123475000Y-136075000D01*
X123485000Y-136015000D01*
X123500000Y-135940000D01*
X123525000Y-135840000D01*
X123555000Y-135740000D01*
X123585000Y-135645000D01*
X123610000Y-135580000D01*
X123640000Y-135505000D01*
X123675000Y-135425000D01*
X123715000Y-135345000D01*
X123755000Y-135270000D01*
X123800000Y-135190000D01*
X123840000Y-135125000D01*
X123890000Y-135050000D01*
X123940000Y-134980000D01*
X123990000Y-134915000D01*
X124045000Y-134845000D01*
X124095000Y-134790000D01*
X124155000Y-134725000D01*
X124215000Y-134665000D01*
X124285000Y-134600000D01*
X124345000Y-134545000D01*
X124440000Y-134470000D01*
X124535000Y-134400000D01*
X124610000Y-134350000D01*
X124680000Y-134305000D01*
X124750000Y-134265000D01*
X124835000Y-134220000D01*
X124885000Y-134195000D01*
X124960000Y-134160000D01*
X125030000Y-134130000D01*
X125105000Y-134100000D01*
X125175000Y-134075000D01*
X125250000Y-134050000D01*
X125325000Y-134030000D01*
X125400000Y-134010000D01*
X125490000Y-133990000D01*
X125575000Y-133975000D01*
X125640000Y-133965000D01*
X125700000Y-133960000D01*
X125700000Y-134980000D01*
G36*
X125700000Y-134980000D02*
G01*
X125645000Y-134990000D01*
X125570000Y-135010000D01*
X125490000Y-135035000D01*
X125425000Y-135060000D01*
X125355000Y-135090000D01*
X125255000Y-135140000D01*
X125185000Y-135180000D01*
X125110000Y-135230000D01*
X125030000Y-135290000D01*
X124975000Y-135335000D01*
X124930000Y-135380000D01*
X124890000Y-135420000D01*
X124855000Y-135455000D01*
X124795000Y-135525000D01*
X124745000Y-135590000D01*
X124690000Y-135670000D01*
X124645000Y-135745000D01*
X124580000Y-135875000D01*
X124540000Y-135975000D01*
X124510000Y-136070000D01*
X124490000Y-136145000D01*
X124480000Y-136200000D01*
X123460000Y-136200000D01*
X123465000Y-136140000D01*
X123475000Y-136075000D01*
X123485000Y-136015000D01*
X123500000Y-135940000D01*
X123525000Y-135840000D01*
X123555000Y-135740000D01*
X123585000Y-135645000D01*
X123610000Y-135580000D01*
X123640000Y-135505000D01*
X123675000Y-135425000D01*
X123715000Y-135345000D01*
X123755000Y-135270000D01*
X123800000Y-135190000D01*
X123840000Y-135125000D01*
X123890000Y-135050000D01*
X123940000Y-134980000D01*
X123990000Y-134915000D01*
X124045000Y-134845000D01*
X124095000Y-134790000D01*
X124155000Y-134725000D01*
X124215000Y-134665000D01*
X124285000Y-134600000D01*
X124345000Y-134545000D01*
X124440000Y-134470000D01*
X124535000Y-134400000D01*
X124610000Y-134350000D01*
X124680000Y-134305000D01*
X124750000Y-134265000D01*
X124835000Y-134220000D01*
X124885000Y-134195000D01*
X124960000Y-134160000D01*
X125030000Y-134130000D01*
X125105000Y-134100000D01*
X125175000Y-134075000D01*
X125250000Y-134050000D01*
X125325000Y-134030000D01*
X125400000Y-134010000D01*
X125490000Y-133990000D01*
X125575000Y-133975000D01*
X125640000Y-133965000D01*
X125700000Y-133960000D01*
X125700000Y-134980000D01*
G37*
X124490000Y-136855000D02*
X124510000Y-136930000D01*
X124535000Y-137010000D01*
X124560000Y-137075000D01*
X124590000Y-137145000D01*
X124640000Y-137245000D01*
X124680000Y-137315000D01*
X124730000Y-137390000D01*
X124790000Y-137470000D01*
X124835000Y-137525000D01*
X124880000Y-137570000D01*
X124920000Y-137610000D01*
X124955000Y-137645000D01*
X125025000Y-137705000D01*
X125090000Y-137755000D01*
X125170000Y-137810000D01*
X125245000Y-137855000D01*
X125375000Y-137920000D01*
X125475000Y-137960000D01*
X125570000Y-137990000D01*
X125645000Y-138010000D01*
X125700000Y-138020000D01*
X125700000Y-139040000D01*
X125640000Y-139035000D01*
X125575000Y-139025000D01*
X125515000Y-139015000D01*
X125440000Y-139000000D01*
X125340000Y-138975000D01*
X125240000Y-138945000D01*
X125145000Y-138915000D01*
X125080000Y-138890000D01*
X125005000Y-138860000D01*
X124925000Y-138825000D01*
X124845000Y-138785000D01*
X124770000Y-138745000D01*
X124690000Y-138700000D01*
X124625000Y-138660000D01*
X124550000Y-138610000D01*
X124480000Y-138560000D01*
X124415000Y-138510000D01*
X124345000Y-138455000D01*
X124290000Y-138405000D01*
X124225000Y-138345000D01*
X124165000Y-138285000D01*
X124100000Y-138215000D01*
X124045000Y-138155000D01*
X123970000Y-138060000D01*
X123900000Y-137965000D01*
X123850000Y-137890000D01*
X123805000Y-137820000D01*
X123765000Y-137750000D01*
X123720000Y-137665000D01*
X123695000Y-137615000D01*
X123660000Y-137540000D01*
X123630000Y-137470000D01*
X123600000Y-137395000D01*
X123575000Y-137325000D01*
X123550000Y-137250000D01*
X123530000Y-137175000D01*
X123510000Y-137100000D01*
X123490000Y-137010000D01*
X123475000Y-136925000D01*
X123465000Y-136860000D01*
X123460000Y-136800000D01*
X124480000Y-136800000D01*
X124490000Y-136855000D01*
G36*
X124490000Y-136855000D02*
G01*
X124510000Y-136930000D01*
X124535000Y-137010000D01*
X124560000Y-137075000D01*
X124590000Y-137145000D01*
X124640000Y-137245000D01*
X124680000Y-137315000D01*
X124730000Y-137390000D01*
X124790000Y-137470000D01*
X124835000Y-137525000D01*
X124880000Y-137570000D01*
X124920000Y-137610000D01*
X124955000Y-137645000D01*
X125025000Y-137705000D01*
X125090000Y-137755000D01*
X125170000Y-137810000D01*
X125245000Y-137855000D01*
X125375000Y-137920000D01*
X125475000Y-137960000D01*
X125570000Y-137990000D01*
X125645000Y-138010000D01*
X125700000Y-138020000D01*
X125700000Y-139040000D01*
X125640000Y-139035000D01*
X125575000Y-139025000D01*
X125515000Y-139015000D01*
X125440000Y-139000000D01*
X125340000Y-138975000D01*
X125240000Y-138945000D01*
X125145000Y-138915000D01*
X125080000Y-138890000D01*
X125005000Y-138860000D01*
X124925000Y-138825000D01*
X124845000Y-138785000D01*
X124770000Y-138745000D01*
X124690000Y-138700000D01*
X124625000Y-138660000D01*
X124550000Y-138610000D01*
X124480000Y-138560000D01*
X124415000Y-138510000D01*
X124345000Y-138455000D01*
X124290000Y-138405000D01*
X124225000Y-138345000D01*
X124165000Y-138285000D01*
X124100000Y-138215000D01*
X124045000Y-138155000D01*
X123970000Y-138060000D01*
X123900000Y-137965000D01*
X123850000Y-137890000D01*
X123805000Y-137820000D01*
X123765000Y-137750000D01*
X123720000Y-137665000D01*
X123695000Y-137615000D01*
X123660000Y-137540000D01*
X123630000Y-137470000D01*
X123600000Y-137395000D01*
X123575000Y-137325000D01*
X123550000Y-137250000D01*
X123530000Y-137175000D01*
X123510000Y-137100000D01*
X123490000Y-137010000D01*
X123475000Y-136925000D01*
X123465000Y-136860000D01*
X123460000Y-136800000D01*
X124480000Y-136800000D01*
X124490000Y-136855000D01*
G37*
X126360000Y-133965000D02*
X126425000Y-133975000D01*
X126485000Y-133985000D01*
X126560000Y-134000000D01*
X126660000Y-134025000D01*
X126760000Y-134055000D01*
X126855000Y-134085000D01*
X126920000Y-134110000D01*
X126995000Y-134140000D01*
X127075000Y-134175000D01*
X127155000Y-134215000D01*
X127230000Y-134255000D01*
X127310000Y-134300000D01*
X127375000Y-134340000D01*
X127450000Y-134390000D01*
X127520000Y-134440000D01*
X127585000Y-134490000D01*
X127655000Y-134545000D01*
X127710000Y-134595000D01*
X127775000Y-134655000D01*
X127835000Y-134715000D01*
X127900000Y-134785000D01*
X127955000Y-134845000D01*
X128030000Y-134940000D01*
X128100000Y-135035000D01*
X128150000Y-135110000D01*
X128195000Y-135180000D01*
X128235000Y-135250000D01*
X128280000Y-135335000D01*
X128305000Y-135385000D01*
X128340000Y-135460000D01*
X128370000Y-135530000D01*
X128400000Y-135605000D01*
X128425000Y-135675000D01*
X128450000Y-135750000D01*
X128470000Y-135825000D01*
X128490000Y-135900000D01*
X128510000Y-135990000D01*
X128525000Y-136075000D01*
X128535000Y-136140000D01*
X128540000Y-136200000D01*
X127520000Y-136200000D01*
X127510000Y-136145000D01*
X127490000Y-136070000D01*
X127465000Y-135990000D01*
X127440000Y-135925000D01*
X127410000Y-135855000D01*
X127360000Y-135755000D01*
X127320000Y-135685000D01*
X127270000Y-135610000D01*
X127210000Y-135530000D01*
X127165000Y-135475000D01*
X127120000Y-135430000D01*
X127080000Y-135390000D01*
X127045000Y-135355000D01*
X126975000Y-135295000D01*
X126910000Y-135245000D01*
X126830000Y-135190000D01*
X126755000Y-135145000D01*
X126625000Y-135080000D01*
X126525000Y-135040000D01*
X126430000Y-135010000D01*
X126355000Y-134990000D01*
X126300000Y-134980000D01*
X126300000Y-133960000D01*
X126360000Y-133965000D01*
G36*
X126360000Y-133965000D02*
G01*
X126425000Y-133975000D01*
X126485000Y-133985000D01*
X126560000Y-134000000D01*
X126660000Y-134025000D01*
X126760000Y-134055000D01*
X126855000Y-134085000D01*
X126920000Y-134110000D01*
X126995000Y-134140000D01*
X127075000Y-134175000D01*
X127155000Y-134215000D01*
X127230000Y-134255000D01*
X127310000Y-134300000D01*
X127375000Y-134340000D01*
X127450000Y-134390000D01*
X127520000Y-134440000D01*
X127585000Y-134490000D01*
X127655000Y-134545000D01*
X127710000Y-134595000D01*
X127775000Y-134655000D01*
X127835000Y-134715000D01*
X127900000Y-134785000D01*
X127955000Y-134845000D01*
X128030000Y-134940000D01*
X128100000Y-135035000D01*
X128150000Y-135110000D01*
X128195000Y-135180000D01*
X128235000Y-135250000D01*
X128280000Y-135335000D01*
X128305000Y-135385000D01*
X128340000Y-135460000D01*
X128370000Y-135530000D01*
X128400000Y-135605000D01*
X128425000Y-135675000D01*
X128450000Y-135750000D01*
X128470000Y-135825000D01*
X128490000Y-135900000D01*
X128510000Y-135990000D01*
X128525000Y-136075000D01*
X128535000Y-136140000D01*
X128540000Y-136200000D01*
X127520000Y-136200000D01*
X127510000Y-136145000D01*
X127490000Y-136070000D01*
X127465000Y-135990000D01*
X127440000Y-135925000D01*
X127410000Y-135855000D01*
X127360000Y-135755000D01*
X127320000Y-135685000D01*
X127270000Y-135610000D01*
X127210000Y-135530000D01*
X127165000Y-135475000D01*
X127120000Y-135430000D01*
X127080000Y-135390000D01*
X127045000Y-135355000D01*
X126975000Y-135295000D01*
X126910000Y-135245000D01*
X126830000Y-135190000D01*
X126755000Y-135145000D01*
X126625000Y-135080000D01*
X126525000Y-135040000D01*
X126430000Y-135010000D01*
X126355000Y-134990000D01*
X126300000Y-134980000D01*
X126300000Y-133960000D01*
X126360000Y-133965000D01*
G37*
X128535000Y-136860000D02*
X128525000Y-136925000D01*
X128515000Y-136985000D01*
X128500000Y-137060000D01*
X128475000Y-137160000D01*
X128445000Y-137260000D01*
X128415000Y-137355000D01*
X128390000Y-137420000D01*
X128360000Y-137495000D01*
X128325000Y-137575000D01*
X128285000Y-137655000D01*
X128245000Y-137730000D01*
X128200000Y-137810000D01*
X128160000Y-137875000D01*
X128110000Y-137950000D01*
X128060000Y-138020000D01*
X128010000Y-138085000D01*
X127955000Y-138155000D01*
X127905000Y-138210000D01*
X127845000Y-138275000D01*
X127785000Y-138335000D01*
X127715000Y-138400000D01*
X127655000Y-138455000D01*
X127560000Y-138530000D01*
X127465000Y-138600000D01*
X127390000Y-138650000D01*
X127320000Y-138695000D01*
X127250000Y-138735000D01*
X127165000Y-138780000D01*
X127115000Y-138805000D01*
X127040000Y-138840000D01*
X126970000Y-138870000D01*
X126895000Y-138900000D01*
X126825000Y-138925000D01*
X126750000Y-138950000D01*
X126675000Y-138970000D01*
X126600000Y-138990000D01*
X126510000Y-139010000D01*
X126425000Y-139025000D01*
X126360000Y-139035000D01*
X126300000Y-139040000D01*
X126300000Y-138020000D01*
X126355000Y-138010000D01*
X126430000Y-137990000D01*
X126510000Y-137965000D01*
X126575000Y-137940000D01*
X126645000Y-137910000D01*
X126745000Y-137860000D01*
X126815000Y-137820000D01*
X126890000Y-137770000D01*
X126970000Y-137710000D01*
X127025000Y-137665000D01*
X127070000Y-137620000D01*
X127110000Y-137580000D01*
X127145000Y-137545000D01*
X127205000Y-137475000D01*
X127255000Y-137410000D01*
X127310000Y-137330000D01*
X127355000Y-137255000D01*
X127420000Y-137125000D01*
X127460000Y-137025000D01*
X127490000Y-136930000D01*
X127510000Y-136855000D01*
X127520000Y-136800000D01*
X128540000Y-136800000D01*
X128535000Y-136860000D01*
G36*
X128535000Y-136860000D02*
G01*
X128525000Y-136925000D01*
X128515000Y-136985000D01*
X128500000Y-137060000D01*
X128475000Y-137160000D01*
X128445000Y-137260000D01*
X128415000Y-137355000D01*
X128390000Y-137420000D01*
X128360000Y-137495000D01*
X128325000Y-137575000D01*
X128285000Y-137655000D01*
X128245000Y-137730000D01*
X128200000Y-137810000D01*
X128160000Y-137875000D01*
X128110000Y-137950000D01*
X128060000Y-138020000D01*
X128010000Y-138085000D01*
X127955000Y-138155000D01*
X127905000Y-138210000D01*
X127845000Y-138275000D01*
X127785000Y-138335000D01*
X127715000Y-138400000D01*
X127655000Y-138455000D01*
X127560000Y-138530000D01*
X127465000Y-138600000D01*
X127390000Y-138650000D01*
X127320000Y-138695000D01*
X127250000Y-138735000D01*
X127165000Y-138780000D01*
X127115000Y-138805000D01*
X127040000Y-138840000D01*
X126970000Y-138870000D01*
X126895000Y-138900000D01*
X126825000Y-138925000D01*
X126750000Y-138950000D01*
X126675000Y-138970000D01*
X126600000Y-138990000D01*
X126510000Y-139010000D01*
X126425000Y-139025000D01*
X126360000Y-139035000D01*
X126300000Y-139040000D01*
X126300000Y-138020000D01*
X126355000Y-138010000D01*
X126430000Y-137990000D01*
X126510000Y-137965000D01*
X126575000Y-137940000D01*
X126645000Y-137910000D01*
X126745000Y-137860000D01*
X126815000Y-137820000D01*
X126890000Y-137770000D01*
X126970000Y-137710000D01*
X127025000Y-137665000D01*
X127070000Y-137620000D01*
X127110000Y-137580000D01*
X127145000Y-137545000D01*
X127205000Y-137475000D01*
X127255000Y-137410000D01*
X127310000Y-137330000D01*
X127355000Y-137255000D01*
X127420000Y-137125000D01*
X127460000Y-137025000D01*
X127490000Y-136930000D01*
X127510000Y-136855000D01*
X127520000Y-136800000D01*
X128540000Y-136800000D01*
X128535000Y-136860000D01*
G37*
X173700000Y-61980000D02*
X173645000Y-61990000D01*
X173570000Y-62010000D01*
X173490000Y-62035000D01*
X173425000Y-62060000D01*
X173355000Y-62090000D01*
X173255000Y-62140000D01*
X173185000Y-62180000D01*
X173110000Y-62230000D01*
X173030000Y-62290000D01*
X172975000Y-62335000D01*
X172930000Y-62380000D01*
X172890000Y-62420000D01*
X172855000Y-62455000D01*
X172795000Y-62525000D01*
X172745000Y-62590000D01*
X172690000Y-62670000D01*
X172645000Y-62745000D01*
X172580000Y-62875000D01*
X172540000Y-62975000D01*
X172510000Y-63070000D01*
X172490000Y-63145000D01*
X172480000Y-63200000D01*
X171460000Y-63200000D01*
X171465000Y-63140000D01*
X171475000Y-63075000D01*
X171485000Y-63015000D01*
X171500000Y-62940000D01*
X171525000Y-62840000D01*
X171555000Y-62740000D01*
X171585000Y-62645000D01*
X171610000Y-62580000D01*
X171640000Y-62505000D01*
X171675000Y-62425000D01*
X171715000Y-62345000D01*
X171755000Y-62270000D01*
X171800000Y-62190000D01*
X171840000Y-62125000D01*
X171890000Y-62050000D01*
X171940000Y-61980000D01*
X171990000Y-61915000D01*
X172045000Y-61845000D01*
X172095000Y-61790000D01*
X172155000Y-61725000D01*
X172215000Y-61665000D01*
X172285000Y-61600000D01*
X172345000Y-61545000D01*
X172440000Y-61470000D01*
X172535000Y-61400000D01*
X172610000Y-61350000D01*
X172680000Y-61305000D01*
X172750000Y-61265000D01*
X172835000Y-61220000D01*
X172885000Y-61195000D01*
X172960000Y-61160000D01*
X173030000Y-61130000D01*
X173105000Y-61100000D01*
X173175000Y-61075000D01*
X173250000Y-61050000D01*
X173325000Y-61030000D01*
X173400000Y-61010000D01*
X173490000Y-60990000D01*
X173575000Y-60975000D01*
X173640000Y-60965000D01*
X173700000Y-60960000D01*
X173700000Y-61980000D01*
G36*
X173700000Y-61980000D02*
G01*
X173645000Y-61990000D01*
X173570000Y-62010000D01*
X173490000Y-62035000D01*
X173425000Y-62060000D01*
X173355000Y-62090000D01*
X173255000Y-62140000D01*
X173185000Y-62180000D01*
X173110000Y-62230000D01*
X173030000Y-62290000D01*
X172975000Y-62335000D01*
X172930000Y-62380000D01*
X172890000Y-62420000D01*
X172855000Y-62455000D01*
X172795000Y-62525000D01*
X172745000Y-62590000D01*
X172690000Y-62670000D01*
X172645000Y-62745000D01*
X172580000Y-62875000D01*
X172540000Y-62975000D01*
X172510000Y-63070000D01*
X172490000Y-63145000D01*
X172480000Y-63200000D01*
X171460000Y-63200000D01*
X171465000Y-63140000D01*
X171475000Y-63075000D01*
X171485000Y-63015000D01*
X171500000Y-62940000D01*
X171525000Y-62840000D01*
X171555000Y-62740000D01*
X171585000Y-62645000D01*
X171610000Y-62580000D01*
X171640000Y-62505000D01*
X171675000Y-62425000D01*
X171715000Y-62345000D01*
X171755000Y-62270000D01*
X171800000Y-62190000D01*
X171840000Y-62125000D01*
X171890000Y-62050000D01*
X171940000Y-61980000D01*
X171990000Y-61915000D01*
X172045000Y-61845000D01*
X172095000Y-61790000D01*
X172155000Y-61725000D01*
X172215000Y-61665000D01*
X172285000Y-61600000D01*
X172345000Y-61545000D01*
X172440000Y-61470000D01*
X172535000Y-61400000D01*
X172610000Y-61350000D01*
X172680000Y-61305000D01*
X172750000Y-61265000D01*
X172835000Y-61220000D01*
X172885000Y-61195000D01*
X172960000Y-61160000D01*
X173030000Y-61130000D01*
X173105000Y-61100000D01*
X173175000Y-61075000D01*
X173250000Y-61050000D01*
X173325000Y-61030000D01*
X173400000Y-61010000D01*
X173490000Y-60990000D01*
X173575000Y-60975000D01*
X173640000Y-60965000D01*
X173700000Y-60960000D01*
X173700000Y-61980000D01*
G37*
X172490000Y-63855000D02*
X172510000Y-63930000D01*
X172535000Y-64010000D01*
X172560000Y-64075000D01*
X172590000Y-64145000D01*
X172640000Y-64245000D01*
X172680000Y-64315000D01*
X172730000Y-64390000D01*
X172790000Y-64470000D01*
X172835000Y-64525000D01*
X172880000Y-64570000D01*
X172920000Y-64610000D01*
X172955000Y-64645000D01*
X173025000Y-64705000D01*
X173090000Y-64755000D01*
X173170000Y-64810000D01*
X173245000Y-64855000D01*
X173375000Y-64920000D01*
X173475000Y-64960000D01*
X173570000Y-64990000D01*
X173645000Y-65010000D01*
X173700000Y-65020000D01*
X173700000Y-66040000D01*
X173640000Y-66035000D01*
X173575000Y-66025000D01*
X173515000Y-66015000D01*
X173440000Y-66000000D01*
X173340000Y-65975000D01*
X173240000Y-65945000D01*
X173145000Y-65915000D01*
X173080000Y-65890000D01*
X173005000Y-65860000D01*
X172925000Y-65825000D01*
X172845000Y-65785000D01*
X172770000Y-65745000D01*
X172690000Y-65700000D01*
X172625000Y-65660000D01*
X172550000Y-65610000D01*
X172480000Y-65560000D01*
X172415000Y-65510000D01*
X172345000Y-65455000D01*
X172290000Y-65405000D01*
X172225000Y-65345000D01*
X172165000Y-65285000D01*
X172100000Y-65215000D01*
X172045000Y-65155000D01*
X171970000Y-65060000D01*
X171900000Y-64965000D01*
X171850000Y-64890000D01*
X171805000Y-64820000D01*
X171765000Y-64750000D01*
X171720000Y-64665000D01*
X171695000Y-64615000D01*
X171660000Y-64540000D01*
X171630000Y-64470000D01*
X171600000Y-64395000D01*
X171575000Y-64325000D01*
X171550000Y-64250000D01*
X171530000Y-64175000D01*
X171510000Y-64100000D01*
X171490000Y-64010000D01*
X171475000Y-63925000D01*
X171465000Y-63860000D01*
X171460000Y-63800000D01*
X172480000Y-63800000D01*
X172490000Y-63855000D01*
G36*
X172490000Y-63855000D02*
G01*
X172510000Y-63930000D01*
X172535000Y-64010000D01*
X172560000Y-64075000D01*
X172590000Y-64145000D01*
X172640000Y-64245000D01*
X172680000Y-64315000D01*
X172730000Y-64390000D01*
X172790000Y-64470000D01*
X172835000Y-64525000D01*
X172880000Y-64570000D01*
X172920000Y-64610000D01*
X172955000Y-64645000D01*
X173025000Y-64705000D01*
X173090000Y-64755000D01*
X173170000Y-64810000D01*
X173245000Y-64855000D01*
X173375000Y-64920000D01*
X173475000Y-64960000D01*
X173570000Y-64990000D01*
X173645000Y-65010000D01*
X173700000Y-65020000D01*
X173700000Y-66040000D01*
X173640000Y-66035000D01*
X173575000Y-66025000D01*
X173515000Y-66015000D01*
X173440000Y-66000000D01*
X173340000Y-65975000D01*
X173240000Y-65945000D01*
X173145000Y-65915000D01*
X173080000Y-65890000D01*
X173005000Y-65860000D01*
X172925000Y-65825000D01*
X172845000Y-65785000D01*
X172770000Y-65745000D01*
X172690000Y-65700000D01*
X172625000Y-65660000D01*
X172550000Y-65610000D01*
X172480000Y-65560000D01*
X172415000Y-65510000D01*
X172345000Y-65455000D01*
X172290000Y-65405000D01*
X172225000Y-65345000D01*
X172165000Y-65285000D01*
X172100000Y-65215000D01*
X172045000Y-65155000D01*
X171970000Y-65060000D01*
X171900000Y-64965000D01*
X171850000Y-64890000D01*
X171805000Y-64820000D01*
X171765000Y-64750000D01*
X171720000Y-64665000D01*
X171695000Y-64615000D01*
X171660000Y-64540000D01*
X171630000Y-64470000D01*
X171600000Y-64395000D01*
X171575000Y-64325000D01*
X171550000Y-64250000D01*
X171530000Y-64175000D01*
X171510000Y-64100000D01*
X171490000Y-64010000D01*
X171475000Y-63925000D01*
X171465000Y-63860000D01*
X171460000Y-63800000D01*
X172480000Y-63800000D01*
X172490000Y-63855000D01*
G37*
X174360000Y-60965000D02*
X174425000Y-60975000D01*
X174485000Y-60985000D01*
X174560000Y-61000000D01*
X174660000Y-61025000D01*
X174760000Y-61055000D01*
X174855000Y-61085000D01*
X174920000Y-61110000D01*
X174995000Y-61140000D01*
X175075000Y-61175000D01*
X175155000Y-61215000D01*
X175230000Y-61255000D01*
X175310000Y-61300000D01*
X175375000Y-61340000D01*
X175450000Y-61390000D01*
X175520000Y-61440000D01*
X175585000Y-61490000D01*
X175655000Y-61545000D01*
X175710000Y-61595000D01*
X175775000Y-61655000D01*
X175835000Y-61715000D01*
X175900000Y-61785000D01*
X175955000Y-61845000D01*
X176030000Y-61940000D01*
X176100000Y-62035000D01*
X176150000Y-62110000D01*
X176195000Y-62180000D01*
X176235000Y-62250000D01*
X176280000Y-62335000D01*
X176305000Y-62385000D01*
X176340000Y-62460000D01*
X176370000Y-62530000D01*
X176400000Y-62605000D01*
X176425000Y-62675000D01*
X176450000Y-62750000D01*
X176470000Y-62825000D01*
X176490000Y-62900000D01*
X176510000Y-62990000D01*
X176525000Y-63075000D01*
X176535000Y-63140000D01*
X176540000Y-63200000D01*
X175520000Y-63200000D01*
X175510000Y-63145000D01*
X175490000Y-63070000D01*
X175465000Y-62990000D01*
X175440000Y-62925000D01*
X175410000Y-62855000D01*
X175360000Y-62755000D01*
X175320000Y-62685000D01*
X175270000Y-62610000D01*
X175210000Y-62530000D01*
X175165000Y-62475000D01*
X175120000Y-62430000D01*
X175080000Y-62390000D01*
X175045000Y-62355000D01*
X174975000Y-62295000D01*
X174910000Y-62245000D01*
X174830000Y-62190000D01*
X174755000Y-62145000D01*
X174625000Y-62080000D01*
X174525000Y-62040000D01*
X174430000Y-62010000D01*
X174355000Y-61990000D01*
X174300000Y-61980000D01*
X174300000Y-60960000D01*
X174360000Y-60965000D01*
G36*
X174360000Y-60965000D02*
G01*
X174425000Y-60975000D01*
X174485000Y-60985000D01*
X174560000Y-61000000D01*
X174660000Y-61025000D01*
X174760000Y-61055000D01*
X174855000Y-61085000D01*
X174920000Y-61110000D01*
X174995000Y-61140000D01*
X175075000Y-61175000D01*
X175155000Y-61215000D01*
X175230000Y-61255000D01*
X175310000Y-61300000D01*
X175375000Y-61340000D01*
X175450000Y-61390000D01*
X175520000Y-61440000D01*
X175585000Y-61490000D01*
X175655000Y-61545000D01*
X175710000Y-61595000D01*
X175775000Y-61655000D01*
X175835000Y-61715000D01*
X175900000Y-61785000D01*
X175955000Y-61845000D01*
X176030000Y-61940000D01*
X176100000Y-62035000D01*
X176150000Y-62110000D01*
X176195000Y-62180000D01*
X176235000Y-62250000D01*
X176280000Y-62335000D01*
X176305000Y-62385000D01*
X176340000Y-62460000D01*
X176370000Y-62530000D01*
X176400000Y-62605000D01*
X176425000Y-62675000D01*
X176450000Y-62750000D01*
X176470000Y-62825000D01*
X176490000Y-62900000D01*
X176510000Y-62990000D01*
X176525000Y-63075000D01*
X176535000Y-63140000D01*
X176540000Y-63200000D01*
X175520000Y-63200000D01*
X175510000Y-63145000D01*
X175490000Y-63070000D01*
X175465000Y-62990000D01*
X175440000Y-62925000D01*
X175410000Y-62855000D01*
X175360000Y-62755000D01*
X175320000Y-62685000D01*
X175270000Y-62610000D01*
X175210000Y-62530000D01*
X175165000Y-62475000D01*
X175120000Y-62430000D01*
X175080000Y-62390000D01*
X175045000Y-62355000D01*
X174975000Y-62295000D01*
X174910000Y-62245000D01*
X174830000Y-62190000D01*
X174755000Y-62145000D01*
X174625000Y-62080000D01*
X174525000Y-62040000D01*
X174430000Y-62010000D01*
X174355000Y-61990000D01*
X174300000Y-61980000D01*
X174300000Y-60960000D01*
X174360000Y-60965000D01*
G37*
X176535000Y-63860000D02*
X176525000Y-63925000D01*
X176515000Y-63985000D01*
X176500000Y-64060000D01*
X176475000Y-64160000D01*
X176445000Y-64260000D01*
X176415000Y-64355000D01*
X176390000Y-64420000D01*
X176360000Y-64495000D01*
X176325000Y-64575000D01*
X176285000Y-64655000D01*
X176245000Y-64730000D01*
X176200000Y-64810000D01*
X176160000Y-64875000D01*
X176110000Y-64950000D01*
X176060000Y-65020000D01*
X176010000Y-65085000D01*
X175955000Y-65155000D01*
X175905000Y-65210000D01*
X175845000Y-65275000D01*
X175785000Y-65335000D01*
X175715000Y-65400000D01*
X175655000Y-65455000D01*
X175560000Y-65530000D01*
X175465000Y-65600000D01*
X175390000Y-65650000D01*
X175320000Y-65695000D01*
X175250000Y-65735000D01*
X175165000Y-65780000D01*
X175115000Y-65805000D01*
X175040000Y-65840000D01*
X174970000Y-65870000D01*
X174895000Y-65900000D01*
X174825000Y-65925000D01*
X174750000Y-65950000D01*
X174675000Y-65970000D01*
X174600000Y-65990000D01*
X174510000Y-66010000D01*
X174425000Y-66025000D01*
X174360000Y-66035000D01*
X174300000Y-66040000D01*
X174300000Y-65020000D01*
X174355000Y-65010000D01*
X174430000Y-64990000D01*
X174510000Y-64965000D01*
X174575000Y-64940000D01*
X174645000Y-64910000D01*
X174745000Y-64860000D01*
X174815000Y-64820000D01*
X174890000Y-64770000D01*
X174970000Y-64710000D01*
X175025000Y-64665000D01*
X175070000Y-64620000D01*
X175110000Y-64580000D01*
X175145000Y-64545000D01*
X175205000Y-64475000D01*
X175255000Y-64410000D01*
X175310000Y-64330000D01*
X175355000Y-64255000D01*
X175420000Y-64125000D01*
X175460000Y-64025000D01*
X175490000Y-63930000D01*
X175510000Y-63855000D01*
X175520000Y-63800000D01*
X176540000Y-63800000D01*
X176535000Y-63860000D01*
G36*
X176535000Y-63860000D02*
G01*
X176525000Y-63925000D01*
X176515000Y-63985000D01*
X176500000Y-64060000D01*
X176475000Y-64160000D01*
X176445000Y-64260000D01*
X176415000Y-64355000D01*
X176390000Y-64420000D01*
X176360000Y-64495000D01*
X176325000Y-64575000D01*
X176285000Y-64655000D01*
X176245000Y-64730000D01*
X176200000Y-64810000D01*
X176160000Y-64875000D01*
X176110000Y-64950000D01*
X176060000Y-65020000D01*
X176010000Y-65085000D01*
X175955000Y-65155000D01*
X175905000Y-65210000D01*
X175845000Y-65275000D01*
X175785000Y-65335000D01*
X175715000Y-65400000D01*
X175655000Y-65455000D01*
X175560000Y-65530000D01*
X175465000Y-65600000D01*
X175390000Y-65650000D01*
X175320000Y-65695000D01*
X175250000Y-65735000D01*
X175165000Y-65780000D01*
X175115000Y-65805000D01*
X175040000Y-65840000D01*
X174970000Y-65870000D01*
X174895000Y-65900000D01*
X174825000Y-65925000D01*
X174750000Y-65950000D01*
X174675000Y-65970000D01*
X174600000Y-65990000D01*
X174510000Y-66010000D01*
X174425000Y-66025000D01*
X174360000Y-66035000D01*
X174300000Y-66040000D01*
X174300000Y-65020000D01*
X174355000Y-65010000D01*
X174430000Y-64990000D01*
X174510000Y-64965000D01*
X174575000Y-64940000D01*
X174645000Y-64910000D01*
X174745000Y-64860000D01*
X174815000Y-64820000D01*
X174890000Y-64770000D01*
X174970000Y-64710000D01*
X175025000Y-64665000D01*
X175070000Y-64620000D01*
X175110000Y-64580000D01*
X175145000Y-64545000D01*
X175205000Y-64475000D01*
X175255000Y-64410000D01*
X175310000Y-64330000D01*
X175355000Y-64255000D01*
X175420000Y-64125000D01*
X175460000Y-64025000D01*
X175490000Y-63930000D01*
X175510000Y-63855000D01*
X175520000Y-63800000D01*
X176540000Y-63800000D01*
X176535000Y-63860000D01*
G37*
X173700000Y-134980000D02*
X173645000Y-134990000D01*
X173570000Y-135010000D01*
X173490000Y-135035000D01*
X173425000Y-135060000D01*
X173355000Y-135090000D01*
X173255000Y-135140000D01*
X173185000Y-135180000D01*
X173110000Y-135230000D01*
X173030000Y-135290000D01*
X172975000Y-135335000D01*
X172930000Y-135380000D01*
X172890000Y-135420000D01*
X172855000Y-135455000D01*
X172795000Y-135525000D01*
X172745000Y-135590000D01*
X172690000Y-135670000D01*
X172645000Y-135745000D01*
X172580000Y-135875000D01*
X172540000Y-135975000D01*
X172510000Y-136070000D01*
X172490000Y-136145000D01*
X172480000Y-136200000D01*
X171460000Y-136200000D01*
X171465000Y-136140000D01*
X171475000Y-136075000D01*
X171485000Y-136015000D01*
X171500000Y-135940000D01*
X171525000Y-135840000D01*
X171555000Y-135740000D01*
X171585000Y-135645000D01*
X171610000Y-135580000D01*
X171640000Y-135505000D01*
X171675000Y-135425000D01*
X171715000Y-135345000D01*
X171755000Y-135270000D01*
X171800000Y-135190000D01*
X171840000Y-135125000D01*
X171890000Y-135050000D01*
X171940000Y-134980000D01*
X171990000Y-134915000D01*
X172045000Y-134845000D01*
X172095000Y-134790000D01*
X172155000Y-134725000D01*
X172215000Y-134665000D01*
X172285000Y-134600000D01*
X172345000Y-134545000D01*
X172440000Y-134470000D01*
X172535000Y-134400000D01*
X172610000Y-134350000D01*
X172680000Y-134305000D01*
X172750000Y-134265000D01*
X172835000Y-134220000D01*
X172885000Y-134195000D01*
X172960000Y-134160000D01*
X173030000Y-134130000D01*
X173105000Y-134100000D01*
X173175000Y-134075000D01*
X173250000Y-134050000D01*
X173325000Y-134030000D01*
X173400000Y-134010000D01*
X173490000Y-133990000D01*
X173575000Y-133975000D01*
X173640000Y-133965000D01*
X173700000Y-133960000D01*
X173700000Y-134980000D01*
G36*
X173700000Y-134980000D02*
G01*
X173645000Y-134990000D01*
X173570000Y-135010000D01*
X173490000Y-135035000D01*
X173425000Y-135060000D01*
X173355000Y-135090000D01*
X173255000Y-135140000D01*
X173185000Y-135180000D01*
X173110000Y-135230000D01*
X173030000Y-135290000D01*
X172975000Y-135335000D01*
X172930000Y-135380000D01*
X172890000Y-135420000D01*
X172855000Y-135455000D01*
X172795000Y-135525000D01*
X172745000Y-135590000D01*
X172690000Y-135670000D01*
X172645000Y-135745000D01*
X172580000Y-135875000D01*
X172540000Y-135975000D01*
X172510000Y-136070000D01*
X172490000Y-136145000D01*
X172480000Y-136200000D01*
X171460000Y-136200000D01*
X171465000Y-136140000D01*
X171475000Y-136075000D01*
X171485000Y-136015000D01*
X171500000Y-135940000D01*
X171525000Y-135840000D01*
X171555000Y-135740000D01*
X171585000Y-135645000D01*
X171610000Y-135580000D01*
X171640000Y-135505000D01*
X171675000Y-135425000D01*
X171715000Y-135345000D01*
X171755000Y-135270000D01*
X171800000Y-135190000D01*
X171840000Y-135125000D01*
X171890000Y-135050000D01*
X171940000Y-134980000D01*
X171990000Y-134915000D01*
X172045000Y-134845000D01*
X172095000Y-134790000D01*
X172155000Y-134725000D01*
X172215000Y-134665000D01*
X172285000Y-134600000D01*
X172345000Y-134545000D01*
X172440000Y-134470000D01*
X172535000Y-134400000D01*
X172610000Y-134350000D01*
X172680000Y-134305000D01*
X172750000Y-134265000D01*
X172835000Y-134220000D01*
X172885000Y-134195000D01*
X172960000Y-134160000D01*
X173030000Y-134130000D01*
X173105000Y-134100000D01*
X173175000Y-134075000D01*
X173250000Y-134050000D01*
X173325000Y-134030000D01*
X173400000Y-134010000D01*
X173490000Y-133990000D01*
X173575000Y-133975000D01*
X173640000Y-133965000D01*
X173700000Y-133960000D01*
X173700000Y-134980000D01*
G37*
X172490000Y-136855000D02*
X172510000Y-136930000D01*
X172535000Y-137010000D01*
X172560000Y-137075000D01*
X172590000Y-137145000D01*
X172640000Y-137245000D01*
X172680000Y-137315000D01*
X172730000Y-137390000D01*
X172790000Y-137470000D01*
X172835000Y-137525000D01*
X172880000Y-137570000D01*
X172920000Y-137610000D01*
X172955000Y-137645000D01*
X173025000Y-137705000D01*
X173090000Y-137755000D01*
X173170000Y-137810000D01*
X173245000Y-137855000D01*
X173375000Y-137920000D01*
X173475000Y-137960000D01*
X173570000Y-137990000D01*
X173645000Y-138010000D01*
X173700000Y-138020000D01*
X173700000Y-139040000D01*
X173640000Y-139035000D01*
X173575000Y-139025000D01*
X173515000Y-139015000D01*
X173440000Y-139000000D01*
X173340000Y-138975000D01*
X173240000Y-138945000D01*
X173145000Y-138915000D01*
X173080000Y-138890000D01*
X173005000Y-138860000D01*
X172925000Y-138825000D01*
X172845000Y-138785000D01*
X172770000Y-138745000D01*
X172690000Y-138700000D01*
X172625000Y-138660000D01*
X172550000Y-138610000D01*
X172480000Y-138560000D01*
X172415000Y-138510000D01*
X172345000Y-138455000D01*
X172290000Y-138405000D01*
X172225000Y-138345000D01*
X172165000Y-138285000D01*
X172100000Y-138215000D01*
X172045000Y-138155000D01*
X171970000Y-138060000D01*
X171900000Y-137965000D01*
X171850000Y-137890000D01*
X171805000Y-137820000D01*
X171765000Y-137750000D01*
X171720000Y-137665000D01*
X171695000Y-137615000D01*
X171660000Y-137540000D01*
X171630000Y-137470000D01*
X171600000Y-137395000D01*
X171575000Y-137325000D01*
X171550000Y-137250000D01*
X171530000Y-137175000D01*
X171510000Y-137100000D01*
X171490000Y-137010000D01*
X171475000Y-136925000D01*
X171465000Y-136860000D01*
X171460000Y-136800000D01*
X172480000Y-136800000D01*
X172490000Y-136855000D01*
G36*
X172490000Y-136855000D02*
G01*
X172510000Y-136930000D01*
X172535000Y-137010000D01*
X172560000Y-137075000D01*
X172590000Y-137145000D01*
X172640000Y-137245000D01*
X172680000Y-137315000D01*
X172730000Y-137390000D01*
X172790000Y-137470000D01*
X172835000Y-137525000D01*
X172880000Y-137570000D01*
X172920000Y-137610000D01*
X172955000Y-137645000D01*
X173025000Y-137705000D01*
X173090000Y-137755000D01*
X173170000Y-137810000D01*
X173245000Y-137855000D01*
X173375000Y-137920000D01*
X173475000Y-137960000D01*
X173570000Y-137990000D01*
X173645000Y-138010000D01*
X173700000Y-138020000D01*
X173700000Y-139040000D01*
X173640000Y-139035000D01*
X173575000Y-139025000D01*
X173515000Y-139015000D01*
X173440000Y-139000000D01*
X173340000Y-138975000D01*
X173240000Y-138945000D01*
X173145000Y-138915000D01*
X173080000Y-138890000D01*
X173005000Y-138860000D01*
X172925000Y-138825000D01*
X172845000Y-138785000D01*
X172770000Y-138745000D01*
X172690000Y-138700000D01*
X172625000Y-138660000D01*
X172550000Y-138610000D01*
X172480000Y-138560000D01*
X172415000Y-138510000D01*
X172345000Y-138455000D01*
X172290000Y-138405000D01*
X172225000Y-138345000D01*
X172165000Y-138285000D01*
X172100000Y-138215000D01*
X172045000Y-138155000D01*
X171970000Y-138060000D01*
X171900000Y-137965000D01*
X171850000Y-137890000D01*
X171805000Y-137820000D01*
X171765000Y-137750000D01*
X171720000Y-137665000D01*
X171695000Y-137615000D01*
X171660000Y-137540000D01*
X171630000Y-137470000D01*
X171600000Y-137395000D01*
X171575000Y-137325000D01*
X171550000Y-137250000D01*
X171530000Y-137175000D01*
X171510000Y-137100000D01*
X171490000Y-137010000D01*
X171475000Y-136925000D01*
X171465000Y-136860000D01*
X171460000Y-136800000D01*
X172480000Y-136800000D01*
X172490000Y-136855000D01*
G37*
X174360000Y-133965000D02*
X174425000Y-133975000D01*
X174485000Y-133985000D01*
X174560000Y-134000000D01*
X174660000Y-134025000D01*
X174760000Y-134055000D01*
X174855000Y-134085000D01*
X174920000Y-134110000D01*
X174995000Y-134140000D01*
X175075000Y-134175000D01*
X175155000Y-134215000D01*
X175230000Y-134255000D01*
X175310000Y-134300000D01*
X175375000Y-134340000D01*
X175450000Y-134390000D01*
X175520000Y-134440000D01*
X175585000Y-134490000D01*
X175655000Y-134545000D01*
X175710000Y-134595000D01*
X175775000Y-134655000D01*
X175835000Y-134715000D01*
X175900000Y-134785000D01*
X175955000Y-134845000D01*
X176030000Y-134940000D01*
X176100000Y-135035000D01*
X176150000Y-135110000D01*
X176195000Y-135180000D01*
X176235000Y-135250000D01*
X176280000Y-135335000D01*
X176305000Y-135385000D01*
X176340000Y-135460000D01*
X176370000Y-135530000D01*
X176400000Y-135605000D01*
X176425000Y-135675000D01*
X176450000Y-135750000D01*
X176470000Y-135825000D01*
X176490000Y-135900000D01*
X176510000Y-135990000D01*
X176525000Y-136075000D01*
X176535000Y-136140000D01*
X176540000Y-136200000D01*
X175520000Y-136200000D01*
X175510000Y-136145000D01*
X175490000Y-136070000D01*
X175465000Y-135990000D01*
X175440000Y-135925000D01*
X175410000Y-135855000D01*
X175360000Y-135755000D01*
X175320000Y-135685000D01*
X175270000Y-135610000D01*
X175210000Y-135530000D01*
X175165000Y-135475000D01*
X175120000Y-135430000D01*
X175080000Y-135390000D01*
X175045000Y-135355000D01*
X174975000Y-135295000D01*
X174910000Y-135245000D01*
X174830000Y-135190000D01*
X174755000Y-135145000D01*
X174625000Y-135080000D01*
X174525000Y-135040000D01*
X174430000Y-135010000D01*
X174355000Y-134990000D01*
X174300000Y-134980000D01*
X174300000Y-133960000D01*
X174360000Y-133965000D01*
G36*
X174360000Y-133965000D02*
G01*
X174425000Y-133975000D01*
X174485000Y-133985000D01*
X174560000Y-134000000D01*
X174660000Y-134025000D01*
X174760000Y-134055000D01*
X174855000Y-134085000D01*
X174920000Y-134110000D01*
X174995000Y-134140000D01*
X175075000Y-134175000D01*
X175155000Y-134215000D01*
X175230000Y-134255000D01*
X175310000Y-134300000D01*
X175375000Y-134340000D01*
X175450000Y-134390000D01*
X175520000Y-134440000D01*
X175585000Y-134490000D01*
X175655000Y-134545000D01*
X175710000Y-134595000D01*
X175775000Y-134655000D01*
X175835000Y-134715000D01*
X175900000Y-134785000D01*
X175955000Y-134845000D01*
X176030000Y-134940000D01*
X176100000Y-135035000D01*
X176150000Y-135110000D01*
X176195000Y-135180000D01*
X176235000Y-135250000D01*
X176280000Y-135335000D01*
X176305000Y-135385000D01*
X176340000Y-135460000D01*
X176370000Y-135530000D01*
X176400000Y-135605000D01*
X176425000Y-135675000D01*
X176450000Y-135750000D01*
X176470000Y-135825000D01*
X176490000Y-135900000D01*
X176510000Y-135990000D01*
X176525000Y-136075000D01*
X176535000Y-136140000D01*
X176540000Y-136200000D01*
X175520000Y-136200000D01*
X175510000Y-136145000D01*
X175490000Y-136070000D01*
X175465000Y-135990000D01*
X175440000Y-135925000D01*
X175410000Y-135855000D01*
X175360000Y-135755000D01*
X175320000Y-135685000D01*
X175270000Y-135610000D01*
X175210000Y-135530000D01*
X175165000Y-135475000D01*
X175120000Y-135430000D01*
X175080000Y-135390000D01*
X175045000Y-135355000D01*
X174975000Y-135295000D01*
X174910000Y-135245000D01*
X174830000Y-135190000D01*
X174755000Y-135145000D01*
X174625000Y-135080000D01*
X174525000Y-135040000D01*
X174430000Y-135010000D01*
X174355000Y-134990000D01*
X174300000Y-134980000D01*
X174300000Y-133960000D01*
X174360000Y-133965000D01*
G37*
X176535000Y-136860000D02*
X176525000Y-136925000D01*
X176515000Y-136985000D01*
X176500000Y-137060000D01*
X176475000Y-137160000D01*
X176445000Y-137260000D01*
X176415000Y-137355000D01*
X176390000Y-137420000D01*
X176360000Y-137495000D01*
X176325000Y-137575000D01*
X176285000Y-137655000D01*
X176245000Y-137730000D01*
X176200000Y-137810000D01*
X176160000Y-137875000D01*
X176110000Y-137950000D01*
X176060000Y-138020000D01*
X176010000Y-138085000D01*
X175955000Y-138155000D01*
X175905000Y-138210000D01*
X175845000Y-138275000D01*
X175785000Y-138335000D01*
X175715000Y-138400000D01*
X175655000Y-138455000D01*
X175560000Y-138530000D01*
X175465000Y-138600000D01*
X175390000Y-138650000D01*
X175320000Y-138695000D01*
X175250000Y-138735000D01*
X175165000Y-138780000D01*
X175115000Y-138805000D01*
X175040000Y-138840000D01*
X174970000Y-138870000D01*
X174895000Y-138900000D01*
X174825000Y-138925000D01*
X174750000Y-138950000D01*
X174675000Y-138970000D01*
X174600000Y-138990000D01*
X174510000Y-139010000D01*
X174425000Y-139025000D01*
X174360000Y-139035000D01*
X174300000Y-139040000D01*
X174300000Y-138020000D01*
X174355000Y-138010000D01*
X174430000Y-137990000D01*
X174510000Y-137965000D01*
X174575000Y-137940000D01*
X174645000Y-137910000D01*
X174745000Y-137860000D01*
X174815000Y-137820000D01*
X174890000Y-137770000D01*
X174970000Y-137710000D01*
X175025000Y-137665000D01*
X175070000Y-137620000D01*
X175110000Y-137580000D01*
X175145000Y-137545000D01*
X175205000Y-137475000D01*
X175255000Y-137410000D01*
X175310000Y-137330000D01*
X175355000Y-137255000D01*
X175420000Y-137125000D01*
X175460000Y-137025000D01*
X175490000Y-136930000D01*
X175510000Y-136855000D01*
X175520000Y-136800000D01*
X176540000Y-136800000D01*
X176535000Y-136860000D01*
G36*
X176535000Y-136860000D02*
G01*
X176525000Y-136925000D01*
X176515000Y-136985000D01*
X176500000Y-137060000D01*
X176475000Y-137160000D01*
X176445000Y-137260000D01*
X176415000Y-137355000D01*
X176390000Y-137420000D01*
X176360000Y-137495000D01*
X176325000Y-137575000D01*
X176285000Y-137655000D01*
X176245000Y-137730000D01*
X176200000Y-137810000D01*
X176160000Y-137875000D01*
X176110000Y-137950000D01*
X176060000Y-138020000D01*
X176010000Y-138085000D01*
X175955000Y-138155000D01*
X175905000Y-138210000D01*
X175845000Y-138275000D01*
X175785000Y-138335000D01*
X175715000Y-138400000D01*
X175655000Y-138455000D01*
X175560000Y-138530000D01*
X175465000Y-138600000D01*
X175390000Y-138650000D01*
X175320000Y-138695000D01*
X175250000Y-138735000D01*
X175165000Y-138780000D01*
X175115000Y-138805000D01*
X175040000Y-138840000D01*
X174970000Y-138870000D01*
X174895000Y-138900000D01*
X174825000Y-138925000D01*
X174750000Y-138950000D01*
X174675000Y-138970000D01*
X174600000Y-138990000D01*
X174510000Y-139010000D01*
X174425000Y-139025000D01*
X174360000Y-139035000D01*
X174300000Y-139040000D01*
X174300000Y-138020000D01*
X174355000Y-138010000D01*
X174430000Y-137990000D01*
X174510000Y-137965000D01*
X174575000Y-137940000D01*
X174645000Y-137910000D01*
X174745000Y-137860000D01*
X174815000Y-137820000D01*
X174890000Y-137770000D01*
X174970000Y-137710000D01*
X175025000Y-137665000D01*
X175070000Y-137620000D01*
X175110000Y-137580000D01*
X175145000Y-137545000D01*
X175205000Y-137475000D01*
X175255000Y-137410000D01*
X175310000Y-137330000D01*
X175355000Y-137255000D01*
X175420000Y-137125000D01*
X175460000Y-137025000D01*
X175490000Y-136930000D01*
X175510000Y-136855000D01*
X175520000Y-136800000D01*
X176540000Y-136800000D01*
X176535000Y-136860000D01*
G37*
%TD*%
M02*
