%TF.GenerationSoftware,KiCad,Pcbnew,8.0.5*%
%TF.CreationDate,2025-03-06T00:50:30-05:00*%
%TF.ProjectId,CanSat_Camera_Board,43616e53-6174-45f4-9361-6d6572615f42,rev?*%
%TF.SameCoordinates,Original*%
%TF.FileFunction,Copper,L1,Top*%
%TF.FilePolarity,Positive*%
%FSLAX46Y46*%
G04 Gerber Fmt 4.6, Leading zero omitted, Abs format (unit mm)*
G04 Created by KiCad (PCBNEW 8.0.5) date 2025-03-06 00:50:30*
%MOMM*%
%LPD*%
G01*
G04 APERTURE LIST*
G04 Aperture macros list*
%AMRoundRect*
0 Rectangle with rounded corners*
0 $1 Rounding radius*
0 $2 $3 $4 $5 $6 $7 $8 $9 X,Y pos of 4 corners*
0 Add a 4 corners polygon primitive as box body*
4,1,4,$2,$3,$4,$5,$6,$7,$8,$9,$2,$3,0*
0 Add four circle primitives for the rounded corners*
1,1,$1+$1,$2,$3*
1,1,$1+$1,$4,$5*
1,1,$1+$1,$6,$7*
1,1,$1+$1,$8,$9*
0 Add four rect primitives between the rounded corners*
20,1,$1+$1,$2,$3,$4,$5,0*
20,1,$1+$1,$4,$5,$6,$7,0*
20,1,$1+$1,$6,$7,$8,$9,0*
20,1,$1+$1,$8,$9,$2,$3,0*%
G04 Aperture macros list end*
%TA.AperFunction,ComponentPad*%
%ADD10C,1.700000*%
%TD*%
%TA.AperFunction,ComponentPad*%
%ADD11RoundRect,0.250000X0.350000X0.625000X-0.350000X0.625000X-0.350000X-0.625000X0.350000X-0.625000X0*%
%TD*%
%TA.AperFunction,ComponentPad*%
%ADD12O,1.200000X1.750000*%
%TD*%
%TA.AperFunction,Conductor*%
%ADD13C,0.200000*%
%TD*%
G04 APERTURE END LIST*
D10*
%TO.P,Camera2,J2-1,3V3*%
%TO.N,unconnected-(Camera2-3V3-PadJ2-1)*%
X174100000Y-103400000D03*
%TO.P,Camera2,J2-2,RST/EN*%
%TO.N,unconnected-(Camera2-RST{slash}EN-PadJ2-2)*%
X171560000Y-103400000D03*
%TO.P,Camera2,J2-3,GPIO4*%
%TO.N,unconnected-(Camera2-GPIO4-PadJ2-3)*%
X169020000Y-103400000D03*
%TO.P,Camera2,J2-4,GPIO5*%
%TO.N,CAM2*%
X166480000Y-103400000D03*
%TO.P,Camera2,J2-5,GPIO6*%
%TO.N,unconnected-(Camera2-GPIO6-PadJ2-5)*%
X163940000Y-103400000D03*
%TO.P,Camera2,J2-6,GPIO7*%
%TO.N,unconnected-(Camera2-GPIO7-PadJ2-6)*%
X161400000Y-103400000D03*
%TO.P,Camera2,J2-7,GPIO15*%
%TO.N,unconnected-(Camera2-GPIO15-PadJ2-7)*%
X158860000Y-103400000D03*
%TO.P,Camera2,J2-8,GPIO16*%
%TO.N,unconnected-(Camera2-GPIO16-PadJ2-8)*%
X156320000Y-103400000D03*
%TO.P,Camera2,J2-9,GPIO17/TXD1*%
%TO.N,unconnected-(Camera2-GPIO17{slash}TXD1-PadJ2-9)*%
X153780000Y-103400000D03*
%TO.P,Camera2,J2-10,GPIO18/RXD1*%
%TO.N,unconnected-(Camera2-GPIO18{slash}RXD1-PadJ2-10)*%
X151240000Y-103400000D03*
%TO.P,Camera2,J2-11,GPIO8*%
%TO.N,unconnected-(Camera2-GPIO8-PadJ2-11)*%
X148700000Y-103400000D03*
%TO.P,Camera2,J2-12,GPIO3*%
%TO.N,unconnected-(Camera2-GPIO3-PadJ2-12)*%
X146160000Y-103400000D03*
%TO.P,Camera2,J2-13,GPIO46*%
%TO.N,unconnected-(Camera2-GPIO46-PadJ2-13)*%
X143620000Y-103400000D03*
%TO.P,Camera2,J2-14,GPIO9*%
%TO.N,unconnected-(Camera2-GPIO9-PadJ2-14)*%
X141080000Y-103400000D03*
%TO.P,Camera2,J2-15,GPIO10*%
%TO.N,unconnected-(Camera2-GPIO10-PadJ2-15)*%
X138540000Y-103400000D03*
%TO.P,Camera2,J2-16,GPIO11*%
%TO.N,unconnected-(Camera2-GPIO11-PadJ2-16)*%
X136000000Y-103400000D03*
%TO.P,Camera2,J2-17,GPIO12*%
%TO.N,SIG1*%
X133460000Y-103400000D03*
%TO.P,Camera2,J2-18,GPIO13*%
%TO.N,unconnected-(Camera2-GPIO13-PadJ2-18)*%
X130920000Y-103400000D03*
%TO.P,Camera2,J2-19,GPIO14*%
%TO.N,unconnected-(Camera2-GPIO14-PadJ2-19)*%
X128380000Y-103400000D03*
%TO.P,Camera2,J2-20,5V*%
%TO.N,VCC*%
X125840000Y-103400000D03*
%TO.P,Camera2,J3-1,GPIO43/TXD0*%
%TO.N,unconnected-(Camera2-GPIO43{slash}TXD0-PadJ3-1)*%
X174100000Y-129100000D03*
%TO.P,Camera2,J3-2,GPIO44/RXD0*%
%TO.N,unconnected-(Camera2-GPIO44{slash}RXD0-PadJ3-2)*%
X171560000Y-129100000D03*
%TO.P,Camera2,J3-3,GPIO1*%
%TO.N,unconnected-(Camera2-GPIO1-PadJ3-3)*%
X169020000Y-129100000D03*
%TO.P,Camera2,J3-4,GPIO2*%
%TO.N,unconnected-(Camera2-GPIO2-PadJ3-4)*%
X166480000Y-129100000D03*
%TO.P,Camera2,J3-5,GPIO42*%
%TO.N,unconnected-(Camera2-GPIO42-PadJ3-5)*%
X163940000Y-129100000D03*
%TO.P,Camera2,J3-6,GPIO41*%
%TO.N,unconnected-(Camera2-GPIO41-PadJ3-6)*%
X161400000Y-129100000D03*
%TO.P,Camera2,J3-7,GPIO40*%
%TO.N,unconnected-(Camera2-GPIO40-PadJ3-7)*%
X158860000Y-129100000D03*
%TO.P,Camera2,J3-8,GPIO39*%
%TO.N,unconnected-(Camera2-GPIO39-PadJ3-8)*%
X156320000Y-129100000D03*
%TO.P,Camera2,J3-9,GPIO38*%
%TO.N,unconnected-(Camera2-GPIO38-PadJ3-9)*%
X153780000Y-129100000D03*
%TO.P,Camera2,J3-10,GPIO37*%
%TO.N,unconnected-(Camera2-GPIO37-PadJ3-10)*%
X151240000Y-129100000D03*
%TO.P,Camera2,J3-11,GPIO36*%
%TO.N,unconnected-(Camera2-GPIO36-PadJ3-11)*%
X148700000Y-129100000D03*
%TO.P,Camera2,J3-12,GPIO35*%
%TO.N,unconnected-(Camera2-GPIO35-PadJ3-12)*%
X146160000Y-129100000D03*
%TO.P,Camera2,J3-13,GPIO0*%
%TO.N,unconnected-(Camera2-GPIO0-PadJ3-13)*%
X143620000Y-129100000D03*
%TO.P,Camera2,J3-14,GPIO45*%
%TO.N,unconnected-(Camera2-GPIO45-PadJ3-14)*%
X141080000Y-129100000D03*
%TO.P,Camera2,J3-15,GPIO48*%
%TO.N,unconnected-(Camera2-GPIO48-PadJ3-15)*%
X138540000Y-129100000D03*
%TO.P,Camera2,J3-16,GPIO47*%
%TO.N,unconnected-(Camera2-GPIO47-PadJ3-16)*%
X136000000Y-129100000D03*
%TO.P,Camera2,J3-17,GPIO21*%
%TO.N,unconnected-(Camera2-GPIO21-PadJ3-17)*%
X133460000Y-129100000D03*
%TO.P,Camera2,J3-18,GPIO20*%
%TO.N,unconnected-(Camera2-GPIO20-PadJ3-18)*%
X130920000Y-129100000D03*
%TO.P,Camera2,J3-19,GPIO19*%
%TO.N,unconnected-(Camera2-GPIO19-PadJ3-19)*%
X128380000Y-129100000D03*
%TO.P,Camera2,J3-20,GND*%
%TO.N,GND*%
X125840000Y-129100000D03*
%TD*%
%TO.P,Camera1,J2-1,3V3*%
%TO.N,unconnected-(Camera1-3V3-PadJ2-1)*%
X174080000Y-72900000D03*
%TO.P,Camera1,J2-2,RST/EN*%
%TO.N,unconnected-(Camera1-RST{slash}EN-PadJ2-2)*%
X171540000Y-72900000D03*
%TO.P,Camera1,J2-3,GPIO4*%
%TO.N,unconnected-(Camera1-GPIO4-PadJ2-3)*%
X169000000Y-72900000D03*
%TO.P,Camera1,J2-4,GPIO5*%
%TO.N,CAM1*%
X166460000Y-72900000D03*
%TO.P,Camera1,J2-5,GPIO6*%
%TO.N,unconnected-(Camera1-GPIO6-PadJ2-5)*%
X163920000Y-72900000D03*
%TO.P,Camera1,J2-6,GPIO7*%
%TO.N,unconnected-(Camera1-GPIO7-PadJ2-6)*%
X161380000Y-72900000D03*
%TO.P,Camera1,J2-7,GPIO15*%
%TO.N,unconnected-(Camera1-GPIO15-PadJ2-7)*%
X158840000Y-72900000D03*
%TO.P,Camera1,J2-8,GPIO16*%
%TO.N,unconnected-(Camera1-GPIO16-PadJ2-8)*%
X156300000Y-72900000D03*
%TO.P,Camera1,J2-9,GPIO17/TXD1*%
%TO.N,unconnected-(Camera1-GPIO17{slash}TXD1-PadJ2-9)*%
X153760000Y-72900000D03*
%TO.P,Camera1,J2-10,GPIO18/RXD1*%
%TO.N,unconnected-(Camera1-GPIO18{slash}RXD1-PadJ2-10)*%
X151220000Y-72900000D03*
%TO.P,Camera1,J2-11,GPIO8*%
%TO.N,unconnected-(Camera1-GPIO8-PadJ2-11)*%
X148680000Y-72900000D03*
%TO.P,Camera1,J2-12,GPIO3*%
%TO.N,unconnected-(Camera1-GPIO3-PadJ2-12)*%
X146140000Y-72900000D03*
%TO.P,Camera1,J2-13,GPIO46*%
%TO.N,unconnected-(Camera1-GPIO46-PadJ2-13)*%
X143600000Y-72900000D03*
%TO.P,Camera1,J2-14,GPIO9*%
%TO.N,unconnected-(Camera1-GPIO9-PadJ2-14)*%
X141060000Y-72900000D03*
%TO.P,Camera1,J2-15,GPIO10*%
%TO.N,unconnected-(Camera1-GPIO10-PadJ2-15)*%
X138520000Y-72900000D03*
%TO.P,Camera1,J2-16,GPIO11*%
%TO.N,unconnected-(Camera1-GPIO11-PadJ2-16)*%
X135980000Y-72900000D03*
%TO.P,Camera1,J2-17,GPIO12*%
%TO.N,SIG1*%
X133440000Y-72900000D03*
%TO.P,Camera1,J2-18,GPIO13*%
%TO.N,unconnected-(Camera1-GPIO13-PadJ2-18)*%
X130900000Y-72900000D03*
%TO.P,Camera1,J2-19,GPIO14*%
%TO.N,unconnected-(Camera1-GPIO14-PadJ2-19)*%
X128360000Y-72900000D03*
%TO.P,Camera1,J2-20,5V*%
%TO.N,VCC*%
X125820000Y-72900000D03*
%TO.P,Camera1,J3-1,GPIO43/TXD0*%
%TO.N,unconnected-(Camera1-GPIO43{slash}TXD0-PadJ3-1)*%
X174080000Y-98600000D03*
%TO.P,Camera1,J3-2,GPIO44/RXD0*%
%TO.N,unconnected-(Camera1-GPIO44{slash}RXD0-PadJ3-2)*%
X171540000Y-98600000D03*
%TO.P,Camera1,J3-3,GPIO1*%
%TO.N,unconnected-(Camera1-GPIO1-PadJ3-3)*%
X169000000Y-98600000D03*
%TO.P,Camera1,J3-4,GPIO2*%
%TO.N,unconnected-(Camera1-GPIO2-PadJ3-4)*%
X166460000Y-98600000D03*
%TO.P,Camera1,J3-5,GPIO42*%
%TO.N,unconnected-(Camera1-GPIO42-PadJ3-5)*%
X163920000Y-98600000D03*
%TO.P,Camera1,J3-6,GPIO41*%
%TO.N,unconnected-(Camera1-GPIO41-PadJ3-6)*%
X161380000Y-98600000D03*
%TO.P,Camera1,J3-7,GPIO40*%
%TO.N,unconnected-(Camera1-GPIO40-PadJ3-7)*%
X158840000Y-98600000D03*
%TO.P,Camera1,J3-8,GPIO39*%
%TO.N,unconnected-(Camera1-GPIO39-PadJ3-8)*%
X156300000Y-98600000D03*
%TO.P,Camera1,J3-9,GPIO38*%
%TO.N,unconnected-(Camera1-GPIO38-PadJ3-9)*%
X153760000Y-98600000D03*
%TO.P,Camera1,J3-10,GPIO37*%
%TO.N,unconnected-(Camera1-GPIO37-PadJ3-10)*%
X151220000Y-98600000D03*
%TO.P,Camera1,J3-11,GPIO36*%
%TO.N,unconnected-(Camera1-GPIO36-PadJ3-11)*%
X148680000Y-98600000D03*
%TO.P,Camera1,J3-12,GPIO35*%
%TO.N,unconnected-(Camera1-GPIO35-PadJ3-12)*%
X146140000Y-98600000D03*
%TO.P,Camera1,J3-13,GPIO0*%
%TO.N,unconnected-(Camera1-GPIO0-PadJ3-13)*%
X143600000Y-98600000D03*
%TO.P,Camera1,J3-14,GPIO45*%
%TO.N,unconnected-(Camera1-GPIO45-PadJ3-14)*%
X141060000Y-98600000D03*
%TO.P,Camera1,J3-15,GPIO48*%
%TO.N,unconnected-(Camera1-GPIO48-PadJ3-15)*%
X138520000Y-98600000D03*
%TO.P,Camera1,J3-16,GPIO47*%
%TO.N,unconnected-(Camera1-GPIO47-PadJ3-16)*%
X135980000Y-98600000D03*
%TO.P,Camera1,J3-17,GPIO21*%
%TO.N,unconnected-(Camera1-GPIO21-PadJ3-17)*%
X133440000Y-98600000D03*
%TO.P,Camera1,J3-18,GPIO20*%
%TO.N,unconnected-(Camera1-GPIO20-PadJ3-18)*%
X130900000Y-98600000D03*
%TO.P,Camera1,J3-19,GPIO19*%
%TO.N,unconnected-(Camera1-GPIO19-PadJ3-19)*%
X128360000Y-98600000D03*
%TO.P,Camera1,J3-20,GND*%
%TO.N,GND*%
X125820000Y-98600000D03*
%TD*%
D11*
%TO.P,Sensor_Board_Connector1,1,Pin_1*%
%TO.N,VCC*%
X154000000Y-65050000D03*
D12*
%TO.P,Sensor_Board_Connector1,2,Pin_2*%
%TO.N,CAM1*%
X152000000Y-65050000D03*
%TO.P,Sensor_Board_Connector1,3,Pin_3*%
%TO.N,CAM2*%
X150000000Y-65050000D03*
%TO.P,Sensor_Board_Connector1,4,Pin_4*%
%TO.N,SIG1*%
X148000000Y-65050000D03*
%TO.P,Sensor_Board_Connector1,5,Pin_5*%
%TO.N,GND*%
X146000000Y-65050000D03*
%TD*%
D13*
%TO.N,VCC*%
X154000000Y-65050000D02*
X155650000Y-63400000D01*
X174084314Y-101100000D02*
X128240000Y-101100000D01*
X125840000Y-103500000D02*
X124000000Y-101660000D01*
X124000000Y-74820000D02*
X125820000Y-73000000D01*
X176100000Y-99084314D02*
X174084314Y-101100000D01*
X167334314Y-63400000D02*
X176100000Y-72165686D01*
X128240000Y-101100000D02*
X125840000Y-103500000D01*
X125840000Y-102905686D02*
X125840000Y-103500000D01*
X155650000Y-63400000D02*
X167334314Y-63400000D01*
X176100000Y-72165686D02*
X176100000Y-99084314D01*
X124000000Y-101660000D02*
X124000000Y-74820000D01*
%TO.N,SIG1*%
X133440000Y-73000000D02*
X131440000Y-71000000D01*
X148000000Y-65050000D02*
X146050000Y-67000000D01*
X131440000Y-71000000D02*
X125000000Y-71000000D01*
X131460000Y-105500000D02*
X133460000Y-103500000D01*
X125000000Y-105500000D02*
X131460000Y-105500000D01*
X123600000Y-104100000D02*
X125000000Y-105500000D01*
X125000000Y-71000000D02*
X123600000Y-72400000D01*
X139440000Y-67000000D02*
X133440000Y-73000000D01*
X123600000Y-72400000D02*
X123600000Y-104100000D01*
X146050000Y-67000000D02*
X139440000Y-67000000D01*
%TO.N,CAM1*%
X152000000Y-65000000D02*
X152000000Y-65500000D01*
X160460000Y-67000000D02*
X166460000Y-73000000D01*
X152000000Y-65050000D02*
X152000000Y-65575000D01*
X152000000Y-65575000D02*
X153425000Y-67000000D01*
X153425000Y-67000000D02*
X160460000Y-67000000D01*
%TO.N,CAM2*%
X150000000Y-65000000D02*
X152000000Y-63000000D01*
X174250000Y-101500000D02*
X168480000Y-101500000D01*
X152000000Y-63000000D02*
X167500000Y-63000000D01*
X150000000Y-65050000D02*
X150000000Y-65000000D01*
X167500000Y-63000000D02*
X176500000Y-72000000D01*
X168480000Y-101500000D02*
X166480000Y-103500000D01*
X176500000Y-99250000D02*
X174250000Y-101500000D01*
X176500000Y-72000000D02*
X176500000Y-99250000D01*
%TD*%
M02*
