%TF.GenerationSoftware,KiCad,Pcbnew,8.0.5*%
%TF.CreationDate,2025-04-28T01:27:16-04:00*%
%TF.ProjectId,CanSat_Sensor_Board,43616e53-6174-45f5-9365-6e736f725f42,rev?*%
%TF.SameCoordinates,Original*%
%TF.FileFunction,Copper,L1,Top*%
%TF.FilePolarity,Positive*%
%FSLAX46Y46*%
G04 Gerber Fmt 4.6, Leading zero omitted, Abs format (unit mm)*
G04 Created by KiCad (PCBNEW 8.0.5) date 2025-04-28 01:27:16*
%MOMM*%
%LPD*%
G01*
G04 APERTURE LIST*
G04 Aperture macros list*
%AMRoundRect*
0 Rectangle with rounded corners*
0 $1 Rounding radius*
0 $2 $3 $4 $5 $6 $7 $8 $9 X,Y pos of 4 corners*
0 Add a 4 corners polygon primitive as box body*
4,1,4,$2,$3,$4,$5,$6,$7,$8,$9,$2,$3,0*
0 Add four circle primitives for the rounded corners*
1,1,$1+$1,$2,$3*
1,1,$1+$1,$4,$5*
1,1,$1+$1,$6,$7*
1,1,$1+$1,$8,$9*
0 Add four rect primitives between the rounded corners*
20,1,$1+$1,$2,$3,$4,$5,0*
20,1,$1+$1,$4,$5,$6,$7,0*
20,1,$1+$1,$6,$7,$8,$9,0*
20,1,$1+$1,$8,$9,$2,$3,0*%
G04 Aperture macros list end*
%TA.AperFunction,ComponentPad*%
%ADD10C,1.600000*%
%TD*%
%TA.AperFunction,ComponentPad*%
%ADD11O,1.600000X1.600000*%
%TD*%
%TA.AperFunction,ComponentPad*%
%ADD12RoundRect,0.250000X-0.350000X-0.625000X0.350000X-0.625000X0.350000X0.625000X-0.350000X0.625000X0*%
%TD*%
%TA.AperFunction,ComponentPad*%
%ADD13O,1.200000X1.750000*%
%TD*%
%TA.AperFunction,SMDPad,CuDef*%
%ADD14RoundRect,0.250000X-0.475000X0.337500X-0.475000X-0.337500X0.475000X-0.337500X0.475000X0.337500X0*%
%TD*%
%TA.AperFunction,ComponentPad*%
%ADD15RoundRect,0.250000X-0.625000X0.350000X-0.625000X-0.350000X0.625000X-0.350000X0.625000X0.350000X0*%
%TD*%
%TA.AperFunction,ComponentPad*%
%ADD16O,1.750000X1.200000*%
%TD*%
%TA.AperFunction,SMDPad,CuDef*%
%ADD17RoundRect,0.250000X0.475000X-0.337500X0.475000X0.337500X-0.475000X0.337500X-0.475000X-0.337500X0*%
%TD*%
%TA.AperFunction,WasherPad*%
%ADD18C,5.300000*%
%TD*%
%TA.AperFunction,ComponentPad*%
%ADD19C,1.700000*%
%TD*%
%TA.AperFunction,ComponentPad*%
%ADD20C,0.910000*%
%TD*%
%TA.AperFunction,SMDPad,CuDef*%
%ADD21RoundRect,0.250000X0.337500X0.475000X-0.337500X0.475000X-0.337500X-0.475000X0.337500X-0.475000X0*%
%TD*%
%TA.AperFunction,ComponentPad*%
%ADD22C,1.778000*%
%TD*%
%TA.AperFunction,SMDPad,CuDef*%
%ADD23R,3.960000X3.960000*%
%TD*%
%TA.AperFunction,SMDPad,CuDef*%
%ADD24R,2.540000X3.170000*%
%TD*%
%TA.AperFunction,WasherPad*%
%ADD25C,1.700000*%
%TD*%
%TA.AperFunction,SMDPad,CuDef*%
%ADD26R,0.228600X0.711200*%
%TD*%
%TA.AperFunction,SMDPad,CuDef*%
%ADD27RoundRect,0.237500X0.250000X0.237500X-0.250000X0.237500X-0.250000X-0.237500X0.250000X-0.237500X0*%
%TD*%
%TA.AperFunction,ComponentPad*%
%ADD28RoundRect,0.250000X0.625000X-0.350000X0.625000X0.350000X-0.625000X0.350000X-0.625000X-0.350000X0*%
%TD*%
%TA.AperFunction,SMDPad,CuDef*%
%ADD29RoundRect,0.250000X-0.337500X-0.475000X0.337500X-0.475000X0.337500X0.475000X-0.337500X0.475000X0*%
%TD*%
%TA.AperFunction,SMDPad,CuDef*%
%ADD30R,1.500000X3.600000*%
%TD*%
%TA.AperFunction,ComponentPad*%
%ADD31R,1.600000X1.600000*%
%TD*%
%TA.AperFunction,ViaPad*%
%ADD32C,0.600000*%
%TD*%
%TA.AperFunction,Conductor*%
%ADD33C,0.500000*%
%TD*%
%TA.AperFunction,Conductor*%
%ADD34C,0.200000*%
%TD*%
%TA.AperFunction,Conductor*%
%ADD35C,1.000000*%
%TD*%
%TA.AperFunction,Conductor*%
%ADD36C,0.800000*%
%TD*%
G04 APERTURE END LIST*
D10*
%TO.P,R2,1*%
%TO.N,/5V*%
X187000000Y-97000000D03*
D11*
%TO.P,R2,2*%
%TO.N,Net-(Adafruit_BME280_STEMMA_QT_U3-Pin_6)*%
X179380000Y-97000000D03*
%TD*%
D12*
%TO.P,J9,1,Pin_1*%
%TO.N,GND*%
X133500000Y-138750000D03*
D13*
%TO.P,J9,2,Pin_2*%
%TO.N,/7.4V*%
X135500000Y-138750000D03*
%TO.P,J9,3,Pin_3*%
%TO.N,Net-(ESP32-DEVKIT-32_U1-IO14)*%
X137500000Y-138750000D03*
%TD*%
D14*
%TO.P,C8,1*%
%TO.N,/5V*%
X191750000Y-104175001D03*
%TO.P,C8,2*%
%TO.N,GND*%
X191750000Y-106250001D03*
%TD*%
D15*
%TO.P,J2,1,Pin_1*%
%TO.N,/7.4V*%
X134500000Y-61000000D03*
D16*
%TO.P,J2,2,Pin_2*%
%TO.N,Net-(ESP32-DEVKIT-32_U1-IO32)*%
X134500000Y-63000000D03*
%TO.P,J2,3,Pin_3*%
%TO.N,Net-(ESP32-DEVKIT-32_U1-IO33)*%
X134500000Y-65000000D03*
%TO.P,J2,4,Pin_4*%
%TO.N,Net-(ESP32-DEVKIT-32_U1-IO25)*%
X134500000Y-67000000D03*
%TO.P,J2,5,Pin_5*%
%TO.N,Net-(ESP32-DEVKIT-32_U1-IO26)*%
X134500000Y-69000000D03*
%TO.P,J2,6,Pin_6*%
%TO.N,GND*%
X134500000Y-71000000D03*
%TD*%
D17*
%TO.P,C7,1*%
%TO.N,GND*%
X194250000Y-106250001D03*
%TO.P,C7,2*%
%TO.N,/3.3V*%
X194250000Y-104175001D03*
%TD*%
D18*
%TO.P,SparkFunXBeeExplorer_U2,*%
%TO.N,*%
X164450000Y-87700000D03*
X164450000Y-59900000D03*
X142050000Y-87700000D03*
X142050000Y-59900000D03*
D19*
%TO.P,SparkFunXBeeExplorer_U2,JP5_1,GND*%
%TO.N,GND*%
X146900000Y-86500000D03*
%TO.P,SparkFunXBeeExplorer_U2,JP5_2,DTR*%
%TO.N,unconnected-(SparkFunXBeeExplorer_U2-DTR-PadJP5_2)*%
X146900000Y-83960000D03*
%TO.P,SparkFunXBeeExplorer_U2,JP5_3,RES1*%
%TO.N,unconnected-(SparkFunXBeeExplorer_U2-RES1-PadJP5_3)*%
X146900000Y-81420000D03*
%TO.P,SparkFunXBeeExplorer_U2,JP5_4,DIO11*%
%TO.N,unconnected-(SparkFunXBeeExplorer_U2-DIO11-PadJP5_4)*%
X146900000Y-78880000D03*
%TO.P,SparkFunXBeeExplorer_U2,JP5_5,RSSI*%
%TO.N,unconnected-(SparkFunXBeeExplorer_U2-RSSI-PadJP5_5)*%
X146900000Y-76340000D03*
%TO.P,SparkFunXBeeExplorer_U2,JP5_6,RESET*%
%TO.N,unconnected-(SparkFunXBeeExplorer_U2-RESET-PadJP5_6)*%
X146900000Y-73800000D03*
%TO.P,SparkFunXBeeExplorer_U2,JP5_7,DIO12*%
%TO.N,unconnected-(SparkFunXBeeExplorer_U2-DIO12-PadJP5_7)*%
X146900000Y-71260000D03*
%TO.P,SparkFunXBeeExplorer_U2,JP5_8,DIN*%
%TO.N,Net-(ESP32-DEVKIT-32_U1-IO17)*%
X146900000Y-68720000D03*
%TO.P,SparkFunXBeeExplorer_U2,JP5_9,DOUT*%
%TO.N,Net-(ESP32-DEVKIT-32_U1-IO16)*%
X146900000Y-66180000D03*
%TO.P,SparkFunXBeeExplorer_U2,JP5_10,3.3V*%
%TO.N,/3.3V*%
X146900000Y-63640000D03*
%TO.P,SparkFunXBeeExplorer_U2,JP5_11,GND*%
%TO.N,GND*%
X146900000Y-61100000D03*
%TO.P,SparkFunXBeeExplorer_U2,JP6_1,DIO0*%
%TO.N,unconnected-(SparkFunXBeeExplorer_U2-DIO0-PadJP6_1)*%
X159600000Y-61100000D03*
%TO.P,SparkFunXBeeExplorer_U2,JP6_2,DIO1*%
%TO.N,unconnected-(SparkFunXBeeExplorer_U2-DIO1-PadJP6_2)*%
X159600000Y-63640000D03*
%TO.P,SparkFunXBeeExplorer_U2,JP6_3,DIO2*%
%TO.N,unconnected-(SparkFunXBeeExplorer_U2-DIO2-PadJP6_3)*%
X159600000Y-66180000D03*
%TO.P,SparkFunXBeeExplorer_U2,JP6_4,DIO3*%
%TO.N,unconnected-(SparkFunXBeeExplorer_U2-DIO3-PadJP6_4)*%
X159600000Y-68720000D03*
%TO.P,SparkFunXBeeExplorer_U2,JP6_5,RTS*%
%TO.N,unconnected-(SparkFunXBeeExplorer_U2-RTS-PadJP6_5)*%
X159600000Y-71260000D03*
%TO.P,SparkFunXBeeExplorer_U2,JP6_6,DIO5*%
%TO.N,unconnected-(SparkFunXBeeExplorer_U2-DIO5-PadJP6_6)*%
X159600000Y-73800000D03*
%TO.P,SparkFunXBeeExplorer_U2,JP6_7,RES2*%
%TO.N,unconnected-(SparkFunXBeeExplorer_U2-RES2-PadJP6_7)*%
X159600000Y-76340000D03*
%TO.P,SparkFunXBeeExplorer_U2,JP6_8,DIO9*%
%TO.N,unconnected-(SparkFunXBeeExplorer_U2-DIO9-PadJP6_8)*%
X159600000Y-78880000D03*
%TO.P,SparkFunXBeeExplorer_U2,JP6_9,CTS*%
%TO.N,unconnected-(SparkFunXBeeExplorer_U2-CTS-PadJP6_9)*%
X159600000Y-81420000D03*
%TO.P,SparkFunXBeeExplorer_U2,JP6_10,DIO4*%
%TO.N,unconnected-(SparkFunXBeeExplorer_U2-DIO4-PadJP6_10)*%
X159600000Y-83960000D03*
%TO.P,SparkFunXBeeExplorer_U2,JP6_11,5V*%
%TO.N,unconnected-(SparkFunXBeeExplorer_U2-5V-PadJP6_11)*%
X159600000Y-86500000D03*
%TD*%
%TO.P,ESP32-DEVKIT-32_U1,J2-1,3V3*%
%TO.N,unconnected-(ESP32-DEVKIT-32_U1-3V3-PadJ2-1)*%
X114000000Y-76670000D03*
%TO.P,ESP32-DEVKIT-32_U1,J2-2,EN*%
%TO.N,unconnected-(ESP32-DEVKIT-32_U1-EN-PadJ2-2)*%
X114000000Y-79210000D03*
%TO.P,ESP32-DEVKIT-32_U1,J2-3,SENSOR_VP*%
%TO.N,unconnected-(ESP32-DEVKIT-32_U1-SENSOR_VP-PadJ2-3)*%
X114000000Y-81750000D03*
%TO.P,ESP32-DEVKIT-32_U1,J2-4,SENSOR_VN*%
%TO.N,/ADC*%
X114000000Y-84290000D03*
%TO.P,ESP32-DEVKIT-32_U1,J2-5,IO34*%
%TO.N,Net-(ESP32-DEVKIT-32_U1-IO34)*%
X114000000Y-86830000D03*
%TO.P,ESP32-DEVKIT-32_U1,J2-6,IO35*%
%TO.N,Net-(Adafruit_BNO085_U5-~{INT})*%
X114000000Y-89370000D03*
%TO.P,ESP32-DEVKIT-32_U1,J2-7,IO32*%
%TO.N,Net-(ESP32-DEVKIT-32_U1-IO32)*%
X114000000Y-91910000D03*
%TO.P,ESP32-DEVKIT-32_U1,J2-8,IO33*%
%TO.N,Net-(ESP32-DEVKIT-32_U1-IO33)*%
X114000000Y-94450000D03*
%TO.P,ESP32-DEVKIT-32_U1,J2-9,IO25*%
%TO.N,Net-(ESP32-DEVKIT-32_U1-IO25)*%
X114000000Y-96990000D03*
%TO.P,ESP32-DEVKIT-32_U1,J2-10,IO26*%
%TO.N,Net-(ESP32-DEVKIT-32_U1-IO26)*%
X114000000Y-99530000D03*
%TO.P,ESP32-DEVKIT-32_U1,J2-11,IO27*%
%TO.N,Net-(ESP32-DEVKIT-32_U1-IO27)*%
X114000000Y-102070000D03*
%TO.P,ESP32-DEVKIT-32_U1,J2-12,IO14*%
%TO.N,Net-(ESP32-DEVKIT-32_U1-IO14)*%
X114000000Y-104610000D03*
%TO.P,ESP32-DEVKIT-32_U1,J2-13,IO12*%
%TO.N,Net-(ESP32-DEVKIT-32_U1-IO12)*%
X114000000Y-107150000D03*
%TO.P,ESP32-DEVKIT-32_U1,J2-14,GND1*%
%TO.N,GND*%
X114000000Y-109690000D03*
%TO.P,ESP32-DEVKIT-32_U1,J2-15,IO13*%
%TO.N,Net-(ESP32-DEVKIT-32_U1-IO13)*%
X114000000Y-112230000D03*
%TO.P,ESP32-DEVKIT-32_U1,J2-16,SD2*%
%TO.N,unconnected-(ESP32-DEVKIT-32_U1-SD2-PadJ2-16)*%
X114000000Y-114770000D03*
%TO.P,ESP32-DEVKIT-32_U1,J2-17,SD3*%
%TO.N,unconnected-(ESP32-DEVKIT-32_U1-SD3-PadJ2-17)*%
X114000000Y-117310000D03*
%TO.P,ESP32-DEVKIT-32_U1,J2-18,CMD*%
%TO.N,unconnected-(ESP32-DEVKIT-32_U1-CMD-PadJ2-18)*%
X114000000Y-119850000D03*
%TO.P,ESP32-DEVKIT-32_U1,J2-19,EXT_5V*%
%TO.N,/7.4V*%
X114000000Y-122390000D03*
%TO.P,ESP32-DEVKIT-32_U1,J3-1,GND3*%
%TO.N,GND*%
X136000000Y-76670000D03*
%TO.P,ESP32-DEVKIT-32_U1,J3-2,IO23*%
%TO.N,Net-(Adafruit_BNO085_U5-DI)*%
X136000000Y-79210000D03*
%TO.P,ESP32-DEVKIT-32_U1,J3-3,IO22*%
%TO.N,Net-(Adafruit_BME280_STEMMA_QT_U3-Pin_4)*%
X136000000Y-81750000D03*
%TO.P,ESP32-DEVKIT-32_U1,J3-4,TXD0*%
%TO.N,Net-(ESP32-DEVKIT-32_U1-TXD0)*%
X136000000Y-84290000D03*
%TO.P,ESP32-DEVKIT-32_U1,J3-5,RXD0*%
%TO.N,Net-(ESP32-DEVKIT-32_U1-RXD0)*%
X136000000Y-86830000D03*
%TO.P,ESP32-DEVKIT-32_U1,J3-6,IO21*%
%TO.N,Net-(Adafruit_BME280_STEMMA_QT_U3-Pin_6)*%
X136000000Y-89370000D03*
%TO.P,ESP32-DEVKIT-32_U1,J3-7,GND2*%
%TO.N,GND*%
X136000000Y-91910000D03*
%TO.P,ESP32-DEVKIT-32_U1,J3-8,IO19*%
%TO.N,Net-(Adafruit_BNO085_U5-SDA)*%
X136000000Y-94450000D03*
%TO.P,ESP32-DEVKIT-32_U1,J3-9,IO18*%
%TO.N,Net-(Adafruit_BNO085_U5-SCL)*%
X136000000Y-96990000D03*
%TO.P,ESP32-DEVKIT-32_U1,J3-10,IO5*%
%TO.N,Net-(Adafruit_BNO085_U5-~{RST})*%
X136000000Y-99530000D03*
%TO.P,ESP32-DEVKIT-32_U1,J3-11,IO17*%
%TO.N,Net-(ESP32-DEVKIT-32_U1-IO17)*%
X136000000Y-102070000D03*
%TO.P,ESP32-DEVKIT-32_U1,J3-12,IO16*%
%TO.N,Net-(ESP32-DEVKIT-32_U1-IO16)*%
X136000000Y-104610000D03*
%TO.P,ESP32-DEVKIT-32_U1,J3-13,IO4*%
%TO.N,Net-(ESP32-DEVKIT-32_U1-IO4)*%
X136000000Y-107150000D03*
%TO.P,ESP32-DEVKIT-32_U1,J3-14,IO0*%
%TO.N,unconnected-(ESP32-DEVKIT-32_U1-IO0-PadJ3-14)*%
X136000000Y-109690000D03*
%TO.P,ESP32-DEVKIT-32_U1,J3-15,IO2*%
%TO.N,Net-(ESP32-DEVKIT-32_U1-IO2)*%
X136000000Y-112230000D03*
%TO.P,ESP32-DEVKIT-32_U1,J3-16,IO15*%
%TO.N,Net-(Adafruit_BNO085_U5-CS)*%
X136000000Y-114770000D03*
%TO.P,ESP32-DEVKIT-32_U1,J3-17,SD1*%
%TO.N,unconnected-(ESP32-DEVKIT-32_U1-SD1-PadJ3-17)*%
X136000000Y-117310000D03*
%TO.P,ESP32-DEVKIT-32_U1,J3-18,SD0*%
%TO.N,unconnected-(ESP32-DEVKIT-32_U1-SD0-PadJ3-18)*%
X136000000Y-119850000D03*
%TO.P,ESP32-DEVKIT-32_U1,J3-19,CLK*%
%TO.N,unconnected-(ESP32-DEVKIT-32_U1-CLK-PadJ3-19)*%
X136000000Y-122390000D03*
%TD*%
D20*
%TO.P,Y1,1*%
%TO.N,Net-(DS1307+_U6-X1)*%
X181135000Y-75000000D03*
%TO.P,Y1,2*%
%TO.N,Net-(DS1307+_U6-X2)*%
X179865000Y-75000000D03*
%TD*%
D18*
%TO.P,Adafruit_BME280_STEMMA_QT_U3,*%
%TO.N,*%
X143000000Y-113300000D03*
X163320000Y-113300000D03*
D19*
%TO.P,Adafruit_BME280_STEMMA_QT_U3,1,Pin_1*%
%TO.N,/3.3V*%
X145540000Y-126000000D03*
%TO.P,Adafruit_BME280_STEMMA_QT_U3,2,Pin_2*%
%TO.N,unconnected-(Adafruit_BME280_STEMMA_QT_U3-Pin_2-Pad2)*%
X148080000Y-126000000D03*
%TO.P,Adafruit_BME280_STEMMA_QT_U3,3,Pin_3*%
%TO.N,GND*%
X150620000Y-126000000D03*
%TO.P,Adafruit_BME280_STEMMA_QT_U3,4,Pin_4*%
%TO.N,Net-(Adafruit_BME280_STEMMA_QT_U3-Pin_4)*%
X153160000Y-126000000D03*
%TO.P,Adafruit_BME280_STEMMA_QT_U3,5,Pin_5*%
%TO.N,unconnected-(Adafruit_BME280_STEMMA_QT_U3-Pin_5-Pad5)*%
X155700000Y-126000000D03*
%TO.P,Adafruit_BME280_STEMMA_QT_U3,6,Pin_6*%
%TO.N,Net-(Adafruit_BME280_STEMMA_QT_U3-Pin_6)*%
X158240000Y-126000000D03*
%TO.P,Adafruit_BME280_STEMMA_QT_U3,7,Pin_7*%
%TO.N,unconnected-(Adafruit_BME280_STEMMA_QT_U3-Pin_7-Pad7)*%
X160780000Y-126000000D03*
%TD*%
D12*
%TO.P,J8,1,Pin_1*%
%TO.N,GND*%
X133500000Y-133000000D03*
D13*
%TO.P,J8,2,Pin_2*%
%TO.N,/7.4V*%
X135500000Y-133000000D03*
%TO.P,J8,3,Pin_3*%
%TO.N,Net-(ESP32-DEVKIT-32_U1-IO27)*%
X137500000Y-133000000D03*
%TD*%
D17*
%TO.P,C1,1*%
%TO.N,GND*%
X174000000Y-136037500D03*
%TO.P,C1,2*%
%TO.N,/3.3V*%
X174000000Y-133962500D03*
%TD*%
D12*
%TO.P,J4,1,Pin_1*%
%TO.N,GND*%
X169500000Y-93950000D03*
D13*
%TO.P,J4,2,Pin_2*%
%TO.N,Net-(ESP32-DEVKIT-32_U1-RXD0)*%
X171500000Y-93950000D03*
%TO.P,J4,3,Pin_3*%
%TO.N,Net-(ESP32-DEVKIT-32_U1-TXD0)*%
X173500000Y-93950000D03*
%TO.P,J4,4,Pin_4*%
%TO.N,/3.3V*%
X175500000Y-93950000D03*
%TD*%
D12*
%TO.P,J11,1,Pin_1*%
%TO.N,GND*%
X151500000Y-138750000D03*
D13*
%TO.P,J11,2,Pin_2*%
%TO.N,/7.4V*%
X153500000Y-138750000D03*
%TO.P,J11,3,Pin_3*%
%TO.N,Net-(ESP32-DEVKIT-32_U1-IO13)*%
X155500000Y-138750000D03*
%TD*%
D21*
%TO.P,C4,1*%
%TO.N,GND*%
X154387500Y-100650000D03*
%TO.P,C4,2*%
%TO.N,/3.3V*%
X152312500Y-100650000D03*
%TD*%
D18*
%TO.P,Adafruit_BNO085_U5,*%
%TO.N,*%
X186890000Y-103340000D03*
X169110000Y-103340000D03*
X186890000Y-123660000D03*
X169110000Y-123660000D03*
D22*
%TO.P,Adafruit_BNO085_U5,JP1_1,VIN*%
%TO.N,/3.3V*%
X169110000Y-107150000D03*
%TO.P,Adafruit_BNO085_U5,JP1_2,3VO*%
%TO.N,unconnected-(Adafruit_BNO085_U5-3VO-PadJP1_2)*%
X169110000Y-109690000D03*
%TO.P,Adafruit_BNO085_U5,JP1_3,GND*%
%TO.N,GND*%
X169110000Y-112230000D03*
%TO.P,Adafruit_BNO085_U5,JP1_4,SCL*%
%TO.N,Net-(Adafruit_BNO085_U5-SCL)*%
X169110000Y-114770000D03*
%TO.P,Adafruit_BNO085_U5,JP1_5,SDA*%
%TO.N,Net-(Adafruit_BNO085_U5-SDA)*%
X169110000Y-117310000D03*
%TO.P,Adafruit_BNO085_U5,JP1_6,~{INT}*%
%TO.N,Net-(Adafruit_BNO085_U5-~{INT})*%
X169110000Y-119850000D03*
%TO.P,Adafruit_BNO085_U5,JP2_1,BT*%
%TO.N,unconnected-(Adafruit_BNO085_U5-BT-PadJP2_1)*%
X186890000Y-107150000D03*
%TO.P,Adafruit_BNO085_U5,JP2_2,P0*%
%TO.N,unconnected-(Adafruit_BNO085_U5-P0-PadJP2_2)*%
X186890000Y-109690000D03*
%TO.P,Adafruit_BNO085_U5,JP2_3,P1*%
%TO.N,unconnected-(Adafruit_BNO085_U5-P1-PadJP2_3)*%
X186890000Y-112230000D03*
%TO.P,Adafruit_BNO085_U5,JP2_4,~{RST}*%
%TO.N,Net-(Adafruit_BNO085_U5-~{RST})*%
X186890000Y-114770000D03*
%TO.P,Adafruit_BNO085_U5,JP2_5,DI*%
%TO.N,Net-(Adafruit_BNO085_U5-DI)*%
X186890000Y-117310000D03*
%TO.P,Adafruit_BNO085_U5,JP2_6,CS*%
%TO.N,Net-(Adafruit_BNO085_U5-CS)*%
X186890000Y-119850000D03*
%TD*%
D23*
%TO.P,2894TR_U7,N*%
%TO.N,GND*%
X177620000Y-83500000D03*
D24*
%TO.P,2894TR_U7,P1*%
%TO.N,Net-(DS1307+_U6-VBAT)*%
X185240000Y-83500000D03*
%TO.P,2894TR_U7,P2*%
X170000000Y-83500000D03*
%TD*%
D10*
%TO.P,R3,1*%
%TO.N,/5V*%
X187000000Y-93500000D03*
D11*
%TO.P,R3,2*%
%TO.N,Net-(Adafruit_BME280_STEMMA_QT_U3-Pin_4)*%
X179380000Y-93500000D03*
%TD*%
D18*
%TO.P,Adafruit_LIS3MDL_U4,*%
%TO.N,*%
X143000000Y-94300000D03*
X143000000Y-107000000D03*
D25*
X149350000Y-94300000D03*
X151890000Y-94300000D03*
X154430000Y-94300000D03*
X156970000Y-94300000D03*
D18*
X163320000Y-94300000D03*
X163320000Y-107000000D03*
D19*
%TO.P,Adafruit_LIS3MDL_U4,1,Pin_1*%
%TO.N,/3.3V*%
X146810000Y-107000000D03*
%TO.P,Adafruit_LIS3MDL_U4,2,Pin_2*%
%TO.N,unconnected-(Adafruit_LIS3MDL_U4-Pin_2-Pad2)*%
X149350000Y-107000000D03*
%TO.P,Adafruit_LIS3MDL_U4,3,Pin_3*%
%TO.N,GND*%
X151890000Y-107000000D03*
%TO.P,Adafruit_LIS3MDL_U4,4,Pin_4*%
%TO.N,Net-(Adafruit_BME280_STEMMA_QT_U3-Pin_4)*%
X154430000Y-107000000D03*
%TO.P,Adafruit_LIS3MDL_U4,5,Pin_5*%
%TO.N,Net-(Adafruit_BME280_STEMMA_QT_U3-Pin_6)*%
X156970000Y-107000000D03*
%TO.P,Adafruit_LIS3MDL_U4,6,Pin_6*%
%TO.N,unconnected-(Adafruit_LIS3MDL_U4-Pin_6-Pad6)*%
X159510000Y-107000000D03*
%TD*%
D12*
%TO.P,J10,1,Pin_1*%
%TO.N,GND*%
X142500000Y-138750000D03*
D13*
%TO.P,J10,2,Pin_2*%
%TO.N,/7.4V*%
X144500000Y-138750000D03*
%TO.P,J10,3,Pin_3*%
%TO.N,Net-(ESP32-DEVKIT-32_U1-IO12)*%
X146500000Y-138750000D03*
%TD*%
D26*
%TO.P,TPS610333DRLR_U8,1,VIN*%
%TO.N,/3.3V*%
X192049200Y-101299201D03*
%TO.P,TPS610333DRLR_U8,2,EN*%
X192549201Y-101299201D03*
%TO.P,TPS610333DRLR_U8,3,MODE*%
%TO.N,GND*%
X193049201Y-101299201D03*
%TO.P,TPS610333DRLR_U8,4,PG*%
X193549202Y-101299201D03*
%TO.P,TPS610333DRLR_U8,5,FB*%
%TO.N,/3.3V*%
X193549202Y-99700799D03*
%TO.P,TPS610333DRLR_U8,6,GND*%
%TO.N,GND*%
X193049201Y-99700799D03*
%TO.P,TPS610333DRLR_U8,7,SW*%
%TO.N,/SW*%
X192549201Y-99700799D03*
%TO.P,TPS610333DRLR_U8,8,VOUT*%
%TO.N,/5V*%
X192049200Y-99700799D03*
%TD*%
D27*
%TO.P,R1,1*%
%TO.N,Net-(J5-Pin_1)*%
X172825000Y-129250000D03*
%TO.P,R1,2*%
%TO.N,/3.3V*%
X171000000Y-129250000D03*
%TD*%
D28*
%TO.P,J3,1,Pin_1*%
%TO.N,Net-(ESP32-DEVKIT-32_U1-IO34)*%
X167950000Y-138500000D03*
D16*
%TO.P,J3,2,Pin_2*%
%TO.N,GND*%
X167950000Y-136500000D03*
%TO.P,J3,3,Pin_3*%
%TO.N,/3.3V*%
X167950000Y-134500000D03*
%TD*%
D29*
%TO.P,C6,1*%
%TO.N,GND*%
X169462500Y-61750000D03*
%TO.P,C6,2*%
%TO.N,/5V*%
X171537500Y-61750000D03*
%TD*%
D30*
%TO.P,WE-LQS_4025_L1,1*%
%TO.N,/3.3V*%
X193525000Y-92500000D03*
%TO.P,WE-LQS_4025_L1,2*%
%TO.N,/SW*%
X190475000Y-92500000D03*
%TD*%
D12*
%TO.P,J6,1,Pin_1*%
%TO.N,GND*%
X142500000Y-133000000D03*
D13*
%TO.P,J6,2,Pin_2*%
%TO.N,/7.4V*%
X144500000Y-133000000D03*
%TO.P,J6,3,Pin_3*%
%TO.N,Net-(ESP32-DEVKIT-32_U1-IO2)*%
X146500000Y-133000000D03*
%TD*%
D29*
%TO.P,C3,1*%
%TO.N,GND*%
X168962500Y-98500000D03*
%TO.P,C3,2*%
%TO.N,/3.3V*%
X171037500Y-98500000D03*
%TD*%
D12*
%TO.P,J5,1,Pin_1*%
%TO.N,Net-(J5-Pin_1)*%
X176750000Y-129250000D03*
D13*
%TO.P,J5,2,Pin_2*%
%TO.N,GND*%
X178750000Y-129250000D03*
%TD*%
D15*
%TO.P,J1,1,Pin_1*%
%TO.N,/3.3V*%
X161500000Y-133500000D03*
D16*
%TO.P,J1,2,Pin_2*%
%TO.N,/7.4V*%
X161500000Y-135500000D03*
%TO.P,J1,3,Pin_3*%
%TO.N,/ADC*%
X161500000Y-137500000D03*
%TO.P,J1,4,Pin_4*%
%TO.N,GND*%
X161500000Y-139500000D03*
%TD*%
D31*
%TO.P,DS1307+_U6,1,X1*%
%TO.N,Net-(DS1307+_U6-X1)*%
X169700000Y-66200000D03*
D11*
%TO.P,DS1307+_U6,2,X2*%
%TO.N,Net-(DS1307+_U6-X2)*%
X169700000Y-68740000D03*
%TO.P,DS1307+_U6,3,VBAT*%
%TO.N,Net-(DS1307+_U6-VBAT)*%
X169700000Y-71280000D03*
%TO.P,DS1307+_U6,4,GND*%
%TO.N,GND*%
X169700000Y-73820000D03*
%TO.P,DS1307+_U6,5,SDA*%
%TO.N,Net-(Adafruit_BME280_STEMMA_QT_U3-Pin_6)*%
X177320000Y-73820000D03*
%TO.P,DS1307+_U6,6,SCL*%
%TO.N,Net-(Adafruit_BME280_STEMMA_QT_U3-Pin_4)*%
X177320000Y-71280000D03*
%TO.P,DS1307+_U6,7,SQW/OUT*%
%TO.N,unconnected-(DS1307+_U6-SQW{slash}OUT-Pad7)*%
X177320000Y-68740000D03*
%TO.P,DS1307+_U6,8,VCC*%
%TO.N,/5V*%
X177320000Y-66200000D03*
%TD*%
D12*
%TO.P,J7,1,Pin_1*%
%TO.N,GND*%
X151500000Y-133000000D03*
D13*
%TO.P,J7,2,Pin_2*%
%TO.N,/7.4V*%
X153500000Y-133000000D03*
%TO.P,J7,3,Pin_3*%
%TO.N,Net-(ESP32-DEVKIT-32_U1-IO4)*%
X155500000Y-133000000D03*
%TD*%
D17*
%TO.P,C5,1*%
%TO.N,GND*%
X178000000Y-114537500D03*
%TO.P,C5,2*%
%TO.N,/3.3V*%
X178000000Y-112462500D03*
%TD*%
D29*
%TO.P,C2,1*%
%TO.N,/3.3V*%
X152342500Y-119650000D03*
%TO.P,C2,2*%
%TO.N,GND*%
X154417500Y-119650000D03*
%TD*%
D32*
%TO.N,Net-(Adafruit_BNO085_U5-~{INT})*%
X165400000Y-128000000D03*
%TO.N,/3.3V*%
X195250000Y-91000000D03*
X196000000Y-91750000D03*
X195250000Y-98500000D03*
X194150000Y-102250000D03*
X196000000Y-93250000D03*
X194500000Y-96250000D03*
X196000000Y-94750000D03*
X192650000Y-102250000D03*
X195250000Y-97000000D03*
X195250000Y-95500000D03*
X193400000Y-103000000D03*
X196000000Y-97750000D03*
X194900000Y-103000000D03*
X196000000Y-96250000D03*
X194500000Y-99250000D03*
X193750000Y-95500000D03*
X195250000Y-92500000D03*
X194500000Y-97750000D03*
X196000000Y-99250000D03*
X195250000Y-94000000D03*
X193750000Y-97000000D03*
X193000000Y-96250000D03*
%TO.N,GND*%
X189250000Y-109750000D03*
X184000000Y-95750000D03*
X184000000Y-96500000D03*
X188750000Y-100500000D03*
X189250000Y-106750000D03*
X192000000Y-108250000D03*
X185500000Y-90500000D03*
X184750000Y-92750000D03*
X195750000Y-109000000D03*
X193500000Y-108250000D03*
X194250000Y-109000000D03*
X189250000Y-101000000D03*
X189250000Y-107500000D03*
X189250000Y-108250000D03*
X194250000Y-110500000D03*
X193500000Y-111250000D03*
X190000000Y-104500000D03*
X184750000Y-94250000D03*
X191250000Y-112000000D03*
X185000000Y-91000000D03*
X189250000Y-110500000D03*
X187000000Y-99500000D03*
X189250000Y-112000000D03*
X184000000Y-99500000D03*
X193500000Y-109750000D03*
X190000000Y-109750000D03*
X192750000Y-107500000D03*
X191250000Y-110500000D03*
X190000000Y-101500000D03*
X185000000Y-92000000D03*
X194250000Y-112000000D03*
X194250000Y-107500000D03*
X192000000Y-111250000D03*
X192000000Y-109750000D03*
X187750000Y-98750000D03*
X186250000Y-98750000D03*
X189000000Y-99750000D03*
X185500000Y-91500000D03*
X190000000Y-106000000D03*
X184750000Y-96500000D03*
X187750000Y-99500000D03*
X184000000Y-98750000D03*
X184000000Y-92750000D03*
X186500000Y-90500000D03*
X187000000Y-90000000D03*
X184750000Y-99500000D03*
X190000000Y-109000000D03*
X186000000Y-90000000D03*
X192750000Y-109000000D03*
X184000000Y-94250000D03*
X184000000Y-97250000D03*
X186500000Y-89500000D03*
X187000000Y-88000000D03*
X195750000Y-106000000D03*
X192750000Y-110500000D03*
X190100000Y-103750000D03*
X184000000Y-98000000D03*
X184750000Y-98000000D03*
X184750000Y-95000000D03*
X189500000Y-100250000D03*
X184750000Y-97250000D03*
X184750000Y-93500000D03*
X190000000Y-112000000D03*
X190000000Y-108250000D03*
X189250000Y-109000000D03*
X195000000Y-109750000D03*
X184000000Y-92000000D03*
X187000000Y-89000000D03*
X190000000Y-111250000D03*
X184750000Y-98750000D03*
X190100000Y-103000000D03*
X184000000Y-93500000D03*
X189250000Y-106000000D03*
X190000000Y-100750000D03*
X190000000Y-106750000D03*
X186000000Y-91000000D03*
X184000000Y-95000000D03*
X186500000Y-88500000D03*
X195750000Y-107500000D03*
X191250000Y-107500000D03*
X195000000Y-108250000D03*
X192750000Y-112000000D03*
X190000000Y-102250000D03*
X188250000Y-100000000D03*
X190000000Y-107500000D03*
X195000000Y-111250000D03*
X184750000Y-95750000D03*
X190000000Y-110500000D03*
X187000000Y-98750000D03*
X185500000Y-99500000D03*
X188500000Y-99250000D03*
X186250000Y-99500000D03*
X185500000Y-98750000D03*
X189250000Y-111250000D03*
X191250000Y-109000000D03*
X184500000Y-91500000D03*
X190000000Y-105250000D03*
%TD*%
D33*
%TO.N,Net-(DS1307+_U6-VBAT)*%
X170000000Y-83500000D02*
X173250000Y-86750000D01*
X168000000Y-72980000D02*
X169700000Y-71280000D01*
X173250000Y-86750000D02*
X181990000Y-86750000D01*
X170000000Y-83500000D02*
X168000000Y-81500000D01*
X168000000Y-81500000D02*
X168000000Y-72980000D01*
X181990000Y-86750000D02*
X185240000Y-83500000D01*
D34*
%TO.N,Net-(Adafruit_BME280_STEMMA_QT_U3-Pin_6)*%
X156970000Y-107000000D02*
X156970000Y-100470000D01*
X156970000Y-100470000D02*
X155000000Y-98500000D01*
X140615686Y-98500000D02*
X143000000Y-98500000D01*
X155000000Y-98500000D02*
X143000000Y-98500000D01*
X136000000Y-89370000D02*
X137500000Y-90870000D01*
X137500000Y-90870000D02*
X137500000Y-95384314D01*
X137500000Y-95384314D02*
X140615686Y-98500000D01*
%TO.N,Net-(Adafruit_BNO085_U5-DI)*%
X185000000Y-108000000D02*
X177000000Y-100000000D01*
X140781372Y-98100000D02*
X137900000Y-95218628D01*
X137900000Y-81110000D02*
X136000000Y-79210000D01*
X186890000Y-117310000D02*
X185000000Y-115420000D01*
X155165686Y-98100000D02*
X140781372Y-98100000D01*
X137900000Y-95218628D02*
X137900000Y-81110000D01*
X157065686Y-100000000D02*
X155165686Y-98100000D01*
X177000000Y-100000000D02*
X157065686Y-100000000D01*
X185000000Y-115420000D02*
X185000000Y-108000000D01*
%TO.N,Net-(Adafruit_BNO085_U5-SDA)*%
X138000000Y-113000000D02*
X138000000Y-96450000D01*
X169110000Y-117310000D02*
X142310000Y-117310000D01*
X138000000Y-96450000D02*
X136000000Y-94450000D01*
X142310000Y-117310000D02*
X138000000Y-113000000D01*
%TO.N,Net-(Adafruit_BNO085_U5-CS)*%
X167500000Y-130000000D02*
X147000000Y-130000000D01*
X138000000Y-116770000D02*
X136000000Y-114770000D01*
X138000000Y-121000000D02*
X138000000Y-116770000D01*
X177650000Y-119850000D02*
X167500000Y-130000000D01*
X186890000Y-119850000D02*
X177650000Y-119850000D01*
X147000000Y-130000000D02*
X138000000Y-121000000D01*
%TO.N,Net-(Adafruit_BNO085_U5-~{INT})*%
X169110000Y-119850000D02*
X167852765Y-119850000D01*
X165400000Y-122302764D02*
X165851382Y-121851382D01*
X165400000Y-128000000D02*
X165400000Y-122302764D01*
X167852765Y-119850000D02*
X165851382Y-121851382D01*
D33*
%TO.N,/3.3V*%
X167950000Y-134500000D02*
X173462500Y-134500000D01*
X167950000Y-132300000D02*
X171000000Y-129250000D01*
X152342500Y-119650000D02*
X151890000Y-119650000D01*
X174422500Y-112462500D02*
X169110000Y-107150000D01*
X167950000Y-134500000D02*
X167950000Y-132300000D01*
X173462500Y-134500000D02*
X174000000Y-133962500D01*
X146810000Y-107000000D02*
X152312500Y-101497500D01*
X152312500Y-101497500D02*
X152312500Y-100650000D01*
D34*
X170537500Y-98500000D02*
X170950000Y-98500000D01*
D33*
X175500000Y-94037500D02*
X171037500Y-98500000D01*
X178000000Y-112462500D02*
X174422500Y-112462500D01*
X151890000Y-119650000D02*
X145540000Y-126000000D01*
X175500000Y-93950000D02*
X175500000Y-94037500D01*
D35*
%TO.N,GND*%
X154417500Y-119650000D02*
X154417500Y-122202500D01*
X154387500Y-100650000D02*
X154387500Y-104502500D01*
X169462500Y-62962500D02*
X171500000Y-65000000D01*
X168962500Y-98500000D02*
X168962500Y-94487500D01*
X154387500Y-104502500D02*
X151890000Y-107000000D01*
X173537500Y-136500000D02*
X174000000Y-136037500D01*
X168962500Y-94487500D02*
X169500000Y-93950000D01*
X171417500Y-114537500D02*
X169110000Y-112230000D01*
X177620000Y-83500000D02*
X169700000Y-75580000D01*
X169700000Y-75580000D02*
X169700000Y-73820000D01*
X169462500Y-61750000D02*
X169462500Y-62962500D01*
X178000000Y-114537500D02*
X171417500Y-114537500D01*
X154417500Y-122202500D02*
X150620000Y-126000000D01*
X171500000Y-65000000D02*
X171500000Y-72020000D01*
X167950000Y-136500000D02*
X173537500Y-136500000D01*
X171500000Y-72020000D02*
X169700000Y-73820000D01*
D36*
%TO.N,/5V*%
X172870000Y-61750000D02*
X177320000Y-66200000D01*
X188000000Y-92500000D02*
X188000000Y-76880000D01*
X187000000Y-93500000D02*
X187000000Y-93250000D01*
X171537500Y-61750000D02*
X172870000Y-61750000D01*
X188000000Y-76880000D02*
X177320000Y-66200000D01*
X187000000Y-93500000D02*
X188000000Y-92500000D01*
D35*
%TO.N,/7.4V*%
X153500000Y-133113478D02*
X153500000Y-133000000D01*
X126390000Y-122390000D02*
X135500000Y-131500000D01*
X114000000Y-122390000D02*
X132250000Y-104140000D01*
X132250000Y-104140000D02*
X132250000Y-62375000D01*
X135500000Y-131500000D02*
X135500000Y-132725000D01*
X135500000Y-139250000D02*
X135500000Y-138750000D01*
X133625000Y-61000000D02*
X134500000Y-61000000D01*
X114000000Y-122390000D02*
X126390000Y-122390000D01*
X144500000Y-138750000D02*
X144500000Y-139250000D01*
X153500000Y-138750000D02*
X153500000Y-139250000D01*
D34*
X135500000Y-132725000D02*
X135500000Y-133000000D01*
D35*
X132250000Y-62375000D02*
X133625000Y-61000000D01*
D34*
%TO.N,Net-(J5-Pin_1)*%
X172825000Y-129250000D02*
X176750000Y-129250000D01*
D33*
%TO.N,/ADC*%
X157500000Y-141500000D02*
X161500000Y-137500000D01*
X114000000Y-84290000D02*
X112250000Y-86040000D01*
X112250000Y-86040000D02*
X112250000Y-123000000D01*
X112250000Y-123000000D02*
X130750000Y-141500000D01*
X130750000Y-141500000D02*
X157500000Y-141500000D01*
%TD*%
%TA.AperFunction,Conductor*%
%TO.N,GND*%
G36*
X187342539Y-87519685D02*
G01*
X187388294Y-87572489D01*
X187399500Y-87624000D01*
X187399500Y-90299138D01*
X187379815Y-90366177D01*
X187363181Y-90386819D01*
X185250000Y-92499999D01*
X185250000Y-92500000D01*
X185250000Y-98300000D01*
X188048638Y-98300000D01*
X188115677Y-98319685D01*
X188136319Y-98336319D01*
X190463681Y-100663681D01*
X190497166Y-100725004D01*
X190500000Y-100751362D01*
X190500000Y-112500000D01*
X190300000Y-112500000D01*
X188874000Y-112500000D01*
X188806961Y-112480315D01*
X188761206Y-112427511D01*
X188750000Y-112376000D01*
X188750000Y-105558160D01*
X188767078Y-105500000D01*
X189500000Y-105500000D01*
X189750000Y-105500000D01*
X189750000Y-101000000D01*
X188750000Y-101000000D01*
X187750000Y-100000000D01*
X183624000Y-100000000D01*
X183556961Y-99980315D01*
X183511206Y-99927511D01*
X183500000Y-99876000D01*
X183500000Y-92051362D01*
X183519685Y-91984323D01*
X183536319Y-91963681D01*
X186000000Y-89500000D01*
X186000000Y-87624000D01*
X186019685Y-87556961D01*
X186072489Y-87511206D01*
X186124000Y-87500000D01*
X187275500Y-87500000D01*
X187342539Y-87519685D01*
G37*
%TD.AperFunction*%
%TD*%
%TA.AperFunction,Conductor*%
%TO.N,GND*%
G36*
X193700000Y-100750000D02*
G01*
X193700000Y-101694500D01*
X193200000Y-101694500D01*
X193200000Y-100250000D01*
X193700000Y-100750000D01*
G37*
%TD.AperFunction*%
%TD*%
%TA.AperFunction,Conductor*%
%TO.N,GND*%
G36*
X196929813Y-100769685D02*
G01*
X196975568Y-100822489D01*
X196986761Y-100875803D01*
X196979643Y-101365165D01*
X196979538Y-101368771D01*
X196920062Y-102730985D01*
X196919852Y-102734586D01*
X196820784Y-104094465D01*
X196820470Y-104098058D01*
X196681888Y-105454525D01*
X196681469Y-105458107D01*
X196503496Y-106809944D01*
X196502973Y-106813513D01*
X196285761Y-108159587D01*
X196285135Y-108163139D01*
X196028862Y-109502336D01*
X196028133Y-109505869D01*
X195733009Y-110837081D01*
X195732177Y-110840590D01*
X195398468Y-112162632D01*
X195397534Y-112166116D01*
X195328417Y-112409832D01*
X195291189Y-112468957D01*
X195227905Y-112498569D01*
X195209122Y-112500000D01*
X190500000Y-112500000D01*
X190500000Y-105450000D01*
X190782378Y-105450000D01*
X190800025Y-105451262D01*
X190803465Y-105451756D01*
X190829500Y-105455500D01*
X190829501Y-105455500D01*
X192925991Y-105455500D01*
X192926000Y-105455500D01*
X192969684Y-105450803D01*
X192969683Y-105450803D01*
X192970540Y-105450711D01*
X192983796Y-105450000D01*
X193376878Y-105450000D01*
X193394525Y-105451262D01*
X193397965Y-105451756D01*
X193424000Y-105455500D01*
X193424001Y-105455500D01*
X195175991Y-105455500D01*
X195176000Y-105455500D01*
X195219684Y-105450803D01*
X195219683Y-105450803D01*
X195220540Y-105450711D01*
X195233796Y-105450000D01*
X195550000Y-105450000D01*
X195550000Y-101700000D01*
X195223122Y-101700000D01*
X195205475Y-101698738D01*
X195191358Y-101696708D01*
X195176000Y-101694500D01*
X195175999Y-101694500D01*
X193700000Y-101694500D01*
X193700000Y-100750000D01*
X196862774Y-100750000D01*
X196929813Y-100769685D01*
G37*
%TD.AperFunction*%
%TD*%
%TA.AperFunction,Conductor*%
%TO.N,/SW*%
G36*
X191443039Y-90469685D02*
G01*
X191488794Y-90522489D01*
X191500000Y-90574000D01*
X191500000Y-97000000D01*
X192663681Y-98163681D01*
X192697166Y-98225004D01*
X192700000Y-98251362D01*
X192700000Y-99976000D01*
X192680315Y-100043039D01*
X192627511Y-100088794D01*
X192576000Y-100100000D01*
X192529500Y-100100000D01*
X192462461Y-100080315D01*
X192416706Y-100027511D01*
X192405500Y-99976000D01*
X192405500Y-99201361D01*
X192404321Y-99179383D01*
X192400837Y-99146982D01*
X192401419Y-99146919D01*
X192400000Y-99133118D01*
X192400000Y-99050000D01*
X189491819Y-96141819D01*
X189458334Y-96080496D01*
X189455500Y-96054138D01*
X189455500Y-90574000D01*
X189475185Y-90506961D01*
X189527989Y-90461206D01*
X189579500Y-90450000D01*
X191376000Y-90450000D01*
X191443039Y-90469685D01*
G37*
%TD.AperFunction*%
%TD*%
%TA.AperFunction,Conductor*%
%TO.N,GND*%
G36*
X189750000Y-105500000D02*
G01*
X188767078Y-105500000D01*
X188769685Y-105491121D01*
X188794292Y-105463172D01*
X188849447Y-105416893D01*
X189077310Y-105175371D01*
X189275594Y-104909030D01*
X189441617Y-104621470D01*
X189573133Y-104316581D01*
X189668365Y-103998485D01*
X189726024Y-103671484D01*
X189745331Y-103340000D01*
X189726024Y-103008516D01*
X189683207Y-102765691D01*
X189668368Y-102681532D01*
X189668367Y-102681531D01*
X189668365Y-102681515D01*
X189573133Y-102363419D01*
X189441617Y-102058530D01*
X189275594Y-101770970D01*
X189275593Y-101770968D01*
X189077321Y-101504643D01*
X189077314Y-101504635D01*
X189077310Y-101504629D01*
X188849447Y-101263107D01*
X188794294Y-101216827D01*
X188755592Y-101158655D01*
X188750000Y-101121838D01*
X188750000Y-101000000D01*
X189750000Y-101000000D01*
X189750000Y-105500000D01*
G37*
%TD.AperFunction*%
%TD*%
%TA.AperFunction,Conductor*%
%TO.N,/7.4V*%
G36*
X163443039Y-131019685D02*
G01*
X163488794Y-131072489D01*
X163500000Y-131124000D01*
X163500000Y-141626000D01*
X163480315Y-141693039D01*
X163427511Y-141738794D01*
X163376000Y-141750000D01*
X158186465Y-141750000D01*
X158119426Y-141730315D01*
X158073671Y-141677511D01*
X158063727Y-141608353D01*
X158092752Y-141544797D01*
X158098784Y-141538319D01*
X160212819Y-139424283D01*
X160274142Y-139390798D01*
X160343834Y-139395782D01*
X160399767Y-139437654D01*
X160424184Y-139503118D01*
X160424500Y-139511964D01*
X160424500Y-139578846D01*
X160455261Y-139733489D01*
X160455264Y-139733501D01*
X160515602Y-139879172D01*
X160515609Y-139879185D01*
X160603210Y-140010288D01*
X160603213Y-140010292D01*
X160714707Y-140121786D01*
X160714711Y-140121789D01*
X160845814Y-140209390D01*
X160845827Y-140209397D01*
X160991498Y-140269735D01*
X160991503Y-140269737D01*
X161146153Y-140300499D01*
X161146156Y-140300500D01*
X161146158Y-140300500D01*
X161853844Y-140300500D01*
X161853845Y-140300499D01*
X162008497Y-140269737D01*
X162154179Y-140209394D01*
X162285289Y-140121789D01*
X162396789Y-140010289D01*
X162484394Y-139879179D01*
X162544737Y-139733497D01*
X162575500Y-139578842D01*
X162575500Y-139421158D01*
X162575500Y-139421155D01*
X162575499Y-139421153D01*
X162544738Y-139266510D01*
X162544737Y-139266503D01*
X162544735Y-139266498D01*
X162484397Y-139120827D01*
X162484390Y-139120814D01*
X162396789Y-138989711D01*
X162396786Y-138989707D01*
X162285292Y-138878213D01*
X162285288Y-138878210D01*
X162154185Y-138790609D01*
X162154172Y-138790602D01*
X162008501Y-138730264D01*
X162008489Y-138730261D01*
X161853845Y-138699500D01*
X161853842Y-138699500D01*
X161236965Y-138699500D01*
X161169926Y-138679815D01*
X161124171Y-138627011D01*
X161114227Y-138557853D01*
X161143252Y-138494297D01*
X161149284Y-138487819D01*
X161300284Y-138336819D01*
X161361607Y-138303334D01*
X161387965Y-138300500D01*
X161853844Y-138300500D01*
X161853845Y-138300499D01*
X162008497Y-138269737D01*
X162154179Y-138209394D01*
X162285289Y-138121789D01*
X162396789Y-138010289D01*
X162484394Y-137879179D01*
X162544737Y-137733497D01*
X162575500Y-137578842D01*
X162575500Y-137421158D01*
X162575500Y-137421155D01*
X162575499Y-137421153D01*
X162544738Y-137266510D01*
X162544737Y-137266503D01*
X162544735Y-137266498D01*
X162484397Y-137120827D01*
X162484390Y-137120814D01*
X162396789Y-136989711D01*
X162396786Y-136989707D01*
X162285292Y-136878213D01*
X162285288Y-136878210D01*
X162154185Y-136790609D01*
X162154172Y-136790602D01*
X162008501Y-136730264D01*
X162008489Y-136730261D01*
X161853845Y-136699500D01*
X161853842Y-136699500D01*
X161146158Y-136699500D01*
X161146155Y-136699500D01*
X160991510Y-136730261D01*
X160991498Y-136730264D01*
X160845827Y-136790602D01*
X160845814Y-136790609D01*
X160714711Y-136878210D01*
X160714707Y-136878213D01*
X160603213Y-136989707D01*
X160603210Y-136989711D01*
X160515609Y-137120814D01*
X160515602Y-137120827D01*
X160455264Y-137266498D01*
X160455261Y-137266510D01*
X160424500Y-137421153D01*
X160424500Y-137578846D01*
X160455261Y-137733489D01*
X160455264Y-137733501D01*
X160474559Y-137780083D01*
X160482028Y-137849552D01*
X160450752Y-137912031D01*
X160447679Y-137915216D01*
X157349716Y-141013181D01*
X157288393Y-141046666D01*
X157262035Y-141049500D01*
X131374000Y-141049500D01*
X131306961Y-141029815D01*
X131261206Y-140977011D01*
X131250000Y-140925500D01*
X131250000Y-138070730D01*
X132699500Y-138070730D01*
X132699500Y-139429269D01*
X132702353Y-139459699D01*
X132702353Y-139459701D01*
X132744044Y-139578844D01*
X132747207Y-139587882D01*
X132827850Y-139697150D01*
X132937118Y-139777793D01*
X132979845Y-139792744D01*
X133065299Y-139822646D01*
X133095730Y-139825500D01*
X133095734Y-139825500D01*
X133904270Y-139825500D01*
X133934699Y-139822646D01*
X133934701Y-139822646D01*
X133998790Y-139800219D01*
X134062882Y-139777793D01*
X134172150Y-139697150D01*
X134252793Y-139587882D01*
X134282453Y-139503118D01*
X134297646Y-139459701D01*
X134297646Y-139459699D01*
X134300500Y-139429269D01*
X134300500Y-138396153D01*
X136699500Y-138396153D01*
X136699500Y-139103846D01*
X136730261Y-139258489D01*
X136730264Y-139258501D01*
X136790602Y-139404172D01*
X136790609Y-139404185D01*
X136878210Y-139535288D01*
X136878213Y-139535292D01*
X136989707Y-139646786D01*
X136989711Y-139646789D01*
X137120814Y-139734390D01*
X137120827Y-139734397D01*
X137225596Y-139777793D01*
X137266503Y-139794737D01*
X137406810Y-139822646D01*
X137421153Y-139825499D01*
X137421156Y-139825500D01*
X137421158Y-139825500D01*
X137578844Y-139825500D01*
X137578845Y-139825499D01*
X137733497Y-139794737D01*
X137879179Y-139734394D01*
X138010289Y-139646789D01*
X138121789Y-139535289D01*
X138209394Y-139404179D01*
X138269737Y-139258497D01*
X138300500Y-139103842D01*
X138300500Y-138396158D01*
X138300500Y-138396155D01*
X138300499Y-138396153D01*
X138275353Y-138269737D01*
X138269737Y-138241503D01*
X138269735Y-138241498D01*
X138209397Y-138095827D01*
X138209390Y-138095814D01*
X138192629Y-138070730D01*
X141699500Y-138070730D01*
X141699500Y-139429269D01*
X141702353Y-139459699D01*
X141702353Y-139459701D01*
X141744044Y-139578844D01*
X141747207Y-139587882D01*
X141827850Y-139697150D01*
X141937118Y-139777793D01*
X141979845Y-139792744D01*
X142065299Y-139822646D01*
X142095730Y-139825500D01*
X142095734Y-139825500D01*
X142904270Y-139825500D01*
X142934699Y-139822646D01*
X142934701Y-139822646D01*
X142998790Y-139800219D01*
X143062882Y-139777793D01*
X143172150Y-139697150D01*
X143252793Y-139587882D01*
X143282453Y-139503118D01*
X143297646Y-139459701D01*
X143297646Y-139459699D01*
X143300500Y-139429269D01*
X143300500Y-138396153D01*
X145699500Y-138396153D01*
X145699500Y-139103846D01*
X145730261Y-139258489D01*
X145730264Y-139258501D01*
X145790602Y-139404172D01*
X145790609Y-139404185D01*
X145878210Y-139535288D01*
X145878213Y-139535292D01*
X145989707Y-139646786D01*
X145989711Y-139646789D01*
X146120814Y-139734390D01*
X146120827Y-139734397D01*
X146225596Y-139777793D01*
X146266503Y-139794737D01*
X146406810Y-139822646D01*
X146421153Y-139825499D01*
X146421156Y-139825500D01*
X146421158Y-139825500D01*
X146578844Y-139825500D01*
X146578845Y-139825499D01*
X146733497Y-139794737D01*
X146879179Y-139734394D01*
X147010289Y-139646789D01*
X147121789Y-139535289D01*
X147209394Y-139404179D01*
X147269737Y-139258497D01*
X147300500Y-139103842D01*
X147300500Y-138396158D01*
X147300500Y-138396155D01*
X147300499Y-138396153D01*
X147275353Y-138269737D01*
X147269737Y-138241503D01*
X147269735Y-138241498D01*
X147209397Y-138095827D01*
X147209390Y-138095814D01*
X147192629Y-138070730D01*
X150699500Y-138070730D01*
X150699500Y-139429269D01*
X150702353Y-139459699D01*
X150702353Y-139459701D01*
X150744044Y-139578844D01*
X150747207Y-139587882D01*
X150827850Y-139697150D01*
X150937118Y-139777793D01*
X150979845Y-139792744D01*
X151065299Y-139822646D01*
X151095730Y-139825500D01*
X151095734Y-139825500D01*
X151904270Y-139825500D01*
X151934699Y-139822646D01*
X151934701Y-139822646D01*
X151998790Y-139800219D01*
X152062882Y-139777793D01*
X152172150Y-139697150D01*
X152252793Y-139587882D01*
X152282453Y-139503118D01*
X152297646Y-139459701D01*
X152297646Y-139459699D01*
X152300500Y-139429269D01*
X152300500Y-138396153D01*
X154699500Y-138396153D01*
X154699500Y-139103846D01*
X154730261Y-139258489D01*
X154730264Y-139258501D01*
X154790602Y-139404172D01*
X154790609Y-139404185D01*
X154878210Y-139535288D01*
X154878213Y-139535292D01*
X154989707Y-139646786D01*
X154989711Y-139646789D01*
X155120814Y-139734390D01*
X155120827Y-139734397D01*
X155225596Y-139777793D01*
X155266503Y-139794737D01*
X155406810Y-139822646D01*
X155421153Y-139825499D01*
X155421156Y-139825500D01*
X155421158Y-139825500D01*
X155578844Y-139825500D01*
X155578845Y-139825499D01*
X155733497Y-139794737D01*
X155879179Y-139734394D01*
X156010289Y-139646789D01*
X156121789Y-139535289D01*
X156209394Y-139404179D01*
X156269737Y-139258497D01*
X156300500Y-139103842D01*
X156300500Y-138396158D01*
X156300500Y-138396155D01*
X156300499Y-138396153D01*
X156275353Y-138269737D01*
X156269737Y-138241503D01*
X156269735Y-138241498D01*
X156209397Y-138095827D01*
X156209390Y-138095814D01*
X156121789Y-137964711D01*
X156121786Y-137964707D01*
X156010292Y-137853213D01*
X156010288Y-137853210D01*
X155879185Y-137765609D01*
X155879172Y-137765602D01*
X155733501Y-137705264D01*
X155733489Y-137705261D01*
X155578845Y-137674500D01*
X155578842Y-137674500D01*
X155421158Y-137674500D01*
X155421155Y-137674500D01*
X155266510Y-137705261D01*
X155266498Y-137705264D01*
X155120827Y-137765602D01*
X155120814Y-137765609D01*
X154989711Y-137853210D01*
X154989707Y-137853213D01*
X154878213Y-137964707D01*
X154878210Y-137964711D01*
X154790609Y-138095814D01*
X154790602Y-138095827D01*
X154730264Y-138241498D01*
X154730261Y-138241510D01*
X154699500Y-138396153D01*
X152300500Y-138396153D01*
X152300500Y-138070730D01*
X152297646Y-138040300D01*
X152297646Y-138040298D01*
X152252793Y-137912119D01*
X152252792Y-137912117D01*
X152228483Y-137879179D01*
X152172150Y-137802850D01*
X152062882Y-137722207D01*
X152062880Y-137722206D01*
X151934700Y-137677353D01*
X151904270Y-137674500D01*
X151904266Y-137674500D01*
X151095734Y-137674500D01*
X151095730Y-137674500D01*
X151065300Y-137677353D01*
X151065298Y-137677353D01*
X150937119Y-137722206D01*
X150937117Y-137722207D01*
X150827850Y-137802850D01*
X150747207Y-137912117D01*
X150747206Y-137912119D01*
X150702353Y-138040298D01*
X150702353Y-138040300D01*
X150699500Y-138070730D01*
X147192629Y-138070730D01*
X147121789Y-137964711D01*
X147121786Y-137964707D01*
X147010292Y-137853213D01*
X147010288Y-137853210D01*
X146879185Y-137765609D01*
X146879172Y-137765602D01*
X146733501Y-137705264D01*
X146733489Y-137705261D01*
X146578845Y-137674500D01*
X146578842Y-137674500D01*
X146421158Y-137674500D01*
X146421155Y-137674500D01*
X146266510Y-137705261D01*
X146266498Y-137705264D01*
X146120827Y-137765602D01*
X146120814Y-137765609D01*
X145989711Y-137853210D01*
X145989707Y-137853213D01*
X145878213Y-137964707D01*
X145878210Y-137964711D01*
X145790609Y-138095814D01*
X145790602Y-138095827D01*
X145730264Y-138241498D01*
X145730261Y-138241510D01*
X145699500Y-138396153D01*
X143300500Y-138396153D01*
X143300500Y-138070730D01*
X143297646Y-138040300D01*
X143297646Y-138040298D01*
X143252793Y-137912119D01*
X143252792Y-137912117D01*
X143228483Y-137879179D01*
X143172150Y-137802850D01*
X143062882Y-137722207D01*
X143062880Y-137722206D01*
X142934700Y-137677353D01*
X142904270Y-137674500D01*
X142904266Y-137674500D01*
X142095734Y-137674500D01*
X142095730Y-137674500D01*
X142065300Y-137677353D01*
X142065298Y-137677353D01*
X141937119Y-137722206D01*
X141937117Y-137722207D01*
X141827850Y-137802850D01*
X141747207Y-137912117D01*
X141747206Y-137912119D01*
X141702353Y-138040298D01*
X141702353Y-138040300D01*
X141699500Y-138070730D01*
X138192629Y-138070730D01*
X138121789Y-137964711D01*
X138121786Y-137964707D01*
X138010292Y-137853213D01*
X138010288Y-137853210D01*
X137879185Y-137765609D01*
X137879172Y-137765602D01*
X137733501Y-137705264D01*
X137733489Y-137705261D01*
X137578845Y-137674500D01*
X137578842Y-137674500D01*
X137421158Y-137674500D01*
X137421155Y-137674500D01*
X137266510Y-137705261D01*
X137266498Y-137705264D01*
X137120827Y-137765602D01*
X137120814Y-137765609D01*
X136989711Y-137853210D01*
X136989707Y-137853213D01*
X136878213Y-137964707D01*
X136878210Y-137964711D01*
X136790609Y-138095814D01*
X136790602Y-138095827D01*
X136730264Y-138241498D01*
X136730261Y-138241510D01*
X136699500Y-138396153D01*
X134300500Y-138396153D01*
X134300500Y-138070730D01*
X134297646Y-138040300D01*
X134297646Y-138040298D01*
X134252793Y-137912119D01*
X134252792Y-137912117D01*
X134228483Y-137879179D01*
X134172150Y-137802850D01*
X134062882Y-137722207D01*
X134062880Y-137722206D01*
X133934700Y-137677353D01*
X133904270Y-137674500D01*
X133904266Y-137674500D01*
X133095734Y-137674500D01*
X133095730Y-137674500D01*
X133065300Y-137677353D01*
X133065298Y-137677353D01*
X132937119Y-137722206D01*
X132937117Y-137722207D01*
X132827850Y-137802850D01*
X132747207Y-137912117D01*
X132747206Y-137912119D01*
X132702353Y-138040298D01*
X132702353Y-138040300D01*
X132699500Y-138070730D01*
X131250000Y-138070730D01*
X131250000Y-132320730D01*
X132699500Y-132320730D01*
X132699500Y-133679269D01*
X132702353Y-133709699D01*
X132702353Y-133709701D01*
X132747206Y-133837880D01*
X132747207Y-133837882D01*
X132827850Y-133947150D01*
X132937118Y-134027793D01*
X132979845Y-134042744D01*
X133065299Y-134072646D01*
X133095730Y-134075500D01*
X133095734Y-134075500D01*
X133904270Y-134075500D01*
X133934699Y-134072646D01*
X133934701Y-134072646D01*
X133998790Y-134050219D01*
X134062882Y-134027793D01*
X134172150Y-133947150D01*
X134252793Y-133837882D01*
X134275219Y-133773790D01*
X134297646Y-133709701D01*
X134297646Y-133709699D01*
X134300500Y-133679269D01*
X134300500Y-132646153D01*
X136699500Y-132646153D01*
X136699500Y-133353846D01*
X136730261Y-133508489D01*
X136730264Y-133508501D01*
X136790602Y-133654172D01*
X136790609Y-133654185D01*
X136878210Y-133785288D01*
X136878213Y-133785292D01*
X136989707Y-133896786D01*
X136989711Y-133896789D01*
X137120814Y-133984390D01*
X137120827Y-133984397D01*
X137225596Y-134027793D01*
X137266503Y-134044737D01*
X137406810Y-134072646D01*
X137421153Y-134075499D01*
X137421156Y-134075500D01*
X137421158Y-134075500D01*
X137578844Y-134075500D01*
X137578845Y-134075499D01*
X137733497Y-134044737D01*
X137879179Y-133984394D01*
X138010289Y-133896789D01*
X138121789Y-133785289D01*
X138209394Y-133654179D01*
X138269737Y-133508497D01*
X138300500Y-133353842D01*
X138300500Y-132646158D01*
X138300500Y-132646155D01*
X138300499Y-132646153D01*
X138269738Y-132491510D01*
X138269737Y-132491503D01*
X138269735Y-132491498D01*
X138209397Y-132345827D01*
X138209390Y-132345814D01*
X138192629Y-132320730D01*
X141699500Y-132320730D01*
X141699500Y-133679269D01*
X141702353Y-133709699D01*
X141702353Y-133709701D01*
X141747206Y-133837880D01*
X141747207Y-133837882D01*
X141827850Y-133947150D01*
X141937118Y-134027793D01*
X141979845Y-134042744D01*
X142065299Y-134072646D01*
X142095730Y-134075500D01*
X142095734Y-134075500D01*
X142904270Y-134075500D01*
X142934699Y-134072646D01*
X142934701Y-134072646D01*
X142998790Y-134050219D01*
X143062882Y-134027793D01*
X143172150Y-133947150D01*
X143252793Y-133837882D01*
X143275219Y-133773790D01*
X143297646Y-133709701D01*
X143297646Y-133709699D01*
X143300500Y-133679269D01*
X143300500Y-132646153D01*
X145699500Y-132646153D01*
X145699500Y-133353846D01*
X145730261Y-133508489D01*
X145730264Y-133508501D01*
X145790602Y-133654172D01*
X145790609Y-133654185D01*
X145878210Y-133785288D01*
X145878213Y-133785292D01*
X145989707Y-133896786D01*
X145989711Y-133896789D01*
X146120814Y-133984390D01*
X146120827Y-133984397D01*
X146225596Y-134027793D01*
X146266503Y-134044737D01*
X146406810Y-134072646D01*
X146421153Y-134075499D01*
X146421156Y-134075500D01*
X146421158Y-134075500D01*
X146578844Y-134075500D01*
X146578845Y-134075499D01*
X146733497Y-134044737D01*
X146879179Y-133984394D01*
X147010289Y-133896789D01*
X147121789Y-133785289D01*
X147209394Y-133654179D01*
X147269737Y-133508497D01*
X147300500Y-133353842D01*
X147300500Y-132646158D01*
X147300500Y-132646155D01*
X147300499Y-132646153D01*
X147269738Y-132491510D01*
X147269737Y-132491503D01*
X147269735Y-132491498D01*
X147209397Y-132345827D01*
X147209390Y-132345814D01*
X147192629Y-132320730D01*
X150699500Y-132320730D01*
X150699500Y-133679269D01*
X150702353Y-133709699D01*
X150702353Y-133709701D01*
X150747206Y-133837880D01*
X150747207Y-133837882D01*
X150827850Y-133947150D01*
X150937118Y-134027793D01*
X150979845Y-134042744D01*
X151065299Y-134072646D01*
X151095730Y-134075500D01*
X151095734Y-134075500D01*
X151904270Y-134075500D01*
X151934699Y-134072646D01*
X151934701Y-134072646D01*
X151998790Y-134050219D01*
X152062882Y-134027793D01*
X152172150Y-133947150D01*
X152252793Y-133837882D01*
X152275219Y-133773790D01*
X152297646Y-133709701D01*
X152297646Y-133709699D01*
X152300500Y-133679269D01*
X152300500Y-132646153D01*
X154699500Y-132646153D01*
X154699500Y-133353846D01*
X154730261Y-133508489D01*
X154730264Y-133508501D01*
X154790602Y-133654172D01*
X154790609Y-133654185D01*
X154878210Y-133785288D01*
X154878213Y-133785292D01*
X154989707Y-133896786D01*
X154989711Y-133896789D01*
X155120814Y-133984390D01*
X155120827Y-133984397D01*
X155225596Y-134027793D01*
X155266503Y-134044737D01*
X155406810Y-134072646D01*
X155421153Y-134075499D01*
X155421156Y-134075500D01*
X155421158Y-134075500D01*
X155578844Y-134075500D01*
X155578845Y-134075499D01*
X155733497Y-134044737D01*
X155879179Y-133984394D01*
X156010289Y-133896789D01*
X156121789Y-133785289D01*
X156209394Y-133654179D01*
X156269737Y-133508497D01*
X156300500Y-133353842D01*
X156300500Y-133095730D01*
X160424500Y-133095730D01*
X160424500Y-133904269D01*
X160427353Y-133934699D01*
X160427353Y-133934701D01*
X160465858Y-134044738D01*
X160472207Y-134062882D01*
X160552850Y-134172150D01*
X160662118Y-134252793D01*
X160704845Y-134267744D01*
X160790299Y-134297646D01*
X160820730Y-134300500D01*
X160820734Y-134300500D01*
X162179270Y-134300500D01*
X162209699Y-134297646D01*
X162209701Y-134297646D01*
X162273790Y-134275219D01*
X162337882Y-134252793D01*
X162447150Y-134172150D01*
X162527793Y-134062882D01*
X162555257Y-133984394D01*
X162572646Y-133934701D01*
X162572646Y-133934699D01*
X162575500Y-133904269D01*
X162575500Y-133095730D01*
X162572646Y-133065300D01*
X162572646Y-133065298D01*
X162527793Y-132937119D01*
X162527792Y-132937117D01*
X162447150Y-132827850D01*
X162337882Y-132747207D01*
X162337880Y-132747206D01*
X162209700Y-132702353D01*
X162179270Y-132699500D01*
X162179266Y-132699500D01*
X160820734Y-132699500D01*
X160820730Y-132699500D01*
X160790300Y-132702353D01*
X160790298Y-132702353D01*
X160662119Y-132747206D01*
X160662117Y-132747207D01*
X160552850Y-132827850D01*
X160472207Y-132937117D01*
X160472206Y-132937119D01*
X160427353Y-133065298D01*
X160427353Y-133065300D01*
X160424500Y-133095730D01*
X156300500Y-133095730D01*
X156300500Y-132646158D01*
X156300500Y-132646155D01*
X156300499Y-132646153D01*
X156269738Y-132491510D01*
X156269737Y-132491503D01*
X156269735Y-132491498D01*
X156209397Y-132345827D01*
X156209390Y-132345814D01*
X156121789Y-132214711D01*
X156121786Y-132214707D01*
X156010292Y-132103213D01*
X156010288Y-132103210D01*
X155879185Y-132015609D01*
X155879172Y-132015602D01*
X155733501Y-131955264D01*
X155733489Y-131955261D01*
X155578845Y-131924500D01*
X155578842Y-131924500D01*
X155421158Y-131924500D01*
X155421155Y-131924500D01*
X155266510Y-131955261D01*
X155266498Y-131955264D01*
X155120827Y-132015602D01*
X155120814Y-132015609D01*
X154989711Y-132103210D01*
X154989707Y-132103213D01*
X154878213Y-132214707D01*
X154878210Y-132214711D01*
X154790609Y-132345814D01*
X154790602Y-132345827D01*
X154730264Y-132491498D01*
X154730261Y-132491510D01*
X154699500Y-132646153D01*
X152300500Y-132646153D01*
X152300500Y-132320730D01*
X152297646Y-132290300D01*
X152297646Y-132290298D01*
X152252793Y-132162119D01*
X152252792Y-132162117D01*
X152209319Y-132103213D01*
X152172150Y-132052850D01*
X152062882Y-131972207D01*
X152062880Y-131972206D01*
X151934700Y-131927353D01*
X151904270Y-131924500D01*
X151904266Y-131924500D01*
X151095734Y-131924500D01*
X151095730Y-131924500D01*
X151065300Y-131927353D01*
X151065298Y-131927353D01*
X150937119Y-131972206D01*
X150937117Y-131972207D01*
X150827850Y-132052850D01*
X150747207Y-132162117D01*
X150747206Y-132162119D01*
X150702353Y-132290298D01*
X150702353Y-132290300D01*
X150699500Y-132320730D01*
X147192629Y-132320730D01*
X147121789Y-132214711D01*
X147121786Y-132214707D01*
X147010292Y-132103213D01*
X147010288Y-132103210D01*
X146879185Y-132015609D01*
X146879172Y-132015602D01*
X146733501Y-131955264D01*
X146733489Y-131955261D01*
X146578845Y-131924500D01*
X146578842Y-131924500D01*
X146421158Y-131924500D01*
X146421155Y-131924500D01*
X146266510Y-131955261D01*
X146266498Y-131955264D01*
X146120827Y-132015602D01*
X146120814Y-132015609D01*
X145989711Y-132103210D01*
X145989707Y-132103213D01*
X145878213Y-132214707D01*
X145878210Y-132214711D01*
X145790609Y-132345814D01*
X145790602Y-132345827D01*
X145730264Y-132491498D01*
X145730261Y-132491510D01*
X145699500Y-132646153D01*
X143300500Y-132646153D01*
X143300500Y-132320730D01*
X143297646Y-132290300D01*
X143297646Y-132290298D01*
X143252793Y-132162119D01*
X143252792Y-132162117D01*
X143209319Y-132103213D01*
X143172150Y-132052850D01*
X143062882Y-131972207D01*
X143062880Y-131972206D01*
X142934700Y-131927353D01*
X142904270Y-131924500D01*
X142904266Y-131924500D01*
X142095734Y-131924500D01*
X142095730Y-131924500D01*
X142065300Y-131927353D01*
X142065298Y-131927353D01*
X141937119Y-131972206D01*
X141937117Y-131972207D01*
X141827850Y-132052850D01*
X141747207Y-132162117D01*
X141747206Y-132162119D01*
X141702353Y-132290298D01*
X141702353Y-132290300D01*
X141699500Y-132320730D01*
X138192629Y-132320730D01*
X138121789Y-132214711D01*
X138121786Y-132214707D01*
X138010292Y-132103213D01*
X138010288Y-132103210D01*
X137879185Y-132015609D01*
X137879172Y-132015602D01*
X137733501Y-131955264D01*
X137733489Y-131955261D01*
X137578845Y-131924500D01*
X137578842Y-131924500D01*
X137421158Y-131924500D01*
X137421155Y-131924500D01*
X137266510Y-131955261D01*
X137266498Y-131955264D01*
X137120827Y-132015602D01*
X137120814Y-132015609D01*
X136989711Y-132103210D01*
X136989707Y-132103213D01*
X136878213Y-132214707D01*
X136878210Y-132214711D01*
X136790609Y-132345814D01*
X136790602Y-132345827D01*
X136730264Y-132491498D01*
X136730261Y-132491510D01*
X136699500Y-132646153D01*
X134300500Y-132646153D01*
X134300500Y-132320730D01*
X134297646Y-132290300D01*
X134297646Y-132290298D01*
X134252793Y-132162119D01*
X134252792Y-132162117D01*
X134209319Y-132103213D01*
X134172150Y-132052850D01*
X134062882Y-131972207D01*
X134062880Y-131972206D01*
X133934700Y-131927353D01*
X133904270Y-131924500D01*
X133904266Y-131924500D01*
X133095734Y-131924500D01*
X133095730Y-131924500D01*
X133065300Y-131927353D01*
X133065298Y-131927353D01*
X132937119Y-131972206D01*
X132937117Y-131972207D01*
X132827850Y-132052850D01*
X132747207Y-132162117D01*
X132747206Y-132162119D01*
X132702353Y-132290298D01*
X132702353Y-132290300D01*
X132699500Y-132320730D01*
X131250000Y-132320730D01*
X131250000Y-131124000D01*
X131269685Y-131056961D01*
X131322489Y-131011206D01*
X131374000Y-131000000D01*
X163376000Y-131000000D01*
X163443039Y-131019685D01*
G37*
%TD.AperFunction*%
%TD*%
%TA.AperFunction,Conductor*%
%TO.N,/3.3V*%
G36*
X195984259Y-90469685D02*
G01*
X196030014Y-90522489D01*
X196039010Y-90550694D01*
X196266531Y-91739645D01*
X196285135Y-91836860D01*
X196285761Y-91840412D01*
X196502973Y-93186486D01*
X196503496Y-93190055D01*
X196681469Y-94541892D01*
X196681888Y-94545474D01*
X196820470Y-95901941D01*
X196820784Y-95905534D01*
X196919852Y-97265413D01*
X196920062Y-97269014D01*
X196979538Y-98631228D01*
X196979643Y-98634834D01*
X196999125Y-99974197D01*
X196980417Y-100041515D01*
X196928285Y-100088033D01*
X196875138Y-100100000D01*
X193524000Y-100100000D01*
X193456961Y-100080315D01*
X193411206Y-100027511D01*
X193400000Y-99976000D01*
X193400000Y-98350000D01*
X192536319Y-97486319D01*
X192502834Y-97424996D01*
X192500000Y-97398638D01*
X192500000Y-90574000D01*
X192519685Y-90506961D01*
X192572489Y-90461206D01*
X192624000Y-90450000D01*
X195917220Y-90450000D01*
X195984259Y-90469685D01*
G37*
%TD.AperFunction*%
%TD*%
%TA.AperFunction,Conductor*%
%TO.N,GND*%
G36*
X193137539Y-99319685D02*
G01*
X193183294Y-99372489D01*
X193194500Y-99424000D01*
X193194500Y-99976007D01*
X193199289Y-100020539D01*
X193200000Y-100033795D01*
X193200000Y-101694500D01*
X193029500Y-101694500D01*
X192962461Y-101674815D01*
X192916706Y-101622011D01*
X192905500Y-101570500D01*
X192905500Y-101024008D01*
X192905500Y-101024000D01*
X192900803Y-100980316D01*
X192900710Y-100979450D01*
X192900000Y-100966196D01*
X192900000Y-100023121D01*
X192901262Y-100005473D01*
X192905500Y-99975998D01*
X192905500Y-99424000D01*
X192925185Y-99356961D01*
X192977989Y-99311206D01*
X193029500Y-99300000D01*
X193070500Y-99300000D01*
X193137539Y-99319685D01*
G37*
%TD.AperFunction*%
%TD*%
%TA.AperFunction,Conductor*%
%TO.N,/5V*%
G36*
X189193039Y-87519685D02*
G01*
X189238794Y-87572489D01*
X189250000Y-87624000D01*
X189250000Y-92400000D01*
X185696753Y-92353246D01*
X187650000Y-90400000D01*
X187650000Y-87624000D01*
X187669685Y-87556961D01*
X187722489Y-87511206D01*
X187774000Y-87500000D01*
X189126000Y-87500000D01*
X189193039Y-87519685D01*
G37*
%TD.AperFunction*%
%TD*%
%TA.AperFunction,Conductor*%
%TO.N,/3.3V*%
G36*
X192643039Y-100919685D02*
G01*
X192688794Y-100972489D01*
X192700000Y-101024000D01*
X192700000Y-101900000D01*
X193500000Y-101900000D01*
X195176000Y-101900000D01*
X195243039Y-101919685D01*
X195288794Y-101972489D01*
X195300000Y-102024000D01*
X195300000Y-105126000D01*
X195280315Y-105193039D01*
X195227511Y-105238794D01*
X195176000Y-105250000D01*
X193424000Y-105250000D01*
X193356961Y-105230315D01*
X193311206Y-105177511D01*
X193300000Y-105126000D01*
X193300000Y-103550000D01*
X191941819Y-102191819D01*
X191908334Y-102130496D01*
X191905500Y-102104138D01*
X191905500Y-101024000D01*
X191925185Y-100956961D01*
X191977989Y-100911206D01*
X192029500Y-100900000D01*
X192576000Y-100900000D01*
X192643039Y-100919685D01*
G37*
%TD.AperFunction*%
%TD*%
%TA.AperFunction,Conductor*%
%TO.N,/5V*%
G36*
X191700000Y-100599998D02*
G01*
X191700000Y-102250000D01*
X193013681Y-103563681D01*
X193047166Y-103625004D01*
X193050000Y-103651362D01*
X193050000Y-105126000D01*
X193030315Y-105193039D01*
X192977511Y-105238794D01*
X192926000Y-105250000D01*
X190829500Y-105250000D01*
X190762461Y-105230315D01*
X190716706Y-105177511D01*
X190705500Y-105126000D01*
X190705500Y-100751361D01*
X190704321Y-100729383D01*
X190700837Y-100696982D01*
X190701419Y-100696919D01*
X190700000Y-100683118D01*
X190700000Y-100600000D01*
X190750000Y-100650000D01*
X191744998Y-100550500D01*
X191700000Y-100599998D01*
G37*
%TD.AperFunction*%
%TD*%
%TA.AperFunction,Conductor*%
%TO.N,/5V*%
G36*
X189250000Y-92400000D02*
G01*
X189250000Y-96200000D01*
X192163681Y-99113681D01*
X192197166Y-99175004D01*
X192200000Y-99201362D01*
X192200000Y-100048638D01*
X192180315Y-100115677D01*
X192163681Y-100136319D01*
X191768169Y-100531830D01*
X191750097Y-100544892D01*
X191744998Y-100550500D01*
X190750000Y-100650000D01*
X188200000Y-98100000D01*
X188095760Y-98100000D01*
X188078113Y-98098738D01*
X188063996Y-98096708D01*
X188048638Y-98094500D01*
X188048637Y-98094500D01*
X185579500Y-98094500D01*
X185512461Y-98074815D01*
X185466706Y-98022011D01*
X185455500Y-97970500D01*
X185455500Y-92636480D01*
X185475185Y-92569441D01*
X185491814Y-92548804D01*
X185663211Y-92377407D01*
X185691074Y-92358923D01*
X185696750Y-92353246D01*
X189250000Y-92400000D01*
G37*
%TD.AperFunction*%
%TD*%
M02*
