%TF.GenerationSoftware,KiCad,Pcbnew,8.0.5*%
%TF.CreationDate,2025-04-28T01:27:16-04:00*%
%TF.ProjectId,CanSat_Sensor_Board,43616e53-6174-45f5-9365-6e736f725f42,rev?*%
%TF.SameCoordinates,Original*%
%TF.FileFunction,Copper,L4,Bot*%
%TF.FilePolarity,Positive*%
%FSLAX46Y46*%
G04 Gerber Fmt 4.6, Leading zero omitted, Abs format (unit mm)*
G04 Created by KiCad (PCBNEW 8.0.5) date 2025-04-28 01:27:16*
%MOMM*%
%LPD*%
G01*
G04 APERTURE LIST*
G04 Aperture macros list*
%AMRoundRect*
0 Rectangle with rounded corners*
0 $1 Rounding radius*
0 $2 $3 $4 $5 $6 $7 $8 $9 X,Y pos of 4 corners*
0 Add a 4 corners polygon primitive as box body*
4,1,4,$2,$3,$4,$5,$6,$7,$8,$9,$2,$3,0*
0 Add four circle primitives for the rounded corners*
1,1,$1+$1,$2,$3*
1,1,$1+$1,$4,$5*
1,1,$1+$1,$6,$7*
1,1,$1+$1,$8,$9*
0 Add four rect primitives between the rounded corners*
20,1,$1+$1,$2,$3,$4,$5,0*
20,1,$1+$1,$4,$5,$6,$7,0*
20,1,$1+$1,$6,$7,$8,$9,0*
20,1,$1+$1,$8,$9,$2,$3,0*%
G04 Aperture macros list end*
%TA.AperFunction,ComponentPad*%
%ADD10C,1.600000*%
%TD*%
%TA.AperFunction,ComponentPad*%
%ADD11O,1.600000X1.600000*%
%TD*%
%TA.AperFunction,ComponentPad*%
%ADD12RoundRect,0.250000X-0.350000X-0.625000X0.350000X-0.625000X0.350000X0.625000X-0.350000X0.625000X0*%
%TD*%
%TA.AperFunction,ComponentPad*%
%ADD13O,1.200000X1.750000*%
%TD*%
%TA.AperFunction,ComponentPad*%
%ADD14RoundRect,0.250000X-0.625000X0.350000X-0.625000X-0.350000X0.625000X-0.350000X0.625000X0.350000X0*%
%TD*%
%TA.AperFunction,ComponentPad*%
%ADD15O,1.750000X1.200000*%
%TD*%
%TA.AperFunction,ComponentPad*%
%ADD16C,1.700000*%
%TD*%
%TA.AperFunction,ComponentPad*%
%ADD17C,0.910000*%
%TD*%
%TA.AperFunction,ComponentPad*%
%ADD18C,1.778000*%
%TD*%
%TA.AperFunction,WasherPad*%
%ADD19C,1.700000*%
%TD*%
%TA.AperFunction,ComponentPad*%
%ADD20RoundRect,0.250000X0.625000X-0.350000X0.625000X0.350000X-0.625000X0.350000X-0.625000X-0.350000X0*%
%TD*%
%TA.AperFunction,ComponentPad*%
%ADD21R,1.600000X1.600000*%
%TD*%
%TA.AperFunction,SMDPad,CuDef*%
%ADD22C,5.300000*%
%TD*%
%TA.AperFunction,ViaPad*%
%ADD23C,0.600000*%
%TD*%
%TA.AperFunction,Conductor*%
%ADD24C,0.200000*%
%TD*%
G04 APERTURE END LIST*
D10*
%TO.P,R2,1*%
%TO.N,/5V*%
X187000000Y-97000000D03*
D11*
%TO.P,R2,2*%
%TO.N,Net-(Adafruit_BME280_STEMMA_QT_U3-Pin_6)*%
X179380000Y-97000000D03*
%TD*%
D12*
%TO.P,J9,1,Pin_1*%
%TO.N,GND*%
X133500000Y-138750000D03*
D13*
%TO.P,J9,2,Pin_2*%
%TO.N,/7.4V*%
X135500000Y-138750000D03*
%TO.P,J9,3,Pin_3*%
%TO.N,Net-(ESP32-DEVKIT-32_U1-IO14)*%
X137500000Y-138750000D03*
%TD*%
D14*
%TO.P,J2,1,Pin_1*%
%TO.N,/7.4V*%
X134500000Y-61000000D03*
D15*
%TO.P,J2,2,Pin_2*%
%TO.N,Net-(ESP32-DEVKIT-32_U1-IO32)*%
X134500000Y-63000000D03*
%TO.P,J2,3,Pin_3*%
%TO.N,Net-(ESP32-DEVKIT-32_U1-IO33)*%
X134500000Y-65000000D03*
%TO.P,J2,4,Pin_4*%
%TO.N,Net-(ESP32-DEVKIT-32_U1-IO25)*%
X134500000Y-67000000D03*
%TO.P,J2,5,Pin_5*%
%TO.N,Net-(ESP32-DEVKIT-32_U1-IO26)*%
X134500000Y-69000000D03*
%TO.P,J2,6,Pin_6*%
%TO.N,GND*%
X134500000Y-71000000D03*
%TD*%
D16*
%TO.P,SparkFunXBeeExplorer_U2,JP5_1,GND*%
%TO.N,GND*%
X146900000Y-86500000D03*
%TO.P,SparkFunXBeeExplorer_U2,JP5_2,DTR*%
%TO.N,unconnected-(SparkFunXBeeExplorer_U2-DTR-PadJP5_2)*%
X146900000Y-83960000D03*
%TO.P,SparkFunXBeeExplorer_U2,JP5_3,RES1*%
%TO.N,unconnected-(SparkFunXBeeExplorer_U2-RES1-PadJP5_3)*%
X146900000Y-81420000D03*
%TO.P,SparkFunXBeeExplorer_U2,JP5_4,DIO11*%
%TO.N,unconnected-(SparkFunXBeeExplorer_U2-DIO11-PadJP5_4)*%
X146900000Y-78880000D03*
%TO.P,SparkFunXBeeExplorer_U2,JP5_5,RSSI*%
%TO.N,unconnected-(SparkFunXBeeExplorer_U2-RSSI-PadJP5_5)*%
X146900000Y-76340000D03*
%TO.P,SparkFunXBeeExplorer_U2,JP5_6,RESET*%
%TO.N,unconnected-(SparkFunXBeeExplorer_U2-RESET-PadJP5_6)*%
X146900000Y-73800000D03*
%TO.P,SparkFunXBeeExplorer_U2,JP5_7,DIO12*%
%TO.N,unconnected-(SparkFunXBeeExplorer_U2-DIO12-PadJP5_7)*%
X146900000Y-71260000D03*
%TO.P,SparkFunXBeeExplorer_U2,JP5_8,DIN*%
%TO.N,Net-(ESP32-DEVKIT-32_U1-IO17)*%
X146900000Y-68720000D03*
%TO.P,SparkFunXBeeExplorer_U2,JP5_9,DOUT*%
%TO.N,Net-(ESP32-DEVKIT-32_U1-IO16)*%
X146900000Y-66180000D03*
%TO.P,SparkFunXBeeExplorer_U2,JP5_10,3.3V*%
%TO.N,/3.3V*%
X146900000Y-63640000D03*
%TO.P,SparkFunXBeeExplorer_U2,JP5_11,GND*%
%TO.N,GND*%
X146900000Y-61100000D03*
%TO.P,SparkFunXBeeExplorer_U2,JP6_1,DIO0*%
%TO.N,unconnected-(SparkFunXBeeExplorer_U2-DIO0-PadJP6_1)*%
X159600000Y-61100000D03*
%TO.P,SparkFunXBeeExplorer_U2,JP6_2,DIO1*%
%TO.N,unconnected-(SparkFunXBeeExplorer_U2-DIO1-PadJP6_2)*%
X159600000Y-63640000D03*
%TO.P,SparkFunXBeeExplorer_U2,JP6_3,DIO2*%
%TO.N,unconnected-(SparkFunXBeeExplorer_U2-DIO2-PadJP6_3)*%
X159600000Y-66180000D03*
%TO.P,SparkFunXBeeExplorer_U2,JP6_4,DIO3*%
%TO.N,unconnected-(SparkFunXBeeExplorer_U2-DIO3-PadJP6_4)*%
X159600000Y-68720000D03*
%TO.P,SparkFunXBeeExplorer_U2,JP6_5,RTS*%
%TO.N,unconnected-(SparkFunXBeeExplorer_U2-RTS-PadJP6_5)*%
X159600000Y-71260000D03*
%TO.P,SparkFunXBeeExplorer_U2,JP6_6,DIO5*%
%TO.N,unconnected-(SparkFunXBeeExplorer_U2-DIO5-PadJP6_6)*%
X159600000Y-73800000D03*
%TO.P,SparkFunXBeeExplorer_U2,JP6_7,RES2*%
%TO.N,unconnected-(SparkFunXBeeExplorer_U2-RES2-PadJP6_7)*%
X159600000Y-76340000D03*
%TO.P,SparkFunXBeeExplorer_U2,JP6_8,DIO9*%
%TO.N,unconnected-(SparkFunXBeeExplorer_U2-DIO9-PadJP6_8)*%
X159600000Y-78880000D03*
%TO.P,SparkFunXBeeExplorer_U2,JP6_9,CTS*%
%TO.N,unconnected-(SparkFunXBeeExplorer_U2-CTS-PadJP6_9)*%
X159600000Y-81420000D03*
%TO.P,SparkFunXBeeExplorer_U2,JP6_10,DIO4*%
%TO.N,unconnected-(SparkFunXBeeExplorer_U2-DIO4-PadJP6_10)*%
X159600000Y-83960000D03*
%TO.P,SparkFunXBeeExplorer_U2,JP6_11,5V*%
%TO.N,unconnected-(SparkFunXBeeExplorer_U2-5V-PadJP6_11)*%
X159600000Y-86500000D03*
%TD*%
%TO.P,ESP32-DEVKIT-32_U1,J2-1,3V3*%
%TO.N,unconnected-(ESP32-DEVKIT-32_U1-3V3-PadJ2-1)*%
X114000000Y-76670000D03*
%TO.P,ESP32-DEVKIT-32_U1,J2-2,EN*%
%TO.N,unconnected-(ESP32-DEVKIT-32_U1-EN-PadJ2-2)*%
X114000000Y-79210000D03*
%TO.P,ESP32-DEVKIT-32_U1,J2-3,SENSOR_VP*%
%TO.N,unconnected-(ESP32-DEVKIT-32_U1-SENSOR_VP-PadJ2-3)*%
X114000000Y-81750000D03*
%TO.P,ESP32-DEVKIT-32_U1,J2-4,SENSOR_VN*%
%TO.N,/ADC*%
X114000000Y-84290000D03*
%TO.P,ESP32-DEVKIT-32_U1,J2-5,IO34*%
%TO.N,Net-(ESP32-DEVKIT-32_U1-IO34)*%
X114000000Y-86830000D03*
%TO.P,ESP32-DEVKIT-32_U1,J2-6,IO35*%
%TO.N,Net-(Adafruit_BNO085_U5-~{INT})*%
X114000000Y-89370000D03*
%TO.P,ESP32-DEVKIT-32_U1,J2-7,IO32*%
%TO.N,Net-(ESP32-DEVKIT-32_U1-IO32)*%
X114000000Y-91910000D03*
%TO.P,ESP32-DEVKIT-32_U1,J2-8,IO33*%
%TO.N,Net-(ESP32-DEVKIT-32_U1-IO33)*%
X114000000Y-94450000D03*
%TO.P,ESP32-DEVKIT-32_U1,J2-9,IO25*%
%TO.N,Net-(ESP32-DEVKIT-32_U1-IO25)*%
X114000000Y-96990000D03*
%TO.P,ESP32-DEVKIT-32_U1,J2-10,IO26*%
%TO.N,Net-(ESP32-DEVKIT-32_U1-IO26)*%
X114000000Y-99530000D03*
%TO.P,ESP32-DEVKIT-32_U1,J2-11,IO27*%
%TO.N,Net-(ESP32-DEVKIT-32_U1-IO27)*%
X114000000Y-102070000D03*
%TO.P,ESP32-DEVKIT-32_U1,J2-12,IO14*%
%TO.N,Net-(ESP32-DEVKIT-32_U1-IO14)*%
X114000000Y-104610000D03*
%TO.P,ESP32-DEVKIT-32_U1,J2-13,IO12*%
%TO.N,Net-(ESP32-DEVKIT-32_U1-IO12)*%
X114000000Y-107150000D03*
%TO.P,ESP32-DEVKIT-32_U1,J2-14,GND1*%
%TO.N,GND*%
X114000000Y-109690000D03*
%TO.P,ESP32-DEVKIT-32_U1,J2-15,IO13*%
%TO.N,Net-(ESP32-DEVKIT-32_U1-IO13)*%
X114000000Y-112230000D03*
%TO.P,ESP32-DEVKIT-32_U1,J2-16,SD2*%
%TO.N,unconnected-(ESP32-DEVKIT-32_U1-SD2-PadJ2-16)*%
X114000000Y-114770000D03*
%TO.P,ESP32-DEVKIT-32_U1,J2-17,SD3*%
%TO.N,unconnected-(ESP32-DEVKIT-32_U1-SD3-PadJ2-17)*%
X114000000Y-117310000D03*
%TO.P,ESP32-DEVKIT-32_U1,J2-18,CMD*%
%TO.N,unconnected-(ESP32-DEVKIT-32_U1-CMD-PadJ2-18)*%
X114000000Y-119850000D03*
%TO.P,ESP32-DEVKIT-32_U1,J2-19,EXT_5V*%
%TO.N,/7.4V*%
X114000000Y-122390000D03*
%TO.P,ESP32-DEVKIT-32_U1,J3-1,GND3*%
%TO.N,GND*%
X136000000Y-76670000D03*
%TO.P,ESP32-DEVKIT-32_U1,J3-2,IO23*%
%TO.N,Net-(Adafruit_BNO085_U5-DI)*%
X136000000Y-79210000D03*
%TO.P,ESP32-DEVKIT-32_U1,J3-3,IO22*%
%TO.N,Net-(Adafruit_BME280_STEMMA_QT_U3-Pin_4)*%
X136000000Y-81750000D03*
%TO.P,ESP32-DEVKIT-32_U1,J3-4,TXD0*%
%TO.N,Net-(ESP32-DEVKIT-32_U1-TXD0)*%
X136000000Y-84290000D03*
%TO.P,ESP32-DEVKIT-32_U1,J3-5,RXD0*%
%TO.N,Net-(ESP32-DEVKIT-32_U1-RXD0)*%
X136000000Y-86830000D03*
%TO.P,ESP32-DEVKIT-32_U1,J3-6,IO21*%
%TO.N,Net-(Adafruit_BME280_STEMMA_QT_U3-Pin_6)*%
X136000000Y-89370000D03*
%TO.P,ESP32-DEVKIT-32_U1,J3-7,GND2*%
%TO.N,GND*%
X136000000Y-91910000D03*
%TO.P,ESP32-DEVKIT-32_U1,J3-8,IO19*%
%TO.N,Net-(Adafruit_BNO085_U5-SDA)*%
X136000000Y-94450000D03*
%TO.P,ESP32-DEVKIT-32_U1,J3-9,IO18*%
%TO.N,Net-(Adafruit_BNO085_U5-SCL)*%
X136000000Y-96990000D03*
%TO.P,ESP32-DEVKIT-32_U1,J3-10,IO5*%
%TO.N,Net-(Adafruit_BNO085_U5-~{RST})*%
X136000000Y-99530000D03*
%TO.P,ESP32-DEVKIT-32_U1,J3-11,IO17*%
%TO.N,Net-(ESP32-DEVKIT-32_U1-IO17)*%
X136000000Y-102070000D03*
%TO.P,ESP32-DEVKIT-32_U1,J3-12,IO16*%
%TO.N,Net-(ESP32-DEVKIT-32_U1-IO16)*%
X136000000Y-104610000D03*
%TO.P,ESP32-DEVKIT-32_U1,J3-13,IO4*%
%TO.N,Net-(ESP32-DEVKIT-32_U1-IO4)*%
X136000000Y-107150000D03*
%TO.P,ESP32-DEVKIT-32_U1,J3-14,IO0*%
%TO.N,unconnected-(ESP32-DEVKIT-32_U1-IO0-PadJ3-14)*%
X136000000Y-109690000D03*
%TO.P,ESP32-DEVKIT-32_U1,J3-15,IO2*%
%TO.N,Net-(ESP32-DEVKIT-32_U1-IO2)*%
X136000000Y-112230000D03*
%TO.P,ESP32-DEVKIT-32_U1,J3-16,IO15*%
%TO.N,Net-(Adafruit_BNO085_U5-CS)*%
X136000000Y-114770000D03*
%TO.P,ESP32-DEVKIT-32_U1,J3-17,SD1*%
%TO.N,unconnected-(ESP32-DEVKIT-32_U1-SD1-PadJ3-17)*%
X136000000Y-117310000D03*
%TO.P,ESP32-DEVKIT-32_U1,J3-18,SD0*%
%TO.N,unconnected-(ESP32-DEVKIT-32_U1-SD0-PadJ3-18)*%
X136000000Y-119850000D03*
%TO.P,ESP32-DEVKIT-32_U1,J3-19,CLK*%
%TO.N,unconnected-(ESP32-DEVKIT-32_U1-CLK-PadJ3-19)*%
X136000000Y-122390000D03*
%TD*%
D17*
%TO.P,Y1,1*%
%TO.N,Net-(DS1307+_U6-X1)*%
X181135000Y-75000000D03*
%TO.P,Y1,2*%
%TO.N,Net-(DS1307+_U6-X2)*%
X179865000Y-75000000D03*
%TD*%
D16*
%TO.P,Adafruit_BME280_STEMMA_QT_U3,1,Pin_1*%
%TO.N,/3.3V*%
X145540000Y-126000000D03*
%TO.P,Adafruit_BME280_STEMMA_QT_U3,2,Pin_2*%
%TO.N,unconnected-(Adafruit_BME280_STEMMA_QT_U3-Pin_2-Pad2)*%
X148080000Y-126000000D03*
%TO.P,Adafruit_BME280_STEMMA_QT_U3,3,Pin_3*%
%TO.N,GND*%
X150620000Y-126000000D03*
%TO.P,Adafruit_BME280_STEMMA_QT_U3,4,Pin_4*%
%TO.N,Net-(Adafruit_BME280_STEMMA_QT_U3-Pin_4)*%
X153160000Y-126000000D03*
%TO.P,Adafruit_BME280_STEMMA_QT_U3,5,Pin_5*%
%TO.N,unconnected-(Adafruit_BME280_STEMMA_QT_U3-Pin_5-Pad5)*%
X155700000Y-126000000D03*
%TO.P,Adafruit_BME280_STEMMA_QT_U3,6,Pin_6*%
%TO.N,Net-(Adafruit_BME280_STEMMA_QT_U3-Pin_6)*%
X158240000Y-126000000D03*
%TO.P,Adafruit_BME280_STEMMA_QT_U3,7,Pin_7*%
%TO.N,unconnected-(Adafruit_BME280_STEMMA_QT_U3-Pin_7-Pad7)*%
X160780000Y-126000000D03*
%TD*%
D12*
%TO.P,J8,1,Pin_1*%
%TO.N,GND*%
X133500000Y-133000000D03*
D13*
%TO.P,J8,2,Pin_2*%
%TO.N,/7.4V*%
X135500000Y-133000000D03*
%TO.P,J8,3,Pin_3*%
%TO.N,Net-(ESP32-DEVKIT-32_U1-IO27)*%
X137500000Y-133000000D03*
%TD*%
D12*
%TO.P,J4,1,Pin_1*%
%TO.N,GND*%
X169500000Y-93950000D03*
D13*
%TO.P,J4,2,Pin_2*%
%TO.N,Net-(ESP32-DEVKIT-32_U1-RXD0)*%
X171500000Y-93950000D03*
%TO.P,J4,3,Pin_3*%
%TO.N,Net-(ESP32-DEVKIT-32_U1-TXD0)*%
X173500000Y-93950000D03*
%TO.P,J4,4,Pin_4*%
%TO.N,/3.3V*%
X175500000Y-93950000D03*
%TD*%
D12*
%TO.P,J11,1,Pin_1*%
%TO.N,GND*%
X151500000Y-138750000D03*
D13*
%TO.P,J11,2,Pin_2*%
%TO.N,/7.4V*%
X153500000Y-138750000D03*
%TO.P,J11,3,Pin_3*%
%TO.N,Net-(ESP32-DEVKIT-32_U1-IO13)*%
X155500000Y-138750000D03*
%TD*%
D18*
%TO.P,Adafruit_BNO085_U5,JP1_1,VIN*%
%TO.N,/3.3V*%
X169110000Y-107150000D03*
%TO.P,Adafruit_BNO085_U5,JP1_2,3VO*%
%TO.N,unconnected-(Adafruit_BNO085_U5-3VO-PadJP1_2)*%
X169110000Y-109690000D03*
%TO.P,Adafruit_BNO085_U5,JP1_3,GND*%
%TO.N,GND*%
X169110000Y-112230000D03*
%TO.P,Adafruit_BNO085_U5,JP1_4,SCL*%
%TO.N,Net-(Adafruit_BNO085_U5-SCL)*%
X169110000Y-114770000D03*
%TO.P,Adafruit_BNO085_U5,JP1_5,SDA*%
%TO.N,Net-(Adafruit_BNO085_U5-SDA)*%
X169110000Y-117310000D03*
%TO.P,Adafruit_BNO085_U5,JP1_6,~{INT}*%
%TO.N,Net-(Adafruit_BNO085_U5-~{INT})*%
X169110000Y-119850000D03*
%TO.P,Adafruit_BNO085_U5,JP2_1,BT*%
%TO.N,unconnected-(Adafruit_BNO085_U5-BT-PadJP2_1)*%
X186890000Y-107150000D03*
%TO.P,Adafruit_BNO085_U5,JP2_2,P0*%
%TO.N,unconnected-(Adafruit_BNO085_U5-P0-PadJP2_2)*%
X186890000Y-109690000D03*
%TO.P,Adafruit_BNO085_U5,JP2_3,P1*%
%TO.N,unconnected-(Adafruit_BNO085_U5-P1-PadJP2_3)*%
X186890000Y-112230000D03*
%TO.P,Adafruit_BNO085_U5,JP2_4,~{RST}*%
%TO.N,Net-(Adafruit_BNO085_U5-~{RST})*%
X186890000Y-114770000D03*
%TO.P,Adafruit_BNO085_U5,JP2_5,DI*%
%TO.N,Net-(Adafruit_BNO085_U5-DI)*%
X186890000Y-117310000D03*
%TO.P,Adafruit_BNO085_U5,JP2_6,CS*%
%TO.N,Net-(Adafruit_BNO085_U5-CS)*%
X186890000Y-119850000D03*
%TD*%
D10*
%TO.P,R3,1*%
%TO.N,/5V*%
X187000000Y-93500000D03*
D11*
%TO.P,R3,2*%
%TO.N,Net-(Adafruit_BME280_STEMMA_QT_U3-Pin_4)*%
X179380000Y-93500000D03*
%TD*%
D19*
%TO.P,Adafruit_LIS3MDL_U4,*%
%TO.N,*%
X149350000Y-94300000D03*
X151890000Y-94300000D03*
X154430000Y-94300000D03*
X156970000Y-94300000D03*
D16*
%TO.P,Adafruit_LIS3MDL_U4,1,Pin_1*%
%TO.N,/3.3V*%
X146810000Y-107000000D03*
%TO.P,Adafruit_LIS3MDL_U4,2,Pin_2*%
%TO.N,unconnected-(Adafruit_LIS3MDL_U4-Pin_2-Pad2)*%
X149350000Y-107000000D03*
%TO.P,Adafruit_LIS3MDL_U4,3,Pin_3*%
%TO.N,GND*%
X151890000Y-107000000D03*
%TO.P,Adafruit_LIS3MDL_U4,4,Pin_4*%
%TO.N,Net-(Adafruit_BME280_STEMMA_QT_U3-Pin_4)*%
X154430000Y-107000000D03*
%TO.P,Adafruit_LIS3MDL_U4,5,Pin_5*%
%TO.N,Net-(Adafruit_BME280_STEMMA_QT_U3-Pin_6)*%
X156970000Y-107000000D03*
%TO.P,Adafruit_LIS3MDL_U4,6,Pin_6*%
%TO.N,unconnected-(Adafruit_LIS3MDL_U4-Pin_6-Pad6)*%
X159510000Y-107000000D03*
%TD*%
D12*
%TO.P,J10,1,Pin_1*%
%TO.N,GND*%
X142500000Y-138750000D03*
D13*
%TO.P,J10,2,Pin_2*%
%TO.N,/7.4V*%
X144500000Y-138750000D03*
%TO.P,J10,3,Pin_3*%
%TO.N,Net-(ESP32-DEVKIT-32_U1-IO12)*%
X146500000Y-138750000D03*
%TD*%
D20*
%TO.P,J3,1,Pin_1*%
%TO.N,Net-(ESP32-DEVKIT-32_U1-IO34)*%
X167950000Y-138500000D03*
D15*
%TO.P,J3,2,Pin_2*%
%TO.N,GND*%
X167950000Y-136500000D03*
%TO.P,J3,3,Pin_3*%
%TO.N,/3.3V*%
X167950000Y-134500000D03*
%TD*%
D12*
%TO.P,J6,1,Pin_1*%
%TO.N,GND*%
X142500000Y-133000000D03*
D13*
%TO.P,J6,2,Pin_2*%
%TO.N,/7.4V*%
X144500000Y-133000000D03*
%TO.P,J6,3,Pin_3*%
%TO.N,Net-(ESP32-DEVKIT-32_U1-IO2)*%
X146500000Y-133000000D03*
%TD*%
D12*
%TO.P,J5,1,Pin_1*%
%TO.N,Net-(J5-Pin_1)*%
X176750000Y-129250000D03*
D13*
%TO.P,J5,2,Pin_2*%
%TO.N,GND*%
X178750000Y-129250000D03*
%TD*%
D14*
%TO.P,J1,1,Pin_1*%
%TO.N,/3.3V*%
X161500000Y-133500000D03*
D15*
%TO.P,J1,2,Pin_2*%
%TO.N,/7.4V*%
X161500000Y-135500000D03*
%TO.P,J1,3,Pin_3*%
%TO.N,/ADC*%
X161500000Y-137500000D03*
%TO.P,J1,4,Pin_4*%
%TO.N,GND*%
X161500000Y-139500000D03*
%TD*%
D21*
%TO.P,DS1307+_U6,1,X1*%
%TO.N,Net-(DS1307+_U6-X1)*%
X169700000Y-66200000D03*
D11*
%TO.P,DS1307+_U6,2,X2*%
%TO.N,Net-(DS1307+_U6-X2)*%
X169700000Y-68740000D03*
%TO.P,DS1307+_U6,3,VBAT*%
%TO.N,Net-(DS1307+_U6-VBAT)*%
X169700000Y-71280000D03*
%TO.P,DS1307+_U6,4,GND*%
%TO.N,GND*%
X169700000Y-73820000D03*
%TO.P,DS1307+_U6,5,SDA*%
%TO.N,Net-(Adafruit_BME280_STEMMA_QT_U3-Pin_6)*%
X177320000Y-73820000D03*
%TO.P,DS1307+_U6,6,SCL*%
%TO.N,Net-(Adafruit_BME280_STEMMA_QT_U3-Pin_4)*%
X177320000Y-71280000D03*
%TO.P,DS1307+_U6,7,SQW/OUT*%
%TO.N,unconnected-(DS1307+_U6-SQW{slash}OUT-Pad7)*%
X177320000Y-68740000D03*
%TO.P,DS1307+_U6,8,VCC*%
%TO.N,/5V*%
X177320000Y-66200000D03*
%TD*%
D12*
%TO.P,J7,1,Pin_1*%
%TO.N,GND*%
X151500000Y-133000000D03*
D13*
%TO.P,J7,2,Pin_2*%
%TO.N,/7.4V*%
X153500000Y-133000000D03*
%TO.P,J7,3,Pin_3*%
%TO.N,Net-(ESP32-DEVKIT-32_U1-IO4)*%
X155500000Y-133000000D03*
%TD*%
D22*
%TO.P,REF\u002A\u002A,1*%
%TO.N,N/C*%
X108500000Y-85000000D03*
%TD*%
%TO.P,REF\u002A\u002A,1*%
%TO.N,N/C*%
X191500000Y-85000000D03*
%TD*%
%TO.P,REF\u002A\u002A,1*%
%TO.N,N/C*%
X108500000Y-115000000D03*
%TD*%
%TO.P,REF\u002A\u002A,1*%
%TO.N,N/C*%
X191500000Y-115000000D03*
%TD*%
D23*
%TO.N,Net-(Adafruit_BNO085_U5-~{INT})*%
X165400000Y-128000000D03*
%TO.N,/3.3V*%
X195250000Y-91000000D03*
X196000000Y-91750000D03*
X195250000Y-98500000D03*
X194150000Y-102250000D03*
X196000000Y-93250000D03*
X194500000Y-96250000D03*
X196000000Y-94750000D03*
X192650000Y-102250000D03*
X195250000Y-97000000D03*
X195250000Y-95500000D03*
X193400000Y-103000000D03*
X196000000Y-97750000D03*
X194900000Y-103000000D03*
X196000000Y-96250000D03*
X194500000Y-99250000D03*
X193750000Y-95500000D03*
X195250000Y-92500000D03*
X194500000Y-97750000D03*
X196000000Y-99250000D03*
X195250000Y-94000000D03*
X193750000Y-97000000D03*
X193000000Y-96250000D03*
%TO.N,GND*%
X189250000Y-109750000D03*
X184000000Y-95750000D03*
X184000000Y-96500000D03*
X188750000Y-100500000D03*
X189250000Y-106750000D03*
X192000000Y-108250000D03*
X185500000Y-90500000D03*
X184750000Y-92750000D03*
X195750000Y-109000000D03*
X193500000Y-108250000D03*
X194250000Y-109000000D03*
X189250000Y-101000000D03*
X189250000Y-107500000D03*
X189250000Y-108250000D03*
X194250000Y-110500000D03*
X193500000Y-111250000D03*
X190000000Y-104500000D03*
X184750000Y-94250000D03*
X191250000Y-112000000D03*
X185000000Y-91000000D03*
X189250000Y-110500000D03*
X187000000Y-99500000D03*
X189250000Y-112000000D03*
X184000000Y-99500000D03*
X193500000Y-109750000D03*
X190000000Y-109750000D03*
X192750000Y-107500000D03*
X191250000Y-110500000D03*
X190000000Y-101500000D03*
X185000000Y-92000000D03*
X194250000Y-112000000D03*
X194250000Y-107500000D03*
X192000000Y-111250000D03*
X192000000Y-109750000D03*
X187750000Y-98750000D03*
X186250000Y-98750000D03*
X189000000Y-99750000D03*
X185500000Y-91500000D03*
X190000000Y-106000000D03*
X184750000Y-96500000D03*
X187750000Y-99500000D03*
X184000000Y-98750000D03*
X184000000Y-92750000D03*
X186500000Y-90500000D03*
X187000000Y-90000000D03*
X184750000Y-99500000D03*
X190000000Y-109000000D03*
X186000000Y-90000000D03*
X192750000Y-109000000D03*
X184000000Y-94250000D03*
X184000000Y-97250000D03*
X186500000Y-89500000D03*
X187000000Y-88000000D03*
X195750000Y-106000000D03*
X192750000Y-110500000D03*
X190100000Y-103750000D03*
X184000000Y-98000000D03*
X184750000Y-98000000D03*
X184750000Y-95000000D03*
X189500000Y-100250000D03*
X184750000Y-97250000D03*
X184750000Y-93500000D03*
X190000000Y-112000000D03*
X190000000Y-108250000D03*
X189250000Y-109000000D03*
X195000000Y-109750000D03*
X184000000Y-92000000D03*
X187000000Y-89000000D03*
X190000000Y-111250000D03*
X184750000Y-98750000D03*
X190100000Y-103000000D03*
X184000000Y-93500000D03*
X189250000Y-106000000D03*
X190000000Y-100750000D03*
X190000000Y-106750000D03*
X186000000Y-91000000D03*
X184000000Y-95000000D03*
X186500000Y-88500000D03*
X195750000Y-107500000D03*
X191250000Y-107500000D03*
X195000000Y-108250000D03*
X192750000Y-112000000D03*
X190000000Y-102250000D03*
X188250000Y-100000000D03*
X190000000Y-107500000D03*
X195000000Y-111250000D03*
X184750000Y-95750000D03*
X190000000Y-110500000D03*
X187000000Y-98750000D03*
X185500000Y-99500000D03*
X188500000Y-99250000D03*
X186250000Y-99500000D03*
X185500000Y-98750000D03*
X189250000Y-111250000D03*
X191250000Y-109000000D03*
X184500000Y-91500000D03*
X190000000Y-105250000D03*
%TD*%
D24*
%TO.N,Net-(DS1307+_U6-X2)*%
X174040000Y-64400000D02*
X169700000Y-68740000D01*
X179865000Y-75000000D02*
X179865000Y-66430686D01*
X177834314Y-64400000D02*
X174040000Y-64400000D01*
X179865000Y-66430686D02*
X177834314Y-64400000D01*
%TO.N,Net-(DS1307+_U6-X1)*%
X181135000Y-75000000D02*
X181135000Y-74135000D01*
X171674314Y-66200000D02*
X169700000Y-66200000D01*
X180265000Y-73265000D02*
X180265000Y-66265000D01*
X181135000Y-74135000D02*
X180265000Y-73265000D01*
X173874314Y-64000000D02*
X171674314Y-66200000D01*
X180265000Y-66265000D02*
X178000000Y-64000000D01*
X178000000Y-64000000D02*
X173874314Y-64000000D01*
%TO.N,Net-(Adafruit_BME280_STEMMA_QT_U3-Pin_4)*%
X172615686Y-92500000D02*
X170215686Y-90100000D01*
X138400000Y-84150000D02*
X136000000Y-81750000D01*
X175814314Y-100000000D02*
X161430000Y-100000000D01*
X179380000Y-80380000D02*
X176100000Y-77100000D01*
X154430000Y-124730000D02*
X153160000Y-126000000D01*
X179380000Y-93500000D02*
X178000000Y-94880000D01*
X140401372Y-90100000D02*
X138400000Y-88098628D01*
X161430000Y-100000000D02*
X154430000Y-107000000D01*
X178000000Y-94880000D02*
X178000000Y-97814314D01*
X178380000Y-92500000D02*
X172615686Y-92500000D01*
X154430000Y-107000000D02*
X154430000Y-124730000D01*
X170215686Y-90100000D02*
X140401372Y-90100000D01*
X176100000Y-72500000D02*
X177320000Y-71280000D01*
X176100000Y-77100000D02*
X176100000Y-72500000D01*
X179380000Y-93500000D02*
X179380000Y-80380000D01*
X179380000Y-93500000D02*
X178380000Y-92500000D01*
X178000000Y-97814314D02*
X175814314Y-100000000D01*
X138400000Y-88098628D02*
X138400000Y-84150000D01*
%TO.N,Net-(Adafruit_BME280_STEMMA_QT_U3-Pin_6)*%
X156970000Y-124730000D02*
X158240000Y-126000000D01*
X175980000Y-100400000D02*
X161595686Y-100400000D01*
X156970000Y-107000000D02*
X156970000Y-124730000D01*
X156970000Y-105025686D02*
X156970000Y-107000000D01*
X179780000Y-80214314D02*
X179780000Y-90780000D01*
X179380000Y-97000000D02*
X175980000Y-100400000D01*
X176500000Y-74640000D02*
X176500000Y-76934314D01*
X178000000Y-74000000D02*
X177820000Y-73820000D01*
X177320000Y-73820000D02*
X176500000Y-74640000D01*
X176500000Y-76934314D02*
X179780000Y-80214314D01*
X179780000Y-90780000D02*
X181000000Y-92000000D01*
X181000000Y-92000000D02*
X181000000Y-95380000D01*
X181000000Y-95380000D02*
X179380000Y-97000000D01*
X161595686Y-100400000D02*
X156970000Y-105025686D01*
%TO.N,Net-(Adafruit_BNO085_U5-~{RST})*%
X136000000Y-99530000D02*
X138800000Y-102330000D01*
X174910000Y-126750000D02*
X186890000Y-114770000D01*
X164315686Y-126750000D02*
X174910000Y-126750000D01*
X146174264Y-129825736D02*
X161239950Y-129825736D01*
X138800000Y-102330000D02*
X138800000Y-122451472D01*
X161239950Y-129825736D02*
X164315686Y-126750000D01*
X138800000Y-122451472D02*
X146174264Y-129825736D01*
%TO.N,Net-(Adafruit_BNO085_U5-~{INT})*%
X112500000Y-123000000D02*
X112500000Y-90870000D01*
X162450000Y-141050000D02*
X130550000Y-141050000D01*
X112500000Y-90870000D02*
X114000000Y-89370000D01*
X165400000Y-138100000D02*
X162450000Y-141050000D01*
X165400000Y-128000000D02*
X165400000Y-138100000D01*
X130550000Y-141050000D02*
X112500000Y-123000000D01*
%TO.N,Net-(Adafruit_BNO085_U5-SCL)*%
X161074264Y-129425736D02*
X146339950Y-129425736D01*
X165000000Y-118880000D02*
X165000000Y-125500000D01*
X139200000Y-100190000D02*
X136000000Y-96990000D01*
X169110000Y-114770000D02*
X165000000Y-118880000D01*
X139200000Y-122285786D02*
X139200000Y-100190000D01*
X146339950Y-129425736D02*
X139200000Y-122285786D01*
X165000000Y-125500000D02*
X161074264Y-129425736D01*
%TO.N,Net-(ESP32-DEVKIT-32_U1-IO27)*%
X136000000Y-134500000D02*
X126262744Y-134500000D01*
X137500000Y-133000000D02*
X137500000Y-132802942D01*
X126262744Y-134500000D02*
X116700000Y-124937256D01*
X137500000Y-133000000D02*
X136000000Y-134500000D01*
X116700000Y-104770000D02*
X114000000Y-102070000D01*
X116700000Y-124937256D02*
X116700000Y-104770000D01*
%TO.N,Net-(ESP32-DEVKIT-32_U1-IO4)*%
X138400000Y-122617158D02*
X145782843Y-130000000D01*
X138400000Y-109550000D02*
X138400000Y-122617158D01*
X136000000Y-107150000D02*
X138400000Y-109550000D01*
X146008578Y-130225736D02*
X152725736Y-130225736D01*
X152725736Y-130225736D02*
X155500000Y-133000000D01*
X145782843Y-130000000D02*
X146008578Y-130225736D01*
%TO.N,Net-(ESP32-DEVKIT-32_U1-IO16)*%
X140614314Y-68320000D02*
X133500000Y-75434314D01*
X133500000Y-102110000D02*
X136000000Y-104610000D01*
X146820000Y-66180000D02*
X144680000Y-68320000D01*
X133500000Y-75434314D02*
X133500000Y-102110000D01*
X146900000Y-66180000D02*
X146820000Y-66180000D01*
X144680000Y-68320000D02*
X140614314Y-68320000D01*
%TO.N,Net-(ESP32-DEVKIT-32_U1-IO32)*%
X131900000Y-79932942D02*
X119922942Y-91910000D01*
X134500000Y-63000000D02*
X131900000Y-65600000D01*
X119922942Y-91910000D02*
X114000000Y-91910000D01*
X131900000Y-65600000D02*
X131900000Y-79932942D01*
%TO.N,Net-(ESP32-DEVKIT-32_U1-IO2)*%
X138000000Y-122782843D02*
X138000000Y-114230000D01*
X146500000Y-131282843D02*
X138000000Y-122782843D01*
X138000000Y-114230000D02*
X136000000Y-112230000D01*
X146500000Y-133000000D02*
X146500000Y-131282843D01*
%TO.N,Net-(ESP32-DEVKIT-32_U1-IO33)*%
X117948628Y-94450000D02*
X114000000Y-94450000D01*
X132300000Y-80098628D02*
X117948628Y-94450000D01*
X134500000Y-65000000D02*
X132300000Y-67200000D01*
X132300000Y-67200000D02*
X132300000Y-80098628D01*
%TO.N,Net-(ESP32-DEVKIT-32_U1-TXD0)*%
X140235686Y-90500000D02*
X138000000Y-88264314D01*
X170050000Y-90500000D02*
X140235686Y-90500000D01*
X173500000Y-93950000D02*
X170050000Y-90500000D01*
X138000000Y-86290000D02*
X136000000Y-84290000D01*
X138000000Y-88264314D02*
X138000000Y-86290000D01*
%TO.N,Net-(ESP32-DEVKIT-32_U1-IO13)*%
X115500000Y-125434314D02*
X130715686Y-140650000D01*
X130715686Y-140650000D02*
X153600000Y-140650000D01*
X153600000Y-140650000D02*
X155500000Y-138750000D01*
X115500000Y-113730000D02*
X115500000Y-125434314D01*
X114000000Y-112230000D02*
X115500000Y-113730000D01*
%TO.N,Net-(ESP32-DEVKIT-32_U1-IO26)*%
X133100000Y-70400000D02*
X133100000Y-79900000D01*
X114000000Y-99530000D02*
X133100000Y-80430000D01*
X133100000Y-80430000D02*
X133100000Y-79900000D01*
X134500000Y-69000000D02*
X133100000Y-70400000D01*
%TO.N,Net-(ESP32-DEVKIT-32_U1-IO34)*%
X162615686Y-141450000D02*
X130384314Y-141450000D01*
X165565686Y-138500000D02*
X162615686Y-141450000D01*
X112100000Y-88730000D02*
X114000000Y-86830000D01*
X130384314Y-141450000D02*
X112100000Y-123165686D01*
X112100000Y-123165686D02*
X112100000Y-88730000D01*
X167950000Y-138500000D02*
X165565686Y-138500000D01*
%TO.N,Net-(ESP32-DEVKIT-32_U1-RXD0)*%
X136000000Y-86830000D02*
X140070000Y-90900000D01*
X140070000Y-90900000D02*
X140500000Y-90900000D01*
X171500000Y-93950000D02*
X171500000Y-92515686D01*
X171500000Y-92515686D02*
X169884314Y-90900000D01*
X169884314Y-90900000D02*
X140500000Y-90900000D01*
%TO.N,Net-(ESP32-DEVKIT-32_U1-IO17)*%
X136000000Y-102070000D02*
X133930000Y-100000000D01*
X133930000Y-100000000D02*
X133900000Y-100000000D01*
X133900000Y-100000000D02*
X133900000Y-75600000D01*
X140780000Y-68720000D02*
X140500000Y-69000000D01*
X133900000Y-75600000D02*
X140500000Y-69000000D01*
X146900000Y-68720000D02*
X140780000Y-68720000D01*
%TO.N,Net-(ESP32-DEVKIT-32_U1-IO14)*%
X116300000Y-125102942D02*
X116300000Y-106910000D01*
X133650000Y-134900000D02*
X126097058Y-134900000D01*
X137500000Y-138750000D02*
X133650000Y-134900000D01*
X126097058Y-134900000D02*
X116300000Y-125102942D01*
X116300000Y-106910000D02*
X114000000Y-104610000D01*
%TO.N,Net-(ESP32-DEVKIT-32_U1-IO12)*%
X115900000Y-109050000D02*
X114000000Y-107150000D01*
X145000000Y-140250000D02*
X130881372Y-140250000D01*
X115900000Y-125268628D02*
X115900000Y-109050000D01*
X146500000Y-138750000D02*
X145000000Y-140250000D01*
X130881372Y-140250000D02*
X115900000Y-125268628D01*
%TO.N,Net-(ESP32-DEVKIT-32_U1-IO25)*%
X115974314Y-96990000D02*
X114000000Y-96990000D01*
X134500000Y-67000000D02*
X132700000Y-68800000D01*
X132700000Y-80264314D02*
X115974314Y-96990000D01*
X132700000Y-68800000D02*
X132700000Y-80264314D01*
%TD*%
M02*
