%TF.GenerationSoftware,KiCad,Pcbnew,8.0.5*%
%TF.CreationDate,2025-05-01T20:42:10-04:00*%
%TF.ProjectId,CanSat_Sensor_Board,43616e53-6174-45f5-9365-6e736f725f42,rev?*%
%TF.SameCoordinates,Original*%
%TF.FileFunction,Soldermask,Top*%
%TF.FilePolarity,Negative*%
%FSLAX46Y46*%
G04 Gerber Fmt 4.6, Leading zero omitted, Abs format (unit mm)*
G04 Created by KiCad (PCBNEW 8.0.5) date 2025-05-01 20:42:10*
%MOMM*%
%LPD*%
G01*
G04 APERTURE LIST*
G04 Aperture macros list*
%AMRoundRect*
0 Rectangle with rounded corners*
0 $1 Rounding radius*
0 $2 $3 $4 $5 $6 $7 $8 $9 X,Y pos of 4 corners*
0 Add a 4 corners polygon primitive as box body*
4,1,4,$2,$3,$4,$5,$6,$7,$8,$9,$2,$3,0*
0 Add four circle primitives for the rounded corners*
1,1,$1+$1,$2,$3*
1,1,$1+$1,$4,$5*
1,1,$1+$1,$6,$7*
1,1,$1+$1,$8,$9*
0 Add four rect primitives between the rounded corners*
20,1,$1+$1,$2,$3,$4,$5,0*
20,1,$1+$1,$4,$5,$6,$7,0*
20,1,$1+$1,$6,$7,$8,$9,0*
20,1,$1+$1,$8,$9,$2,$3,0*%
G04 Aperture macros list end*
%ADD10C,1.600000*%
%ADD11O,1.600000X1.600000*%
%ADD12RoundRect,0.250000X-0.350000X-0.625000X0.350000X-0.625000X0.350000X0.625000X-0.350000X0.625000X0*%
%ADD13O,1.200000X1.750000*%
%ADD14RoundRect,0.250000X-0.475000X0.337500X-0.475000X-0.337500X0.475000X-0.337500X0.475000X0.337500X0*%
%ADD15RoundRect,0.250000X-0.625000X0.350000X-0.625000X-0.350000X0.625000X-0.350000X0.625000X0.350000X0*%
%ADD16O,1.750000X1.200000*%
%ADD17RoundRect,0.250000X0.475000X-0.337500X0.475000X0.337500X-0.475000X0.337500X-0.475000X-0.337500X0*%
%ADD18C,5.300000*%
%ADD19C,1.700000*%
%ADD20C,1.114000*%
%ADD21RoundRect,0.250000X0.337500X0.475000X-0.337500X0.475000X-0.337500X-0.475000X0.337500X-0.475000X0*%
%ADD22C,1.982000*%
%ADD23RoundRect,0.102000X1.980000X1.980000X-1.980000X1.980000X-1.980000X-1.980000X1.980000X-1.980000X0*%
%ADD24RoundRect,0.102000X1.270000X1.585000X-1.270000X1.585000X-1.270000X-1.585000X1.270000X-1.585000X0*%
%ADD25R,0.228600X0.711200*%
%ADD26RoundRect,0.237500X0.250000X0.237500X-0.250000X0.237500X-0.250000X-0.237500X0.250000X-0.237500X0*%
%ADD27RoundRect,0.250000X0.625000X-0.350000X0.625000X0.350000X-0.625000X0.350000X-0.625000X-0.350000X0*%
%ADD28RoundRect,0.250000X-0.337500X-0.475000X0.337500X-0.475000X0.337500X0.475000X-0.337500X0.475000X0*%
%ADD29RoundRect,0.102000X0.750000X1.800000X-0.750000X1.800000X-0.750000X-1.800000X0.750000X-1.800000X0*%
%ADD30R,1.600000X1.600000*%
%ADD31C,3.000000*%
G04 APERTURE END LIST*
D10*
%TO.C,R2*%
X187000000Y-97000000D03*
D11*
X179380000Y-97000000D03*
%TD*%
D12*
%TO.C,J9*%
X133500000Y-138750000D03*
D13*
X135500000Y-138750000D03*
X137500000Y-138750000D03*
%TD*%
D14*
%TO.C,C8*%
X191750000Y-104175001D03*
X191750000Y-106250001D03*
%TD*%
D15*
%TO.C,J2*%
X134500000Y-61000000D03*
D16*
X134500000Y-63000000D03*
X134500000Y-65000000D03*
X134500000Y-67000000D03*
X134500000Y-69000000D03*
X134500000Y-71000000D03*
%TD*%
D17*
%TO.C,C7*%
X194250000Y-106250001D03*
X194250000Y-104175001D03*
%TD*%
D18*
%TO.C,SparkFunXBeeExplorer_U2*%
X164450000Y-87700000D03*
X164450000Y-59900000D03*
X142050000Y-87700000D03*
X142050000Y-59900000D03*
D19*
X146900000Y-86500000D03*
X146900000Y-83960000D03*
X146900000Y-81420000D03*
X146900000Y-78880000D03*
X146900000Y-76340000D03*
X146900000Y-73800000D03*
X146900000Y-71260000D03*
X146900000Y-68720000D03*
X146900000Y-66180000D03*
X146900000Y-63640000D03*
X146900000Y-61100000D03*
X159600000Y-61100000D03*
X159600000Y-63640000D03*
X159600000Y-66180000D03*
X159600000Y-68720000D03*
X159600000Y-71260000D03*
X159600000Y-73800000D03*
X159600000Y-76340000D03*
X159600000Y-78880000D03*
X159600000Y-81420000D03*
X159600000Y-83960000D03*
X159600000Y-86500000D03*
%TD*%
%TO.C,ESP32-DEVKIT-32_U1*%
X114000000Y-76670000D03*
X114000000Y-79210000D03*
X114000000Y-81750000D03*
X114000000Y-84290000D03*
X114000000Y-86830000D03*
X114000000Y-89370000D03*
X114000000Y-91910000D03*
X114000000Y-94450000D03*
X114000000Y-96990000D03*
X114000000Y-99530000D03*
X114000000Y-102070000D03*
X114000000Y-104610000D03*
X114000000Y-107150000D03*
X114000000Y-109690000D03*
X114000000Y-112230000D03*
X114000000Y-114770000D03*
X114000000Y-117310000D03*
X114000000Y-119850000D03*
X114000000Y-122390000D03*
X136000000Y-76670000D03*
X136000000Y-79210000D03*
X136000000Y-81750000D03*
X136000000Y-84290000D03*
X136000000Y-86830000D03*
X136000000Y-89370000D03*
X136000000Y-91910000D03*
X136000000Y-94450000D03*
X136000000Y-96990000D03*
X136000000Y-99530000D03*
X136000000Y-102070000D03*
X136000000Y-104610000D03*
X136000000Y-107150000D03*
X136000000Y-109690000D03*
X136000000Y-112230000D03*
X136000000Y-114770000D03*
X136000000Y-117310000D03*
X136000000Y-119850000D03*
X136000000Y-122390000D03*
%TD*%
D20*
%TO.C,Y1*%
X181135000Y-75000000D03*
X179865000Y-75000000D03*
%TD*%
D18*
%TO.C,Adafruit_BME280_STEMMA_QT_U3*%
X143000000Y-113300000D03*
X163320000Y-113300000D03*
D19*
X145540000Y-126000000D03*
X148080000Y-126000000D03*
X150620000Y-126000000D03*
X153160000Y-126000000D03*
X155700000Y-126000000D03*
X158240000Y-126000000D03*
X160780000Y-126000000D03*
%TD*%
D12*
%TO.C,J8*%
X133500000Y-133000000D03*
D13*
X135500000Y-133000000D03*
X137500000Y-133000000D03*
%TD*%
D17*
%TO.C,C1*%
X174000000Y-136037500D03*
X174000000Y-133962500D03*
%TD*%
D12*
%TO.C,J4*%
X169500000Y-93950000D03*
D13*
X171500000Y-93950000D03*
X173500000Y-93950000D03*
X175500000Y-93950000D03*
%TD*%
D12*
%TO.C,J11*%
X151500000Y-138750000D03*
D13*
X153500000Y-138750000D03*
X155500000Y-138750000D03*
%TD*%
D21*
%TO.C,C4*%
X154387500Y-100650000D03*
X152312500Y-100650000D03*
%TD*%
D22*
%TO.C,Adafruit_BNO085_U5*%
X186890000Y-119850000D03*
X186890000Y-117310000D03*
X186890000Y-114770000D03*
X186890000Y-112230000D03*
X186890000Y-109690000D03*
X186890000Y-107150000D03*
X169110000Y-119850000D03*
X169110000Y-117310000D03*
X169110000Y-114770000D03*
X169110000Y-112230000D03*
X169110000Y-109690000D03*
X169110000Y-107150000D03*
D18*
X169110000Y-123660000D03*
X186890000Y-123660000D03*
X169110000Y-103340000D03*
X186890000Y-103340000D03*
%TD*%
D23*
%TO.C,2894TR_U7*%
X177620000Y-83500000D03*
D24*
X185240000Y-83500000D03*
X170000000Y-83500000D03*
%TD*%
D10*
%TO.C,R3*%
X187000000Y-93500000D03*
D11*
X179380000Y-93500000D03*
%TD*%
D18*
%TO.C,Adafruit_LIS3MDL_U4*%
X143000000Y-94300000D03*
X143000000Y-107000000D03*
D19*
X149350000Y-94300000D03*
X151890000Y-94300000D03*
X154430000Y-94300000D03*
X156970000Y-94300000D03*
D18*
X163320000Y-94300000D03*
X163320000Y-107000000D03*
D19*
X146810000Y-107000000D03*
X149350000Y-107000000D03*
X151890000Y-107000000D03*
X154430000Y-107000000D03*
X156970000Y-107000000D03*
X159510000Y-107000000D03*
%TD*%
D12*
%TO.C,J10*%
X142500000Y-138750000D03*
D13*
X144500000Y-138750000D03*
X146500000Y-138750000D03*
%TD*%
D25*
%TO.C,TPS610333DRLR_U8*%
X192049200Y-101299201D03*
X192549201Y-101299201D03*
X193049201Y-101299201D03*
X193549202Y-101299201D03*
X193549202Y-99700799D03*
X193049201Y-99700799D03*
X192549201Y-99700799D03*
X192049200Y-99700799D03*
%TD*%
D26*
%TO.C,R1*%
X172825000Y-129250000D03*
X171000000Y-129250000D03*
%TD*%
D27*
%TO.C,J3*%
X167950000Y-138500000D03*
D16*
X167950000Y-136500000D03*
X167950000Y-134500000D03*
%TD*%
D28*
%TO.C,C6*%
X169462500Y-61750000D03*
X171537500Y-61750000D03*
%TD*%
D29*
%TO.C,WE-LQS_4025_L1*%
X193525000Y-92500000D03*
X190475000Y-92500000D03*
%TD*%
D12*
%TO.C,J6*%
X142500000Y-133000000D03*
D13*
X144500000Y-133000000D03*
X146500000Y-133000000D03*
%TD*%
D28*
%TO.C,C3*%
X168962500Y-98500000D03*
X171037500Y-98500000D03*
%TD*%
D12*
%TO.C,J5*%
X176750000Y-129250000D03*
D13*
X178750000Y-129250000D03*
%TD*%
D15*
%TO.C,J1*%
X161500000Y-133500000D03*
D16*
X161500000Y-135500000D03*
X161500000Y-137500000D03*
X161500000Y-139500000D03*
%TD*%
D30*
%TO.C,DS1307+_U6*%
X169700000Y-66200000D03*
D11*
X169700000Y-68740000D03*
X169700000Y-71280000D03*
X169700000Y-73820000D03*
X177320000Y-73820000D03*
X177320000Y-71280000D03*
X177320000Y-68740000D03*
X177320000Y-66200000D03*
%TD*%
D12*
%TO.C,J7*%
X151500000Y-133000000D03*
D13*
X153500000Y-133000000D03*
X155500000Y-133000000D03*
%TD*%
D17*
%TO.C,C5*%
X178000000Y-114537500D03*
X178000000Y-112462500D03*
%TD*%
D28*
%TO.C,C2*%
X152342500Y-119650000D03*
X154417500Y-119650000D03*
%TD*%
D31*
%TO.C,REF\u002A\u002A*%
X108500000Y-85000000D03*
%TD*%
%TO.C,REF\u002A\u002A*%
X191500000Y-85000000D03*
%TD*%
%TO.C,REF\u002A\u002A*%
X108500000Y-115000000D03*
%TD*%
%TO.C,REF\u002A\u002A*%
X191500000Y-115000000D03*
%TD*%
M02*
