%TF.GenerationSoftware,KiCad,Pcbnew,8.0.5*%
%TF.CreationDate,2025-03-06T00:48:24-05:00*%
%TF.ProjectId,CanSat_Sensor_Board,43616e53-6174-45f5-9365-6e736f725f42,rev?*%
%TF.SameCoordinates,Original*%
%TF.FileFunction,Copper,L1,Top*%
%TF.FilePolarity,Positive*%
%FSLAX46Y46*%
G04 Gerber Fmt 4.6, Leading zero omitted, Abs format (unit mm)*
G04 Created by KiCad (PCBNEW 8.0.5) date 2025-03-06 00:48:24*
%MOMM*%
%LPD*%
G01*
G04 APERTURE LIST*
G04 Aperture macros list*
%AMRoundRect*
0 Rectangle with rounded corners*
0 $1 Rounding radius*
0 $2 $3 $4 $5 $6 $7 $8 $9 X,Y pos of 4 corners*
0 Add a 4 corners polygon primitive as box body*
4,1,4,$2,$3,$4,$5,$6,$7,$8,$9,$2,$3,0*
0 Add four circle primitives for the rounded corners*
1,1,$1+$1,$2,$3*
1,1,$1+$1,$4,$5*
1,1,$1+$1,$6,$7*
1,1,$1+$1,$8,$9*
0 Add four rect primitives between the rounded corners*
20,1,$1+$1,$2,$3,$4,$5,0*
20,1,$1+$1,$4,$5,$6,$7,0*
20,1,$1+$1,$6,$7,$8,$9,0*
20,1,$1+$1,$8,$9,$2,$3,0*%
G04 Aperture macros list end*
%TA.AperFunction,ComponentPad*%
%ADD10C,1.600000*%
%TD*%
%TA.AperFunction,ComponentPad*%
%ADD11O,1.600000X1.600000*%
%TD*%
%TA.AperFunction,ComponentPad*%
%ADD12RoundRect,0.250000X-0.350000X-0.625000X0.350000X-0.625000X0.350000X0.625000X-0.350000X0.625000X0*%
%TD*%
%TA.AperFunction,ComponentPad*%
%ADD13O,1.200000X1.750000*%
%TD*%
%TA.AperFunction,ComponentPad*%
%ADD14C,1.879600*%
%TD*%
%TA.AperFunction,ComponentPad*%
%ADD15C,0.910000*%
%TD*%
%TA.AperFunction,ComponentPad*%
%ADD16C,1.700000*%
%TD*%
%TA.AperFunction,SMDPad,CuDef*%
%ADD17RoundRect,0.250000X-0.475000X0.337500X-0.475000X-0.337500X0.475000X-0.337500X0.475000X0.337500X0*%
%TD*%
%TA.AperFunction,SMDPad,CuDef*%
%ADD18R,3.960000X3.960000*%
%TD*%
%TA.AperFunction,SMDPad,CuDef*%
%ADD19R,2.540000X3.170000*%
%TD*%
%TA.AperFunction,ComponentPad*%
%ADD20RoundRect,0.250000X0.625000X-0.350000X0.625000X0.350000X-0.625000X0.350000X-0.625000X-0.350000X0*%
%TD*%
%TA.AperFunction,ComponentPad*%
%ADD21O,1.750000X1.200000*%
%TD*%
%TA.AperFunction,SMDPad,CuDef*%
%ADD22RoundRect,0.250000X-0.337500X-0.475000X0.337500X-0.475000X0.337500X0.475000X-0.337500X0.475000X0*%
%TD*%
%TA.AperFunction,ComponentPad*%
%ADD23RoundRect,0.250000X-0.625000X0.350000X-0.625000X-0.350000X0.625000X-0.350000X0.625000X0.350000X0*%
%TD*%
%TA.AperFunction,ComponentPad*%
%ADD24R,1.600000X1.600000*%
%TD*%
%TA.AperFunction,Conductor*%
%ADD25C,0.200000*%
%TD*%
G04 APERTURE END LIST*
D10*
%TO.P,2.2k\u03A9R1,1*%
%TO.N,+5V*%
X187000000Y-97000000D03*
D11*
%TO.P,2.2k\u03A9R1,2*%
%TO.N,Net-(DS1307+1-SDA)*%
X179380000Y-97000000D03*
%TD*%
D12*
%TO.P,CPL1,1,Pin_1*%
%TO.N,GND*%
X133500000Y-139000000D03*
D13*
%TO.P,CPL1,2,Pin_2*%
%TO.N,+7.4V*%
X135500000Y-139000000D03*
%TO.P,CPL1,3,Pin_3*%
%TO.N,Net-(CPL1-Pin_3)*%
X137500000Y-139000000D03*
%TD*%
D14*
%TO.P,XBeeProSB3,JP5_1,GND*%
%TO.N,GND*%
X146014000Y-85000000D03*
%TO.P,XBeeProSB3,JP5_2,DTR*%
%TO.N,unconnected-(XBeeProSB3-DTR-PadJP5_2)*%
X146014000Y-82460000D03*
%TO.P,XBeeProSB3,JP5_3,RES1*%
%TO.N,unconnected-(XBeeProSB3-RES1-PadJP5_3)*%
X146014000Y-79920000D03*
%TO.P,XBeeProSB3,JP5_4,DIO11*%
%TO.N,unconnected-(XBeeProSB3-DIO11-PadJP5_4)*%
X146014000Y-77380000D03*
%TO.P,XBeeProSB3,JP5_5,RSSI*%
%TO.N,unconnected-(XBeeProSB3-RSSI-PadJP5_5)*%
X146014000Y-74840000D03*
%TO.P,XBeeProSB3,JP5_6,RESET*%
%TO.N,unconnected-(XBeeProSB3-RESET-PadJP5_6)*%
X146014000Y-72300000D03*
%TO.P,XBeeProSB3,JP5_7,DIO12*%
%TO.N,unconnected-(XBeeProSB3-DIO12-PadJP5_7)*%
X146014000Y-69760000D03*
%TO.P,XBeeProSB3,JP5_8,DIN*%
%TO.N,Net-(ESP32-IO17)*%
X146014000Y-67220000D03*
%TO.P,XBeeProSB3,JP5_9,DOUT*%
%TO.N,Net-(ESP32-IO16)*%
X146014000Y-64680000D03*
%TO.P,XBeeProSB3,JP5_10,3.3V*%
%TO.N,+3.3V*%
X146014000Y-62140000D03*
%TO.P,XBeeProSB3,JP5_11,GND*%
%TO.N,GND*%
X146014000Y-59600000D03*
%TO.P,XBeeProSB3,JP6_1,DIO0*%
%TO.N,unconnected-(XBeeProSB3-DIO0-PadJP6_1)*%
X161000000Y-59600000D03*
%TO.P,XBeeProSB3,JP6_2,DIO1*%
%TO.N,unconnected-(XBeeProSB3-DIO1-PadJP6_2)*%
X161000000Y-62140000D03*
%TO.P,XBeeProSB3,JP6_3,DIO2*%
%TO.N,unconnected-(XBeeProSB3-DIO2-PadJP6_3)*%
X161000000Y-64680000D03*
%TO.P,XBeeProSB3,JP6_4,DIO3*%
%TO.N,unconnected-(XBeeProSB3-DIO3-PadJP6_4)*%
X161000000Y-67220000D03*
%TO.P,XBeeProSB3,JP6_5,RTS*%
%TO.N,unconnected-(XBeeProSB3-RTS-PadJP6_5)*%
X161000000Y-69760000D03*
%TO.P,XBeeProSB3,JP6_6,DIO5*%
%TO.N,unconnected-(XBeeProSB3-DIO5-PadJP6_6)*%
X161000000Y-72300000D03*
%TO.P,XBeeProSB3,JP6_7,RES2*%
%TO.N,unconnected-(XBeeProSB3-RES2-PadJP6_7)*%
X161000000Y-74840000D03*
%TO.P,XBeeProSB3,JP6_8,DIO9*%
%TO.N,unconnected-(XBeeProSB3-DIO9-PadJP6_8)*%
X161000000Y-77380000D03*
%TO.P,XBeeProSB3,JP6_9,CTS*%
%TO.N,unconnected-(XBeeProSB3-CTS-PadJP6_9)*%
X161000000Y-79920000D03*
%TO.P,XBeeProSB3,JP6_10,DIO4*%
%TO.N,unconnected-(XBeeProSB3-DIO4-PadJP6_10)*%
X161000000Y-82460000D03*
%TO.P,XBeeProSB3,JP6_11,5V*%
%TO.N,unconnected-(XBeeProSB3-5V-PadJP6_11)*%
X161000000Y-85000000D03*
%TD*%
D15*
%TO.P,32.768KHzY1,1*%
%TO.N,Net-(DS1307+1-X1)*%
X181135000Y-74672500D03*
%TO.P,32.768KHzY1,2*%
%TO.N,Net-(DS1307+1-X2)*%
X179865000Y-74672500D03*
%TD*%
D16*
%TO.P,Temp&Pressure1,1,Pin_1*%
%TO.N,+3.3V*%
X145760000Y-126000000D03*
%TO.P,Temp&Pressure1,2,Pin_2*%
%TO.N,unconnected-(Temp&Pressure1-Pin_2-Pad2)*%
X148300000Y-126000000D03*
%TO.P,Temp&Pressure1,3,Pin_3*%
%TO.N,GND*%
X150840000Y-126000000D03*
%TO.P,Temp&Pressure1,4,Pin_4*%
%TO.N,Net-(DS1307+1-SCL)*%
X153380000Y-126000000D03*
%TO.P,Temp&Pressure1,5,Pin_5*%
%TO.N,unconnected-(Temp&Pressure1-Pin_5-Pad5)*%
X155920000Y-126000000D03*
%TO.P,Temp&Pressure1,6,Pin_6*%
%TO.N,Net-(DS1307+1-SDA)*%
X158460000Y-126000000D03*
%TO.P,Temp&Pressure1,7,Pin_7*%
%TO.N,unconnected-(Temp&Pressure1-Pin_7-Pad7)*%
X161000000Y-126000000D03*
%TD*%
D12*
%TO.P,Camera1,1,Pin_1*%
%TO.N,GND*%
X133500000Y-133000000D03*
D13*
%TO.P,Camera1,2,Pin_2*%
%TO.N,+7.4V*%
X135500000Y-133000000D03*
%TO.P,Camera1,3,Pin_3*%
%TO.N,Net-(Camera1-Pin_3)*%
X137500000Y-133000000D03*
%TD*%
D17*
%TO.P,0.1uF1,1*%
%TO.N,+3.3V*%
X180500000Y-125962500D03*
%TO.P,0.1uF1,2*%
%TO.N,GND*%
X180500000Y-128037500D03*
%TD*%
D12*
%TO.P,GPS1,1,Pin_1*%
%TO.N,GND*%
X169500000Y-94500000D03*
D13*
%TO.P,GPS1,2,Pin_2*%
%TO.N,Net-(ESP32-RXD0)*%
X171500000Y-94500000D03*
%TO.P,GPS1,3,Pin_3*%
%TO.N,Net-(ESP32-TXD0)*%
X173500000Y-94500000D03*
%TO.P,GPS1,4,Pin_4*%
%TO.N,+3.3V*%
X175500000Y-94500000D03*
%TD*%
D12*
%TO.P,CPL3,1,Pin_1*%
%TO.N,GND*%
X151500000Y-139050000D03*
D13*
%TO.P,CPL3,2,Pin_2*%
%TO.N,+7.4V*%
X153500000Y-139050000D03*
%TO.P,CPL3,3,Pin_3*%
%TO.N,Net-(CPL3-Pin_3)*%
X155500000Y-139050000D03*
%TD*%
D18*
%TO.P,Battery1,N*%
%TO.N,GND*%
X177620000Y-83500000D03*
D19*
%TO.P,Battery1,P1*%
%TO.N,unconnected-(Battery1-PadP1)*%
X185240000Y-83500000D03*
%TO.P,Battery1,P2*%
%TO.N,Net-(DS1307+1-VBAT)*%
X170000000Y-83500000D03*
%TD*%
D20*
%TO.P,Cameras1&2,1,Pin_1*%
%TO.N,+7.4V*%
X133500000Y-69500000D03*
D21*
%TO.P,Cameras1&2,2,Pin_2*%
%TO.N,Net-(Cameras1&2-Pin_2)*%
X133500000Y-67500000D03*
%TO.P,Cameras1&2,3,Pin_3*%
%TO.N,Net-(Cameras1&2-Pin_3)*%
X133500000Y-65500000D03*
%TO.P,Cameras1&2,4,Pin_4*%
%TO.N,Net-(Cameras1&2-Pin_4)*%
X133500000Y-63500000D03*
%TO.P,Cameras1&2,5,Pin_5*%
%TO.N,GND*%
X133500000Y-61500000D03*
%TD*%
D10*
%TO.P,2.2k\u03A9R2,1*%
%TO.N,+5V*%
X187000000Y-93500000D03*
D11*
%TO.P,2.2k\u03A9R2,2*%
%TO.N,Net-(DS1307+1-SCL)*%
X179380000Y-93500000D03*
%TD*%
D12*
%TO.P,CPL2,1,Pin_1*%
%TO.N,GND*%
X142500000Y-139050000D03*
D13*
%TO.P,CPL2,2,Pin_2*%
%TO.N,+7.4V*%
X144500000Y-139050000D03*
%TO.P,CPL2,3,Pin_3*%
%TO.N,Net-(CPL2-Pin_3)*%
X146500000Y-139050000D03*
%TD*%
D10*
%TO.P,100\u03A9R1,1*%
%TO.N,Net-(PowerIndicator1-Pin_1)*%
X185500000Y-111310000D03*
D11*
%TO.P,100\u03A9R1,2*%
%TO.N,+3.3V*%
X185500000Y-103690000D03*
%TD*%
D12*
%TO.P,HallEffectSensor1,1,Pin_1*%
%TO.N,Net-(ESP32-IO23)*%
X172500000Y-126500000D03*
D13*
%TO.P,HallEffectSensor1,2,Pin_2*%
%TO.N,GND*%
X174500000Y-126500000D03*
%TO.P,HallEffectSensor1,3,Pin_3*%
%TO.N,+3.3V*%
X176500000Y-126500000D03*
%TD*%
D22*
%TO.P,0.1uF2,1*%
%TO.N,GND*%
X170462500Y-61500000D03*
%TO.P,0.1uF2,2*%
%TO.N,+5V*%
X172537500Y-61500000D03*
%TD*%
D12*
%TO.P,Fin1,1,Pin_1*%
%TO.N,GND*%
X142500000Y-133000000D03*
D13*
%TO.P,Fin1,2,Pin_2*%
%TO.N,+7.4V*%
X144500000Y-133000000D03*
%TO.P,Fin1,3,Pin_3*%
%TO.N,Net-(ESP32-IO15)*%
X146500000Y-133000000D03*
%TD*%
D23*
%TO.P,PowerIndicator1,1,Pin_1*%
%TO.N,Net-(PowerIndicator1-Pin_1)*%
X186550000Y-116000000D03*
D21*
%TO.P,PowerIndicator1,2,Pin_2*%
%TO.N,GND*%
X186550000Y-118000000D03*
%TD*%
D23*
%TO.P,Power1,1,Pin_1*%
%TO.N,+3.3V*%
X161400000Y-133600000D03*
D21*
%TO.P,Power1,2,Pin_2*%
%TO.N,+5V*%
X161400000Y-135600000D03*
%TO.P,Power1,3,Pin_3*%
%TO.N,+7.4V*%
X161400000Y-137600000D03*
%TO.P,Power1,4,Pin_4*%
%TO.N,GND*%
X161400000Y-139600000D03*
%TD*%
D24*
%TO.P,DS1307+1,1,X1*%
%TO.N,Net-(DS1307+1-X1)*%
X169700000Y-66200000D03*
D11*
%TO.P,DS1307+1,2,X2*%
%TO.N,Net-(DS1307+1-X2)*%
X169700000Y-68740000D03*
%TO.P,DS1307+1,3,VBAT*%
%TO.N,Net-(DS1307+1-VBAT)*%
X169700000Y-71280000D03*
%TO.P,DS1307+1,4,GND*%
%TO.N,GND*%
X169700000Y-73820000D03*
%TO.P,DS1307+1,5,SDA*%
%TO.N,Net-(DS1307+1-SDA)*%
X177320000Y-73820000D03*
%TO.P,DS1307+1,6,SCL*%
%TO.N,Net-(DS1307+1-SCL)*%
X177320000Y-71280000D03*
%TO.P,DS1307+1,7,SQW/OUT*%
%TO.N,unconnected-(DS1307+1-SQW{slash}OUT-Pad7)*%
X177320000Y-68740000D03*
%TO.P,DS1307+1,8,VCC*%
%TO.N,+5V*%
X177320000Y-66200000D03*
%TD*%
D12*
%TO.P,Fin2,1,Pin_1*%
%TO.N,GND*%
X151500000Y-133000000D03*
D13*
%TO.P,Fin2,2,Pin_2*%
%TO.N,+7.4V*%
X153500000Y-133000000D03*
%TO.P,Fin2,3,Pin_3*%
%TO.N,Net-(ESP32-IO4)*%
X155500000Y-133000000D03*
%TD*%
D16*
%TO.P,ESP32,J2-1,3V3*%
%TO.N,unconnected-(ESP32-3V3-PadJ2-1)*%
X113500000Y-76670000D03*
%TO.P,ESP32,J2-2,EN*%
%TO.N,unconnected-(ESP32-EN-PadJ2-2)*%
X113500000Y-79210000D03*
%TO.P,ESP32,J2-3,SENSOR_VP*%
%TO.N,unconnected-(ESP32-SENSOR_VP-PadJ2-3)*%
X113500000Y-81750000D03*
%TO.P,ESP32,J2-4,SENSOR_VN*%
%TO.N,unconnected-(ESP32-SENSOR_VN-PadJ2-4)*%
X113500000Y-84290000D03*
%TO.P,ESP32,J2-5,IO34*%
%TO.N,unconnected-(ESP32-IO34-PadJ2-5)*%
X113500000Y-86830000D03*
%TO.P,ESP32,J2-6,IO35*%
%TO.N,Net-(Cameras1&2-Pin_4)*%
X113500000Y-89370000D03*
%TO.P,ESP32,J2-7,IO32*%
%TO.N,Net-(Cameras1&2-Pin_2)*%
X113500000Y-91910000D03*
%TO.P,ESP32,J2-8,IO33*%
%TO.N,Net-(Cameras1&2-Pin_3)*%
X113500000Y-94450000D03*
%TO.P,ESP32,J2-9,IO25*%
%TO.N,unconnected-(ESP32-IO25-PadJ2-9)*%
X113500000Y-96990000D03*
%TO.P,ESP32,J2-10,IO26*%
%TO.N,unconnected-(ESP32-IO26-PadJ2-10)*%
X113500000Y-99530000D03*
%TO.P,ESP32,J2-11,IO27*%
%TO.N,Net-(Camera1-Pin_3)*%
X113500000Y-102070000D03*
%TO.P,ESP32,J2-12,IO14*%
%TO.N,Net-(CPL1-Pin_3)*%
X113500000Y-104610000D03*
%TO.P,ESP32,J2-13,IO12*%
%TO.N,Net-(CPL2-Pin_3)*%
X113500000Y-107150000D03*
%TO.P,ESP32,J2-14,GND1*%
%TO.N,GND*%
X113500000Y-109690000D03*
%TO.P,ESP32,J2-15,IO13*%
%TO.N,Net-(CPL3-Pin_3)*%
X113500000Y-112230000D03*
%TO.P,ESP32,J2-16,SD2*%
%TO.N,unconnected-(ESP32-SD2-PadJ2-16)*%
X113500000Y-114770000D03*
%TO.P,ESP32,J2-17,SD3*%
%TO.N,unconnected-(ESP32-SD3-PadJ2-17)*%
X113500000Y-117310000D03*
%TO.P,ESP32,J2-18,CMD*%
%TO.N,unconnected-(ESP32-CMD-PadJ2-18)*%
X113500000Y-119850000D03*
%TO.P,ESP32,J2-19,EXT_5V*%
%TO.N,+7.4V*%
X113500000Y-122390000D03*
%TO.P,ESP32,J3-1,GND3*%
%TO.N,GND*%
X135500000Y-76670000D03*
%TO.P,ESP32,J3-2,IO23*%
%TO.N,Net-(ESP32-IO23)*%
X135500000Y-79210000D03*
%TO.P,ESP32,J3-3,IO22*%
%TO.N,Net-(DS1307+1-SCL)*%
X135500000Y-81750000D03*
%TO.P,ESP32,J3-4,TXD0*%
%TO.N,Net-(ESP32-TXD0)*%
X135500000Y-84290000D03*
%TO.P,ESP32,J3-5,RXD0*%
%TO.N,Net-(ESP32-RXD0)*%
X135500000Y-86830000D03*
%TO.P,ESP32,J3-6,IO21*%
%TO.N,Net-(DS1307+1-SDA)*%
X135500000Y-89370000D03*
%TO.P,ESP32,J3-7,GND2*%
%TO.N,GND*%
X135500000Y-91910000D03*
%TO.P,ESP32,J3-8,IO19*%
%TO.N,unconnected-(ESP32-IO19-PadJ3-8)*%
X135500000Y-94450000D03*
%TO.P,ESP32,J3-9,IO18*%
%TO.N,unconnected-(ESP32-IO18-PadJ3-9)*%
X135500000Y-96990000D03*
%TO.P,ESP32,J3-10,IO5*%
%TO.N,unconnected-(ESP32-IO5-PadJ3-10)*%
X135500000Y-99530000D03*
%TO.P,ESP32,J3-11,IO17*%
%TO.N,Net-(ESP32-IO17)*%
X135500000Y-102070000D03*
%TO.P,ESP32,J3-12,IO16*%
%TO.N,Net-(ESP32-IO16)*%
X135500000Y-104610000D03*
%TO.P,ESP32,J3-13,IO4*%
%TO.N,Net-(ESP32-IO4)*%
X135500000Y-107150000D03*
%TO.P,ESP32,J3-14,IO0*%
%TO.N,unconnected-(ESP32-IO0-PadJ3-14)*%
X135500000Y-109690000D03*
%TO.P,ESP32,J3-15,IO2*%
%TO.N,unconnected-(ESP32-IO2-PadJ3-15)*%
X135500000Y-112230000D03*
%TO.P,ESP32,J3-16,IO15*%
%TO.N,Net-(ESP32-IO15)*%
X135500000Y-114770000D03*
%TO.P,ESP32,J3-17,SD1*%
%TO.N,unconnected-(ESP32-SD1-PadJ3-17)*%
X135500000Y-117310000D03*
%TO.P,ESP32,J3-18,SD0*%
%TO.N,unconnected-(ESP32-SD0-PadJ3-18)*%
X135500000Y-119850000D03*
%TO.P,ESP32,J3-19,CLK*%
%TO.N,unconnected-(ESP32-CLK-PadJ3-19)*%
X135500000Y-122390000D03*
%TD*%
%TO.P,Magnetometer1,1,Pin_1*%
%TO.N,+3.3V*%
X147000000Y-107000000D03*
%TO.P,Magnetometer1,2,Pin_2*%
%TO.N,unconnected-(Magnetometer1-Pin_2-Pad2)*%
X149540000Y-107000000D03*
%TO.P,Magnetometer1,3,Pin_3*%
%TO.N,GND*%
X152080000Y-107000000D03*
%TO.P,Magnetometer1,4,Pin_4*%
%TO.N,Net-(DS1307+1-SCL)*%
X154620000Y-107000000D03*
%TO.P,Magnetometer1,5,Pin_5*%
%TO.N,Net-(DS1307+1-SDA)*%
X157160000Y-107000000D03*
%TO.P,Magnetometer1,6,Pin_6*%
%TO.N,unconnected-(Magnetometer1-Pin_6-Pad6)*%
X159700000Y-107000000D03*
%TD*%
%TO.P,IMU1,8,Pin_8*%
%TO.N,unconnected-(IMU1-Pin_8-Pad8)*%
X168445000Y-120065000D03*
%TO.P,IMU1,7,Pin_7*%
%TO.N,unconnected-(IMU1-Pin_7-Pad7)*%
X168445000Y-117525000D03*
%TO.P,IMU1,6,Pin_6*%
%TO.N,unconnected-(IMU1-Pin_6-Pad6)*%
X168445000Y-114985000D03*
%TO.P,IMU1,5,Pin_5*%
%TO.N,unconnected-(IMU1-Pin_5-Pad5)*%
X168445000Y-112445000D03*
%TO.P,IMU1,4,Pin_4*%
%TO.N,Net-(DS1307+1-SDA)*%
X168445000Y-109905000D03*
%TO.P,IMU1,3,Pin_3*%
%TO.N,Net-(DS1307+1-SCL)*%
X168445000Y-107365000D03*
%TO.P,IMU1,2,Pin_2*%
%TO.N,GND*%
X168445000Y-104825000D03*
%TO.P,IMU1,1,Pin_1*%
%TO.N,+3.3V*%
X168445000Y-102285000D03*
%TD*%
D25*
%TO.N,+7.4V*%
X144500000Y-139050000D02*
X143050000Y-140500000D01*
X143050000Y-140500000D02*
X137000000Y-140500000D01*
X137000000Y-140500000D02*
X135500000Y-139000000D01*
X153500000Y-139050000D02*
X152050000Y-140500000D01*
X152050000Y-140500000D02*
X145950000Y-140500000D01*
X145950000Y-140500000D02*
X144500000Y-139050000D01*
X154775000Y-137775000D02*
X153500000Y-139050000D01*
X154950000Y-137600000D02*
X154775000Y-137775000D01*
X161400000Y-137600000D02*
X154950000Y-137600000D01*
X133500000Y-69500000D02*
X133500000Y-102390000D01*
X133500000Y-102390000D02*
X113500000Y-122390000D01*
%TO.N,GND*%
X170462500Y-61500000D02*
X171500000Y-62537500D01*
X171500000Y-62537500D02*
X171500000Y-72020000D01*
X171500000Y-72020000D02*
X169700000Y-73820000D01*
%TO.N,Net-(DS1307+1-SDA)*%
X168445000Y-109905000D02*
X160065000Y-109905000D01*
X160065000Y-109905000D02*
X157160000Y-107000000D01*
%TO.N,+5V*%
X187000000Y-93500000D02*
X183000000Y-89500000D01*
X183000000Y-89500000D02*
X183000000Y-71880000D01*
X183000000Y-71880000D02*
X177320000Y-66200000D01*
X187000000Y-97000000D02*
X187000000Y-93500000D01*
X183500000Y-100500000D02*
X187000000Y-97000000D01*
X161400000Y-135600000D02*
X176400000Y-135600000D01*
X176400000Y-135600000D02*
X183500000Y-128500000D01*
X183500000Y-128500000D02*
X183500000Y-100500000D01*
%TO.N,Net-(ESP32-IO23)*%
X172500000Y-126500000D02*
X172500000Y-101500000D01*
X164500000Y-90500000D02*
X142000000Y-90500000D01*
X172500000Y-101500000D02*
X167000000Y-96000000D01*
X167000000Y-96000000D02*
X167000000Y-93000000D01*
X167000000Y-93000000D02*
X164500000Y-90500000D01*
X142000000Y-90500000D02*
X140500000Y-89000000D01*
X140500000Y-84210000D02*
X135500000Y-79210000D01*
X140500000Y-89000000D02*
X140500000Y-84210000D01*
%TO.N,Net-(DS1307+1-VBAT)*%
X170000000Y-83500000D02*
X168000000Y-81500000D01*
X168000000Y-81500000D02*
X168000000Y-72980000D01*
X168000000Y-72980000D02*
X169700000Y-71280000D01*
%TO.N,GND*%
X177620000Y-83500000D02*
X169700000Y-75580000D01*
X169700000Y-75580000D02*
X169700000Y-73820000D01*
%TO.N,+5V*%
X172537500Y-61500000D02*
X172620000Y-61500000D01*
X172620000Y-61500000D02*
X177320000Y-66200000D01*
%TO.N,+3.3V*%
X180500000Y-125962500D02*
X177037500Y-125962500D01*
X177037500Y-125962500D02*
X176500000Y-126500000D01*
%TO.N,GND*%
X176037500Y-128037500D02*
X180500000Y-128037500D01*
X174500000Y-126500000D02*
X176037500Y-128037500D01*
%TO.N,+7.4V*%
X135500000Y-133000000D02*
X135500000Y-139000000D01*
X144500000Y-133050000D02*
X144500000Y-139000000D01*
X153500000Y-133050000D02*
X153500000Y-139000000D01*
%TO.N,Net-(PowerIndicator1-Pin_1)*%
X185500000Y-114950000D02*
X185500000Y-111310000D01*
X186550000Y-116000000D02*
X185500000Y-114950000D01*
%TO.N,+5V*%
X172537500Y-61000000D02*
X172620000Y-61000000D01*
%TO.N,+7.4V*%
X113500000Y-122390000D02*
X125165000Y-122390000D01*
X125165000Y-122390000D02*
X135500000Y-132725000D01*
X135500000Y-132725000D02*
X135500000Y-133000000D01*
%TD*%
M02*
