%TF.GenerationSoftware,KiCad,Pcbnew,8.0.5*%
%TF.CreationDate,2025-03-06T00:48:24-05:00*%
%TF.ProjectId,CanSat_Sensor_Board,43616e53-6174-45f5-9365-6e736f725f42,rev?*%
%TF.SameCoordinates,Original*%
%TF.FileFunction,Soldermask,Top*%
%TF.FilePolarity,Negative*%
%FSLAX46Y46*%
G04 Gerber Fmt 4.6, Leading zero omitted, Abs format (unit mm)*
G04 Created by KiCad (PCBNEW 8.0.5) date 2025-03-06 00:48:24*
%MOMM*%
%LPD*%
G01*
G04 APERTURE LIST*
G04 Aperture macros list*
%AMRoundRect*
0 Rectangle with rounded corners*
0 $1 Rounding radius*
0 $2 $3 $4 $5 $6 $7 $8 $9 X,Y pos of 4 corners*
0 Add a 4 corners polygon primitive as box body*
4,1,4,$2,$3,$4,$5,$6,$7,$8,$9,$2,$3,0*
0 Add four circle primitives for the rounded corners*
1,1,$1+$1,$2,$3*
1,1,$1+$1,$4,$5*
1,1,$1+$1,$6,$7*
1,1,$1+$1,$8,$9*
0 Add four rect primitives between the rounded corners*
20,1,$1+$1,$2,$3,$4,$5,0*
20,1,$1+$1,$4,$5,$6,$7,0*
20,1,$1+$1,$6,$7,$8,$9,0*
20,1,$1+$1,$8,$9,$2,$3,0*%
G04 Aperture macros list end*
%ADD10C,1.600000*%
%ADD11O,1.600000X1.600000*%
%ADD12RoundRect,0.250000X-0.350000X-0.625000X0.350000X-0.625000X0.350000X0.625000X-0.350000X0.625000X0*%
%ADD13O,1.200000X1.750000*%
%ADD14C,3.302000*%
%ADD15C,2.083600*%
%ADD16C,1.114000*%
%ADD17C,1.700000*%
%ADD18RoundRect,0.250000X-0.475000X0.337500X-0.475000X-0.337500X0.475000X-0.337500X0.475000X0.337500X0*%
%ADD19RoundRect,0.102000X1.980000X1.980000X-1.980000X1.980000X-1.980000X-1.980000X1.980000X-1.980000X0*%
%ADD20RoundRect,0.102000X1.270000X1.585000X-1.270000X1.585000X-1.270000X-1.585000X1.270000X-1.585000X0*%
%ADD21RoundRect,0.250000X0.625000X-0.350000X0.625000X0.350000X-0.625000X0.350000X-0.625000X-0.350000X0*%
%ADD22O,1.750000X1.200000*%
%ADD23RoundRect,0.250000X-0.337500X-0.475000X0.337500X-0.475000X0.337500X0.475000X-0.337500X0.475000X0*%
%ADD24RoundRect,0.250000X-0.625000X0.350000X-0.625000X-0.350000X0.625000X-0.350000X0.625000X0.350000X0*%
%ADD25R,1.600000X1.600000*%
G04 APERTURE END LIST*
D10*
%TO.C,2.2k\u03A9R1*%
X187000000Y-97000000D03*
D11*
X179380000Y-97000000D03*
%TD*%
D12*
%TO.C,CPL1*%
X133500000Y-139000000D03*
D13*
X135500000Y-139000000D03*
X137500000Y-139000000D03*
%TD*%
D14*
%TO.C,XBeeProSB3*%
X163667000Y-87540000D03*
X163667000Y-57060000D03*
X143347000Y-87540000D03*
X143347000Y-57060000D03*
D15*
X146014000Y-85000000D03*
X146014000Y-82460000D03*
X146014000Y-79920000D03*
X146014000Y-77380000D03*
X146014000Y-74840000D03*
X146014000Y-72300000D03*
X146014000Y-69760000D03*
X146014000Y-67220000D03*
X146014000Y-64680000D03*
X146014000Y-62140000D03*
X146014000Y-59600000D03*
X161000000Y-59600000D03*
X161000000Y-62140000D03*
X161000000Y-64680000D03*
X161000000Y-67220000D03*
X161000000Y-69760000D03*
X161000000Y-72300000D03*
X161000000Y-74840000D03*
X161000000Y-77380000D03*
X161000000Y-79920000D03*
X161000000Y-82460000D03*
X161000000Y-85000000D03*
%TD*%
D16*
%TO.C,32.768KHzY1*%
X181135000Y-74672500D03*
X179865000Y-74672500D03*
%TD*%
D17*
%TO.C,Temp&Pressure1*%
X145760000Y-126000000D03*
X148300000Y-126000000D03*
X150840000Y-126000000D03*
X153380000Y-126000000D03*
X155920000Y-126000000D03*
X158460000Y-126000000D03*
X161000000Y-126000000D03*
%TD*%
D12*
%TO.C,Camera1*%
X133500000Y-133000000D03*
D13*
X135500000Y-133000000D03*
X137500000Y-133000000D03*
%TD*%
D18*
%TO.C,0.1uF1*%
X180500000Y-125962500D03*
X180500000Y-128037500D03*
%TD*%
D12*
%TO.C,GPS1*%
X169500000Y-94500000D03*
D13*
X171500000Y-94500000D03*
X173500000Y-94500000D03*
X175500000Y-94500000D03*
%TD*%
D12*
%TO.C,CPL3*%
X151500000Y-139050000D03*
D13*
X153500000Y-139050000D03*
X155500000Y-139050000D03*
%TD*%
D19*
%TO.C,Battery1*%
X177620000Y-83500000D03*
D20*
X185240000Y-83500000D03*
X170000000Y-83500000D03*
%TD*%
D21*
%TO.C,Cameras1&2*%
X133500000Y-69500000D03*
D22*
X133500000Y-67500000D03*
X133500000Y-65500000D03*
X133500000Y-63500000D03*
X133500000Y-61500000D03*
%TD*%
D10*
%TO.C,2.2k\u03A9R2*%
X187000000Y-93500000D03*
D11*
X179380000Y-93500000D03*
%TD*%
D12*
%TO.C,CPL2*%
X142500000Y-139050000D03*
D13*
X144500000Y-139050000D03*
X146500000Y-139050000D03*
%TD*%
D10*
%TO.C,100\u03A9R1*%
X185500000Y-111310000D03*
D11*
X185500000Y-103690000D03*
%TD*%
D12*
%TO.C,HallEffectSensor1*%
X172500000Y-126500000D03*
D13*
X174500000Y-126500000D03*
X176500000Y-126500000D03*
%TD*%
D23*
%TO.C,0.1uF2*%
X170462500Y-61500000D03*
X172537500Y-61500000D03*
%TD*%
D12*
%TO.C,Fin1*%
X142500000Y-133000000D03*
D13*
X144500000Y-133000000D03*
X146500000Y-133000000D03*
%TD*%
D24*
%TO.C,PowerIndicator1*%
X186550000Y-116000000D03*
D22*
X186550000Y-118000000D03*
%TD*%
D24*
%TO.C,Power1*%
X161400000Y-133600000D03*
D22*
X161400000Y-135600000D03*
X161400000Y-137600000D03*
X161400000Y-139600000D03*
%TD*%
D25*
%TO.C,DS1307+1*%
X169700000Y-66200000D03*
D11*
X169700000Y-68740000D03*
X169700000Y-71280000D03*
X169700000Y-73820000D03*
X177320000Y-73820000D03*
X177320000Y-71280000D03*
X177320000Y-68740000D03*
X177320000Y-66200000D03*
%TD*%
D12*
%TO.C,Fin2*%
X151500000Y-133000000D03*
D13*
X153500000Y-133000000D03*
X155500000Y-133000000D03*
%TD*%
D17*
%TO.C,ESP32*%
X113500000Y-76670000D03*
X113500000Y-79210000D03*
X113500000Y-81750000D03*
X113500000Y-84290000D03*
X113500000Y-86830000D03*
X113500000Y-89370000D03*
X113500000Y-91910000D03*
X113500000Y-94450000D03*
X113500000Y-96990000D03*
X113500000Y-99530000D03*
X113500000Y-102070000D03*
X113500000Y-104610000D03*
X113500000Y-107150000D03*
X113500000Y-109690000D03*
X113500000Y-112230000D03*
X113500000Y-114770000D03*
X113500000Y-117310000D03*
X113500000Y-119850000D03*
X113500000Y-122390000D03*
X135500000Y-76670000D03*
X135500000Y-79210000D03*
X135500000Y-81750000D03*
X135500000Y-84290000D03*
X135500000Y-86830000D03*
X135500000Y-89370000D03*
X135500000Y-91910000D03*
X135500000Y-94450000D03*
X135500000Y-96990000D03*
X135500000Y-99530000D03*
X135500000Y-102070000D03*
X135500000Y-104610000D03*
X135500000Y-107150000D03*
X135500000Y-109690000D03*
X135500000Y-112230000D03*
X135500000Y-114770000D03*
X135500000Y-117310000D03*
X135500000Y-119850000D03*
X135500000Y-122390000D03*
%TD*%
%TO.C,Magnetometer1*%
X147000000Y-107000000D03*
X149540000Y-107000000D03*
X152080000Y-107000000D03*
X154620000Y-107000000D03*
X157160000Y-107000000D03*
X159700000Y-107000000D03*
%TD*%
%TO.C,IMU1*%
X168445000Y-120065000D03*
X168445000Y-117525000D03*
X168445000Y-114985000D03*
X168445000Y-112445000D03*
X168445000Y-109905000D03*
X168445000Y-107365000D03*
X168445000Y-104825000D03*
X168445000Y-102285000D03*
%TD*%
M02*
