%TF.GenerationSoftware,KiCad,Pcbnew,8.0.5*%
%TF.CreationDate,2025-03-06T00:48:24-05:00*%
%TF.ProjectId,CanSat_Sensor_Board,43616e53-6174-45f5-9365-6e736f725f42,rev?*%
%TF.SameCoordinates,Original*%
%TF.FileFunction,Profile,NP*%
%FSLAX46Y46*%
G04 Gerber Fmt 4.6, Leading zero omitted, Abs format (unit mm)*
G04 Created by KiCad (PCBNEW 8.0.5) date 2025-03-06 00:48:24*
%MOMM*%
%LPD*%
G01*
G04 APERTURE LIST*
%TA.AperFunction,Profile*%
%ADD10C,0.050000*%
%TD*%
G04 APERTURE END LIST*
D10*
X108500000Y-115000000D02*
G75*
G02*
X105500000Y-115000000I-1500000J0D01*
G01*
X105500000Y-115000000D02*
G75*
G02*
X108500000Y-115000000I1500000J0D01*
G01*
X200000000Y-100000000D02*
G75*
G02*
X100000000Y-100000000I-50000000J0D01*
G01*
X100000000Y-100000000D02*
G75*
G02*
X200000000Y-100000000I50000000J0D01*
G01*
X194500000Y-85000000D02*
G75*
G02*
X191500000Y-85000000I-1500000J0D01*
G01*
X191500000Y-85000000D02*
G75*
G02*
X194500000Y-85000000I1500000J0D01*
G01*
X108500000Y-85000000D02*
G75*
G02*
X105500000Y-85000000I-1500000J0D01*
G01*
X105500000Y-85000000D02*
G75*
G02*
X108500000Y-85000000I1500000J0D01*
G01*
X194500000Y-115000000D02*
G75*
G02*
X191500000Y-115000000I-1500000J0D01*
G01*
X191500000Y-115000000D02*
G75*
G02*
X194500000Y-115000000I1500000J0D01*
G01*
%TO.C,Temp&Pressure1*%
X144490000Y-113300000D02*
G75*
G02*
X141950000Y-113300000I-1270000J0D01*
G01*
X141950000Y-113300000D02*
G75*
G02*
X144490000Y-113300000I1270000J0D01*
G01*
X144490000Y-126000000D02*
G75*
G02*
X141950000Y-126000000I-1270000J0D01*
G01*
X141950000Y-126000000D02*
G75*
G02*
X144490000Y-126000000I1270000J0D01*
G01*
X164810000Y-113300000D02*
G75*
G02*
X162270000Y-113300000I-1270000J0D01*
G01*
X162270000Y-113300000D02*
G75*
G02*
X164810000Y-113300000I1270000J0D01*
G01*
X164810000Y-126000000D02*
G75*
G02*
X162270000Y-126000000I-1270000J0D01*
G01*
X162270000Y-126000000D02*
G75*
G02*
X164810000Y-126000000I1270000J0D01*
G01*
%TO.C,Magnetometer1*%
X144460000Y-94300000D02*
G75*
G02*
X141920000Y-94300000I-1270000J0D01*
G01*
X141920000Y-94300000D02*
G75*
G02*
X144460000Y-94300000I1270000J0D01*
G01*
X144460000Y-107000000D02*
G75*
G02*
X141920000Y-107000000I-1270000J0D01*
G01*
X141920000Y-107000000D02*
G75*
G02*
X144460000Y-107000000I1270000J0D01*
G01*
X164780000Y-94300000D02*
G75*
G02*
X162240000Y-94300000I-1270000J0D01*
G01*
X162240000Y-94300000D02*
G75*
G02*
X164780000Y-94300000I1270000J0D01*
G01*
X164780000Y-107000000D02*
G75*
G02*
X162240000Y-107000000I-1270000J0D01*
G01*
X162240000Y-107000000D02*
G75*
G02*
X164780000Y-107000000I1270000J0D01*
G01*
%TO.C,IMU1*%
X182325000Y-119350000D02*
G75*
G02*
X179325000Y-119350000I-1500000J0D01*
G01*
X179325000Y-119350000D02*
G75*
G02*
X182325000Y-119350000I1500000J0D01*
G01*
X182325000Y-103000000D02*
G75*
G02*
X179325000Y-103000000I-1500000J0D01*
G01*
X179325000Y-103000000D02*
G75*
G02*
X182325000Y-103000000I1500000J0D01*
G01*
%TD*%
M02*
