M48
; DRILL file {KiCad 8.0.5} date 2025-05-01T20:42:07-0400
; FORMAT={-:-/ absolute / inch / decimal}
; #@! TF.CreationDate,2025-05-01T20:42:07-04:00
; #@! TF.GenerationSoftware,Kicad,Pcbnew,8.0.5
; #@! TF.FileFunction,Plated,1,4,PTH
FMAT,2
INCH
; #@! TA.AperFunction,Plated,PTH,ViaDrill
T1C0.0118
; #@! TA.AperFunction,Plated,PTH,ComponentDrill
T2C0.0220
; #@! TA.AperFunction,Plated,PTH,ComponentDrill
T3C0.0295
; #@! TA.AperFunction,Plated,PTH,ComponentDrill
T4C0.0315
; #@! TA.AperFunction,Plated,PTH,ComponentDrill
T5C0.0394
%
G90
G05
T1
X6.5118Y-5.0394
X7.4311Y-3.7106
X7.4508Y-3.8484
X7.499Y-3.6417
X7.5Y-3.7205
X7.5Y-3.7795
X7.5Y-3.9075
X7.5394Y-4.2618
X7.5492Y-4.1043
X7.5492Y-4.1831
X7.5492Y-4.3209
X7.5492Y-4.3701
X7.5984Y-4.311
X7.6181Y-4.0354
X7.6181Y-4.3799
X7.6191Y-3.6417
X7.628Y-3.7598
X7.628Y-4.2618
X7.6476Y-3.8287
X7.6476Y-4.1043
X7.6476Y-4.1831
X7.6673Y-4.0354
X7.6673Y-4.3406
X7.6772Y-4.2618
X7.687Y-3.8976
X7.6969Y-3.7697
X7.7165Y-3.8484
T2
X7.0813Y-2.9528
X7.1313Y-2.9528
T3
X5.2559Y-5.2362
X5.2559Y-5.4626
X5.2953Y-2.4016
X5.2953Y-2.4803
X5.2953Y-2.5591
X5.2953Y-2.6378
X5.2953Y-2.7165
X5.2953Y-2.7953
X5.3346Y-5.2362
X5.3346Y-5.4626
X5.4134Y-5.2362
X5.4134Y-5.4626
X5.6102Y-5.2362
X5.6102Y-5.4626
X5.689Y-5.2362
X5.689Y-5.4626
X5.7677Y-5.2362
X5.7677Y-5.4626
X5.9646Y-5.2362
X5.9646Y-5.4626
X6.0433Y-5.2362
X6.0433Y-5.4626
X6.122Y-5.2362
X6.122Y-5.4626
X6.3583Y-5.2559
X6.3583Y-5.3346
X6.3583Y-5.4134
X6.3583Y-5.4921
X6.6122Y-5.2953
X6.6122Y-5.374
X6.6122Y-5.4528
X6.6732Y-3.6988
X6.752Y-3.6988
X6.8307Y-3.6988
X6.9094Y-3.6988
X6.9587Y-5.0886
X7.0374Y-5.0886
T4
X6.6811Y-2.6063
X6.6811Y-2.7063
X6.6811Y-2.8063
X6.6811Y-2.9063
X6.9811Y-2.6063
X6.9811Y-2.7063
X6.9811Y-2.8063
X6.9811Y-2.9063
X7.0622Y-3.6811
X7.0622Y-3.8189
X7.3622Y-3.6811
X7.3622Y-3.8189
T5
X4.4882Y-3.0185
X4.4882Y-3.1185
X4.4882Y-3.2185
X4.4882Y-3.3185
X4.4882Y-3.4185
X4.4882Y-3.5185
X4.4882Y-3.6185
X4.4882Y-3.7185
X4.4882Y-3.8185
X4.4882Y-3.9185
X4.4882Y-4.0185
X4.4882Y-4.1185
X4.4882Y-4.2185
X4.4882Y-4.3185
X4.4882Y-4.4185
X4.4882Y-4.5185
X4.4882Y-4.6185
X4.4882Y-4.7185
X4.4882Y-4.8185
X5.3543Y-3.0185
X5.3543Y-3.1185
X5.3543Y-3.2185
X5.3543Y-3.3185
X5.3543Y-3.4185
X5.3543Y-3.5185
X5.3543Y-3.6185
X5.3543Y-3.7185
X5.3543Y-3.8185
X5.3543Y-3.9185
X5.3543Y-4.0185
X5.3543Y-4.1185
X5.3543Y-4.2185
X5.3543Y-4.3185
X5.3543Y-4.4185
X5.3543Y-4.5185
X5.3543Y-4.6185
X5.3543Y-4.7185
X5.3543Y-4.8185
X5.7299Y-4.9606
X5.7799Y-4.2126
X5.7835Y-2.4055
X5.7835Y-2.5055
X5.7835Y-2.6055
X5.7835Y-2.7055
X5.7835Y-2.8055
X5.7835Y-2.9055
X5.7835Y-3.0055
X5.7835Y-3.1055
X5.7835Y-3.2055
X5.7835Y-3.3055
X5.7835Y-3.4055
X5.8299Y-4.9606
X5.8799Y-4.2126
X5.9299Y-4.9606
X5.9799Y-4.2126
X6.0299Y-4.9606
X6.0799Y-4.2126
X6.1299Y-4.9606
X6.1799Y-4.2126
X6.2299Y-4.9606
X6.2799Y-4.2126
X6.2835Y-2.4055
X6.2835Y-2.5055
X6.2835Y-2.6055
X6.2835Y-2.7055
X6.2835Y-2.8055
X6.2835Y-2.9055
X6.2835Y-3.0055
X6.2835Y-3.1055
X6.2835Y-3.2055
X6.2835Y-3.3055
X6.2835Y-3.4055
X6.3299Y-4.9606
X6.6579Y-4.2185
X6.6579Y-4.3185
X6.6579Y-4.4185
X6.6579Y-4.5185
X6.6579Y-4.6185
X6.6579Y-4.7185
X7.3579Y-4.2185
X7.3579Y-4.3185
X7.3579Y-4.4185
X7.3579Y-4.5185
X7.3579Y-4.6185
X7.3579Y-4.7185
M30
