%TF.GenerationSoftware,KiCad,Pcbnew,8.0.5*%
%TF.CreationDate,2025-04-28T01:27:16-04:00*%
%TF.ProjectId,CanSat_Sensor_Board,43616e53-6174-45f5-9365-6e736f725f42,rev?*%
%TF.SameCoordinates,Original*%
%TF.FileFunction,Paste,Top*%
%TF.FilePolarity,Positive*%
%FSLAX46Y46*%
G04 Gerber Fmt 4.6, Leading zero omitted, Abs format (unit mm)*
G04 Created by KiCad (PCBNEW 8.0.5) date 2025-04-28 01:27:16*
%MOMM*%
%LPD*%
G01*
G04 APERTURE LIST*
G04 Aperture macros list*
%AMRoundRect*
0 Rectangle with rounded corners*
0 $1 Rounding radius*
0 $2 $3 $4 $5 $6 $7 $8 $9 X,Y pos of 4 corners*
0 Add a 4 corners polygon primitive as box body*
4,1,4,$2,$3,$4,$5,$6,$7,$8,$9,$2,$3,0*
0 Add four circle primitives for the rounded corners*
1,1,$1+$1,$2,$3*
1,1,$1+$1,$4,$5*
1,1,$1+$1,$6,$7*
1,1,$1+$1,$8,$9*
0 Add four rect primitives between the rounded corners*
20,1,$1+$1,$2,$3,$4,$5,0*
20,1,$1+$1,$4,$5,$6,$7,0*
20,1,$1+$1,$6,$7,$8,$9,0*
20,1,$1+$1,$8,$9,$2,$3,0*%
G04 Aperture macros list end*
%ADD10C,0.750000*%
%ADD11RoundRect,0.250000X-0.475000X0.337500X-0.475000X-0.337500X0.475000X-0.337500X0.475000X0.337500X0*%
%ADD12RoundRect,0.250000X0.475000X-0.337500X0.475000X0.337500X-0.475000X0.337500X-0.475000X-0.337500X0*%
%ADD13RoundRect,0.250000X0.337500X0.475000X-0.337500X0.475000X-0.337500X-0.475000X0.337500X-0.475000X0*%
%ADD14R,2.540000X3.170000*%
%ADD15R,0.228600X0.711200*%
%ADD16RoundRect,0.237500X0.250000X0.237500X-0.250000X0.237500X-0.250000X-0.237500X0.250000X-0.237500X0*%
%ADD17RoundRect,0.250000X-0.337500X-0.475000X0.337500X-0.475000X0.337500X0.475000X-0.337500X0.475000X0*%
%ADD18R,1.500000X3.600000*%
G04 APERTURE END LIST*
D10*
%TO.C,SparkFunXBeeExplorer_U2*%
X144150000Y-59900000D02*
G75*
G02*
X139950000Y-59900000I-2100000J0D01*
G01*
X139950000Y-59900000D02*
G75*
G02*
X144150000Y-59900000I2100000J0D01*
G01*
X144150000Y-87700000D02*
G75*
G02*
X139950000Y-87700000I-2100000J0D01*
G01*
X139950000Y-87700000D02*
G75*
G02*
X144150000Y-87700000I2100000J0D01*
G01*
X166550000Y-59900000D02*
G75*
G02*
X162350000Y-59900000I-2100000J0D01*
G01*
X162350000Y-59900000D02*
G75*
G02*
X166550000Y-59900000I2100000J0D01*
G01*
X166550000Y-87700000D02*
G75*
G02*
X162350000Y-87700000I-2100000J0D01*
G01*
X162350000Y-87700000D02*
G75*
G02*
X166550000Y-87700000I2100000J0D01*
G01*
%TO.C,Adafruit_BME280_STEMMA_QT_U3*%
X145100000Y-113300000D02*
G75*
G02*
X140900000Y-113300000I-2100000J0D01*
G01*
X140900000Y-113300000D02*
G75*
G02*
X145100000Y-113300000I2100000J0D01*
G01*
X165410000Y-113300000D02*
G75*
G02*
X161210000Y-113300000I-2100000J0D01*
G01*
X161210000Y-113300000D02*
G75*
G02*
X165410000Y-113300000I2100000J0D01*
G01*
%TO.C,Adafruit_BNO085_U5*%
X171210000Y-103340000D02*
G75*
G02*
X167010000Y-103340000I-2100000J0D01*
G01*
X167010000Y-103340000D02*
G75*
G02*
X171210000Y-103340000I2100000J0D01*
G01*
X171210000Y-123660000D02*
G75*
G02*
X167010000Y-123660000I-2100000J0D01*
G01*
X167010000Y-123660000D02*
G75*
G02*
X171210000Y-123660000I2100000J0D01*
G01*
X188990000Y-103340000D02*
G75*
G02*
X184790000Y-103340000I-2100000J0D01*
G01*
X184790000Y-103340000D02*
G75*
G02*
X188990000Y-103340000I2100000J0D01*
G01*
X188990000Y-123660000D02*
G75*
G02*
X184790000Y-123660000I-2100000J0D01*
G01*
X184790000Y-123660000D02*
G75*
G02*
X188990000Y-123660000I2100000J0D01*
G01*
%TO.C,Adafruit_LIS3MDL_U4*%
X145100000Y-94300000D02*
G75*
G02*
X140900000Y-94300000I-2100000J0D01*
G01*
X140900000Y-94300000D02*
G75*
G02*
X145100000Y-94300000I2100000J0D01*
G01*
X145100000Y-107000000D02*
G75*
G02*
X140900000Y-107000000I-2100000J0D01*
G01*
X140900000Y-107000000D02*
G75*
G02*
X145100000Y-107000000I2100000J0D01*
G01*
X165420000Y-94300000D02*
G75*
G02*
X161220000Y-94300000I-2100000J0D01*
G01*
X161220000Y-94300000D02*
G75*
G02*
X165420000Y-94300000I2100000J0D01*
G01*
X165420000Y-107000000D02*
G75*
G02*
X161220000Y-107000000I-2100000J0D01*
G01*
X161220000Y-107000000D02*
G75*
G02*
X165420000Y-107000000I2100000J0D01*
G01*
%TD*%
D11*
%TO.C,C8*%
X191750000Y-104175001D03*
X191750000Y-106250001D03*
%TD*%
D12*
%TO.C,C7*%
X194250000Y-106250001D03*
X194250000Y-104175001D03*
%TD*%
%TO.C,C1*%
X174000000Y-136037500D03*
X174000000Y-133962500D03*
%TD*%
D13*
%TO.C,C4*%
X154387500Y-100650000D03*
X152312500Y-100650000D03*
%TD*%
D14*
%TO.C,2894TR_U7*%
X185240000Y-83500000D03*
X170000000Y-83500000D03*
%TD*%
D15*
%TO.C,TPS610333DRLR_U8*%
X192049200Y-101299201D03*
X192549201Y-101299201D03*
X193049201Y-101299201D03*
X193549202Y-101299201D03*
X193549202Y-99700799D03*
X193049201Y-99700799D03*
X192549201Y-99700799D03*
X192049200Y-99700799D03*
%TD*%
D16*
%TO.C,R1*%
X172825000Y-129250000D03*
X171000000Y-129250000D03*
%TD*%
D17*
%TO.C,C6*%
X169462500Y-61750000D03*
X171537500Y-61750000D03*
%TD*%
D18*
%TO.C,WE-LQS_4025_L1*%
X193525000Y-92500000D03*
X190475000Y-92500000D03*
%TD*%
D17*
%TO.C,C3*%
X168962500Y-98500000D03*
X171037500Y-98500000D03*
%TD*%
D12*
%TO.C,C5*%
X178000000Y-114537500D03*
X178000000Y-112462500D03*
%TD*%
D17*
%TO.C,C2*%
X152342500Y-119650000D03*
X154417500Y-119650000D03*
%TD*%
M02*
