M48
; DRILL file {KiCad 8.0.5} date 2025-05-01T20:42:07-0400
; FORMAT={-:-/ absolute / inch / decimal}
; #@! TF.CreationDate,2025-05-01T20:42:07-04:00
; #@! TF.GenerationSoftware,Kicad,Pcbnew,8.0.5
; #@! TF.FileFunction,NonPlated,1,4,NPTH
FMAT,2
INCH
; #@! TA.AperFunction,NonPlated,NPTH,ComponentDrill
T1C0.0394
; #@! TA.AperFunction,NonPlated,NPTH,ComponentDrill
T2C0.1181
%
G90
G05
T1
X5.8799Y-3.7126
X5.9799Y-3.7126
X6.0799Y-3.7126
X6.1799Y-3.7126
T2
X4.2717Y-3.3465
X4.2717Y-4.5276
X5.5925Y-2.3583
X5.5925Y-3.4528
X5.6299Y-3.7126
X5.6299Y-4.2126
X5.6299Y-4.4606
X6.4299Y-3.7126
X6.4299Y-4.2126
X6.4299Y-4.4606
X6.4744Y-2.3583
X6.4744Y-3.4528
X6.6579Y-4.0685
X6.6579Y-4.8685
X7.3579Y-4.0685
X7.3579Y-4.8685
X7.5394Y-3.3465
X7.5394Y-4.5276
M30
