%TF.GenerationSoftware,KiCad,Pcbnew,8.0.5*%
%TF.CreationDate,2025-05-01T20:41:22-04:00*%
%TF.ProjectId,CanSat_Power_Management_Board,43616e53-6174-45f5-906f-7765725f4d61,rev?*%
%TF.SameCoordinates,Original*%
%TF.FileFunction,Drillmap*%
%TF.FilePolarity,Positive*%
%FSLAX45Y45*%
G04 Gerber Fmt 4.5, Leading zero omitted, Abs format (unit mm)*
G04 Created by KiCad (PCBNEW 8.0.5) date 2025-05-01 20:41:22*
%MOMM*%
%LPD*%
G01*
G04 APERTURE LIST*
%ADD10C,0.050000*%
%ADD11C,0.200000*%
%ADD12C,0.100000*%
%ADD13C,0.110000*%
%ADD14C,0.160000*%
G04 APERTURE END LIST*
D10*
X19750000Y-10000000D02*
G75*
G02*
X10250000Y-10000000I-4750000J0D01*
G01*
X10250000Y-10000000D02*
G75*
G02*
X19750000Y-10000000I4750000J0D01*
G01*
D11*
D12*
X12735000Y-7610000D02*
X12765000Y-7640000D01*
X12765000Y-7610000D02*
X12735000Y-7640000D01*
X13360000Y-10785000D02*
X13390000Y-10815000D01*
X13390000Y-10785000D02*
X13360000Y-10815000D01*
X13385000Y-10560000D02*
X13415000Y-10590000D01*
X13415000Y-10560000D02*
X13385000Y-10590000D01*
X13385000Y-11310000D02*
X13415000Y-11340000D01*
X13415000Y-11310000D02*
X13385000Y-11340000D01*
X13435000Y-10675603D02*
X13465000Y-10705603D01*
X13465000Y-10675603D02*
X13435000Y-10705603D01*
X13435000Y-10885000D02*
X13465000Y-10915000D01*
X13465000Y-10885000D02*
X13435000Y-10915000D01*
X13510000Y-10460000D02*
X13540000Y-10490000D01*
X13540000Y-10460000D02*
X13510000Y-10490000D01*
X13510000Y-10785000D02*
X13540000Y-10815000D01*
X13540000Y-10785000D02*
X13510000Y-10815000D01*
X13535000Y-10585000D02*
X13565000Y-10615000D01*
X13565000Y-10585000D02*
X13535000Y-10615000D01*
X13610000Y-11260000D02*
X13640000Y-11290000D01*
X13640000Y-11260000D02*
X13610000Y-11290000D01*
X13660000Y-10960000D02*
X13690000Y-10990000D01*
X13690000Y-10960000D02*
X13660000Y-10990000D01*
X13735000Y-11110000D02*
X13765000Y-11140000D01*
X13765000Y-11110000D02*
X13735000Y-11140000D01*
X13785000Y-11260000D02*
X13815000Y-11290000D01*
X13815000Y-11260000D02*
X13785000Y-11290000D01*
X13935000Y-10860000D02*
X13965000Y-10890000D01*
X13965000Y-10860000D02*
X13935000Y-10890000D01*
X13985000Y-10535000D02*
X14015000Y-10565000D01*
X14015000Y-10535000D02*
X13985000Y-10565000D01*
X13985000Y-10760000D02*
X14015000Y-10790000D01*
X14015000Y-10760000D02*
X13985000Y-10790000D01*
X13985000Y-10935000D02*
X14015000Y-10965000D01*
X14015000Y-10935000D02*
X13985000Y-10965000D01*
X13987500Y-10663750D02*
X14017500Y-10693750D01*
X14017500Y-10663750D02*
X13987500Y-10693750D01*
X14185000Y-10910000D02*
X14215000Y-10940000D01*
X14215000Y-10910000D02*
X14185000Y-10940000D01*
X14260000Y-10535000D02*
X14290000Y-10565000D01*
X14290000Y-10535000D02*
X14260000Y-10565000D01*
X14285000Y-10685000D02*
X14315000Y-10715000D01*
X14315000Y-10685000D02*
X14285000Y-10715000D01*
X14310000Y-10860000D02*
X14340000Y-10890000D01*
X14340000Y-10860000D02*
X14310000Y-10890000D01*
X14310000Y-11410000D02*
X14340000Y-11440000D01*
X14340000Y-11410000D02*
X14310000Y-11440000D01*
X14335000Y-11610000D02*
X14365000Y-11640000D01*
X14365000Y-11610000D02*
X14335000Y-11640000D01*
X14410000Y-10535000D02*
X14440000Y-10565000D01*
X14440000Y-10535000D02*
X14410000Y-10565000D01*
X14410000Y-11510000D02*
X14440000Y-11540000D01*
X14440000Y-11510000D02*
X14410000Y-11540000D01*
X14435000Y-10685000D02*
X14465000Y-10715000D01*
X14465000Y-10685000D02*
X14435000Y-10715000D01*
X14485000Y-11685000D02*
X14515000Y-11715000D01*
X14515000Y-11685000D02*
X14485000Y-11715000D01*
X14510000Y-11410000D02*
X14540000Y-11440000D01*
X14540000Y-11410000D02*
X14510000Y-11440000D01*
X14535000Y-10785000D02*
X14565000Y-10815000D01*
X14565000Y-10785000D02*
X14535000Y-10815000D01*
X14560000Y-10960000D02*
X14590000Y-10990000D01*
X14590000Y-10960000D02*
X14560000Y-10990000D01*
X14585000Y-10535000D02*
X14615000Y-10565000D01*
X14615000Y-10535000D02*
X14585000Y-10565000D01*
X14610000Y-10685000D02*
X14640000Y-10715000D01*
X14640000Y-10685000D02*
X14610000Y-10715000D01*
X14610000Y-11310000D02*
X14640000Y-11340000D01*
X14640000Y-11310000D02*
X14610000Y-11340000D01*
X14635000Y-10860000D02*
X14665000Y-10890000D01*
X14665000Y-10860000D02*
X14635000Y-10890000D01*
X14660000Y-11035000D02*
X14690000Y-11065000D01*
X14690000Y-11035000D02*
X14660000Y-11065000D01*
X14685000Y-9660000D02*
X14715000Y-9690000D01*
X14715000Y-9660000D02*
X14685000Y-9690000D01*
X14710000Y-9435000D02*
X14740000Y-9465000D01*
X14740000Y-9435000D02*
X14710000Y-9465000D01*
X14710000Y-11210000D02*
X14740000Y-11240000D01*
X14740000Y-11210000D02*
X14710000Y-11240000D01*
X14710000Y-11410000D02*
X14740000Y-11440000D01*
X14740000Y-11410000D02*
X14710000Y-11440000D01*
X14735000Y-9210000D02*
X14765000Y-9240000D01*
X14765000Y-9210000D02*
X14735000Y-9240000D01*
X14735000Y-10535000D02*
X14765000Y-10565000D01*
X14765000Y-10535000D02*
X14735000Y-10565000D01*
X14760000Y-10685000D02*
X14790000Y-10715000D01*
X14790000Y-10685000D02*
X14760000Y-10715000D01*
X14785000Y-10860000D02*
X14815000Y-10890000D01*
X14815000Y-10860000D02*
X14785000Y-10890000D01*
X14810000Y-11035000D02*
X14840000Y-11065000D01*
X14840000Y-11035000D02*
X14810000Y-11065000D01*
X14810000Y-11310000D02*
X14840000Y-11340000D01*
X14840000Y-11310000D02*
X14810000Y-11340000D01*
X14810000Y-11510000D02*
X14840000Y-11540000D01*
X14840000Y-11510000D02*
X14810000Y-11540000D01*
X14810000Y-11710000D02*
X14840000Y-11740000D01*
X14840000Y-11710000D02*
X14810000Y-11740000D01*
X14860000Y-9660000D02*
X14890000Y-9690000D01*
X14890000Y-9660000D02*
X14860000Y-9690000D01*
X14885000Y-9435000D02*
X14915000Y-9465000D01*
X14915000Y-9435000D02*
X14885000Y-9465000D01*
X14910000Y-9210000D02*
X14940000Y-9240000D01*
X14940000Y-9210000D02*
X14910000Y-9240000D01*
X14960000Y-8435000D02*
X14990000Y-8465000D01*
X14990000Y-8435000D02*
X14960000Y-8465000D01*
X14960000Y-8585000D02*
X14990000Y-8615000D01*
X14990000Y-8585000D02*
X14960000Y-8615000D01*
X15035000Y-9660000D02*
X15065000Y-9690000D01*
X15065000Y-9660000D02*
X15035000Y-9690000D01*
X15060000Y-9435000D02*
X15090000Y-9465000D01*
X15090000Y-9435000D02*
X15060000Y-9465000D01*
X15085000Y-8435000D02*
X15115000Y-8465000D01*
X15115000Y-8435000D02*
X15085000Y-8465000D01*
X15085000Y-9210000D02*
X15115000Y-9240000D01*
X15115000Y-9210000D02*
X15085000Y-9240000D01*
X15110000Y-8635000D02*
X15140000Y-8665000D01*
X15140000Y-8635000D02*
X15110000Y-8665000D01*
X15185000Y-8260000D02*
X15215000Y-8290000D01*
X15215000Y-8260000D02*
X15185000Y-8290000D01*
X15210000Y-8435000D02*
X15240000Y-8465000D01*
X15240000Y-8435000D02*
X15210000Y-8465000D01*
X15210000Y-9135000D02*
X15240000Y-9165000D01*
X15240000Y-9135000D02*
X15210000Y-9165000D01*
X15210000Y-9660000D02*
X15240000Y-9690000D01*
X15240000Y-9660000D02*
X15210000Y-9690000D01*
X15260000Y-8635000D02*
X15290000Y-8665000D01*
X15290000Y-8635000D02*
X15260000Y-8665000D01*
X15260000Y-9435000D02*
X15290000Y-9465000D01*
X15290000Y-9435000D02*
X15260000Y-9465000D01*
X15310000Y-8260000D02*
X15340000Y-8290000D01*
X15340000Y-8260000D02*
X15310000Y-8290000D01*
X15360000Y-8435000D02*
X15390000Y-8465000D01*
X15390000Y-8435000D02*
X15360000Y-8465000D01*
X15385000Y-9135000D02*
X15415000Y-9165000D01*
X15415000Y-9135000D02*
X15385000Y-9165000D01*
X15385000Y-9660000D02*
X15415000Y-9690000D01*
X15415000Y-9660000D02*
X15385000Y-9690000D01*
X15410000Y-8635000D02*
X15440000Y-8665000D01*
X15440000Y-8635000D02*
X15410000Y-8665000D01*
X15435000Y-9435000D02*
X15465000Y-9465000D01*
X15465000Y-9435000D02*
X15435000Y-9465000D01*
X15460000Y-8010000D02*
X15490000Y-8040000D01*
X15490000Y-8010000D02*
X15460000Y-8040000D01*
X15460000Y-8260000D02*
X15490000Y-8290000D01*
X15490000Y-8260000D02*
X15460000Y-8290000D01*
X15510000Y-8435000D02*
X15540000Y-8465000D01*
X15540000Y-8435000D02*
X15510000Y-8465000D01*
X15560000Y-8635000D02*
X15590000Y-8665000D01*
X15590000Y-8635000D02*
X15560000Y-8665000D01*
X15560000Y-9135000D02*
X15590000Y-9165000D01*
X15590000Y-9135000D02*
X15560000Y-9165000D01*
X15560000Y-9660000D02*
X15590000Y-9690000D01*
X15590000Y-9660000D02*
X15560000Y-9690000D01*
X15610000Y-8260000D02*
X15640000Y-8290000D01*
X15640000Y-8260000D02*
X15610000Y-8290000D01*
X15610000Y-9435000D02*
X15640000Y-9465000D01*
X15640000Y-9435000D02*
X15610000Y-9465000D01*
X15635000Y-8010000D02*
X15665000Y-8040000D01*
X15665000Y-8010000D02*
X15635000Y-8040000D01*
X15635000Y-8435000D02*
X15665000Y-8465000D01*
X15665000Y-8435000D02*
X15635000Y-8465000D01*
X15710000Y-9660000D02*
X15740000Y-9690000D01*
X15740000Y-9660000D02*
X15710000Y-9690000D01*
X15735000Y-8260000D02*
X15765000Y-8290000D01*
X15765000Y-8260000D02*
X15735000Y-8290000D01*
X15760000Y-8435000D02*
X15790000Y-8465000D01*
X15790000Y-8435000D02*
X15760000Y-8465000D01*
X15785000Y-8010000D02*
X15815000Y-8040000D01*
X15815000Y-8010000D02*
X15785000Y-8040000D01*
X15810000Y-9460000D02*
X15840000Y-9490000D01*
X15840000Y-9460000D02*
X15810000Y-9490000D01*
X15860000Y-8260000D02*
X15890000Y-8290000D01*
X15890000Y-8260000D02*
X15860000Y-8290000D01*
X15885000Y-9660000D02*
X15915000Y-9690000D01*
X15915000Y-9660000D02*
X15885000Y-9690000D01*
X16060000Y-8260000D02*
X16090000Y-8290000D01*
X16090000Y-8260000D02*
X16060000Y-8290000D01*
X16060000Y-9660000D02*
X16090000Y-9690000D01*
X16090000Y-9660000D02*
X16060000Y-9690000D01*
X16160000Y-8360000D02*
X16190000Y-8390000D01*
X16190000Y-8360000D02*
X16160000Y-8390000D01*
X16235000Y-9635000D02*
X16265000Y-9665000D01*
X16265000Y-9635000D02*
X16235000Y-9665000D01*
X16260000Y-8060000D02*
X16290000Y-8090000D01*
X16290000Y-8060000D02*
X16260000Y-8090000D01*
X16360000Y-8160000D02*
X16390000Y-8190000D01*
X16390000Y-8160000D02*
X16360000Y-8190000D01*
X16360000Y-8560000D02*
X16390000Y-8590000D01*
X16390000Y-8560000D02*
X16360000Y-8590000D01*
X16360000Y-8760000D02*
X16390000Y-8790000D01*
X16390000Y-8760000D02*
X16360000Y-8790000D01*
X16410000Y-9635000D02*
X16440000Y-9665000D01*
X16440000Y-9635000D02*
X16410000Y-9665000D01*
X16460000Y-7860000D02*
X16490000Y-7890000D01*
X16490000Y-7860000D02*
X16460000Y-7890000D01*
X16460000Y-8260000D02*
X16490000Y-8290000D01*
X16490000Y-8260000D02*
X16460000Y-8290000D01*
X16460000Y-8660000D02*
X16490000Y-8690000D01*
X16490000Y-8660000D02*
X16460000Y-8690000D01*
X16460000Y-8860000D02*
X16490000Y-8890000D01*
X16490000Y-8860000D02*
X16460000Y-8890000D01*
X16560000Y-7760000D02*
X16590000Y-7790000D01*
X16590000Y-7760000D02*
X16560000Y-7790000D01*
X16560000Y-7960000D02*
X16590000Y-7990000D01*
X16590000Y-7960000D02*
X16560000Y-7990000D01*
X16560000Y-8360000D02*
X16590000Y-8390000D01*
X16590000Y-8360000D02*
X16560000Y-8390000D01*
X16560000Y-8760000D02*
X16590000Y-8790000D01*
X16590000Y-8760000D02*
X16560000Y-8790000D01*
X16585000Y-9635000D02*
X16615000Y-9665000D01*
X16615000Y-9635000D02*
X16585000Y-9665000D01*
X16660000Y-7860000D02*
X16690000Y-7890000D01*
X16690000Y-7860000D02*
X16660000Y-7890000D01*
X16660000Y-8460000D02*
X16690000Y-8490000D01*
X16690000Y-8460000D02*
X16660000Y-8490000D01*
X16660000Y-8860000D02*
X16690000Y-8890000D01*
X16690000Y-8860000D02*
X16660000Y-8890000D01*
X16760000Y-7760000D02*
X16790000Y-7790000D01*
X16790000Y-7760000D02*
X16760000Y-7790000D01*
X16760000Y-8560000D02*
X16790000Y-8590000D01*
X16790000Y-8560000D02*
X16760000Y-8590000D01*
X16860000Y-7860000D02*
X16890000Y-7890000D01*
X16890000Y-7860000D02*
X16860000Y-7890000D01*
X16860000Y-8660000D02*
X16890000Y-8690000D01*
X16890000Y-8660000D02*
X16860000Y-8690000D01*
X16935000Y-8460000D02*
X16965000Y-8490000D01*
X16965000Y-8460000D02*
X16935000Y-8490000D01*
X16960000Y-8760000D02*
X16990000Y-8790000D01*
X16990000Y-8760000D02*
X16960000Y-8790000D01*
X17060000Y-8860000D02*
X17090000Y-8890000D01*
X17090000Y-8860000D02*
X17060000Y-8890000D01*
X17160000Y-8160000D02*
X17190000Y-8190000D01*
X17190000Y-8160000D02*
X17160000Y-8190000D01*
X17160000Y-8360000D02*
X17190000Y-8390000D01*
X17190000Y-8360000D02*
X17160000Y-8390000D01*
X17160000Y-8560000D02*
X17190000Y-8590000D01*
X17190000Y-8560000D02*
X17160000Y-8590000D01*
X17210000Y-9210000D02*
X17240000Y-9240000D01*
X17240000Y-9210000D02*
X17210000Y-9240000D01*
X17260000Y-8660000D02*
X17290000Y-8690000D01*
X17290000Y-8660000D02*
X17260000Y-8690000D01*
X17360000Y-8360000D02*
X17390000Y-8390000D01*
X17390000Y-8360000D02*
X17360000Y-8390000D01*
X17360000Y-9210000D02*
X17390000Y-9240000D01*
X17390000Y-9210000D02*
X17360000Y-9240000D01*
X17510000Y-9185000D02*
X17540000Y-9215000D01*
X17540000Y-9185000D02*
X17510000Y-9215000D01*
X17660000Y-9085000D02*
X17690000Y-9115000D01*
X17690000Y-9085000D02*
X17660000Y-9115000D01*
X17760000Y-7860000D02*
X17790000Y-7890000D01*
X17790000Y-7860000D02*
X17760000Y-7890000D01*
X17760000Y-8110000D02*
X17790000Y-8140000D01*
X17790000Y-8110000D02*
X17760000Y-8140000D01*
X17760000Y-8335000D02*
X17790000Y-8365000D01*
X17790000Y-8335000D02*
X17760000Y-8365000D01*
X17760000Y-8585000D02*
X17790000Y-8615000D01*
X17790000Y-8585000D02*
X17760000Y-8615000D01*
X17760000Y-8810000D02*
X17790000Y-8840000D01*
X17790000Y-8810000D02*
X17760000Y-8840000D01*
X17760000Y-9010000D02*
X17790000Y-9040000D01*
X17790000Y-9010000D02*
X17760000Y-9040000D01*
X12808500Y-11100000D02*
G75*
G02*
X12733500Y-11100000I-37500J0D01*
G01*
X12733500Y-11100000D02*
G75*
G02*
X12808500Y-11100000I37500J0D01*
G01*
X12935500Y-11100000D02*
G75*
G02*
X12860500Y-11100000I-37500J0D01*
G01*
X12860500Y-11100000D02*
G75*
G02*
X12935500Y-11100000I37500J0D01*
G01*
X13062500Y-11100000D02*
G75*
G02*
X12987500Y-11100000I-37500J0D01*
G01*
X12987500Y-11100000D02*
G75*
G02*
X13062500Y-11100000I37500J0D01*
G01*
X13912500Y-9070000D02*
G75*
G02*
X13837500Y-9070000I-37500J0D01*
G01*
X13837500Y-9070000D02*
G75*
G02*
X13912500Y-9070000I37500J0D01*
G01*
X14112500Y-9070000D02*
G75*
G02*
X14037500Y-9070000I-37500J0D01*
G01*
X14037500Y-9070000D02*
G75*
G02*
X14112500Y-9070000I37500J0D01*
G01*
X14362500Y-12625000D02*
G75*
G02*
X14287500Y-12625000I-37500J0D01*
G01*
X14287500Y-12625000D02*
G75*
G02*
X14362500Y-12625000I37500J0D01*
G01*
X14362500Y-13255000D02*
G75*
G02*
X14287500Y-13255000I-37500J0D01*
G01*
X14287500Y-13255000D02*
G75*
G02*
X14362500Y-13255000I37500J0D01*
G01*
X14562500Y-12625000D02*
G75*
G02*
X14487500Y-12625000I-37500J0D01*
G01*
X14487500Y-12625000D02*
G75*
G02*
X14562500Y-12625000I37500J0D01*
G01*
X14562500Y-13255000D02*
G75*
G02*
X14487500Y-13255000I-37500J0D01*
G01*
X14487500Y-13255000D02*
G75*
G02*
X14562500Y-13255000I37500J0D01*
G01*
X14787500Y-7620000D02*
G75*
G02*
X14712500Y-7620000I-37500J0D01*
G01*
X14712500Y-7620000D02*
G75*
G02*
X14787500Y-7620000I37500J0D01*
G01*
X14987500Y-7620000D02*
G75*
G02*
X14912500Y-7620000I-37500J0D01*
G01*
X14912500Y-7620000D02*
G75*
G02*
X14987500Y-7620000I37500J0D01*
G01*
X17887500Y-9420000D02*
G75*
G02*
X17812500Y-9420000I-37500J0D01*
G01*
X17812500Y-9420000D02*
G75*
G02*
X17887500Y-9420000I37500J0D01*
G01*
X18087500Y-9420000D02*
G75*
G02*
X18012500Y-9420000I-37500J0D01*
G01*
X18012500Y-9420000D02*
G75*
G02*
X18087500Y-9420000I37500J0D01*
G01*
X18287500Y-9420000D02*
G75*
G02*
X18212500Y-9420000I-37500J0D01*
G01*
X18212500Y-9420000D02*
G75*
G02*
X18287500Y-9420000I37500J0D01*
G01*
X18487500Y-9420000D02*
G75*
G02*
X18412500Y-9420000I-37500J0D01*
G01*
X18412500Y-9420000D02*
G75*
G02*
X18487500Y-9420000I37500J0D01*
G01*
X11650000Y-8929000D02*
X11650000Y-9009000D01*
X11610000Y-8969000D02*
X11690000Y-8969000D01*
X11650000Y-9691000D02*
X11650000Y-9771000D01*
X11610000Y-9731000D02*
X11690000Y-9731000D01*
X12119000Y-7935000D02*
X12119000Y-8015000D01*
X12079000Y-7975000D02*
X12159000Y-7975000D01*
X12119000Y-8335000D02*
X12119000Y-8415000D01*
X12079000Y-8375000D02*
X12159000Y-8375000D01*
X12175000Y-8929000D02*
X12175000Y-9009000D01*
X12135000Y-8969000D02*
X12215000Y-8969000D01*
X12175000Y-9691000D02*
X12175000Y-9771000D01*
X12135000Y-9731000D02*
X12215000Y-9731000D01*
X12700000Y-8929000D02*
X12700000Y-9009000D01*
X12660000Y-8969000D02*
X12740000Y-8969000D01*
X12700000Y-9691000D02*
X12700000Y-9771000D01*
X12660000Y-9731000D02*
X12740000Y-9731000D01*
X12881000Y-7935000D02*
X12881000Y-8015000D01*
X12841000Y-7975000D02*
X12921000Y-7975000D01*
X12881000Y-8335000D02*
X12881000Y-8415000D01*
X12841000Y-8375000D02*
X12921000Y-8375000D01*
X13175000Y-11613750D02*
X13175000Y-11693750D01*
X13135000Y-11653750D02*
X13215000Y-11653750D01*
X13175000Y-12375750D02*
X13175000Y-12455750D01*
X13135000Y-12415750D02*
X13215000Y-12415750D01*
X13225000Y-8929000D02*
X13225000Y-9009000D01*
X13185000Y-8969000D02*
X13265000Y-8969000D01*
X13225000Y-9691000D02*
X13225000Y-9771000D01*
X13185000Y-9731000D02*
X13265000Y-9731000D01*
X13269000Y-7935000D02*
X13269000Y-8015000D01*
X13229000Y-7975000D02*
X13309000Y-7975000D01*
X13269000Y-8335000D02*
X13269000Y-8415000D01*
X13229000Y-8375000D02*
X13309000Y-8375000D01*
X13575000Y-11613750D02*
X13575000Y-11693750D01*
X13535000Y-11653750D02*
X13615000Y-11653750D01*
X13575000Y-12375750D02*
X13575000Y-12455750D01*
X13535000Y-12415750D02*
X13615000Y-12415750D01*
X13919000Y-11613750D02*
X13919000Y-11693750D01*
X13879000Y-11653750D02*
X13959000Y-11653750D01*
X14031000Y-7935000D02*
X14031000Y-8015000D01*
X13991000Y-7975000D02*
X14071000Y-7975000D01*
X14031000Y-8335000D02*
X14031000Y-8415000D01*
X13991000Y-8375000D02*
X14071000Y-8375000D01*
X14681000Y-11613750D02*
X14681000Y-11693750D01*
X14641000Y-11653750D02*
X14721000Y-11653750D01*
X15320000Y-12655000D02*
X15320000Y-12735000D01*
X15280000Y-12695000D02*
X15360000Y-12695000D01*
X15320000Y-12909000D02*
X15320000Y-12989000D01*
X15280000Y-12949000D02*
X15360000Y-12949000D01*
X15320000Y-13163000D02*
X15320000Y-13243000D01*
X15280000Y-13203000D02*
X15360000Y-13203000D01*
X15320000Y-13417000D02*
X15320000Y-13497000D01*
X15280000Y-13457000D02*
X15360000Y-13457000D01*
X15800000Y-7760000D02*
X15800000Y-7840000D01*
X15760000Y-7800000D02*
X15840000Y-7800000D01*
X16082000Y-12655000D02*
X16082000Y-12735000D01*
X16042000Y-12695000D02*
X16122000Y-12695000D01*
X16082000Y-12909000D02*
X16082000Y-12989000D01*
X16042000Y-12949000D02*
X16122000Y-12949000D01*
X16082000Y-13163000D02*
X16082000Y-13243000D01*
X16042000Y-13203000D02*
X16122000Y-13203000D01*
X16082000Y-13417000D02*
X16082000Y-13497000D01*
X16042000Y-13457000D02*
X16122000Y-13457000D01*
X16150000Y-7760000D02*
X16150000Y-7840000D01*
X16110000Y-7800000D02*
X16190000Y-7800000D01*
X16444000Y-12585000D02*
X16444000Y-12665000D01*
X16404000Y-12625000D02*
X16484000Y-12625000D01*
X16444000Y-12985000D02*
X16444000Y-13065000D01*
X16404000Y-13025000D02*
X16484000Y-13025000D01*
X16900000Y-10610000D02*
X16900000Y-10690000D01*
X16860000Y-10650000D02*
X16940000Y-10650000D01*
X16900000Y-11385000D02*
X16900000Y-11465000D01*
X16860000Y-11425000D02*
X16940000Y-11425000D01*
X16900000Y-11885000D02*
X16900000Y-11965000D01*
X16860000Y-11925000D02*
X16940000Y-11925000D01*
X17150000Y-10610000D02*
X17150000Y-10690000D01*
X17110000Y-10650000D02*
X17190000Y-10650000D01*
X17206000Y-12585000D02*
X17206000Y-12665000D01*
X17166000Y-12625000D02*
X17246000Y-12625000D01*
X17206000Y-12985000D02*
X17206000Y-13065000D01*
X17166000Y-13025000D02*
X17246000Y-13025000D01*
X11435356Y-11360356D02*
X11435356Y-11289644D01*
X11364644Y-11289644D01*
X11364644Y-11360356D01*
X11435356Y-11360356D01*
X12510356Y-10360356D02*
X12510356Y-10289644D01*
X12439644Y-10289644D01*
X12439644Y-10360356D01*
X12510356Y-10360356D01*
X13010356Y-7035356D02*
X13010356Y-6964644D01*
X12939644Y-6964644D01*
X12939644Y-7035356D01*
X13010356Y-7035356D01*
X15427356Y-12158356D02*
X15427356Y-12087644D01*
X15356644Y-12087644D01*
X15356644Y-12158356D01*
X15427356Y-12158356D01*
X15681356Y-12158356D02*
X15681356Y-12087644D01*
X15610644Y-12087644D01*
X15610644Y-12158356D01*
X15681356Y-12158356D01*
X15935356Y-12158356D02*
X15935356Y-12087644D01*
X15864644Y-12087644D01*
X15864644Y-12158356D01*
X15935356Y-12158356D01*
X16189356Y-12158356D02*
X16189356Y-12087644D01*
X16118644Y-12087644D01*
X16118644Y-12158356D01*
X16189356Y-12158356D01*
X16443356Y-12158356D02*
X16443356Y-12087644D01*
X16372644Y-12087644D01*
X16372644Y-12158356D01*
X16443356Y-12158356D01*
X17610356Y-10460356D02*
X17610356Y-10389644D01*
X17539644Y-10389644D01*
X17539644Y-10460356D01*
X17610356Y-10460356D01*
X17960356Y-10460356D02*
X17960356Y-10389644D01*
X17889644Y-10389644D01*
X17889644Y-10460356D01*
X17960356Y-10460356D01*
X18310356Y-10460356D02*
X18310356Y-10389644D01*
X18239644Y-10389644D01*
X18239644Y-10460356D01*
X18310356Y-10460356D01*
X18660356Y-10460356D02*
X18660356Y-10389644D01*
X18589644Y-10389644D01*
X18589644Y-10460356D01*
X18660356Y-10460356D01*
D13*
X15800000Y-8790000D02*
X15855000Y-8735000D01*
X15800000Y-8680000D01*
X15745000Y-8735000D01*
X15800000Y-8790000D01*
X15800000Y-9130000D02*
X15855000Y-9075000D01*
X15800000Y-9020000D01*
X15745000Y-9075000D01*
X15800000Y-9130000D01*
X16170000Y-8620000D02*
X16225000Y-8565000D01*
X16170000Y-8510000D01*
X16115000Y-8565000D01*
X16170000Y-8620000D01*
X16170000Y-8960000D02*
X16225000Y-8905000D01*
X16170000Y-8850000D01*
X16115000Y-8905000D01*
X16170000Y-8960000D01*
X16170000Y-9300000D02*
X16225000Y-9245000D01*
X16170000Y-9190000D01*
X16115000Y-9245000D01*
X16170000Y-9300000D01*
D14*
X16795000Y-8083000D02*
X16955000Y-8243000D01*
X16955000Y-8083000D02*
X16795000Y-8243000D01*
X16955000Y-8163000D02*
G75*
G02*
X16795000Y-8163000I-80000J0D01*
G01*
X16795000Y-8163000D02*
G75*
G02*
X16955000Y-8163000I80000J0D01*
G01*
X16795000Y-9607000D02*
X16955000Y-9767000D01*
X16955000Y-9607000D02*
X16795000Y-9767000D01*
X16955000Y-9687000D02*
G75*
G02*
X16795000Y-9687000I-80000J0D01*
G01*
X16795000Y-9687000D02*
G75*
G02*
X16955000Y-9687000I80000J0D01*
G01*
D11*
X10508277Y-15063984D02*
X10508277Y-14863984D01*
X10508277Y-14863984D02*
X10555896Y-14863984D01*
X10555896Y-14863984D02*
X10584467Y-14873508D01*
X10584467Y-14873508D02*
X10603515Y-14892555D01*
X10603515Y-14892555D02*
X10613039Y-14911603D01*
X10613039Y-14911603D02*
X10622563Y-14949698D01*
X10622563Y-14949698D02*
X10622563Y-14978269D01*
X10622563Y-14978269D02*
X10613039Y-15016365D01*
X10613039Y-15016365D02*
X10603515Y-15035412D01*
X10603515Y-15035412D02*
X10584467Y-15054460D01*
X10584467Y-15054460D02*
X10555896Y-15063984D01*
X10555896Y-15063984D02*
X10508277Y-15063984D01*
X10708277Y-15063984D02*
X10708277Y-14930650D01*
X10708277Y-14968746D02*
X10717801Y-14949698D01*
X10717801Y-14949698D02*
X10727324Y-14940174D01*
X10727324Y-14940174D02*
X10746372Y-14930650D01*
X10746372Y-14930650D02*
X10765420Y-14930650D01*
X10832086Y-15063984D02*
X10832086Y-14930650D01*
X10832086Y-14863984D02*
X10822563Y-14873508D01*
X10822563Y-14873508D02*
X10832086Y-14883031D01*
X10832086Y-14883031D02*
X10841610Y-14873508D01*
X10841610Y-14873508D02*
X10832086Y-14863984D01*
X10832086Y-14863984D02*
X10832086Y-14883031D01*
X10955896Y-15063984D02*
X10936848Y-15054460D01*
X10936848Y-15054460D02*
X10927324Y-15035412D01*
X10927324Y-15035412D02*
X10927324Y-14863984D01*
X11060658Y-15063984D02*
X11041610Y-15054460D01*
X11041610Y-15054460D02*
X11032086Y-15035412D01*
X11032086Y-15035412D02*
X11032086Y-14863984D01*
X11289229Y-15063984D02*
X11289229Y-14863984D01*
X11289229Y-14863984D02*
X11355896Y-15006841D01*
X11355896Y-15006841D02*
X11422562Y-14863984D01*
X11422562Y-14863984D02*
X11422562Y-15063984D01*
X11603515Y-15063984D02*
X11603515Y-14959222D01*
X11603515Y-14959222D02*
X11593991Y-14940174D01*
X11593991Y-14940174D02*
X11574943Y-14930650D01*
X11574943Y-14930650D02*
X11536848Y-14930650D01*
X11536848Y-14930650D02*
X11517801Y-14940174D01*
X11603515Y-15054460D02*
X11584467Y-15063984D01*
X11584467Y-15063984D02*
X11536848Y-15063984D01*
X11536848Y-15063984D02*
X11517801Y-15054460D01*
X11517801Y-15054460D02*
X11508277Y-15035412D01*
X11508277Y-15035412D02*
X11508277Y-15016365D01*
X11508277Y-15016365D02*
X11517801Y-14997317D01*
X11517801Y-14997317D02*
X11536848Y-14987793D01*
X11536848Y-14987793D02*
X11584467Y-14987793D01*
X11584467Y-14987793D02*
X11603515Y-14978269D01*
X11698753Y-14930650D02*
X11698753Y-15130650D01*
X11698753Y-14940174D02*
X11717801Y-14930650D01*
X11717801Y-14930650D02*
X11755896Y-14930650D01*
X11755896Y-14930650D02*
X11774943Y-14940174D01*
X11774943Y-14940174D02*
X11784467Y-14949698D01*
X11784467Y-14949698D02*
X11793991Y-14968746D01*
X11793991Y-14968746D02*
X11793991Y-15025888D01*
X11793991Y-15025888D02*
X11784467Y-15044936D01*
X11784467Y-15044936D02*
X11774943Y-15054460D01*
X11774943Y-15054460D02*
X11755896Y-15063984D01*
X11755896Y-15063984D02*
X11717801Y-15063984D01*
X11717801Y-15063984D02*
X11698753Y-15054460D01*
X11879705Y-15044936D02*
X11889229Y-15054460D01*
X11889229Y-15054460D02*
X11879705Y-15063984D01*
X11879705Y-15063984D02*
X11870182Y-15054460D01*
X11870182Y-15054460D02*
X11879705Y-15044936D01*
X11879705Y-15044936D02*
X11879705Y-15063984D01*
X11879705Y-14940174D02*
X11889229Y-14949698D01*
X11889229Y-14949698D02*
X11879705Y-14959222D01*
X11879705Y-14959222D02*
X11870182Y-14949698D01*
X11870182Y-14949698D02*
X11879705Y-14940174D01*
X11879705Y-14940174D02*
X11879705Y-14959222D01*
D12*
X10217500Y-15377500D02*
X10247500Y-15407500D01*
X10247500Y-15377500D02*
X10217500Y-15407500D01*
D11*
X10546372Y-15283984D02*
X10565420Y-15283984D01*
X10565420Y-15283984D02*
X10584467Y-15293508D01*
X10584467Y-15293508D02*
X10593991Y-15303031D01*
X10593991Y-15303031D02*
X10603515Y-15322079D01*
X10603515Y-15322079D02*
X10613039Y-15360174D01*
X10613039Y-15360174D02*
X10613039Y-15407793D01*
X10613039Y-15407793D02*
X10603515Y-15445888D01*
X10603515Y-15445888D02*
X10593991Y-15464936D01*
X10593991Y-15464936D02*
X10584467Y-15474460D01*
X10584467Y-15474460D02*
X10565420Y-15483984D01*
X10565420Y-15483984D02*
X10546372Y-15483984D01*
X10546372Y-15483984D02*
X10527324Y-15474460D01*
X10527324Y-15474460D02*
X10517801Y-15464936D01*
X10517801Y-15464936D02*
X10508277Y-15445888D01*
X10508277Y-15445888D02*
X10498753Y-15407793D01*
X10498753Y-15407793D02*
X10498753Y-15360174D01*
X10498753Y-15360174D02*
X10508277Y-15322079D01*
X10508277Y-15322079D02*
X10517801Y-15303031D01*
X10517801Y-15303031D02*
X10527324Y-15293508D01*
X10527324Y-15293508D02*
X10546372Y-15283984D01*
X10698753Y-15464936D02*
X10708277Y-15474460D01*
X10708277Y-15474460D02*
X10698753Y-15483984D01*
X10698753Y-15483984D02*
X10689229Y-15474460D01*
X10689229Y-15474460D02*
X10698753Y-15464936D01*
X10698753Y-15464936D02*
X10698753Y-15483984D01*
X10774944Y-15283984D02*
X10898753Y-15283984D01*
X10898753Y-15283984D02*
X10832086Y-15360174D01*
X10832086Y-15360174D02*
X10860658Y-15360174D01*
X10860658Y-15360174D02*
X10879705Y-15369698D01*
X10879705Y-15369698D02*
X10889229Y-15379222D01*
X10889229Y-15379222D02*
X10898753Y-15398269D01*
X10898753Y-15398269D02*
X10898753Y-15445888D01*
X10898753Y-15445888D02*
X10889229Y-15464936D01*
X10889229Y-15464936D02*
X10879705Y-15474460D01*
X10879705Y-15474460D02*
X10860658Y-15483984D01*
X10860658Y-15483984D02*
X10803515Y-15483984D01*
X10803515Y-15483984D02*
X10784467Y-15474460D01*
X10784467Y-15474460D02*
X10774944Y-15464936D01*
X11022563Y-15283984D02*
X11041610Y-15283984D01*
X11041610Y-15283984D02*
X11060658Y-15293508D01*
X11060658Y-15293508D02*
X11070182Y-15303031D01*
X11070182Y-15303031D02*
X11079705Y-15322079D01*
X11079705Y-15322079D02*
X11089229Y-15360174D01*
X11089229Y-15360174D02*
X11089229Y-15407793D01*
X11089229Y-15407793D02*
X11079705Y-15445888D01*
X11079705Y-15445888D02*
X11070182Y-15464936D01*
X11070182Y-15464936D02*
X11060658Y-15474460D01*
X11060658Y-15474460D02*
X11041610Y-15483984D01*
X11041610Y-15483984D02*
X11022563Y-15483984D01*
X11022563Y-15483984D02*
X11003515Y-15474460D01*
X11003515Y-15474460D02*
X10993991Y-15464936D01*
X10993991Y-15464936D02*
X10984467Y-15445888D01*
X10984467Y-15445888D02*
X10974944Y-15407793D01*
X10974944Y-15407793D02*
X10974944Y-15360174D01*
X10974944Y-15360174D02*
X10984467Y-15322079D01*
X10984467Y-15322079D02*
X10993991Y-15303031D01*
X10993991Y-15303031D02*
X11003515Y-15293508D01*
X11003515Y-15293508D02*
X11022563Y-15283984D01*
X11213039Y-15283984D02*
X11232086Y-15283984D01*
X11232086Y-15283984D02*
X11251134Y-15293508D01*
X11251134Y-15293508D02*
X11260658Y-15303031D01*
X11260658Y-15303031D02*
X11270182Y-15322079D01*
X11270182Y-15322079D02*
X11279705Y-15360174D01*
X11279705Y-15360174D02*
X11279705Y-15407793D01*
X11279705Y-15407793D02*
X11270182Y-15445888D01*
X11270182Y-15445888D02*
X11260658Y-15464936D01*
X11260658Y-15464936D02*
X11251134Y-15474460D01*
X11251134Y-15474460D02*
X11232086Y-15483984D01*
X11232086Y-15483984D02*
X11213039Y-15483984D01*
X11213039Y-15483984D02*
X11193991Y-15474460D01*
X11193991Y-15474460D02*
X11184467Y-15464936D01*
X11184467Y-15464936D02*
X11174944Y-15445888D01*
X11174944Y-15445888D02*
X11165420Y-15407793D01*
X11165420Y-15407793D02*
X11165420Y-15360174D01*
X11165420Y-15360174D02*
X11174944Y-15322079D01*
X11174944Y-15322079D02*
X11184467Y-15303031D01*
X11184467Y-15303031D02*
X11193991Y-15293508D01*
X11193991Y-15293508D02*
X11213039Y-15283984D01*
X11365420Y-15483984D02*
X11365420Y-15350650D01*
X11365420Y-15369698D02*
X11374943Y-15360174D01*
X11374943Y-15360174D02*
X11393991Y-15350650D01*
X11393991Y-15350650D02*
X11422563Y-15350650D01*
X11422563Y-15350650D02*
X11441610Y-15360174D01*
X11441610Y-15360174D02*
X11451134Y-15379222D01*
X11451134Y-15379222D02*
X11451134Y-15483984D01*
X11451134Y-15379222D02*
X11460658Y-15360174D01*
X11460658Y-15360174D02*
X11479705Y-15350650D01*
X11479705Y-15350650D02*
X11508277Y-15350650D01*
X11508277Y-15350650D02*
X11527324Y-15360174D01*
X11527324Y-15360174D02*
X11536848Y-15379222D01*
X11536848Y-15379222D02*
X11536848Y-15483984D01*
X11632086Y-15483984D02*
X11632086Y-15350650D01*
X11632086Y-15369698D02*
X11641610Y-15360174D01*
X11641610Y-15360174D02*
X11660658Y-15350650D01*
X11660658Y-15350650D02*
X11689229Y-15350650D01*
X11689229Y-15350650D02*
X11708277Y-15360174D01*
X11708277Y-15360174D02*
X11717801Y-15379222D01*
X11717801Y-15379222D02*
X11717801Y-15483984D01*
X11717801Y-15379222D02*
X11727324Y-15360174D01*
X11727324Y-15360174D02*
X11746372Y-15350650D01*
X11746372Y-15350650D02*
X11774943Y-15350650D01*
X11774943Y-15350650D02*
X11793991Y-15360174D01*
X11793991Y-15360174D02*
X11803515Y-15379222D01*
X11803515Y-15379222D02*
X11803515Y-15483984D01*
X12193991Y-15274460D02*
X12022563Y-15531603D01*
X12451134Y-15283984D02*
X12470182Y-15283984D01*
X12470182Y-15283984D02*
X12489229Y-15293508D01*
X12489229Y-15293508D02*
X12498753Y-15303031D01*
X12498753Y-15303031D02*
X12508277Y-15322079D01*
X12508277Y-15322079D02*
X12517801Y-15360174D01*
X12517801Y-15360174D02*
X12517801Y-15407793D01*
X12517801Y-15407793D02*
X12508277Y-15445888D01*
X12508277Y-15445888D02*
X12498753Y-15464936D01*
X12498753Y-15464936D02*
X12489229Y-15474460D01*
X12489229Y-15474460D02*
X12470182Y-15483984D01*
X12470182Y-15483984D02*
X12451134Y-15483984D01*
X12451134Y-15483984D02*
X12432086Y-15474460D01*
X12432086Y-15474460D02*
X12422563Y-15464936D01*
X12422563Y-15464936D02*
X12413039Y-15445888D01*
X12413039Y-15445888D02*
X12403515Y-15407793D01*
X12403515Y-15407793D02*
X12403515Y-15360174D01*
X12403515Y-15360174D02*
X12413039Y-15322079D01*
X12413039Y-15322079D02*
X12422563Y-15303031D01*
X12422563Y-15303031D02*
X12432086Y-15293508D01*
X12432086Y-15293508D02*
X12451134Y-15283984D01*
X12603515Y-15464936D02*
X12613039Y-15474460D01*
X12613039Y-15474460D02*
X12603515Y-15483984D01*
X12603515Y-15483984D02*
X12593991Y-15474460D01*
X12593991Y-15474460D02*
X12603515Y-15464936D01*
X12603515Y-15464936D02*
X12603515Y-15483984D01*
X12736848Y-15283984D02*
X12755896Y-15283984D01*
X12755896Y-15283984D02*
X12774944Y-15293508D01*
X12774944Y-15293508D02*
X12784467Y-15303031D01*
X12784467Y-15303031D02*
X12793991Y-15322079D01*
X12793991Y-15322079D02*
X12803515Y-15360174D01*
X12803515Y-15360174D02*
X12803515Y-15407793D01*
X12803515Y-15407793D02*
X12793991Y-15445888D01*
X12793991Y-15445888D02*
X12784467Y-15464936D01*
X12784467Y-15464936D02*
X12774944Y-15474460D01*
X12774944Y-15474460D02*
X12755896Y-15483984D01*
X12755896Y-15483984D02*
X12736848Y-15483984D01*
X12736848Y-15483984D02*
X12717801Y-15474460D01*
X12717801Y-15474460D02*
X12708277Y-15464936D01*
X12708277Y-15464936D02*
X12698753Y-15445888D01*
X12698753Y-15445888D02*
X12689229Y-15407793D01*
X12689229Y-15407793D02*
X12689229Y-15360174D01*
X12689229Y-15360174D02*
X12698753Y-15322079D01*
X12698753Y-15322079D02*
X12708277Y-15303031D01*
X12708277Y-15303031D02*
X12717801Y-15293508D01*
X12717801Y-15293508D02*
X12736848Y-15283984D01*
X12993991Y-15483984D02*
X12879706Y-15483984D01*
X12936848Y-15483984D02*
X12936848Y-15283984D01*
X12936848Y-15283984D02*
X12917801Y-15312555D01*
X12917801Y-15312555D02*
X12898753Y-15331603D01*
X12898753Y-15331603D02*
X12879706Y-15341127D01*
X13184467Y-15483984D02*
X13070182Y-15483984D01*
X13127325Y-15483984D02*
X13127325Y-15283984D01*
X13127325Y-15283984D02*
X13108277Y-15312555D01*
X13108277Y-15312555D02*
X13089229Y-15331603D01*
X13089229Y-15331603D02*
X13070182Y-15341127D01*
X13298753Y-15369698D02*
X13279706Y-15360174D01*
X13279706Y-15360174D02*
X13270182Y-15350650D01*
X13270182Y-15350650D02*
X13260658Y-15331603D01*
X13260658Y-15331603D02*
X13260658Y-15322079D01*
X13260658Y-15322079D02*
X13270182Y-15303031D01*
X13270182Y-15303031D02*
X13279706Y-15293508D01*
X13279706Y-15293508D02*
X13298753Y-15283984D01*
X13298753Y-15283984D02*
X13336848Y-15283984D01*
X13336848Y-15283984D02*
X13355896Y-15293508D01*
X13355896Y-15293508D02*
X13365420Y-15303031D01*
X13365420Y-15303031D02*
X13374944Y-15322079D01*
X13374944Y-15322079D02*
X13374944Y-15331603D01*
X13374944Y-15331603D02*
X13365420Y-15350650D01*
X13365420Y-15350650D02*
X13355896Y-15360174D01*
X13355896Y-15360174D02*
X13336848Y-15369698D01*
X13336848Y-15369698D02*
X13298753Y-15369698D01*
X13298753Y-15369698D02*
X13279706Y-15379222D01*
X13279706Y-15379222D02*
X13270182Y-15388746D01*
X13270182Y-15388746D02*
X13260658Y-15407793D01*
X13260658Y-15407793D02*
X13260658Y-15445888D01*
X13260658Y-15445888D02*
X13270182Y-15464936D01*
X13270182Y-15464936D02*
X13279706Y-15474460D01*
X13279706Y-15474460D02*
X13298753Y-15483984D01*
X13298753Y-15483984D02*
X13336848Y-15483984D01*
X13336848Y-15483984D02*
X13355896Y-15474460D01*
X13355896Y-15474460D02*
X13365420Y-15464936D01*
X13365420Y-15464936D02*
X13374944Y-15445888D01*
X13374944Y-15445888D02*
X13374944Y-15407793D01*
X13374944Y-15407793D02*
X13365420Y-15388746D01*
X13365420Y-15388746D02*
X13355896Y-15379222D01*
X13355896Y-15379222D02*
X13336848Y-15369698D01*
X13451134Y-15283984D02*
X13451134Y-15322079D01*
X13527325Y-15283984D02*
X13527325Y-15322079D01*
X13822563Y-15560174D02*
X13813039Y-15550650D01*
X13813039Y-15550650D02*
X13793991Y-15522079D01*
X13793991Y-15522079D02*
X13784468Y-15503031D01*
X13784468Y-15503031D02*
X13774944Y-15474460D01*
X13774944Y-15474460D02*
X13765420Y-15426841D01*
X13765420Y-15426841D02*
X13765420Y-15388746D01*
X13765420Y-15388746D02*
X13774944Y-15341127D01*
X13774944Y-15341127D02*
X13784468Y-15312555D01*
X13784468Y-15312555D02*
X13793991Y-15293508D01*
X13793991Y-15293508D02*
X13813039Y-15264936D01*
X13813039Y-15264936D02*
X13822563Y-15255412D01*
X14003515Y-15483984D02*
X13889229Y-15483984D01*
X13946372Y-15483984D02*
X13946372Y-15283984D01*
X13946372Y-15283984D02*
X13927325Y-15312555D01*
X13927325Y-15312555D02*
X13908277Y-15331603D01*
X13908277Y-15331603D02*
X13889229Y-15341127D01*
X14070182Y-15283984D02*
X14193991Y-15283984D01*
X14193991Y-15283984D02*
X14127325Y-15360174D01*
X14127325Y-15360174D02*
X14155896Y-15360174D01*
X14155896Y-15360174D02*
X14174944Y-15369698D01*
X14174944Y-15369698D02*
X14184468Y-15379222D01*
X14184468Y-15379222D02*
X14193991Y-15398269D01*
X14193991Y-15398269D02*
X14193991Y-15445888D01*
X14193991Y-15445888D02*
X14184468Y-15464936D01*
X14184468Y-15464936D02*
X14174944Y-15474460D01*
X14174944Y-15474460D02*
X14155896Y-15483984D01*
X14155896Y-15483984D02*
X14098753Y-15483984D01*
X14098753Y-15483984D02*
X14079706Y-15474460D01*
X14079706Y-15474460D02*
X14070182Y-15464936D01*
X14317801Y-15283984D02*
X14336849Y-15283984D01*
X14336849Y-15283984D02*
X14355896Y-15293508D01*
X14355896Y-15293508D02*
X14365420Y-15303031D01*
X14365420Y-15303031D02*
X14374944Y-15322079D01*
X14374944Y-15322079D02*
X14384468Y-15360174D01*
X14384468Y-15360174D02*
X14384468Y-15407793D01*
X14384468Y-15407793D02*
X14374944Y-15445888D01*
X14374944Y-15445888D02*
X14365420Y-15464936D01*
X14365420Y-15464936D02*
X14355896Y-15474460D01*
X14355896Y-15474460D02*
X14336849Y-15483984D01*
X14336849Y-15483984D02*
X14317801Y-15483984D01*
X14317801Y-15483984D02*
X14298753Y-15474460D01*
X14298753Y-15474460D02*
X14289229Y-15464936D01*
X14289229Y-15464936D02*
X14279706Y-15445888D01*
X14279706Y-15445888D02*
X14270182Y-15407793D01*
X14270182Y-15407793D02*
X14270182Y-15360174D01*
X14270182Y-15360174D02*
X14279706Y-15322079D01*
X14279706Y-15322079D02*
X14289229Y-15303031D01*
X14289229Y-15303031D02*
X14298753Y-15293508D01*
X14298753Y-15293508D02*
X14317801Y-15283984D01*
X14622563Y-15483984D02*
X14622563Y-15283984D01*
X14708277Y-15483984D02*
X14708277Y-15379222D01*
X14708277Y-15379222D02*
X14698753Y-15360174D01*
X14698753Y-15360174D02*
X14679706Y-15350650D01*
X14679706Y-15350650D02*
X14651134Y-15350650D01*
X14651134Y-15350650D02*
X14632087Y-15360174D01*
X14632087Y-15360174D02*
X14622563Y-15369698D01*
X14832087Y-15483984D02*
X14813039Y-15474460D01*
X14813039Y-15474460D02*
X14803515Y-15464936D01*
X14803515Y-15464936D02*
X14793991Y-15445888D01*
X14793991Y-15445888D02*
X14793991Y-15388746D01*
X14793991Y-15388746D02*
X14803515Y-15369698D01*
X14803515Y-15369698D02*
X14813039Y-15360174D01*
X14813039Y-15360174D02*
X14832087Y-15350650D01*
X14832087Y-15350650D02*
X14860658Y-15350650D01*
X14860658Y-15350650D02*
X14879706Y-15360174D01*
X14879706Y-15360174D02*
X14889230Y-15369698D01*
X14889230Y-15369698D02*
X14898753Y-15388746D01*
X14898753Y-15388746D02*
X14898753Y-15445888D01*
X14898753Y-15445888D02*
X14889230Y-15464936D01*
X14889230Y-15464936D02*
X14879706Y-15474460D01*
X14879706Y-15474460D02*
X14860658Y-15483984D01*
X14860658Y-15483984D02*
X14832087Y-15483984D01*
X15013039Y-15483984D02*
X14993991Y-15474460D01*
X14993991Y-15474460D02*
X14984468Y-15455412D01*
X14984468Y-15455412D02*
X14984468Y-15283984D01*
X15165420Y-15474460D02*
X15146372Y-15483984D01*
X15146372Y-15483984D02*
X15108277Y-15483984D01*
X15108277Y-15483984D02*
X15089230Y-15474460D01*
X15089230Y-15474460D02*
X15079706Y-15455412D01*
X15079706Y-15455412D02*
X15079706Y-15379222D01*
X15079706Y-15379222D02*
X15089230Y-15360174D01*
X15089230Y-15360174D02*
X15108277Y-15350650D01*
X15108277Y-15350650D02*
X15146372Y-15350650D01*
X15146372Y-15350650D02*
X15165420Y-15360174D01*
X15165420Y-15360174D02*
X15174944Y-15379222D01*
X15174944Y-15379222D02*
X15174944Y-15398269D01*
X15174944Y-15398269D02*
X15079706Y-15417317D01*
X15251134Y-15474460D02*
X15270182Y-15483984D01*
X15270182Y-15483984D02*
X15308277Y-15483984D01*
X15308277Y-15483984D02*
X15327325Y-15474460D01*
X15327325Y-15474460D02*
X15336849Y-15455412D01*
X15336849Y-15455412D02*
X15336849Y-15445888D01*
X15336849Y-15445888D02*
X15327325Y-15426841D01*
X15327325Y-15426841D02*
X15308277Y-15417317D01*
X15308277Y-15417317D02*
X15279706Y-15417317D01*
X15279706Y-15417317D02*
X15260658Y-15407793D01*
X15260658Y-15407793D02*
X15251134Y-15388746D01*
X15251134Y-15388746D02*
X15251134Y-15379222D01*
X15251134Y-15379222D02*
X15260658Y-15360174D01*
X15260658Y-15360174D02*
X15279706Y-15350650D01*
X15279706Y-15350650D02*
X15308277Y-15350650D01*
X15308277Y-15350650D02*
X15327325Y-15360174D01*
X15403515Y-15560174D02*
X15413039Y-15550650D01*
X15413039Y-15550650D02*
X15432087Y-15522079D01*
X15432087Y-15522079D02*
X15441611Y-15503031D01*
X15441611Y-15503031D02*
X15451134Y-15474460D01*
X15451134Y-15474460D02*
X15460658Y-15426841D01*
X15460658Y-15426841D02*
X15460658Y-15388746D01*
X15460658Y-15388746D02*
X15451134Y-15341127D01*
X15451134Y-15341127D02*
X15441611Y-15312555D01*
X15441611Y-15312555D02*
X15432087Y-15293508D01*
X15432087Y-15293508D02*
X15413039Y-15264936D01*
X15413039Y-15264936D02*
X15403515Y-15255412D01*
D12*
X10247500Y-15656500D02*
G75*
G02*
X10172500Y-15656500I-37500J0D01*
G01*
X10172500Y-15656500D02*
G75*
G02*
X10247500Y-15656500I37500J0D01*
G01*
D11*
X10546372Y-15547984D02*
X10565420Y-15547984D01*
X10565420Y-15547984D02*
X10584467Y-15557508D01*
X10584467Y-15557508D02*
X10593991Y-15567031D01*
X10593991Y-15567031D02*
X10603515Y-15586079D01*
X10603515Y-15586079D02*
X10613039Y-15624174D01*
X10613039Y-15624174D02*
X10613039Y-15671793D01*
X10613039Y-15671793D02*
X10603515Y-15709888D01*
X10603515Y-15709888D02*
X10593991Y-15728936D01*
X10593991Y-15728936D02*
X10584467Y-15738460D01*
X10584467Y-15738460D02*
X10565420Y-15747984D01*
X10565420Y-15747984D02*
X10546372Y-15747984D01*
X10546372Y-15747984D02*
X10527324Y-15738460D01*
X10527324Y-15738460D02*
X10517801Y-15728936D01*
X10517801Y-15728936D02*
X10508277Y-15709888D01*
X10508277Y-15709888D02*
X10498753Y-15671793D01*
X10498753Y-15671793D02*
X10498753Y-15624174D01*
X10498753Y-15624174D02*
X10508277Y-15586079D01*
X10508277Y-15586079D02*
X10517801Y-15567031D01*
X10517801Y-15567031D02*
X10527324Y-15557508D01*
X10527324Y-15557508D02*
X10546372Y-15547984D01*
X10698753Y-15728936D02*
X10708277Y-15738460D01*
X10708277Y-15738460D02*
X10698753Y-15747984D01*
X10698753Y-15747984D02*
X10689229Y-15738460D01*
X10689229Y-15738460D02*
X10698753Y-15728936D01*
X10698753Y-15728936D02*
X10698753Y-15747984D01*
X10774944Y-15547984D02*
X10908277Y-15547984D01*
X10908277Y-15547984D02*
X10822563Y-15747984D01*
X11079705Y-15547984D02*
X10984467Y-15547984D01*
X10984467Y-15547984D02*
X10974944Y-15643222D01*
X10974944Y-15643222D02*
X10984467Y-15633698D01*
X10984467Y-15633698D02*
X11003515Y-15624174D01*
X11003515Y-15624174D02*
X11051134Y-15624174D01*
X11051134Y-15624174D02*
X11070182Y-15633698D01*
X11070182Y-15633698D02*
X11079705Y-15643222D01*
X11079705Y-15643222D02*
X11089229Y-15662269D01*
X11089229Y-15662269D02*
X11089229Y-15709888D01*
X11089229Y-15709888D02*
X11079705Y-15728936D01*
X11079705Y-15728936D02*
X11070182Y-15738460D01*
X11070182Y-15738460D02*
X11051134Y-15747984D01*
X11051134Y-15747984D02*
X11003515Y-15747984D01*
X11003515Y-15747984D02*
X10984467Y-15738460D01*
X10984467Y-15738460D02*
X10974944Y-15728936D01*
X11213039Y-15547984D02*
X11232086Y-15547984D01*
X11232086Y-15547984D02*
X11251134Y-15557508D01*
X11251134Y-15557508D02*
X11260658Y-15567031D01*
X11260658Y-15567031D02*
X11270182Y-15586079D01*
X11270182Y-15586079D02*
X11279705Y-15624174D01*
X11279705Y-15624174D02*
X11279705Y-15671793D01*
X11279705Y-15671793D02*
X11270182Y-15709888D01*
X11270182Y-15709888D02*
X11260658Y-15728936D01*
X11260658Y-15728936D02*
X11251134Y-15738460D01*
X11251134Y-15738460D02*
X11232086Y-15747984D01*
X11232086Y-15747984D02*
X11213039Y-15747984D01*
X11213039Y-15747984D02*
X11193991Y-15738460D01*
X11193991Y-15738460D02*
X11184467Y-15728936D01*
X11184467Y-15728936D02*
X11174944Y-15709888D01*
X11174944Y-15709888D02*
X11165420Y-15671793D01*
X11165420Y-15671793D02*
X11165420Y-15624174D01*
X11165420Y-15624174D02*
X11174944Y-15586079D01*
X11174944Y-15586079D02*
X11184467Y-15567031D01*
X11184467Y-15567031D02*
X11193991Y-15557508D01*
X11193991Y-15557508D02*
X11213039Y-15547984D01*
X11365420Y-15747984D02*
X11365420Y-15614650D01*
X11365420Y-15633698D02*
X11374943Y-15624174D01*
X11374943Y-15624174D02*
X11393991Y-15614650D01*
X11393991Y-15614650D02*
X11422563Y-15614650D01*
X11422563Y-15614650D02*
X11441610Y-15624174D01*
X11441610Y-15624174D02*
X11451134Y-15643222D01*
X11451134Y-15643222D02*
X11451134Y-15747984D01*
X11451134Y-15643222D02*
X11460658Y-15624174D01*
X11460658Y-15624174D02*
X11479705Y-15614650D01*
X11479705Y-15614650D02*
X11508277Y-15614650D01*
X11508277Y-15614650D02*
X11527324Y-15624174D01*
X11527324Y-15624174D02*
X11536848Y-15643222D01*
X11536848Y-15643222D02*
X11536848Y-15747984D01*
X11632086Y-15747984D02*
X11632086Y-15614650D01*
X11632086Y-15633698D02*
X11641610Y-15624174D01*
X11641610Y-15624174D02*
X11660658Y-15614650D01*
X11660658Y-15614650D02*
X11689229Y-15614650D01*
X11689229Y-15614650D02*
X11708277Y-15624174D01*
X11708277Y-15624174D02*
X11717801Y-15643222D01*
X11717801Y-15643222D02*
X11717801Y-15747984D01*
X11717801Y-15643222D02*
X11727324Y-15624174D01*
X11727324Y-15624174D02*
X11746372Y-15614650D01*
X11746372Y-15614650D02*
X11774943Y-15614650D01*
X11774943Y-15614650D02*
X11793991Y-15624174D01*
X11793991Y-15624174D02*
X11803515Y-15643222D01*
X11803515Y-15643222D02*
X11803515Y-15747984D01*
X12193991Y-15538460D02*
X12022563Y-15795603D01*
X12451134Y-15547984D02*
X12470182Y-15547984D01*
X12470182Y-15547984D02*
X12489229Y-15557508D01*
X12489229Y-15557508D02*
X12498753Y-15567031D01*
X12498753Y-15567031D02*
X12508277Y-15586079D01*
X12508277Y-15586079D02*
X12517801Y-15624174D01*
X12517801Y-15624174D02*
X12517801Y-15671793D01*
X12517801Y-15671793D02*
X12508277Y-15709888D01*
X12508277Y-15709888D02*
X12498753Y-15728936D01*
X12498753Y-15728936D02*
X12489229Y-15738460D01*
X12489229Y-15738460D02*
X12470182Y-15747984D01*
X12470182Y-15747984D02*
X12451134Y-15747984D01*
X12451134Y-15747984D02*
X12432086Y-15738460D01*
X12432086Y-15738460D02*
X12422563Y-15728936D01*
X12422563Y-15728936D02*
X12413039Y-15709888D01*
X12413039Y-15709888D02*
X12403515Y-15671793D01*
X12403515Y-15671793D02*
X12403515Y-15624174D01*
X12403515Y-15624174D02*
X12413039Y-15586079D01*
X12413039Y-15586079D02*
X12422563Y-15567031D01*
X12422563Y-15567031D02*
X12432086Y-15557508D01*
X12432086Y-15557508D02*
X12451134Y-15547984D01*
X12603515Y-15728936D02*
X12613039Y-15738460D01*
X12613039Y-15738460D02*
X12603515Y-15747984D01*
X12603515Y-15747984D02*
X12593991Y-15738460D01*
X12593991Y-15738460D02*
X12603515Y-15728936D01*
X12603515Y-15728936D02*
X12603515Y-15747984D01*
X12736848Y-15547984D02*
X12755896Y-15547984D01*
X12755896Y-15547984D02*
X12774944Y-15557508D01*
X12774944Y-15557508D02*
X12784467Y-15567031D01*
X12784467Y-15567031D02*
X12793991Y-15586079D01*
X12793991Y-15586079D02*
X12803515Y-15624174D01*
X12803515Y-15624174D02*
X12803515Y-15671793D01*
X12803515Y-15671793D02*
X12793991Y-15709888D01*
X12793991Y-15709888D02*
X12784467Y-15728936D01*
X12784467Y-15728936D02*
X12774944Y-15738460D01*
X12774944Y-15738460D02*
X12755896Y-15747984D01*
X12755896Y-15747984D02*
X12736848Y-15747984D01*
X12736848Y-15747984D02*
X12717801Y-15738460D01*
X12717801Y-15738460D02*
X12708277Y-15728936D01*
X12708277Y-15728936D02*
X12698753Y-15709888D01*
X12698753Y-15709888D02*
X12689229Y-15671793D01*
X12689229Y-15671793D02*
X12689229Y-15624174D01*
X12689229Y-15624174D02*
X12698753Y-15586079D01*
X12698753Y-15586079D02*
X12708277Y-15567031D01*
X12708277Y-15567031D02*
X12717801Y-15557508D01*
X12717801Y-15557508D02*
X12736848Y-15547984D01*
X12879706Y-15567031D02*
X12889229Y-15557508D01*
X12889229Y-15557508D02*
X12908277Y-15547984D01*
X12908277Y-15547984D02*
X12955896Y-15547984D01*
X12955896Y-15547984D02*
X12974944Y-15557508D01*
X12974944Y-15557508D02*
X12984467Y-15567031D01*
X12984467Y-15567031D02*
X12993991Y-15586079D01*
X12993991Y-15586079D02*
X12993991Y-15605127D01*
X12993991Y-15605127D02*
X12984467Y-15633698D01*
X12984467Y-15633698D02*
X12870182Y-15747984D01*
X12870182Y-15747984D02*
X12993991Y-15747984D01*
X13089229Y-15747984D02*
X13127325Y-15747984D01*
X13127325Y-15747984D02*
X13146372Y-15738460D01*
X13146372Y-15738460D02*
X13155896Y-15728936D01*
X13155896Y-15728936D02*
X13174944Y-15700365D01*
X13174944Y-15700365D02*
X13184467Y-15662269D01*
X13184467Y-15662269D02*
X13184467Y-15586079D01*
X13184467Y-15586079D02*
X13174944Y-15567031D01*
X13174944Y-15567031D02*
X13165420Y-15557508D01*
X13165420Y-15557508D02*
X13146372Y-15547984D01*
X13146372Y-15547984D02*
X13108277Y-15547984D01*
X13108277Y-15547984D02*
X13089229Y-15557508D01*
X13089229Y-15557508D02*
X13079706Y-15567031D01*
X13079706Y-15567031D02*
X13070182Y-15586079D01*
X13070182Y-15586079D02*
X13070182Y-15633698D01*
X13070182Y-15633698D02*
X13079706Y-15652746D01*
X13079706Y-15652746D02*
X13089229Y-15662269D01*
X13089229Y-15662269D02*
X13108277Y-15671793D01*
X13108277Y-15671793D02*
X13146372Y-15671793D01*
X13146372Y-15671793D02*
X13165420Y-15662269D01*
X13165420Y-15662269D02*
X13174944Y-15652746D01*
X13174944Y-15652746D02*
X13184467Y-15633698D01*
X13365420Y-15547984D02*
X13270182Y-15547984D01*
X13270182Y-15547984D02*
X13260658Y-15643222D01*
X13260658Y-15643222D02*
X13270182Y-15633698D01*
X13270182Y-15633698D02*
X13289229Y-15624174D01*
X13289229Y-15624174D02*
X13336848Y-15624174D01*
X13336848Y-15624174D02*
X13355896Y-15633698D01*
X13355896Y-15633698D02*
X13365420Y-15643222D01*
X13365420Y-15643222D02*
X13374944Y-15662269D01*
X13374944Y-15662269D02*
X13374944Y-15709888D01*
X13374944Y-15709888D02*
X13365420Y-15728936D01*
X13365420Y-15728936D02*
X13355896Y-15738460D01*
X13355896Y-15738460D02*
X13336848Y-15747984D01*
X13336848Y-15747984D02*
X13289229Y-15747984D01*
X13289229Y-15747984D02*
X13270182Y-15738460D01*
X13270182Y-15738460D02*
X13260658Y-15728936D01*
X13451134Y-15547984D02*
X13451134Y-15586079D01*
X13527325Y-15547984D02*
X13527325Y-15586079D01*
X13822563Y-15824174D02*
X13813039Y-15814650D01*
X13813039Y-15814650D02*
X13793991Y-15786079D01*
X13793991Y-15786079D02*
X13784468Y-15767031D01*
X13784468Y-15767031D02*
X13774944Y-15738460D01*
X13774944Y-15738460D02*
X13765420Y-15690841D01*
X13765420Y-15690841D02*
X13765420Y-15652746D01*
X13765420Y-15652746D02*
X13774944Y-15605127D01*
X13774944Y-15605127D02*
X13784468Y-15576555D01*
X13784468Y-15576555D02*
X13793991Y-15557508D01*
X13793991Y-15557508D02*
X13813039Y-15528936D01*
X13813039Y-15528936D02*
X13822563Y-15519412D01*
X14003515Y-15747984D02*
X13889229Y-15747984D01*
X13946372Y-15747984D02*
X13946372Y-15547984D01*
X13946372Y-15547984D02*
X13927325Y-15576555D01*
X13927325Y-15576555D02*
X13908277Y-15595603D01*
X13908277Y-15595603D02*
X13889229Y-15605127D01*
X14184468Y-15547984D02*
X14089229Y-15547984D01*
X14089229Y-15547984D02*
X14079706Y-15643222D01*
X14079706Y-15643222D02*
X14089229Y-15633698D01*
X14089229Y-15633698D02*
X14108277Y-15624174D01*
X14108277Y-15624174D02*
X14155896Y-15624174D01*
X14155896Y-15624174D02*
X14174944Y-15633698D01*
X14174944Y-15633698D02*
X14184468Y-15643222D01*
X14184468Y-15643222D02*
X14193991Y-15662269D01*
X14193991Y-15662269D02*
X14193991Y-15709888D01*
X14193991Y-15709888D02*
X14184468Y-15728936D01*
X14184468Y-15728936D02*
X14174944Y-15738460D01*
X14174944Y-15738460D02*
X14155896Y-15747984D01*
X14155896Y-15747984D02*
X14108277Y-15747984D01*
X14108277Y-15747984D02*
X14089229Y-15738460D01*
X14089229Y-15738460D02*
X14079706Y-15728936D01*
X14432087Y-15747984D02*
X14432087Y-15547984D01*
X14517801Y-15747984D02*
X14517801Y-15643222D01*
X14517801Y-15643222D02*
X14508277Y-15624174D01*
X14508277Y-15624174D02*
X14489230Y-15614650D01*
X14489230Y-15614650D02*
X14460658Y-15614650D01*
X14460658Y-15614650D02*
X14441610Y-15624174D01*
X14441610Y-15624174D02*
X14432087Y-15633698D01*
X14641610Y-15747984D02*
X14622563Y-15738460D01*
X14622563Y-15738460D02*
X14613039Y-15728936D01*
X14613039Y-15728936D02*
X14603515Y-15709888D01*
X14603515Y-15709888D02*
X14603515Y-15652746D01*
X14603515Y-15652746D02*
X14613039Y-15633698D01*
X14613039Y-15633698D02*
X14622563Y-15624174D01*
X14622563Y-15624174D02*
X14641610Y-15614650D01*
X14641610Y-15614650D02*
X14670182Y-15614650D01*
X14670182Y-15614650D02*
X14689230Y-15624174D01*
X14689230Y-15624174D02*
X14698753Y-15633698D01*
X14698753Y-15633698D02*
X14708277Y-15652746D01*
X14708277Y-15652746D02*
X14708277Y-15709888D01*
X14708277Y-15709888D02*
X14698753Y-15728936D01*
X14698753Y-15728936D02*
X14689230Y-15738460D01*
X14689230Y-15738460D02*
X14670182Y-15747984D01*
X14670182Y-15747984D02*
X14641610Y-15747984D01*
X14822563Y-15747984D02*
X14803515Y-15738460D01*
X14803515Y-15738460D02*
X14793991Y-15719412D01*
X14793991Y-15719412D02*
X14793991Y-15547984D01*
X14974944Y-15738460D02*
X14955896Y-15747984D01*
X14955896Y-15747984D02*
X14917801Y-15747984D01*
X14917801Y-15747984D02*
X14898753Y-15738460D01*
X14898753Y-15738460D02*
X14889230Y-15719412D01*
X14889230Y-15719412D02*
X14889230Y-15643222D01*
X14889230Y-15643222D02*
X14898753Y-15624174D01*
X14898753Y-15624174D02*
X14917801Y-15614650D01*
X14917801Y-15614650D02*
X14955896Y-15614650D01*
X14955896Y-15614650D02*
X14974944Y-15624174D01*
X14974944Y-15624174D02*
X14984468Y-15643222D01*
X14984468Y-15643222D02*
X14984468Y-15662269D01*
X14984468Y-15662269D02*
X14889230Y-15681317D01*
X15060658Y-15738460D02*
X15079706Y-15747984D01*
X15079706Y-15747984D02*
X15117801Y-15747984D01*
X15117801Y-15747984D02*
X15136849Y-15738460D01*
X15136849Y-15738460D02*
X15146372Y-15719412D01*
X15146372Y-15719412D02*
X15146372Y-15709888D01*
X15146372Y-15709888D02*
X15136849Y-15690841D01*
X15136849Y-15690841D02*
X15117801Y-15681317D01*
X15117801Y-15681317D02*
X15089230Y-15681317D01*
X15089230Y-15681317D02*
X15070182Y-15671793D01*
X15070182Y-15671793D02*
X15060658Y-15652746D01*
X15060658Y-15652746D02*
X15060658Y-15643222D01*
X15060658Y-15643222D02*
X15070182Y-15624174D01*
X15070182Y-15624174D02*
X15089230Y-15614650D01*
X15089230Y-15614650D02*
X15117801Y-15614650D01*
X15117801Y-15614650D02*
X15136849Y-15624174D01*
X15213039Y-15824174D02*
X15222563Y-15814650D01*
X15222563Y-15814650D02*
X15241611Y-15786079D01*
X15241611Y-15786079D02*
X15251134Y-15767031D01*
X15251134Y-15767031D02*
X15260658Y-15738460D01*
X15260658Y-15738460D02*
X15270182Y-15690841D01*
X15270182Y-15690841D02*
X15270182Y-15652746D01*
X15270182Y-15652746D02*
X15260658Y-15605127D01*
X15260658Y-15605127D02*
X15251134Y-15576555D01*
X15251134Y-15576555D02*
X15241611Y-15557508D01*
X15241611Y-15557508D02*
X15222563Y-15528936D01*
X15222563Y-15528936D02*
X15213039Y-15519412D01*
D12*
X10207500Y-15880500D02*
X10207500Y-15960500D01*
X10167500Y-15920500D02*
X10247500Y-15920500D01*
D11*
X10546372Y-15811984D02*
X10565420Y-15811984D01*
X10565420Y-15811984D02*
X10584467Y-15821508D01*
X10584467Y-15821508D02*
X10593991Y-15831031D01*
X10593991Y-15831031D02*
X10603515Y-15850079D01*
X10603515Y-15850079D02*
X10613039Y-15888174D01*
X10613039Y-15888174D02*
X10613039Y-15935793D01*
X10613039Y-15935793D02*
X10603515Y-15973888D01*
X10603515Y-15973888D02*
X10593991Y-15992936D01*
X10593991Y-15992936D02*
X10584467Y-16002460D01*
X10584467Y-16002460D02*
X10565420Y-16011984D01*
X10565420Y-16011984D02*
X10546372Y-16011984D01*
X10546372Y-16011984D02*
X10527324Y-16002460D01*
X10527324Y-16002460D02*
X10517801Y-15992936D01*
X10517801Y-15992936D02*
X10508277Y-15973888D01*
X10508277Y-15973888D02*
X10498753Y-15935793D01*
X10498753Y-15935793D02*
X10498753Y-15888174D01*
X10498753Y-15888174D02*
X10508277Y-15850079D01*
X10508277Y-15850079D02*
X10517801Y-15831031D01*
X10517801Y-15831031D02*
X10527324Y-15821508D01*
X10527324Y-15821508D02*
X10546372Y-15811984D01*
X10698753Y-15992936D02*
X10708277Y-16002460D01*
X10708277Y-16002460D02*
X10698753Y-16011984D01*
X10698753Y-16011984D02*
X10689229Y-16002460D01*
X10689229Y-16002460D02*
X10698753Y-15992936D01*
X10698753Y-15992936D02*
X10698753Y-16011984D01*
X10822563Y-15897698D02*
X10803515Y-15888174D01*
X10803515Y-15888174D02*
X10793991Y-15878650D01*
X10793991Y-15878650D02*
X10784467Y-15859603D01*
X10784467Y-15859603D02*
X10784467Y-15850079D01*
X10784467Y-15850079D02*
X10793991Y-15831031D01*
X10793991Y-15831031D02*
X10803515Y-15821508D01*
X10803515Y-15821508D02*
X10822563Y-15811984D01*
X10822563Y-15811984D02*
X10860658Y-15811984D01*
X10860658Y-15811984D02*
X10879705Y-15821508D01*
X10879705Y-15821508D02*
X10889229Y-15831031D01*
X10889229Y-15831031D02*
X10898753Y-15850079D01*
X10898753Y-15850079D02*
X10898753Y-15859603D01*
X10898753Y-15859603D02*
X10889229Y-15878650D01*
X10889229Y-15878650D02*
X10879705Y-15888174D01*
X10879705Y-15888174D02*
X10860658Y-15897698D01*
X10860658Y-15897698D02*
X10822563Y-15897698D01*
X10822563Y-15897698D02*
X10803515Y-15907222D01*
X10803515Y-15907222D02*
X10793991Y-15916746D01*
X10793991Y-15916746D02*
X10784467Y-15935793D01*
X10784467Y-15935793D02*
X10784467Y-15973888D01*
X10784467Y-15973888D02*
X10793991Y-15992936D01*
X10793991Y-15992936D02*
X10803515Y-16002460D01*
X10803515Y-16002460D02*
X10822563Y-16011984D01*
X10822563Y-16011984D02*
X10860658Y-16011984D01*
X10860658Y-16011984D02*
X10879705Y-16002460D01*
X10879705Y-16002460D02*
X10889229Y-15992936D01*
X10889229Y-15992936D02*
X10898753Y-15973888D01*
X10898753Y-15973888D02*
X10898753Y-15935793D01*
X10898753Y-15935793D02*
X10889229Y-15916746D01*
X10889229Y-15916746D02*
X10879705Y-15907222D01*
X10879705Y-15907222D02*
X10860658Y-15897698D01*
X11022563Y-15811984D02*
X11041610Y-15811984D01*
X11041610Y-15811984D02*
X11060658Y-15821508D01*
X11060658Y-15821508D02*
X11070182Y-15831031D01*
X11070182Y-15831031D02*
X11079705Y-15850079D01*
X11079705Y-15850079D02*
X11089229Y-15888174D01*
X11089229Y-15888174D02*
X11089229Y-15935793D01*
X11089229Y-15935793D02*
X11079705Y-15973888D01*
X11079705Y-15973888D02*
X11070182Y-15992936D01*
X11070182Y-15992936D02*
X11060658Y-16002460D01*
X11060658Y-16002460D02*
X11041610Y-16011984D01*
X11041610Y-16011984D02*
X11022563Y-16011984D01*
X11022563Y-16011984D02*
X11003515Y-16002460D01*
X11003515Y-16002460D02*
X10993991Y-15992936D01*
X10993991Y-15992936D02*
X10984467Y-15973888D01*
X10984467Y-15973888D02*
X10974944Y-15935793D01*
X10974944Y-15935793D02*
X10974944Y-15888174D01*
X10974944Y-15888174D02*
X10984467Y-15850079D01*
X10984467Y-15850079D02*
X10993991Y-15831031D01*
X10993991Y-15831031D02*
X11003515Y-15821508D01*
X11003515Y-15821508D02*
X11022563Y-15811984D01*
X11213039Y-15811984D02*
X11232086Y-15811984D01*
X11232086Y-15811984D02*
X11251134Y-15821508D01*
X11251134Y-15821508D02*
X11260658Y-15831031D01*
X11260658Y-15831031D02*
X11270182Y-15850079D01*
X11270182Y-15850079D02*
X11279705Y-15888174D01*
X11279705Y-15888174D02*
X11279705Y-15935793D01*
X11279705Y-15935793D02*
X11270182Y-15973888D01*
X11270182Y-15973888D02*
X11260658Y-15992936D01*
X11260658Y-15992936D02*
X11251134Y-16002460D01*
X11251134Y-16002460D02*
X11232086Y-16011984D01*
X11232086Y-16011984D02*
X11213039Y-16011984D01*
X11213039Y-16011984D02*
X11193991Y-16002460D01*
X11193991Y-16002460D02*
X11184467Y-15992936D01*
X11184467Y-15992936D02*
X11174944Y-15973888D01*
X11174944Y-15973888D02*
X11165420Y-15935793D01*
X11165420Y-15935793D02*
X11165420Y-15888174D01*
X11165420Y-15888174D02*
X11174944Y-15850079D01*
X11174944Y-15850079D02*
X11184467Y-15831031D01*
X11184467Y-15831031D02*
X11193991Y-15821508D01*
X11193991Y-15821508D02*
X11213039Y-15811984D01*
X11365420Y-16011984D02*
X11365420Y-15878650D01*
X11365420Y-15897698D02*
X11374943Y-15888174D01*
X11374943Y-15888174D02*
X11393991Y-15878650D01*
X11393991Y-15878650D02*
X11422563Y-15878650D01*
X11422563Y-15878650D02*
X11441610Y-15888174D01*
X11441610Y-15888174D02*
X11451134Y-15907222D01*
X11451134Y-15907222D02*
X11451134Y-16011984D01*
X11451134Y-15907222D02*
X11460658Y-15888174D01*
X11460658Y-15888174D02*
X11479705Y-15878650D01*
X11479705Y-15878650D02*
X11508277Y-15878650D01*
X11508277Y-15878650D02*
X11527324Y-15888174D01*
X11527324Y-15888174D02*
X11536848Y-15907222D01*
X11536848Y-15907222D02*
X11536848Y-16011984D01*
X11632086Y-16011984D02*
X11632086Y-15878650D01*
X11632086Y-15897698D02*
X11641610Y-15888174D01*
X11641610Y-15888174D02*
X11660658Y-15878650D01*
X11660658Y-15878650D02*
X11689229Y-15878650D01*
X11689229Y-15878650D02*
X11708277Y-15888174D01*
X11708277Y-15888174D02*
X11717801Y-15907222D01*
X11717801Y-15907222D02*
X11717801Y-16011984D01*
X11717801Y-15907222D02*
X11727324Y-15888174D01*
X11727324Y-15888174D02*
X11746372Y-15878650D01*
X11746372Y-15878650D02*
X11774943Y-15878650D01*
X11774943Y-15878650D02*
X11793991Y-15888174D01*
X11793991Y-15888174D02*
X11803515Y-15907222D01*
X11803515Y-15907222D02*
X11803515Y-16011984D01*
X12193991Y-15802460D02*
X12022563Y-16059603D01*
X12451134Y-15811984D02*
X12470182Y-15811984D01*
X12470182Y-15811984D02*
X12489229Y-15821508D01*
X12489229Y-15821508D02*
X12498753Y-15831031D01*
X12498753Y-15831031D02*
X12508277Y-15850079D01*
X12508277Y-15850079D02*
X12517801Y-15888174D01*
X12517801Y-15888174D02*
X12517801Y-15935793D01*
X12517801Y-15935793D02*
X12508277Y-15973888D01*
X12508277Y-15973888D02*
X12498753Y-15992936D01*
X12498753Y-15992936D02*
X12489229Y-16002460D01*
X12489229Y-16002460D02*
X12470182Y-16011984D01*
X12470182Y-16011984D02*
X12451134Y-16011984D01*
X12451134Y-16011984D02*
X12432086Y-16002460D01*
X12432086Y-16002460D02*
X12422563Y-15992936D01*
X12422563Y-15992936D02*
X12413039Y-15973888D01*
X12413039Y-15973888D02*
X12403515Y-15935793D01*
X12403515Y-15935793D02*
X12403515Y-15888174D01*
X12403515Y-15888174D02*
X12413039Y-15850079D01*
X12413039Y-15850079D02*
X12422563Y-15831031D01*
X12422563Y-15831031D02*
X12432086Y-15821508D01*
X12432086Y-15821508D02*
X12451134Y-15811984D01*
X12603515Y-15992936D02*
X12613039Y-16002460D01*
X12613039Y-16002460D02*
X12603515Y-16011984D01*
X12603515Y-16011984D02*
X12593991Y-16002460D01*
X12593991Y-16002460D02*
X12603515Y-15992936D01*
X12603515Y-15992936D02*
X12603515Y-16011984D01*
X12736848Y-15811984D02*
X12755896Y-15811984D01*
X12755896Y-15811984D02*
X12774944Y-15821508D01*
X12774944Y-15821508D02*
X12784467Y-15831031D01*
X12784467Y-15831031D02*
X12793991Y-15850079D01*
X12793991Y-15850079D02*
X12803515Y-15888174D01*
X12803515Y-15888174D02*
X12803515Y-15935793D01*
X12803515Y-15935793D02*
X12793991Y-15973888D01*
X12793991Y-15973888D02*
X12784467Y-15992936D01*
X12784467Y-15992936D02*
X12774944Y-16002460D01*
X12774944Y-16002460D02*
X12755896Y-16011984D01*
X12755896Y-16011984D02*
X12736848Y-16011984D01*
X12736848Y-16011984D02*
X12717801Y-16002460D01*
X12717801Y-16002460D02*
X12708277Y-15992936D01*
X12708277Y-15992936D02*
X12698753Y-15973888D01*
X12698753Y-15973888D02*
X12689229Y-15935793D01*
X12689229Y-15935793D02*
X12689229Y-15888174D01*
X12689229Y-15888174D02*
X12698753Y-15850079D01*
X12698753Y-15850079D02*
X12708277Y-15831031D01*
X12708277Y-15831031D02*
X12717801Y-15821508D01*
X12717801Y-15821508D02*
X12736848Y-15811984D01*
X12870182Y-15811984D02*
X12993991Y-15811984D01*
X12993991Y-15811984D02*
X12927325Y-15888174D01*
X12927325Y-15888174D02*
X12955896Y-15888174D01*
X12955896Y-15888174D02*
X12974944Y-15897698D01*
X12974944Y-15897698D02*
X12984467Y-15907222D01*
X12984467Y-15907222D02*
X12993991Y-15926269D01*
X12993991Y-15926269D02*
X12993991Y-15973888D01*
X12993991Y-15973888D02*
X12984467Y-15992936D01*
X12984467Y-15992936D02*
X12974944Y-16002460D01*
X12974944Y-16002460D02*
X12955896Y-16011984D01*
X12955896Y-16011984D02*
X12898753Y-16011984D01*
X12898753Y-16011984D02*
X12879706Y-16002460D01*
X12879706Y-16002460D02*
X12870182Y-15992936D01*
X13184467Y-16011984D02*
X13070182Y-16011984D01*
X13127325Y-16011984D02*
X13127325Y-15811984D01*
X13127325Y-15811984D02*
X13108277Y-15840555D01*
X13108277Y-15840555D02*
X13089229Y-15859603D01*
X13089229Y-15859603D02*
X13070182Y-15869127D01*
X13365420Y-15811984D02*
X13270182Y-15811984D01*
X13270182Y-15811984D02*
X13260658Y-15907222D01*
X13260658Y-15907222D02*
X13270182Y-15897698D01*
X13270182Y-15897698D02*
X13289229Y-15888174D01*
X13289229Y-15888174D02*
X13336848Y-15888174D01*
X13336848Y-15888174D02*
X13355896Y-15897698D01*
X13355896Y-15897698D02*
X13365420Y-15907222D01*
X13365420Y-15907222D02*
X13374944Y-15926269D01*
X13374944Y-15926269D02*
X13374944Y-15973888D01*
X13374944Y-15973888D02*
X13365420Y-15992936D01*
X13365420Y-15992936D02*
X13355896Y-16002460D01*
X13355896Y-16002460D02*
X13336848Y-16011984D01*
X13336848Y-16011984D02*
X13289229Y-16011984D01*
X13289229Y-16011984D02*
X13270182Y-16002460D01*
X13270182Y-16002460D02*
X13260658Y-15992936D01*
X13451134Y-15811984D02*
X13451134Y-15850079D01*
X13527325Y-15811984D02*
X13527325Y-15850079D01*
X13822563Y-16088174D02*
X13813039Y-16078650D01*
X13813039Y-16078650D02*
X13793991Y-16050079D01*
X13793991Y-16050079D02*
X13784468Y-16031031D01*
X13784468Y-16031031D02*
X13774944Y-16002460D01*
X13774944Y-16002460D02*
X13765420Y-15954841D01*
X13765420Y-15954841D02*
X13765420Y-15916746D01*
X13765420Y-15916746D02*
X13774944Y-15869127D01*
X13774944Y-15869127D02*
X13784468Y-15840555D01*
X13784468Y-15840555D02*
X13793991Y-15821508D01*
X13793991Y-15821508D02*
X13813039Y-15792936D01*
X13813039Y-15792936D02*
X13822563Y-15783412D01*
X13984468Y-15878650D02*
X13984468Y-16011984D01*
X13936848Y-15802460D02*
X13889229Y-15945317D01*
X13889229Y-15945317D02*
X14013039Y-15945317D01*
X14127325Y-15811984D02*
X14146372Y-15811984D01*
X14146372Y-15811984D02*
X14165420Y-15821508D01*
X14165420Y-15821508D02*
X14174944Y-15831031D01*
X14174944Y-15831031D02*
X14184468Y-15850079D01*
X14184468Y-15850079D02*
X14193991Y-15888174D01*
X14193991Y-15888174D02*
X14193991Y-15935793D01*
X14193991Y-15935793D02*
X14184468Y-15973888D01*
X14184468Y-15973888D02*
X14174944Y-15992936D01*
X14174944Y-15992936D02*
X14165420Y-16002460D01*
X14165420Y-16002460D02*
X14146372Y-16011984D01*
X14146372Y-16011984D02*
X14127325Y-16011984D01*
X14127325Y-16011984D02*
X14108277Y-16002460D01*
X14108277Y-16002460D02*
X14098753Y-15992936D01*
X14098753Y-15992936D02*
X14089229Y-15973888D01*
X14089229Y-15973888D02*
X14079706Y-15935793D01*
X14079706Y-15935793D02*
X14079706Y-15888174D01*
X14079706Y-15888174D02*
X14089229Y-15850079D01*
X14089229Y-15850079D02*
X14098753Y-15831031D01*
X14098753Y-15831031D02*
X14108277Y-15821508D01*
X14108277Y-15821508D02*
X14127325Y-15811984D01*
X14432087Y-16011984D02*
X14432087Y-15811984D01*
X14517801Y-16011984D02*
X14517801Y-15907222D01*
X14517801Y-15907222D02*
X14508277Y-15888174D01*
X14508277Y-15888174D02*
X14489230Y-15878650D01*
X14489230Y-15878650D02*
X14460658Y-15878650D01*
X14460658Y-15878650D02*
X14441610Y-15888174D01*
X14441610Y-15888174D02*
X14432087Y-15897698D01*
X14641610Y-16011984D02*
X14622563Y-16002460D01*
X14622563Y-16002460D02*
X14613039Y-15992936D01*
X14613039Y-15992936D02*
X14603515Y-15973888D01*
X14603515Y-15973888D02*
X14603515Y-15916746D01*
X14603515Y-15916746D02*
X14613039Y-15897698D01*
X14613039Y-15897698D02*
X14622563Y-15888174D01*
X14622563Y-15888174D02*
X14641610Y-15878650D01*
X14641610Y-15878650D02*
X14670182Y-15878650D01*
X14670182Y-15878650D02*
X14689230Y-15888174D01*
X14689230Y-15888174D02*
X14698753Y-15897698D01*
X14698753Y-15897698D02*
X14708277Y-15916746D01*
X14708277Y-15916746D02*
X14708277Y-15973888D01*
X14708277Y-15973888D02*
X14698753Y-15992936D01*
X14698753Y-15992936D02*
X14689230Y-16002460D01*
X14689230Y-16002460D02*
X14670182Y-16011984D01*
X14670182Y-16011984D02*
X14641610Y-16011984D01*
X14822563Y-16011984D02*
X14803515Y-16002460D01*
X14803515Y-16002460D02*
X14793991Y-15983412D01*
X14793991Y-15983412D02*
X14793991Y-15811984D01*
X14974944Y-16002460D02*
X14955896Y-16011984D01*
X14955896Y-16011984D02*
X14917801Y-16011984D01*
X14917801Y-16011984D02*
X14898753Y-16002460D01*
X14898753Y-16002460D02*
X14889230Y-15983412D01*
X14889230Y-15983412D02*
X14889230Y-15907222D01*
X14889230Y-15907222D02*
X14898753Y-15888174D01*
X14898753Y-15888174D02*
X14917801Y-15878650D01*
X14917801Y-15878650D02*
X14955896Y-15878650D01*
X14955896Y-15878650D02*
X14974944Y-15888174D01*
X14974944Y-15888174D02*
X14984468Y-15907222D01*
X14984468Y-15907222D02*
X14984468Y-15926269D01*
X14984468Y-15926269D02*
X14889230Y-15945317D01*
X15060658Y-16002460D02*
X15079706Y-16011984D01*
X15079706Y-16011984D02*
X15117801Y-16011984D01*
X15117801Y-16011984D02*
X15136849Y-16002460D01*
X15136849Y-16002460D02*
X15146372Y-15983412D01*
X15146372Y-15983412D02*
X15146372Y-15973888D01*
X15146372Y-15973888D02*
X15136849Y-15954841D01*
X15136849Y-15954841D02*
X15117801Y-15945317D01*
X15117801Y-15945317D02*
X15089230Y-15945317D01*
X15089230Y-15945317D02*
X15070182Y-15935793D01*
X15070182Y-15935793D02*
X15060658Y-15916746D01*
X15060658Y-15916746D02*
X15060658Y-15907222D01*
X15060658Y-15907222D02*
X15070182Y-15888174D01*
X15070182Y-15888174D02*
X15089230Y-15878650D01*
X15089230Y-15878650D02*
X15117801Y-15878650D01*
X15117801Y-15878650D02*
X15136849Y-15888174D01*
X15213039Y-16088174D02*
X15222563Y-16078650D01*
X15222563Y-16078650D02*
X15241611Y-16050079D01*
X15241611Y-16050079D02*
X15251134Y-16031031D01*
X15251134Y-16031031D02*
X15260658Y-16002460D01*
X15260658Y-16002460D02*
X15270182Y-15954841D01*
X15270182Y-15954841D02*
X15270182Y-15916746D01*
X15270182Y-15916746D02*
X15260658Y-15869127D01*
X15260658Y-15869127D02*
X15251134Y-15840555D01*
X15251134Y-15840555D02*
X15241611Y-15821508D01*
X15241611Y-15821508D02*
X15222563Y-15792936D01*
X15222563Y-15792936D02*
X15213039Y-15783412D01*
D12*
X10232856Y-16219856D02*
X10232856Y-16149144D01*
X10162144Y-16149144D01*
X10162144Y-16219856D01*
X10232856Y-16219856D01*
D11*
X10613039Y-16275984D02*
X10498753Y-16275984D01*
X10555896Y-16275984D02*
X10555896Y-16075984D01*
X10555896Y-16075984D02*
X10536848Y-16104555D01*
X10536848Y-16104555D02*
X10517801Y-16123603D01*
X10517801Y-16123603D02*
X10498753Y-16133127D01*
X10698753Y-16256936D02*
X10708277Y-16266460D01*
X10708277Y-16266460D02*
X10698753Y-16275984D01*
X10698753Y-16275984D02*
X10689229Y-16266460D01*
X10689229Y-16266460D02*
X10698753Y-16256936D01*
X10698753Y-16256936D02*
X10698753Y-16275984D01*
X10832086Y-16075984D02*
X10851134Y-16075984D01*
X10851134Y-16075984D02*
X10870182Y-16085508D01*
X10870182Y-16085508D02*
X10879705Y-16095031D01*
X10879705Y-16095031D02*
X10889229Y-16114079D01*
X10889229Y-16114079D02*
X10898753Y-16152174D01*
X10898753Y-16152174D02*
X10898753Y-16199793D01*
X10898753Y-16199793D02*
X10889229Y-16237888D01*
X10889229Y-16237888D02*
X10879705Y-16256936D01*
X10879705Y-16256936D02*
X10870182Y-16266460D01*
X10870182Y-16266460D02*
X10851134Y-16275984D01*
X10851134Y-16275984D02*
X10832086Y-16275984D01*
X10832086Y-16275984D02*
X10813039Y-16266460D01*
X10813039Y-16266460D02*
X10803515Y-16256936D01*
X10803515Y-16256936D02*
X10793991Y-16237888D01*
X10793991Y-16237888D02*
X10784467Y-16199793D01*
X10784467Y-16199793D02*
X10784467Y-16152174D01*
X10784467Y-16152174D02*
X10793991Y-16114079D01*
X10793991Y-16114079D02*
X10803515Y-16095031D01*
X10803515Y-16095031D02*
X10813039Y-16085508D01*
X10813039Y-16085508D02*
X10832086Y-16075984D01*
X11022563Y-16075984D02*
X11041610Y-16075984D01*
X11041610Y-16075984D02*
X11060658Y-16085508D01*
X11060658Y-16085508D02*
X11070182Y-16095031D01*
X11070182Y-16095031D02*
X11079705Y-16114079D01*
X11079705Y-16114079D02*
X11089229Y-16152174D01*
X11089229Y-16152174D02*
X11089229Y-16199793D01*
X11089229Y-16199793D02*
X11079705Y-16237888D01*
X11079705Y-16237888D02*
X11070182Y-16256936D01*
X11070182Y-16256936D02*
X11060658Y-16266460D01*
X11060658Y-16266460D02*
X11041610Y-16275984D01*
X11041610Y-16275984D02*
X11022563Y-16275984D01*
X11022563Y-16275984D02*
X11003515Y-16266460D01*
X11003515Y-16266460D02*
X10993991Y-16256936D01*
X10993991Y-16256936D02*
X10984467Y-16237888D01*
X10984467Y-16237888D02*
X10974944Y-16199793D01*
X10974944Y-16199793D02*
X10974944Y-16152174D01*
X10974944Y-16152174D02*
X10984467Y-16114079D01*
X10984467Y-16114079D02*
X10993991Y-16095031D01*
X10993991Y-16095031D02*
X11003515Y-16085508D01*
X11003515Y-16085508D02*
X11022563Y-16075984D01*
X11213039Y-16075984D02*
X11232086Y-16075984D01*
X11232086Y-16075984D02*
X11251134Y-16085508D01*
X11251134Y-16085508D02*
X11260658Y-16095031D01*
X11260658Y-16095031D02*
X11270182Y-16114079D01*
X11270182Y-16114079D02*
X11279705Y-16152174D01*
X11279705Y-16152174D02*
X11279705Y-16199793D01*
X11279705Y-16199793D02*
X11270182Y-16237888D01*
X11270182Y-16237888D02*
X11260658Y-16256936D01*
X11260658Y-16256936D02*
X11251134Y-16266460D01*
X11251134Y-16266460D02*
X11232086Y-16275984D01*
X11232086Y-16275984D02*
X11213039Y-16275984D01*
X11213039Y-16275984D02*
X11193991Y-16266460D01*
X11193991Y-16266460D02*
X11184467Y-16256936D01*
X11184467Y-16256936D02*
X11174944Y-16237888D01*
X11174944Y-16237888D02*
X11165420Y-16199793D01*
X11165420Y-16199793D02*
X11165420Y-16152174D01*
X11165420Y-16152174D02*
X11174944Y-16114079D01*
X11174944Y-16114079D02*
X11184467Y-16095031D01*
X11184467Y-16095031D02*
X11193991Y-16085508D01*
X11193991Y-16085508D02*
X11213039Y-16075984D01*
X11365420Y-16275984D02*
X11365420Y-16142650D01*
X11365420Y-16161698D02*
X11374943Y-16152174D01*
X11374943Y-16152174D02*
X11393991Y-16142650D01*
X11393991Y-16142650D02*
X11422563Y-16142650D01*
X11422563Y-16142650D02*
X11441610Y-16152174D01*
X11441610Y-16152174D02*
X11451134Y-16171222D01*
X11451134Y-16171222D02*
X11451134Y-16275984D01*
X11451134Y-16171222D02*
X11460658Y-16152174D01*
X11460658Y-16152174D02*
X11479705Y-16142650D01*
X11479705Y-16142650D02*
X11508277Y-16142650D01*
X11508277Y-16142650D02*
X11527324Y-16152174D01*
X11527324Y-16152174D02*
X11536848Y-16171222D01*
X11536848Y-16171222D02*
X11536848Y-16275984D01*
X11632086Y-16275984D02*
X11632086Y-16142650D01*
X11632086Y-16161698D02*
X11641610Y-16152174D01*
X11641610Y-16152174D02*
X11660658Y-16142650D01*
X11660658Y-16142650D02*
X11689229Y-16142650D01*
X11689229Y-16142650D02*
X11708277Y-16152174D01*
X11708277Y-16152174D02*
X11717801Y-16171222D01*
X11717801Y-16171222D02*
X11717801Y-16275984D01*
X11717801Y-16171222D02*
X11727324Y-16152174D01*
X11727324Y-16152174D02*
X11746372Y-16142650D01*
X11746372Y-16142650D02*
X11774943Y-16142650D01*
X11774943Y-16142650D02*
X11793991Y-16152174D01*
X11793991Y-16152174D02*
X11803515Y-16171222D01*
X11803515Y-16171222D02*
X11803515Y-16275984D01*
X12193991Y-16066460D02*
X12022563Y-16323603D01*
X12451134Y-16075984D02*
X12470182Y-16075984D01*
X12470182Y-16075984D02*
X12489229Y-16085508D01*
X12489229Y-16085508D02*
X12498753Y-16095031D01*
X12498753Y-16095031D02*
X12508277Y-16114079D01*
X12508277Y-16114079D02*
X12517801Y-16152174D01*
X12517801Y-16152174D02*
X12517801Y-16199793D01*
X12517801Y-16199793D02*
X12508277Y-16237888D01*
X12508277Y-16237888D02*
X12498753Y-16256936D01*
X12498753Y-16256936D02*
X12489229Y-16266460D01*
X12489229Y-16266460D02*
X12470182Y-16275984D01*
X12470182Y-16275984D02*
X12451134Y-16275984D01*
X12451134Y-16275984D02*
X12432086Y-16266460D01*
X12432086Y-16266460D02*
X12422563Y-16256936D01*
X12422563Y-16256936D02*
X12413039Y-16237888D01*
X12413039Y-16237888D02*
X12403515Y-16199793D01*
X12403515Y-16199793D02*
X12403515Y-16152174D01*
X12403515Y-16152174D02*
X12413039Y-16114079D01*
X12413039Y-16114079D02*
X12422563Y-16095031D01*
X12422563Y-16095031D02*
X12432086Y-16085508D01*
X12432086Y-16085508D02*
X12451134Y-16075984D01*
X12603515Y-16256936D02*
X12613039Y-16266460D01*
X12613039Y-16266460D02*
X12603515Y-16275984D01*
X12603515Y-16275984D02*
X12593991Y-16266460D01*
X12593991Y-16266460D02*
X12603515Y-16256936D01*
X12603515Y-16256936D02*
X12603515Y-16275984D01*
X12736848Y-16075984D02*
X12755896Y-16075984D01*
X12755896Y-16075984D02*
X12774944Y-16085508D01*
X12774944Y-16085508D02*
X12784467Y-16095031D01*
X12784467Y-16095031D02*
X12793991Y-16114079D01*
X12793991Y-16114079D02*
X12803515Y-16152174D01*
X12803515Y-16152174D02*
X12803515Y-16199793D01*
X12803515Y-16199793D02*
X12793991Y-16237888D01*
X12793991Y-16237888D02*
X12784467Y-16256936D01*
X12784467Y-16256936D02*
X12774944Y-16266460D01*
X12774944Y-16266460D02*
X12755896Y-16275984D01*
X12755896Y-16275984D02*
X12736848Y-16275984D01*
X12736848Y-16275984D02*
X12717801Y-16266460D01*
X12717801Y-16266460D02*
X12708277Y-16256936D01*
X12708277Y-16256936D02*
X12698753Y-16237888D01*
X12698753Y-16237888D02*
X12689229Y-16199793D01*
X12689229Y-16199793D02*
X12689229Y-16152174D01*
X12689229Y-16152174D02*
X12698753Y-16114079D01*
X12698753Y-16114079D02*
X12708277Y-16095031D01*
X12708277Y-16095031D02*
X12717801Y-16085508D01*
X12717801Y-16085508D02*
X12736848Y-16075984D01*
X12870182Y-16075984D02*
X12993991Y-16075984D01*
X12993991Y-16075984D02*
X12927325Y-16152174D01*
X12927325Y-16152174D02*
X12955896Y-16152174D01*
X12955896Y-16152174D02*
X12974944Y-16161698D01*
X12974944Y-16161698D02*
X12984467Y-16171222D01*
X12984467Y-16171222D02*
X12993991Y-16190269D01*
X12993991Y-16190269D02*
X12993991Y-16237888D01*
X12993991Y-16237888D02*
X12984467Y-16256936D01*
X12984467Y-16256936D02*
X12974944Y-16266460D01*
X12974944Y-16266460D02*
X12955896Y-16275984D01*
X12955896Y-16275984D02*
X12898753Y-16275984D01*
X12898753Y-16275984D02*
X12879706Y-16266460D01*
X12879706Y-16266460D02*
X12870182Y-16256936D01*
X13089229Y-16275984D02*
X13127325Y-16275984D01*
X13127325Y-16275984D02*
X13146372Y-16266460D01*
X13146372Y-16266460D02*
X13155896Y-16256936D01*
X13155896Y-16256936D02*
X13174944Y-16228365D01*
X13174944Y-16228365D02*
X13184467Y-16190269D01*
X13184467Y-16190269D02*
X13184467Y-16114079D01*
X13184467Y-16114079D02*
X13174944Y-16095031D01*
X13174944Y-16095031D02*
X13165420Y-16085508D01*
X13165420Y-16085508D02*
X13146372Y-16075984D01*
X13146372Y-16075984D02*
X13108277Y-16075984D01*
X13108277Y-16075984D02*
X13089229Y-16085508D01*
X13089229Y-16085508D02*
X13079706Y-16095031D01*
X13079706Y-16095031D02*
X13070182Y-16114079D01*
X13070182Y-16114079D02*
X13070182Y-16161698D01*
X13070182Y-16161698D02*
X13079706Y-16180746D01*
X13079706Y-16180746D02*
X13089229Y-16190269D01*
X13089229Y-16190269D02*
X13108277Y-16199793D01*
X13108277Y-16199793D02*
X13146372Y-16199793D01*
X13146372Y-16199793D02*
X13165420Y-16190269D01*
X13165420Y-16190269D02*
X13174944Y-16180746D01*
X13174944Y-16180746D02*
X13184467Y-16161698D01*
X13355896Y-16142650D02*
X13355896Y-16275984D01*
X13308277Y-16066460D02*
X13260658Y-16209317D01*
X13260658Y-16209317D02*
X13384467Y-16209317D01*
X13451134Y-16075984D02*
X13451134Y-16114079D01*
X13527325Y-16075984D02*
X13527325Y-16114079D01*
X13822563Y-16352174D02*
X13813039Y-16342650D01*
X13813039Y-16342650D02*
X13793991Y-16314079D01*
X13793991Y-16314079D02*
X13784468Y-16295031D01*
X13784468Y-16295031D02*
X13774944Y-16266460D01*
X13774944Y-16266460D02*
X13765420Y-16218841D01*
X13765420Y-16218841D02*
X13765420Y-16180746D01*
X13765420Y-16180746D02*
X13774944Y-16133127D01*
X13774944Y-16133127D02*
X13784468Y-16104555D01*
X13784468Y-16104555D02*
X13793991Y-16085508D01*
X13793991Y-16085508D02*
X13813039Y-16056936D01*
X13813039Y-16056936D02*
X13822563Y-16047412D01*
X14003515Y-16275984D02*
X13889229Y-16275984D01*
X13946372Y-16275984D02*
X13946372Y-16075984D01*
X13946372Y-16075984D02*
X13927325Y-16104555D01*
X13927325Y-16104555D02*
X13908277Y-16123603D01*
X13908277Y-16123603D02*
X13889229Y-16133127D01*
X14079706Y-16095031D02*
X14089229Y-16085508D01*
X14089229Y-16085508D02*
X14108277Y-16075984D01*
X14108277Y-16075984D02*
X14155896Y-16075984D01*
X14155896Y-16075984D02*
X14174944Y-16085508D01*
X14174944Y-16085508D02*
X14184468Y-16095031D01*
X14184468Y-16095031D02*
X14193991Y-16114079D01*
X14193991Y-16114079D02*
X14193991Y-16133127D01*
X14193991Y-16133127D02*
X14184468Y-16161698D01*
X14184468Y-16161698D02*
X14070182Y-16275984D01*
X14070182Y-16275984D02*
X14193991Y-16275984D01*
X14432087Y-16275984D02*
X14432087Y-16075984D01*
X14517801Y-16275984D02*
X14517801Y-16171222D01*
X14517801Y-16171222D02*
X14508277Y-16152174D01*
X14508277Y-16152174D02*
X14489230Y-16142650D01*
X14489230Y-16142650D02*
X14460658Y-16142650D01*
X14460658Y-16142650D02*
X14441610Y-16152174D01*
X14441610Y-16152174D02*
X14432087Y-16161698D01*
X14641610Y-16275984D02*
X14622563Y-16266460D01*
X14622563Y-16266460D02*
X14613039Y-16256936D01*
X14613039Y-16256936D02*
X14603515Y-16237888D01*
X14603515Y-16237888D02*
X14603515Y-16180746D01*
X14603515Y-16180746D02*
X14613039Y-16161698D01*
X14613039Y-16161698D02*
X14622563Y-16152174D01*
X14622563Y-16152174D02*
X14641610Y-16142650D01*
X14641610Y-16142650D02*
X14670182Y-16142650D01*
X14670182Y-16142650D02*
X14689230Y-16152174D01*
X14689230Y-16152174D02*
X14698753Y-16161698D01*
X14698753Y-16161698D02*
X14708277Y-16180746D01*
X14708277Y-16180746D02*
X14708277Y-16237888D01*
X14708277Y-16237888D02*
X14698753Y-16256936D01*
X14698753Y-16256936D02*
X14689230Y-16266460D01*
X14689230Y-16266460D02*
X14670182Y-16275984D01*
X14670182Y-16275984D02*
X14641610Y-16275984D01*
X14822563Y-16275984D02*
X14803515Y-16266460D01*
X14803515Y-16266460D02*
X14793991Y-16247412D01*
X14793991Y-16247412D02*
X14793991Y-16075984D01*
X14974944Y-16266460D02*
X14955896Y-16275984D01*
X14955896Y-16275984D02*
X14917801Y-16275984D01*
X14917801Y-16275984D02*
X14898753Y-16266460D01*
X14898753Y-16266460D02*
X14889230Y-16247412D01*
X14889230Y-16247412D02*
X14889230Y-16171222D01*
X14889230Y-16171222D02*
X14898753Y-16152174D01*
X14898753Y-16152174D02*
X14917801Y-16142650D01*
X14917801Y-16142650D02*
X14955896Y-16142650D01*
X14955896Y-16142650D02*
X14974944Y-16152174D01*
X14974944Y-16152174D02*
X14984468Y-16171222D01*
X14984468Y-16171222D02*
X14984468Y-16190269D01*
X14984468Y-16190269D02*
X14889230Y-16209317D01*
X15060658Y-16266460D02*
X15079706Y-16275984D01*
X15079706Y-16275984D02*
X15117801Y-16275984D01*
X15117801Y-16275984D02*
X15136849Y-16266460D01*
X15136849Y-16266460D02*
X15146372Y-16247412D01*
X15146372Y-16247412D02*
X15146372Y-16237888D01*
X15146372Y-16237888D02*
X15136849Y-16218841D01*
X15136849Y-16218841D02*
X15117801Y-16209317D01*
X15117801Y-16209317D02*
X15089230Y-16209317D01*
X15089230Y-16209317D02*
X15070182Y-16199793D01*
X15070182Y-16199793D02*
X15060658Y-16180746D01*
X15060658Y-16180746D02*
X15060658Y-16171222D01*
X15060658Y-16171222D02*
X15070182Y-16152174D01*
X15070182Y-16152174D02*
X15089230Y-16142650D01*
X15089230Y-16142650D02*
X15117801Y-16142650D01*
X15117801Y-16142650D02*
X15136849Y-16152174D01*
X15213039Y-16352174D02*
X15222563Y-16342650D01*
X15222563Y-16342650D02*
X15241611Y-16314079D01*
X15241611Y-16314079D02*
X15251134Y-16295031D01*
X15251134Y-16295031D02*
X15260658Y-16266460D01*
X15260658Y-16266460D02*
X15270182Y-16218841D01*
X15270182Y-16218841D02*
X15270182Y-16180746D01*
X15270182Y-16180746D02*
X15260658Y-16133127D01*
X15260658Y-16133127D02*
X15251134Y-16104555D01*
X15251134Y-16104555D02*
X15241611Y-16085508D01*
X15241611Y-16085508D02*
X15222563Y-16056936D01*
X15222563Y-16056936D02*
X15213039Y-16047412D01*
D13*
X10192500Y-16503500D02*
X10247500Y-16448500D01*
X10192500Y-16393500D01*
X10137500Y-16448500D01*
X10192500Y-16503500D01*
D11*
X10613039Y-16539984D02*
X10498753Y-16539984D01*
X10555896Y-16539984D02*
X10555896Y-16339984D01*
X10555896Y-16339984D02*
X10536848Y-16368555D01*
X10536848Y-16368555D02*
X10517801Y-16387603D01*
X10517801Y-16387603D02*
X10498753Y-16397127D01*
X10698753Y-16520936D02*
X10708277Y-16530460D01*
X10708277Y-16530460D02*
X10698753Y-16539984D01*
X10698753Y-16539984D02*
X10689229Y-16530460D01*
X10689229Y-16530460D02*
X10698753Y-16520936D01*
X10698753Y-16520936D02*
X10698753Y-16539984D01*
X10898753Y-16539984D02*
X10784467Y-16539984D01*
X10841610Y-16539984D02*
X10841610Y-16339984D01*
X10841610Y-16339984D02*
X10822563Y-16368555D01*
X10822563Y-16368555D02*
X10803515Y-16387603D01*
X10803515Y-16387603D02*
X10784467Y-16397127D01*
X11022563Y-16339984D02*
X11041610Y-16339984D01*
X11041610Y-16339984D02*
X11060658Y-16349508D01*
X11060658Y-16349508D02*
X11070182Y-16359031D01*
X11070182Y-16359031D02*
X11079705Y-16378079D01*
X11079705Y-16378079D02*
X11089229Y-16416174D01*
X11089229Y-16416174D02*
X11089229Y-16463793D01*
X11089229Y-16463793D02*
X11079705Y-16501888D01*
X11079705Y-16501888D02*
X11070182Y-16520936D01*
X11070182Y-16520936D02*
X11060658Y-16530460D01*
X11060658Y-16530460D02*
X11041610Y-16539984D01*
X11041610Y-16539984D02*
X11022563Y-16539984D01*
X11022563Y-16539984D02*
X11003515Y-16530460D01*
X11003515Y-16530460D02*
X10993991Y-16520936D01*
X10993991Y-16520936D02*
X10984467Y-16501888D01*
X10984467Y-16501888D02*
X10974944Y-16463793D01*
X10974944Y-16463793D02*
X10974944Y-16416174D01*
X10974944Y-16416174D02*
X10984467Y-16378079D01*
X10984467Y-16378079D02*
X10993991Y-16359031D01*
X10993991Y-16359031D02*
X11003515Y-16349508D01*
X11003515Y-16349508D02*
X11022563Y-16339984D01*
X11213039Y-16339984D02*
X11232086Y-16339984D01*
X11232086Y-16339984D02*
X11251134Y-16349508D01*
X11251134Y-16349508D02*
X11260658Y-16359031D01*
X11260658Y-16359031D02*
X11270182Y-16378079D01*
X11270182Y-16378079D02*
X11279705Y-16416174D01*
X11279705Y-16416174D02*
X11279705Y-16463793D01*
X11279705Y-16463793D02*
X11270182Y-16501888D01*
X11270182Y-16501888D02*
X11260658Y-16520936D01*
X11260658Y-16520936D02*
X11251134Y-16530460D01*
X11251134Y-16530460D02*
X11232086Y-16539984D01*
X11232086Y-16539984D02*
X11213039Y-16539984D01*
X11213039Y-16539984D02*
X11193991Y-16530460D01*
X11193991Y-16530460D02*
X11184467Y-16520936D01*
X11184467Y-16520936D02*
X11174944Y-16501888D01*
X11174944Y-16501888D02*
X11165420Y-16463793D01*
X11165420Y-16463793D02*
X11165420Y-16416174D01*
X11165420Y-16416174D02*
X11174944Y-16378079D01*
X11174944Y-16378079D02*
X11184467Y-16359031D01*
X11184467Y-16359031D02*
X11193991Y-16349508D01*
X11193991Y-16349508D02*
X11213039Y-16339984D01*
X11365420Y-16539984D02*
X11365420Y-16406650D01*
X11365420Y-16425698D02*
X11374943Y-16416174D01*
X11374943Y-16416174D02*
X11393991Y-16406650D01*
X11393991Y-16406650D02*
X11422563Y-16406650D01*
X11422563Y-16406650D02*
X11441610Y-16416174D01*
X11441610Y-16416174D02*
X11451134Y-16435222D01*
X11451134Y-16435222D02*
X11451134Y-16539984D01*
X11451134Y-16435222D02*
X11460658Y-16416174D01*
X11460658Y-16416174D02*
X11479705Y-16406650D01*
X11479705Y-16406650D02*
X11508277Y-16406650D01*
X11508277Y-16406650D02*
X11527324Y-16416174D01*
X11527324Y-16416174D02*
X11536848Y-16435222D01*
X11536848Y-16435222D02*
X11536848Y-16539984D01*
X11632086Y-16539984D02*
X11632086Y-16406650D01*
X11632086Y-16425698D02*
X11641610Y-16416174D01*
X11641610Y-16416174D02*
X11660658Y-16406650D01*
X11660658Y-16406650D02*
X11689229Y-16406650D01*
X11689229Y-16406650D02*
X11708277Y-16416174D01*
X11708277Y-16416174D02*
X11717801Y-16435222D01*
X11717801Y-16435222D02*
X11717801Y-16539984D01*
X11717801Y-16435222D02*
X11727324Y-16416174D01*
X11727324Y-16416174D02*
X11746372Y-16406650D01*
X11746372Y-16406650D02*
X11774943Y-16406650D01*
X11774943Y-16406650D02*
X11793991Y-16416174D01*
X11793991Y-16416174D02*
X11803515Y-16435222D01*
X11803515Y-16435222D02*
X11803515Y-16539984D01*
X12193991Y-16330460D02*
X12022563Y-16587603D01*
X12451134Y-16339984D02*
X12470182Y-16339984D01*
X12470182Y-16339984D02*
X12489229Y-16349508D01*
X12489229Y-16349508D02*
X12498753Y-16359031D01*
X12498753Y-16359031D02*
X12508277Y-16378079D01*
X12508277Y-16378079D02*
X12517801Y-16416174D01*
X12517801Y-16416174D02*
X12517801Y-16463793D01*
X12517801Y-16463793D02*
X12508277Y-16501888D01*
X12508277Y-16501888D02*
X12498753Y-16520936D01*
X12498753Y-16520936D02*
X12489229Y-16530460D01*
X12489229Y-16530460D02*
X12470182Y-16539984D01*
X12470182Y-16539984D02*
X12451134Y-16539984D01*
X12451134Y-16539984D02*
X12432086Y-16530460D01*
X12432086Y-16530460D02*
X12422563Y-16520936D01*
X12422563Y-16520936D02*
X12413039Y-16501888D01*
X12413039Y-16501888D02*
X12403515Y-16463793D01*
X12403515Y-16463793D02*
X12403515Y-16416174D01*
X12403515Y-16416174D02*
X12413039Y-16378079D01*
X12413039Y-16378079D02*
X12422563Y-16359031D01*
X12422563Y-16359031D02*
X12432086Y-16349508D01*
X12432086Y-16349508D02*
X12451134Y-16339984D01*
X12603515Y-16520936D02*
X12613039Y-16530460D01*
X12613039Y-16530460D02*
X12603515Y-16539984D01*
X12603515Y-16539984D02*
X12593991Y-16530460D01*
X12593991Y-16530460D02*
X12603515Y-16520936D01*
X12603515Y-16520936D02*
X12603515Y-16539984D01*
X12736848Y-16339984D02*
X12755896Y-16339984D01*
X12755896Y-16339984D02*
X12774944Y-16349508D01*
X12774944Y-16349508D02*
X12784467Y-16359031D01*
X12784467Y-16359031D02*
X12793991Y-16378079D01*
X12793991Y-16378079D02*
X12803515Y-16416174D01*
X12803515Y-16416174D02*
X12803515Y-16463793D01*
X12803515Y-16463793D02*
X12793991Y-16501888D01*
X12793991Y-16501888D02*
X12784467Y-16520936D01*
X12784467Y-16520936D02*
X12774944Y-16530460D01*
X12774944Y-16530460D02*
X12755896Y-16539984D01*
X12755896Y-16539984D02*
X12736848Y-16539984D01*
X12736848Y-16539984D02*
X12717801Y-16530460D01*
X12717801Y-16530460D02*
X12708277Y-16520936D01*
X12708277Y-16520936D02*
X12698753Y-16501888D01*
X12698753Y-16501888D02*
X12689229Y-16463793D01*
X12689229Y-16463793D02*
X12689229Y-16416174D01*
X12689229Y-16416174D02*
X12698753Y-16378079D01*
X12698753Y-16378079D02*
X12708277Y-16359031D01*
X12708277Y-16359031D02*
X12717801Y-16349508D01*
X12717801Y-16349508D02*
X12736848Y-16339984D01*
X12974944Y-16406650D02*
X12974944Y-16539984D01*
X12927325Y-16330460D02*
X12879706Y-16473317D01*
X12879706Y-16473317D02*
X13003515Y-16473317D01*
X13060658Y-16339984D02*
X13184467Y-16339984D01*
X13184467Y-16339984D02*
X13117801Y-16416174D01*
X13117801Y-16416174D02*
X13146372Y-16416174D01*
X13146372Y-16416174D02*
X13165420Y-16425698D01*
X13165420Y-16425698D02*
X13174944Y-16435222D01*
X13174944Y-16435222D02*
X13184467Y-16454269D01*
X13184467Y-16454269D02*
X13184467Y-16501888D01*
X13184467Y-16501888D02*
X13174944Y-16520936D01*
X13174944Y-16520936D02*
X13165420Y-16530460D01*
X13165420Y-16530460D02*
X13146372Y-16539984D01*
X13146372Y-16539984D02*
X13089229Y-16539984D01*
X13089229Y-16539984D02*
X13070182Y-16530460D01*
X13070182Y-16530460D02*
X13060658Y-16520936D01*
X13251134Y-16339984D02*
X13374944Y-16339984D01*
X13374944Y-16339984D02*
X13308277Y-16416174D01*
X13308277Y-16416174D02*
X13336848Y-16416174D01*
X13336848Y-16416174D02*
X13355896Y-16425698D01*
X13355896Y-16425698D02*
X13365420Y-16435222D01*
X13365420Y-16435222D02*
X13374944Y-16454269D01*
X13374944Y-16454269D02*
X13374944Y-16501888D01*
X13374944Y-16501888D02*
X13365420Y-16520936D01*
X13365420Y-16520936D02*
X13355896Y-16530460D01*
X13355896Y-16530460D02*
X13336848Y-16539984D01*
X13336848Y-16539984D02*
X13279706Y-16539984D01*
X13279706Y-16539984D02*
X13260658Y-16530460D01*
X13260658Y-16530460D02*
X13251134Y-16520936D01*
X13451134Y-16339984D02*
X13451134Y-16378079D01*
X13527325Y-16339984D02*
X13527325Y-16378079D01*
X13822563Y-16616174D02*
X13813039Y-16606650D01*
X13813039Y-16606650D02*
X13793991Y-16578079D01*
X13793991Y-16578079D02*
X13784468Y-16559031D01*
X13784468Y-16559031D02*
X13774944Y-16530460D01*
X13774944Y-16530460D02*
X13765420Y-16482841D01*
X13765420Y-16482841D02*
X13765420Y-16444746D01*
X13765420Y-16444746D02*
X13774944Y-16397127D01*
X13774944Y-16397127D02*
X13784468Y-16368555D01*
X13784468Y-16368555D02*
X13793991Y-16349508D01*
X13793991Y-16349508D02*
X13813039Y-16320936D01*
X13813039Y-16320936D02*
X13822563Y-16311412D01*
X13993991Y-16339984D02*
X13898753Y-16339984D01*
X13898753Y-16339984D02*
X13889229Y-16435222D01*
X13889229Y-16435222D02*
X13898753Y-16425698D01*
X13898753Y-16425698D02*
X13917801Y-16416174D01*
X13917801Y-16416174D02*
X13965420Y-16416174D01*
X13965420Y-16416174D02*
X13984468Y-16425698D01*
X13984468Y-16425698D02*
X13993991Y-16435222D01*
X13993991Y-16435222D02*
X14003515Y-16454269D01*
X14003515Y-16454269D02*
X14003515Y-16501888D01*
X14003515Y-16501888D02*
X13993991Y-16520936D01*
X13993991Y-16520936D02*
X13984468Y-16530460D01*
X13984468Y-16530460D02*
X13965420Y-16539984D01*
X13965420Y-16539984D02*
X13917801Y-16539984D01*
X13917801Y-16539984D02*
X13898753Y-16530460D01*
X13898753Y-16530460D02*
X13889229Y-16520936D01*
X14241610Y-16539984D02*
X14241610Y-16339984D01*
X14327325Y-16539984D02*
X14327325Y-16435222D01*
X14327325Y-16435222D02*
X14317801Y-16416174D01*
X14317801Y-16416174D02*
X14298753Y-16406650D01*
X14298753Y-16406650D02*
X14270182Y-16406650D01*
X14270182Y-16406650D02*
X14251134Y-16416174D01*
X14251134Y-16416174D02*
X14241610Y-16425698D01*
X14451134Y-16539984D02*
X14432087Y-16530460D01*
X14432087Y-16530460D02*
X14422563Y-16520936D01*
X14422563Y-16520936D02*
X14413039Y-16501888D01*
X14413039Y-16501888D02*
X14413039Y-16444746D01*
X14413039Y-16444746D02*
X14422563Y-16425698D01*
X14422563Y-16425698D02*
X14432087Y-16416174D01*
X14432087Y-16416174D02*
X14451134Y-16406650D01*
X14451134Y-16406650D02*
X14479706Y-16406650D01*
X14479706Y-16406650D02*
X14498753Y-16416174D01*
X14498753Y-16416174D02*
X14508277Y-16425698D01*
X14508277Y-16425698D02*
X14517801Y-16444746D01*
X14517801Y-16444746D02*
X14517801Y-16501888D01*
X14517801Y-16501888D02*
X14508277Y-16520936D01*
X14508277Y-16520936D02*
X14498753Y-16530460D01*
X14498753Y-16530460D02*
X14479706Y-16539984D01*
X14479706Y-16539984D02*
X14451134Y-16539984D01*
X14632087Y-16539984D02*
X14613039Y-16530460D01*
X14613039Y-16530460D02*
X14603515Y-16511412D01*
X14603515Y-16511412D02*
X14603515Y-16339984D01*
X14784468Y-16530460D02*
X14765420Y-16539984D01*
X14765420Y-16539984D02*
X14727325Y-16539984D01*
X14727325Y-16539984D02*
X14708277Y-16530460D01*
X14708277Y-16530460D02*
X14698753Y-16511412D01*
X14698753Y-16511412D02*
X14698753Y-16435222D01*
X14698753Y-16435222D02*
X14708277Y-16416174D01*
X14708277Y-16416174D02*
X14727325Y-16406650D01*
X14727325Y-16406650D02*
X14765420Y-16406650D01*
X14765420Y-16406650D02*
X14784468Y-16416174D01*
X14784468Y-16416174D02*
X14793991Y-16435222D01*
X14793991Y-16435222D02*
X14793991Y-16454269D01*
X14793991Y-16454269D02*
X14698753Y-16473317D01*
X14870182Y-16530460D02*
X14889230Y-16539984D01*
X14889230Y-16539984D02*
X14927325Y-16539984D01*
X14927325Y-16539984D02*
X14946372Y-16530460D01*
X14946372Y-16530460D02*
X14955896Y-16511412D01*
X14955896Y-16511412D02*
X14955896Y-16501888D01*
X14955896Y-16501888D02*
X14946372Y-16482841D01*
X14946372Y-16482841D02*
X14927325Y-16473317D01*
X14927325Y-16473317D02*
X14898753Y-16473317D01*
X14898753Y-16473317D02*
X14879706Y-16463793D01*
X14879706Y-16463793D02*
X14870182Y-16444746D01*
X14870182Y-16444746D02*
X14870182Y-16435222D01*
X14870182Y-16435222D02*
X14879706Y-16416174D01*
X14879706Y-16416174D02*
X14898753Y-16406650D01*
X14898753Y-16406650D02*
X14927325Y-16406650D01*
X14927325Y-16406650D02*
X14946372Y-16416174D01*
X15022563Y-16616174D02*
X15032087Y-16606650D01*
X15032087Y-16606650D02*
X15051134Y-16578079D01*
X15051134Y-16578079D02*
X15060658Y-16559031D01*
X15060658Y-16559031D02*
X15070182Y-16530460D01*
X15070182Y-16530460D02*
X15079706Y-16482841D01*
X15079706Y-16482841D02*
X15079706Y-16444746D01*
X15079706Y-16444746D02*
X15070182Y-16397127D01*
X15070182Y-16397127D02*
X15060658Y-16368555D01*
X15060658Y-16368555D02*
X15051134Y-16349508D01*
X15051134Y-16349508D02*
X15032087Y-16320936D01*
X15032087Y-16320936D02*
X15022563Y-16311412D01*
D14*
X10087500Y-16632500D02*
X10247500Y-16792500D01*
X10247500Y-16632500D02*
X10087500Y-16792500D01*
X10247500Y-16712500D02*
G75*
G02*
X10087500Y-16712500I-80000J0D01*
G01*
X10087500Y-16712500D02*
G75*
G02*
X10247500Y-16712500I80000J0D01*
G01*
D11*
X10613039Y-16803984D02*
X10498753Y-16803984D01*
X10555896Y-16803984D02*
X10555896Y-16603984D01*
X10555896Y-16603984D02*
X10536848Y-16632555D01*
X10536848Y-16632555D02*
X10517801Y-16651603D01*
X10517801Y-16651603D02*
X10498753Y-16661127D01*
X10698753Y-16784936D02*
X10708277Y-16794460D01*
X10708277Y-16794460D02*
X10698753Y-16803984D01*
X10698753Y-16803984D02*
X10689229Y-16794460D01*
X10689229Y-16794460D02*
X10698753Y-16784936D01*
X10698753Y-16784936D02*
X10698753Y-16803984D01*
X10879705Y-16603984D02*
X10841610Y-16603984D01*
X10841610Y-16603984D02*
X10822563Y-16613508D01*
X10822563Y-16613508D02*
X10813039Y-16623031D01*
X10813039Y-16623031D02*
X10793991Y-16651603D01*
X10793991Y-16651603D02*
X10784467Y-16689698D01*
X10784467Y-16689698D02*
X10784467Y-16765888D01*
X10784467Y-16765888D02*
X10793991Y-16784936D01*
X10793991Y-16784936D02*
X10803515Y-16794460D01*
X10803515Y-16794460D02*
X10822563Y-16803984D01*
X10822563Y-16803984D02*
X10860658Y-16803984D01*
X10860658Y-16803984D02*
X10879705Y-16794460D01*
X10879705Y-16794460D02*
X10889229Y-16784936D01*
X10889229Y-16784936D02*
X10898753Y-16765888D01*
X10898753Y-16765888D02*
X10898753Y-16718269D01*
X10898753Y-16718269D02*
X10889229Y-16699222D01*
X10889229Y-16699222D02*
X10879705Y-16689698D01*
X10879705Y-16689698D02*
X10860658Y-16680174D01*
X10860658Y-16680174D02*
X10822563Y-16680174D01*
X10822563Y-16680174D02*
X10803515Y-16689698D01*
X10803515Y-16689698D02*
X10793991Y-16699222D01*
X10793991Y-16699222D02*
X10784467Y-16718269D01*
X11022563Y-16603984D02*
X11041610Y-16603984D01*
X11041610Y-16603984D02*
X11060658Y-16613508D01*
X11060658Y-16613508D02*
X11070182Y-16623031D01*
X11070182Y-16623031D02*
X11079705Y-16642079D01*
X11079705Y-16642079D02*
X11089229Y-16680174D01*
X11089229Y-16680174D02*
X11089229Y-16727793D01*
X11089229Y-16727793D02*
X11079705Y-16765888D01*
X11079705Y-16765888D02*
X11070182Y-16784936D01*
X11070182Y-16784936D02*
X11060658Y-16794460D01*
X11060658Y-16794460D02*
X11041610Y-16803984D01*
X11041610Y-16803984D02*
X11022563Y-16803984D01*
X11022563Y-16803984D02*
X11003515Y-16794460D01*
X11003515Y-16794460D02*
X10993991Y-16784936D01*
X10993991Y-16784936D02*
X10984467Y-16765888D01*
X10984467Y-16765888D02*
X10974944Y-16727793D01*
X10974944Y-16727793D02*
X10974944Y-16680174D01*
X10974944Y-16680174D02*
X10984467Y-16642079D01*
X10984467Y-16642079D02*
X10993991Y-16623031D01*
X10993991Y-16623031D02*
X11003515Y-16613508D01*
X11003515Y-16613508D02*
X11022563Y-16603984D01*
X11213039Y-16603984D02*
X11232086Y-16603984D01*
X11232086Y-16603984D02*
X11251134Y-16613508D01*
X11251134Y-16613508D02*
X11260658Y-16623031D01*
X11260658Y-16623031D02*
X11270182Y-16642079D01*
X11270182Y-16642079D02*
X11279705Y-16680174D01*
X11279705Y-16680174D02*
X11279705Y-16727793D01*
X11279705Y-16727793D02*
X11270182Y-16765888D01*
X11270182Y-16765888D02*
X11260658Y-16784936D01*
X11260658Y-16784936D02*
X11251134Y-16794460D01*
X11251134Y-16794460D02*
X11232086Y-16803984D01*
X11232086Y-16803984D02*
X11213039Y-16803984D01*
X11213039Y-16803984D02*
X11193991Y-16794460D01*
X11193991Y-16794460D02*
X11184467Y-16784936D01*
X11184467Y-16784936D02*
X11174944Y-16765888D01*
X11174944Y-16765888D02*
X11165420Y-16727793D01*
X11165420Y-16727793D02*
X11165420Y-16680174D01*
X11165420Y-16680174D02*
X11174944Y-16642079D01*
X11174944Y-16642079D02*
X11184467Y-16623031D01*
X11184467Y-16623031D02*
X11193991Y-16613508D01*
X11193991Y-16613508D02*
X11213039Y-16603984D01*
X11365420Y-16803984D02*
X11365420Y-16670650D01*
X11365420Y-16689698D02*
X11374943Y-16680174D01*
X11374943Y-16680174D02*
X11393991Y-16670650D01*
X11393991Y-16670650D02*
X11422563Y-16670650D01*
X11422563Y-16670650D02*
X11441610Y-16680174D01*
X11441610Y-16680174D02*
X11451134Y-16699222D01*
X11451134Y-16699222D02*
X11451134Y-16803984D01*
X11451134Y-16699222D02*
X11460658Y-16680174D01*
X11460658Y-16680174D02*
X11479705Y-16670650D01*
X11479705Y-16670650D02*
X11508277Y-16670650D01*
X11508277Y-16670650D02*
X11527324Y-16680174D01*
X11527324Y-16680174D02*
X11536848Y-16699222D01*
X11536848Y-16699222D02*
X11536848Y-16803984D01*
X11632086Y-16803984D02*
X11632086Y-16670650D01*
X11632086Y-16689698D02*
X11641610Y-16680174D01*
X11641610Y-16680174D02*
X11660658Y-16670650D01*
X11660658Y-16670650D02*
X11689229Y-16670650D01*
X11689229Y-16670650D02*
X11708277Y-16680174D01*
X11708277Y-16680174D02*
X11717801Y-16699222D01*
X11717801Y-16699222D02*
X11717801Y-16803984D01*
X11717801Y-16699222D02*
X11727324Y-16680174D01*
X11727324Y-16680174D02*
X11746372Y-16670650D01*
X11746372Y-16670650D02*
X11774943Y-16670650D01*
X11774943Y-16670650D02*
X11793991Y-16680174D01*
X11793991Y-16680174D02*
X11803515Y-16699222D01*
X11803515Y-16699222D02*
X11803515Y-16803984D01*
X12193991Y-16594460D02*
X12022563Y-16851603D01*
X12451134Y-16603984D02*
X12470182Y-16603984D01*
X12470182Y-16603984D02*
X12489229Y-16613508D01*
X12489229Y-16613508D02*
X12498753Y-16623031D01*
X12498753Y-16623031D02*
X12508277Y-16642079D01*
X12508277Y-16642079D02*
X12517801Y-16680174D01*
X12517801Y-16680174D02*
X12517801Y-16727793D01*
X12517801Y-16727793D02*
X12508277Y-16765888D01*
X12508277Y-16765888D02*
X12498753Y-16784936D01*
X12498753Y-16784936D02*
X12489229Y-16794460D01*
X12489229Y-16794460D02*
X12470182Y-16803984D01*
X12470182Y-16803984D02*
X12451134Y-16803984D01*
X12451134Y-16803984D02*
X12432086Y-16794460D01*
X12432086Y-16794460D02*
X12422563Y-16784936D01*
X12422563Y-16784936D02*
X12413039Y-16765888D01*
X12413039Y-16765888D02*
X12403515Y-16727793D01*
X12403515Y-16727793D02*
X12403515Y-16680174D01*
X12403515Y-16680174D02*
X12413039Y-16642079D01*
X12413039Y-16642079D02*
X12422563Y-16623031D01*
X12422563Y-16623031D02*
X12432086Y-16613508D01*
X12432086Y-16613508D02*
X12451134Y-16603984D01*
X12603515Y-16784936D02*
X12613039Y-16794460D01*
X12613039Y-16794460D02*
X12603515Y-16803984D01*
X12603515Y-16803984D02*
X12593991Y-16794460D01*
X12593991Y-16794460D02*
X12603515Y-16784936D01*
X12603515Y-16784936D02*
X12603515Y-16803984D01*
X12736848Y-16603984D02*
X12755896Y-16603984D01*
X12755896Y-16603984D02*
X12774944Y-16613508D01*
X12774944Y-16613508D02*
X12784467Y-16623031D01*
X12784467Y-16623031D02*
X12793991Y-16642079D01*
X12793991Y-16642079D02*
X12803515Y-16680174D01*
X12803515Y-16680174D02*
X12803515Y-16727793D01*
X12803515Y-16727793D02*
X12793991Y-16765888D01*
X12793991Y-16765888D02*
X12784467Y-16784936D01*
X12784467Y-16784936D02*
X12774944Y-16794460D01*
X12774944Y-16794460D02*
X12755896Y-16803984D01*
X12755896Y-16803984D02*
X12736848Y-16803984D01*
X12736848Y-16803984D02*
X12717801Y-16794460D01*
X12717801Y-16794460D02*
X12708277Y-16784936D01*
X12708277Y-16784936D02*
X12698753Y-16765888D01*
X12698753Y-16765888D02*
X12689229Y-16727793D01*
X12689229Y-16727793D02*
X12689229Y-16680174D01*
X12689229Y-16680174D02*
X12698753Y-16642079D01*
X12698753Y-16642079D02*
X12708277Y-16623031D01*
X12708277Y-16623031D02*
X12717801Y-16613508D01*
X12717801Y-16613508D02*
X12736848Y-16603984D01*
X12974944Y-16603984D02*
X12936848Y-16603984D01*
X12936848Y-16603984D02*
X12917801Y-16613508D01*
X12917801Y-16613508D02*
X12908277Y-16623031D01*
X12908277Y-16623031D02*
X12889229Y-16651603D01*
X12889229Y-16651603D02*
X12879706Y-16689698D01*
X12879706Y-16689698D02*
X12879706Y-16765888D01*
X12879706Y-16765888D02*
X12889229Y-16784936D01*
X12889229Y-16784936D02*
X12898753Y-16794460D01*
X12898753Y-16794460D02*
X12917801Y-16803984D01*
X12917801Y-16803984D02*
X12955896Y-16803984D01*
X12955896Y-16803984D02*
X12974944Y-16794460D01*
X12974944Y-16794460D02*
X12984467Y-16784936D01*
X12984467Y-16784936D02*
X12993991Y-16765888D01*
X12993991Y-16765888D02*
X12993991Y-16718269D01*
X12993991Y-16718269D02*
X12984467Y-16699222D01*
X12984467Y-16699222D02*
X12974944Y-16689698D01*
X12974944Y-16689698D02*
X12955896Y-16680174D01*
X12955896Y-16680174D02*
X12917801Y-16680174D01*
X12917801Y-16680174D02*
X12898753Y-16689698D01*
X12898753Y-16689698D02*
X12889229Y-16699222D01*
X12889229Y-16699222D02*
X12879706Y-16718269D01*
X13060658Y-16603984D02*
X13184467Y-16603984D01*
X13184467Y-16603984D02*
X13117801Y-16680174D01*
X13117801Y-16680174D02*
X13146372Y-16680174D01*
X13146372Y-16680174D02*
X13165420Y-16689698D01*
X13165420Y-16689698D02*
X13174944Y-16699222D01*
X13174944Y-16699222D02*
X13184467Y-16718269D01*
X13184467Y-16718269D02*
X13184467Y-16765888D01*
X13184467Y-16765888D02*
X13174944Y-16784936D01*
X13174944Y-16784936D02*
X13165420Y-16794460D01*
X13165420Y-16794460D02*
X13146372Y-16803984D01*
X13146372Y-16803984D02*
X13089229Y-16803984D01*
X13089229Y-16803984D02*
X13070182Y-16794460D01*
X13070182Y-16794460D02*
X13060658Y-16784936D01*
X13308277Y-16603984D02*
X13327325Y-16603984D01*
X13327325Y-16603984D02*
X13346372Y-16613508D01*
X13346372Y-16613508D02*
X13355896Y-16623031D01*
X13355896Y-16623031D02*
X13365420Y-16642079D01*
X13365420Y-16642079D02*
X13374944Y-16680174D01*
X13374944Y-16680174D02*
X13374944Y-16727793D01*
X13374944Y-16727793D02*
X13365420Y-16765888D01*
X13365420Y-16765888D02*
X13355896Y-16784936D01*
X13355896Y-16784936D02*
X13346372Y-16794460D01*
X13346372Y-16794460D02*
X13327325Y-16803984D01*
X13327325Y-16803984D02*
X13308277Y-16803984D01*
X13308277Y-16803984D02*
X13289229Y-16794460D01*
X13289229Y-16794460D02*
X13279706Y-16784936D01*
X13279706Y-16784936D02*
X13270182Y-16765888D01*
X13270182Y-16765888D02*
X13260658Y-16727793D01*
X13260658Y-16727793D02*
X13260658Y-16680174D01*
X13260658Y-16680174D02*
X13270182Y-16642079D01*
X13270182Y-16642079D02*
X13279706Y-16623031D01*
X13279706Y-16623031D02*
X13289229Y-16613508D01*
X13289229Y-16613508D02*
X13308277Y-16603984D01*
X13451134Y-16603984D02*
X13451134Y-16642079D01*
X13527325Y-16603984D02*
X13527325Y-16642079D01*
X13822563Y-16880174D02*
X13813039Y-16870650D01*
X13813039Y-16870650D02*
X13793991Y-16842079D01*
X13793991Y-16842079D02*
X13784468Y-16823031D01*
X13784468Y-16823031D02*
X13774944Y-16794460D01*
X13774944Y-16794460D02*
X13765420Y-16746841D01*
X13765420Y-16746841D02*
X13765420Y-16708746D01*
X13765420Y-16708746D02*
X13774944Y-16661127D01*
X13774944Y-16661127D02*
X13784468Y-16632555D01*
X13784468Y-16632555D02*
X13793991Y-16613508D01*
X13793991Y-16613508D02*
X13813039Y-16584936D01*
X13813039Y-16584936D02*
X13822563Y-16575412D01*
X13889229Y-16623031D02*
X13898753Y-16613508D01*
X13898753Y-16613508D02*
X13917801Y-16603984D01*
X13917801Y-16603984D02*
X13965420Y-16603984D01*
X13965420Y-16603984D02*
X13984468Y-16613508D01*
X13984468Y-16613508D02*
X13993991Y-16623031D01*
X13993991Y-16623031D02*
X14003515Y-16642079D01*
X14003515Y-16642079D02*
X14003515Y-16661127D01*
X14003515Y-16661127D02*
X13993991Y-16689698D01*
X13993991Y-16689698D02*
X13879706Y-16803984D01*
X13879706Y-16803984D02*
X14003515Y-16803984D01*
X14241610Y-16803984D02*
X14241610Y-16603984D01*
X14327325Y-16803984D02*
X14327325Y-16699222D01*
X14327325Y-16699222D02*
X14317801Y-16680174D01*
X14317801Y-16680174D02*
X14298753Y-16670650D01*
X14298753Y-16670650D02*
X14270182Y-16670650D01*
X14270182Y-16670650D02*
X14251134Y-16680174D01*
X14251134Y-16680174D02*
X14241610Y-16689698D01*
X14451134Y-16803984D02*
X14432087Y-16794460D01*
X14432087Y-16794460D02*
X14422563Y-16784936D01*
X14422563Y-16784936D02*
X14413039Y-16765888D01*
X14413039Y-16765888D02*
X14413039Y-16708746D01*
X14413039Y-16708746D02*
X14422563Y-16689698D01*
X14422563Y-16689698D02*
X14432087Y-16680174D01*
X14432087Y-16680174D02*
X14451134Y-16670650D01*
X14451134Y-16670650D02*
X14479706Y-16670650D01*
X14479706Y-16670650D02*
X14498753Y-16680174D01*
X14498753Y-16680174D02*
X14508277Y-16689698D01*
X14508277Y-16689698D02*
X14517801Y-16708746D01*
X14517801Y-16708746D02*
X14517801Y-16765888D01*
X14517801Y-16765888D02*
X14508277Y-16784936D01*
X14508277Y-16784936D02*
X14498753Y-16794460D01*
X14498753Y-16794460D02*
X14479706Y-16803984D01*
X14479706Y-16803984D02*
X14451134Y-16803984D01*
X14632087Y-16803984D02*
X14613039Y-16794460D01*
X14613039Y-16794460D02*
X14603515Y-16775412D01*
X14603515Y-16775412D02*
X14603515Y-16603984D01*
X14784468Y-16794460D02*
X14765420Y-16803984D01*
X14765420Y-16803984D02*
X14727325Y-16803984D01*
X14727325Y-16803984D02*
X14708277Y-16794460D01*
X14708277Y-16794460D02*
X14698753Y-16775412D01*
X14698753Y-16775412D02*
X14698753Y-16699222D01*
X14698753Y-16699222D02*
X14708277Y-16680174D01*
X14708277Y-16680174D02*
X14727325Y-16670650D01*
X14727325Y-16670650D02*
X14765420Y-16670650D01*
X14765420Y-16670650D02*
X14784468Y-16680174D01*
X14784468Y-16680174D02*
X14793991Y-16699222D01*
X14793991Y-16699222D02*
X14793991Y-16718269D01*
X14793991Y-16718269D02*
X14698753Y-16737317D01*
X14870182Y-16794460D02*
X14889230Y-16803984D01*
X14889230Y-16803984D02*
X14927325Y-16803984D01*
X14927325Y-16803984D02*
X14946372Y-16794460D01*
X14946372Y-16794460D02*
X14955896Y-16775412D01*
X14955896Y-16775412D02*
X14955896Y-16765888D01*
X14955896Y-16765888D02*
X14946372Y-16746841D01*
X14946372Y-16746841D02*
X14927325Y-16737317D01*
X14927325Y-16737317D02*
X14898753Y-16737317D01*
X14898753Y-16737317D02*
X14879706Y-16727793D01*
X14879706Y-16727793D02*
X14870182Y-16708746D01*
X14870182Y-16708746D02*
X14870182Y-16699222D01*
X14870182Y-16699222D02*
X14879706Y-16680174D01*
X14879706Y-16680174D02*
X14898753Y-16670650D01*
X14898753Y-16670650D02*
X14927325Y-16670650D01*
X14927325Y-16670650D02*
X14946372Y-16680174D01*
X15022563Y-16880174D02*
X15032087Y-16870650D01*
X15032087Y-16870650D02*
X15051134Y-16842079D01*
X15051134Y-16842079D02*
X15060658Y-16823031D01*
X15060658Y-16823031D02*
X15070182Y-16794460D01*
X15070182Y-16794460D02*
X15079706Y-16746841D01*
X15079706Y-16746841D02*
X15079706Y-16708746D01*
X15079706Y-16708746D02*
X15070182Y-16661127D01*
X15070182Y-16661127D02*
X15060658Y-16632555D01*
X15060658Y-16632555D02*
X15051134Y-16613508D01*
X15051134Y-16613508D02*
X15032087Y-16584936D01*
X15032087Y-16584936D02*
X15022563Y-16575412D01*
M02*
