M48
; DRILL file {KiCad 8.0.5} date 2025-05-01T20:41:21-0400
; FORMAT={-:-/ absolute / metric / decimal}
; #@! TF.CreationDate,2025-05-01T20:41:21-04:00
; #@! TF.GenerationSoftware,Kicad,Pcbnew,8.0.5
; #@! TF.FileFunction,Plated,1,4,PTH
FMAT,2
METRIC
; #@! TA.AperFunction,Plated,PTH,ViaDrill
T1C0.300
; #@! TA.AperFunction,Plated,PTH,ComponentDrill
T2C0.750
; #@! TA.AperFunction,Plated,PTH,ComponentDrill
T3C0.800
; #@! TA.AperFunction,Plated,PTH,ComponentDrill
T4C1.000
; #@! TA.AperFunction,Plated,PTH,ComponentDrill
T5C1.100
; #@! TA.AperFunction,Plated,PTH,ComponentDrill
T6C1.600
%
G90
G05
T1
X127.5Y-76.25
X133.75Y-108.0
X134.0Y-105.75
X134.0Y-113.25
X134.5Y-106.906
X134.5Y-109.0
X135.25Y-104.75
X135.25Y-108.0
X135.5Y-106.0
X136.25Y-112.75
X136.75Y-109.75
X137.5Y-111.25
X138.0Y-112.75
X139.5Y-108.75
X140.0Y-105.5
X140.0Y-107.75
X140.0Y-109.5
X140.025Y-106.787
X142.0Y-109.25
X142.75Y-105.5
X143.0Y-107.0
X143.25Y-108.75
X143.25Y-114.25
X143.5Y-116.25
X144.25Y-105.5
X144.25Y-115.25
X144.5Y-107.0
X145.0Y-117.0
X145.25Y-114.25
X145.5Y-108.0
X145.75Y-109.75
X146.0Y-105.5
X146.25Y-107.0
X146.25Y-113.25
X146.5Y-108.75
X146.75Y-110.5
X147.0Y-96.75
X147.25Y-94.5
X147.25Y-112.25
X147.25Y-114.25
X147.5Y-92.25
X147.5Y-105.5
X147.75Y-107.0
X148.0Y-108.75
X148.25Y-110.5
X148.25Y-113.25
X148.25Y-115.25
X148.25Y-117.25
X148.75Y-96.75
X149.0Y-94.5
X149.25Y-92.25
X149.75Y-84.5
X149.75Y-86.0
X150.5Y-96.75
X150.75Y-94.5
X151.0Y-84.5
X151.0Y-92.25
X151.25Y-86.5
X152.0Y-82.75
X152.25Y-84.5
X152.25Y-91.5
X152.25Y-96.75
X152.75Y-86.5
X152.75Y-94.5
X153.25Y-82.75
X153.75Y-84.5
X154.0Y-91.5
X154.0Y-96.75
X154.25Y-86.5
X154.5Y-94.5
X154.75Y-80.25
X154.75Y-82.75
X155.25Y-84.5
X155.75Y-86.5
X155.75Y-91.5
X155.75Y-96.75
X156.25Y-82.75
X156.25Y-94.5
X156.5Y-80.25
X156.5Y-84.5
X157.25Y-96.75
X157.5Y-82.75
X157.75Y-84.5
X158.0Y-80.25
X158.25Y-94.75
X158.75Y-82.75
X159.0Y-96.75
X160.75Y-82.75
X160.75Y-96.75
X161.75Y-83.75
X162.5Y-96.5
X162.75Y-80.75
X163.75Y-81.75
X163.75Y-85.75
X163.75Y-87.75
X164.25Y-96.5
X164.75Y-78.75
X164.75Y-82.75
X164.75Y-86.75
X164.75Y-88.75
X165.75Y-77.75
X165.75Y-79.75
X165.75Y-83.75
X165.75Y-87.75
X166.0Y-96.5
X166.75Y-78.75
X166.75Y-84.75
X166.75Y-88.75
X167.75Y-77.75
X167.75Y-85.75
X168.75Y-78.75
X168.75Y-86.75
X169.5Y-84.75
X169.75Y-87.75
X170.75Y-88.75
X171.75Y-81.75
X171.75Y-83.75
X171.75Y-85.75
X172.25Y-92.25
X172.75Y-86.75
X173.75Y-83.75
X173.75Y-92.25
X175.25Y-92.0
X176.75Y-91.0
X177.75Y-78.75
X177.75Y-81.25
X177.75Y-83.5
X177.75Y-86.0
X177.75Y-88.25
X177.75Y-90.25
T2
X127.71Y-111.0
X128.98Y-111.0
X130.25Y-111.0
X138.75Y-90.7
X140.75Y-90.7
X143.25Y-126.25
X143.25Y-132.55
X145.25Y-126.25
X145.25Y-132.55
X147.5Y-76.2
X149.5Y-76.2
X178.5Y-94.2
X180.5Y-94.2
X182.5Y-94.2
X184.5Y-94.2
T3
X116.5Y-89.69
X116.5Y-97.31
X121.19Y-79.75
X121.19Y-83.75
X121.75Y-89.69
X121.75Y-97.31
X127.0Y-89.69
X127.0Y-97.31
X128.81Y-79.75
X128.81Y-83.75
X131.75Y-116.537
X131.75Y-124.157
X132.25Y-89.69
X132.25Y-97.31
X132.69Y-79.75
X132.69Y-83.75
X135.75Y-116.537
X135.75Y-124.157
X139.19Y-116.537
X140.31Y-79.75
X140.31Y-83.75
X146.81Y-116.537
X153.2Y-126.95
X153.2Y-129.49
X153.2Y-132.03
X153.2Y-134.57
X158.0Y-78.0
X160.82Y-126.95
X160.82Y-129.49
X160.82Y-132.03
X160.82Y-134.57
X161.5Y-78.0
X164.44Y-126.25
X164.44Y-130.25
X169.0Y-106.5
X169.0Y-114.25
X169.0Y-119.25
X171.5Y-106.5
X172.06Y-126.25
X172.06Y-130.25
T4
X114.0Y-113.25
X124.75Y-103.25
X129.75Y-70.0
X153.92Y-121.23
X156.46Y-121.23
X159.0Y-121.23
X161.54Y-121.23
X164.08Y-121.23
X175.75Y-104.25
X179.25Y-104.25
X182.75Y-104.25
X186.25Y-104.25
T5
X158.0Y-87.35
X158.0Y-90.75
X161.7Y-85.65
X161.7Y-89.05
X161.7Y-92.45
T6
X168.75Y-81.63
X168.75Y-96.87
M30
