%TF.GenerationSoftware,KiCad,Pcbnew,8.0.5*%
%TF.CreationDate,2025-05-01T20:40:53-04:00*%
%TF.ProjectId,CanSat_Power_Management_Board,43616e53-6174-45f5-906f-7765725f4d61,rev?*%
%TF.SameCoordinates,Original*%
%TF.FileFunction,Soldermask,Top*%
%TF.FilePolarity,Negative*%
%FSLAX46Y46*%
G04 Gerber Fmt 4.6, Leading zero omitted, Abs format (unit mm)*
G04 Created by KiCad (PCBNEW 8.0.5) date 2025-05-01 20:40:53*
%MOMM*%
%LPD*%
G01*
G04 APERTURE LIST*
G04 Aperture macros list*
%AMRoundRect*
0 Rectangle with rounded corners*
0 $1 Rounding radius*
0 $2 $3 $4 $5 $6 $7 $8 $9 X,Y pos of 4 corners*
0 Add a 4 corners polygon primitive as box body*
4,1,4,$2,$3,$4,$5,$6,$7,$8,$9,$2,$3,0*
0 Add four circle primitives for the rounded corners*
1,1,$1+$1,$2,$3*
1,1,$1+$1,$4,$5*
1,1,$1+$1,$6,$7*
1,1,$1+$1,$8,$9*
0 Add four rect primitives between the rounded corners*
20,1,$1+$1,$2,$3,$4,$5,0*
20,1,$1+$1,$4,$5,$6,$7,0*
20,1,$1+$1,$6,$7,$8,$9,0*
20,1,$1+$1,$8,$9,$2,$3,0*%
G04 Aperture macros list end*
%ADD10RoundRect,0.102000X0.400000X-0.400000X0.400000X0.400000X-0.400000X0.400000X-0.400000X-0.400000X0*%
%ADD11R,2.000000X2.000000*%
%ADD12C,1.600000*%
%ADD13O,1.600000X1.600000*%
%ADD14R,1.600000X1.600000*%
%ADD15RoundRect,0.102000X0.400000X0.400000X-0.400000X0.400000X-0.400000X-0.400000X0.400000X-0.400000X0*%
%ADD16RoundRect,0.250000X0.337500X0.475000X-0.337500X0.475000X-0.337500X-0.475000X0.337500X-0.475000X0*%
%ADD17R,3.200000X3.200000*%
%ADD18O,3.200000X3.200000*%
%ADD19RoundRect,0.237500X0.250000X0.237500X-0.250000X0.237500X-0.250000X-0.237500X0.250000X-0.237500X0*%
%ADD20RoundRect,0.250000X-0.475000X0.337500X-0.475000X-0.337500X0.475000X-0.337500X0.475000X0.337500X0*%
%ADD21RoundRect,0.237500X0.237500X-0.250000X0.237500X0.250000X-0.237500X0.250000X-0.237500X-0.250000X0*%
%ADD22RoundRect,0.250000X-0.350000X-0.625000X0.350000X-0.625000X0.350000X0.625000X-0.350000X0.625000X0*%
%ADD23O,1.200000X1.750000*%
%ADD24C,1.700000*%
%ADD25R,0.711200X0.228600*%
%ADD26R,1.050000X1.500000*%
%ADD27O,1.050000X1.500000*%
%ADD28R,1.800000X1.800000*%
%ADD29O,1.800000X1.800000*%
%ADD30RoundRect,0.102000X-0.400000X0.400000X-0.400000X-0.400000X0.400000X-0.400000X0.400000X0.400000X0*%
%ADD31RoundRect,0.237500X-0.237500X0.250000X-0.237500X-0.250000X0.237500X-0.250000X0.237500X0.250000X0*%
%ADD32RoundRect,0.102000X-0.750000X-1.800000X0.750000X-1.800000X0.750000X1.800000X-0.750000X1.800000X0*%
%ADD33RoundRect,0.150000X-0.587500X-0.150000X0.587500X-0.150000X0.587500X0.150000X-0.587500X0.150000X0*%
%ADD34RoundRect,0.102000X1.700000X-0.550000X1.700000X0.550000X-1.700000X0.550000X-1.700000X-0.550000X0*%
%ADD35RoundRect,0.250000X-0.250000X-0.250000X0.250000X-0.250000X0.250000X0.250000X-0.250000X0.250000X0*%
%ADD36C,3.000000*%
G04 APERTURE END LIST*
D10*
%TO.C,D5*%
X108525000Y-102762500D03*
X108525000Y-101162500D03*
%TD*%
D11*
%TO.C,TP4*%
X186250000Y-104250000D03*
%TD*%
D12*
%TO.C,R9*%
X135750000Y-124157500D03*
D13*
X135750000Y-116537500D03*
%TD*%
D12*
%TO.C,R1*%
X116500000Y-89690000D03*
D13*
X116500000Y-97310000D03*
%TD*%
D14*
%TO.C,U3*%
X153200000Y-126950000D03*
D13*
X153200000Y-129490000D03*
X153200000Y-132030000D03*
X153200000Y-134570000D03*
X160820000Y-134570000D03*
X160820000Y-132030000D03*
X160820000Y-129490000D03*
X160820000Y-126950000D03*
%TD*%
D11*
%TO.C,TP5*%
X114000000Y-113250000D03*
%TD*%
D12*
%TO.C,Cout5*%
X161500000Y-78000000D03*
D14*
X158000000Y-78000000D03*
%TD*%
D15*
%TO.C,D3*%
X152762500Y-141495000D03*
X151162500Y-141495000D03*
%TD*%
D12*
%TO.C,R6*%
X121190000Y-79750000D03*
D13*
X128810000Y-79750000D03*
%TD*%
D16*
%TO.C,Cin4*%
X175787500Y-77750000D03*
X173712500Y-77750000D03*
%TD*%
D17*
%TO.C,D1*%
X168750000Y-96870000D03*
D18*
X168750000Y-81630000D03*
%TD*%
D19*
%TO.C,R14*%
X148750000Y-141500000D03*
X146925000Y-141500000D03*
%TD*%
D12*
%TO.C,C8*%
X169000000Y-119250000D03*
X169000000Y-114250000D03*
%TD*%
%TO.C,R11*%
X131750000Y-124157500D03*
D13*
X131750000Y-116537500D03*
%TD*%
D20*
%TO.C,C7*%
X144250000Y-110250000D03*
X144250000Y-112325000D03*
%TD*%
D12*
%TO.C,R5*%
X128810000Y-83750000D03*
D13*
X121190000Y-83750000D03*
%TD*%
D21*
%TO.C,R16*%
X108500000Y-98750000D03*
X108500000Y-96925000D03*
%TD*%
D11*
%TO.C,TP3*%
X175750000Y-104250000D03*
%TD*%
%TO.C,TP7*%
X182750000Y-104250000D03*
%TD*%
D12*
%TO.C,R8*%
X140310000Y-83750000D03*
D13*
X132690000Y-83750000D03*
%TD*%
D16*
%TO.C,Cin1*%
X175737500Y-89000000D03*
X173662500Y-89000000D03*
%TD*%
D22*
%TO.C,J5*%
X143250000Y-132550000D03*
D23*
X145250000Y-132550000D03*
%TD*%
D24*
%TO.C,BZ1*%
X153920000Y-121230000D03*
X156460000Y-121230000D03*
X159000000Y-121230000D03*
X161540000Y-121230000D03*
X164080000Y-121230000D03*
%TD*%
D14*
%TO.C,C9*%
X169000000Y-106500000D03*
D12*
X171500000Y-106500000D03*
%TD*%
D25*
%TO.C,TPS610333DRLR_U2*%
X139401598Y-110787498D03*
X139401598Y-111287499D03*
X139401598Y-111787499D03*
X139401598Y-112287500D03*
X141000000Y-112287500D03*
X141000000Y-111787499D03*
X141000000Y-111287499D03*
X141000000Y-110787498D03*
%TD*%
D16*
%TO.C,Cin3*%
X175787500Y-81500000D03*
X173712500Y-81500000D03*
%TD*%
D22*
%TO.C,J3*%
X178500000Y-94200000D03*
D23*
X180500000Y-94200000D03*
X182500000Y-94200000D03*
X184500000Y-94200000D03*
%TD*%
D11*
%TO.C,TP6*%
X124750000Y-103250000D03*
%TD*%
D22*
%TO.C,J1*%
X147500000Y-76200000D03*
D23*
X149500000Y-76200000D03*
%TD*%
D26*
%TO.C,Q1*%
X127710000Y-111000000D03*
D27*
X128980000Y-111000000D03*
X130250000Y-111000000D03*
%TD*%
D28*
%TO.C,U1*%
X161700000Y-92450000D03*
D29*
X158000000Y-90750000D03*
X161700000Y-89050000D03*
X158000000Y-87350000D03*
X161700000Y-85650000D03*
%TD*%
D12*
%TO.C,R12*%
X164440000Y-126250000D03*
D13*
X172060000Y-126250000D03*
%TD*%
D30*
%TO.C,D4*%
X191485000Y-97237500D03*
X191485000Y-98837500D03*
%TD*%
D31*
%TO.C,R15*%
X191500000Y-101250000D03*
X191500000Y-103075000D03*
%TD*%
D32*
%TO.C,WE-LQS_4025_L2*%
X136975000Y-106787500D03*
X140025000Y-106787500D03*
%TD*%
D12*
%TO.C,R13*%
X164440000Y-130250000D03*
D13*
X172060000Y-130250000D03*
%TD*%
D12*
%TO.C,R3*%
X127000000Y-97310000D03*
D13*
X127000000Y-89690000D03*
%TD*%
D12*
%TO.C,R4*%
X132250000Y-97310000D03*
D13*
X132250000Y-89690000D03*
%TD*%
D16*
%TO.C,C6*%
X136037500Y-111037500D03*
X133962500Y-111037500D03*
%TD*%
D12*
%TO.C,R7*%
X132690000Y-79750000D03*
D13*
X140310000Y-79750000D03*
%TD*%
D33*
%TO.C,Q2*%
X130875000Y-102550000D03*
X130875000Y-104450000D03*
X132750000Y-103500000D03*
%TD*%
D12*
%TO.C,R2*%
X121750000Y-97310000D03*
D13*
X121750000Y-89690000D03*
%TD*%
D34*
%TO.C,ASPI-4030S-470M-T_L1*%
X148250000Y-90500000D03*
X148250000Y-87500000D03*
%TD*%
D35*
%TO.C,D2*%
X125000000Y-74750000D03*
X127500000Y-74750000D03*
%TD*%
D12*
%TO.C,R10*%
X139190000Y-116537500D03*
D13*
X146810000Y-116537500D03*
%TD*%
D16*
%TO.C,Cin2*%
X175787500Y-85250000D03*
X173712500Y-85250000D03*
%TD*%
D22*
%TO.C,J2*%
X138750000Y-90700000D03*
D23*
X140750000Y-90700000D03*
%TD*%
D22*
%TO.C,J4*%
X143250000Y-126250000D03*
D23*
X145250000Y-126250000D03*
%TD*%
D11*
%TO.C,TP2*%
X179250000Y-104250000D03*
%TD*%
%TO.C,TP1*%
X129750000Y-70000000D03*
%TD*%
D36*
%TO.C,REF\u002A\u002A*%
X191500000Y-85000000D03*
%TD*%
%TO.C,REF\u002A\u002A*%
X108500000Y-115000000D03*
%TD*%
%TO.C,REF\u002A\u002A*%
X108500000Y-85000000D03*
%TD*%
%TO.C,REF\u002A\u002A*%
X191500000Y-115000000D03*
%TD*%
M02*
